<svg width="1920" height="500" viewBox="0 0 1920 500" fill="none" xmlns="http://www.w3.org/2000/svg">
<path fill-rule="evenodd" clip-rule="evenodd" d="M223 264.881C223 209.652 178.228 164.881 123 164.881C111.679 164.881 100.796 166.762 90.6494 170.229C91.5349 165.918 92 161.454 92 156.881C92 130.492 76.5129 107.72 54.1321 97.1594C59.1514 87.8504 62 77.1983 62 65.8808C62 30.7731 34.5882 2.06771 0 0V96.1994V131.762V141.381V500H1920V379.845V321.881V251.917C1902.43 257.404 1887.97 269.93 1879.92 286.192C1867.65 272.498 1849.83 263.881 1830 263.881C1805.7 263.881 1784.43 276.813 1772.68 296.168C1761.76 288.429 1748.41 283.881 1734 283.881C1697 283.881 1667 313.878 1667 350.881C1667 356.148 1667.61 361.273 1668.76 366.189C1649.33 370.084 1632.94 382.382 1623.54 399.131C1616.21 396.384 1608.28 394.881 1600 394.881C1572.82 394.881 1549.42 411.067 1538.91 434.326C1519.05 395.476 1478.63 368.881 1432 368.881C1412.04 368.881 1393.22 373.754 1376.66 382.375L1376.66 382.374C1361.52 333.434 1315.91 297.881 1262 297.881C1197.74 297.881 1145.27 348.396 1142.15 411.885C1116.94 412.121 1094.23 422.84 1078.18 439.892C1069.86 399.362 1033.99 368.881 991 368.881C967.204 368.881 945.589 378.22 929.621 393.432C923.245 385.437 915.521 378.565 906.792 373.16C893.754 340.197 861.6 316.881 824 316.881C789.392 316.881 759.398 336.634 744.677 365.48C734.236 352.32 718.103 343.881 700 343.881C687.559 343.881 676.049 347.866 666.678 354.63C656.491 339.121 638.942 328.881 619 328.881C587.52 328.881 562 354.401 562 385.881C562 387.375 562.057 388.855 562.17 390.32C560.155 390.031 558.095 389.881 556 389.881C539.963 389.881 525.976 398.66 518.584 411.675C510.876 404.365 500.462 399.881 489 399.881C487.235 399.881 485.494 399.987 483.785 400.194C481.437 369.307 460.129 343.72 431.473 335.044C418.781 294.389 380.837 264.881 336 264.881C311.818 264.881 289.64 273.464 272.348 287.751C266.088 286.524 259.619 285.881 253 285.881C241.201 285.881 229.879 287.924 219.369 291.677C221.736 283.149 223 274.162 223 264.881Z" fill="#B8B8B8"/>
<path d="M1459.35 296.626C1466.21 347.278 1457.21 441.892 1507.53 398.754L1505.72 418.603L1480.56 435.075C1479.96 435.615 1461.73 436.833 1452.69 437.374L1424.95 431.797L1403.61 404.868L1409 399.474C1443.88 438.671 1454.34 349.076 1459.35 296.626Z" fill="#B8B8B8"/>
<path d="M1464.49 290.425L1454.17 290.864L1459.24 273L1464.49 290.425Z" fill="url(#paint0_linear_224:402)"/>
<path d="M971.382 245.044C981.503 319.743 968.223 459.275 1042.45 395.658L1039.76 424.93L1002.67 449.222C1001.77 450.018 974.891 451.814 961.561 452.613L920.661 444.387L889.181 404.674L897.136 396.719C948.578 454.525 964.002 322.395 971.382 245.044Z" fill="#B8B8B8"/>
<path d="M518.292 340.845C522.607 372.693 516.945 432.183 548.591 405.06L547.447 417.54L531.633 427.897C531.25 428.236 519.788 429.002 514.105 429.343L496.667 425.836L483.245 408.904L486.637 405.512C508.569 430.158 515.146 373.824 518.292 340.845Z" fill="#B8B8B8"/>
<path d="M261.736 209.059C266.404 243.514 260.279 307.874 294.514 278.53L293.278 292.032L276.168 303.237C275.754 303.604 263.354 304.432 257.206 304.801L238.341 301.007L222 301.007L227.5 290.5C262 294 258.332 244.738 261.736 209.059Z" fill="#B8B8B8"/>
<path d="M978.564 236.239L963.332 236.216L971.956 210.226L978.564 236.239Z" fill="url(#paint1_linear_224:402)"/>
<path d="M521.354 337.091L514.86 337.081L518.537 326L521.354 337.091Z" fill="url(#paint2_linear_224:402)"/>
<path d="M265.049 204.999L258.023 204.988L262 193L265.049 204.999Z" fill="url(#paint3_linear_224:402)"/>
<path fill-rule="evenodd" clip-rule="evenodd" d="M1699 324.881C1699 269.652 1743.77 224.881 1799 224.881C1810.32 224.881 1821.2 226.762 1831.35 230.229C1830.47 225.918 1830 221.454 1830 216.881C1830 190.492 1845.49 167.72 1867.87 157.159C1862.85 147.85 1860 137.198 1860 125.881C1860 90.7731 1887.41 62.0677 1922 60V156.199V191.762V201.381V500H2V439.845V381.881V311.917C19.568 317.404 34.0282 329.93 42.0798 346.192C54.3474 332.498 72.1674 323.881 92 323.881C116.296 323.881 137.571 336.813 149.318 356.168C160.245 348.429 173.591 343.881 188 343.881C225.003 343.881 255 373.878 255 410.881C255 416.148 254.392 421.273 253.243 426.189C272.671 430.084 289.062 442.382 298.464 459.131C305.787 456.384 313.718 454.881 322 454.881C349.181 454.881 372.582 471.067 383.089 494.326C402.954 455.476 443.371 428.881 490 428.881C509.96 428.881 528.781 433.754 545.34 442.375L545.34 442.374C560.478 393.434 606.087 357.881 660 357.881C724.264 357.881 776.729 408.396 779.853 471.885C805.063 472.121 827.768 482.84 843.819 499.892C852.138 459.362 888.009 428.881 931 428.881C954.796 428.881 976.411 438.22 992.379 453.432C998.755 445.437 1006.48 438.565 1015.21 433.16C1028.25 400.197 1060.4 376.881 1098 376.881C1132.61 376.881 1162.6 396.634 1177.32 425.48C1187.76 412.32 1203.9 403.881 1222 403.881C1234.44 403.881 1245.95 407.866 1255.32 414.63C1265.51 399.121 1283.06 388.881 1303 388.881C1334.48 388.881 1360 414.401 1360 445.881C1360 447.375 1359.94 448.855 1359.83 450.32C1361.84 450.031 1363.9 449.881 1366 449.881C1382.04 449.881 1396.02 458.66 1403.42 471.675C1411.12 464.365 1421.54 459.881 1433 459.881C1434.77 459.881 1436.51 459.987 1438.22 460.194C1440.56 429.307 1461.87 403.72 1490.53 395.044C1503.22 354.389 1541.16 324.881 1586 324.881C1610.18 324.881 1632.36 333.464 1649.65 347.751C1655.91 346.524 1662.38 345.881 1669 345.881C1680.8 345.881 1692.12 347.924 1702.63 351.677C1700.26 343.149 1699 334.162 1699 324.881Z" fill="#24282C"/>
<defs>
<linearGradient id="paint0_linear_224:402" x1="1453.48" y1="278.642" x2="1464.76" y2="290.157" gradientUnits="userSpaceOnUse">
<stop stop-color="#0057FF"/>
<stop offset="1" stop-color="#0241BB"/>
</linearGradient>
<linearGradient id="paint1_linear_224:402" x1="963.108" y1="218.165" x2="978.985" y2="235.861" gradientUnits="userSpaceOnUse">
<stop stop-color="#0057FF"/>
<stop offset="1" stop-color="#0241BB"/>
</linearGradient>
<linearGradient id="paint2_linear_224:402" x1="514.764" y1="329.385" x2="521.534" y2="336.93" gradientUnits="userSpaceOnUse">
<stop stop-color="#0057FF"/>
<stop offset="1" stop-color="#0241BB"/>
</linearGradient>
<linearGradient id="paint3_linear_224:402" x1="257.919" y1="196.662" x2="265.243" y2="204.824" gradientUnits="userSpaceOnUse">
<stop stop-color="#0057FF"/>
<stop offset="1" stop-color="#0241BB"/>
</linearGradient>
</defs>
</svg>
