<svg width="1920" height="460" viewBox="0 0 1920 460" fill="none" xmlns="http://www.w3.org/2000/svg">
<path d="M513.802 283.907C479.026 283.907 450.834 255.734 450.834 220.982C450.834 219.332 450.898 217.698 451.023 216.081C448.797 216.4 446.521 216.566 444.206 216.566C426.49 216.566 411.039 206.874 402.873 192.506C394.358 200.576 382.854 205.526 370.192 205.526C368.242 205.526 366.319 205.409 364.431 205.181C361.838 239.278 338.299 267.525 306.643 277.102C292.622 321.984 250.705 354.559 201.175 354.559C174.461 354.559 149.962 345.083 130.86 329.312C123.944 330.666 116.798 331.376 109.486 331.376C96.4517 331.376 83.9447 329.12 72.3346 324.978C74.9484 334.392 76.3453 344.313 76.3453 354.559C76.3453 403.628 44.31 445.219 0 459.586V122H1920V349.79C1914.66 344.294 1910.16 337.972 1906.72 331.032C1893.17 346.15 1873.49 355.663 1851.58 355.663C1824.74 355.663 1801.24 341.387 1788.26 320.019C1776.19 328.563 1761.45 333.584 1745.53 333.584C1704.65 333.584 1671.51 300.469 1671.51 259.62C1671.51 253.805 1672.19 248.148 1673.45 242.72C1651.99 238.42 1633.89 224.844 1623.5 206.354C1615.41 209.387 1606.65 211.046 1597.5 211.046C1567.47 211.046 1541.62 193.178 1530.02 167.501C1508.07 210.389 1463.42 239.749 1411.91 239.749C1389.86 239.749 1369.07 234.369 1350.78 224.852L1350.78 224.853C1334.06 278.88 1283.67 318.129 1224.12 318.129C1153.12 318.129 1095.17 262.362 1091.72 192.274C1063.87 192.013 1038.78 180.181 1021.05 161.355C1011.86 206.098 972.237 239.749 924.745 239.749C898.458 239.749 874.581 229.439 856.94 212.645C849.897 221.471 841.364 229.058 831.722 235.025C817.319 271.414 781.799 297.154 740.262 297.154C702.032 297.154 668.898 275.348 652.635 243.503C641.101 258.03 623.28 267.347 603.281 267.347C589.538 267.347 576.823 262.947 566.47 255.48C555.218 272.602 535.831 283.907 513.802 283.907Z" fill="#0B4D8F"/>
<path d="M1649.86 187.176C1649.86 225.438 1618.86 256.456 1580.61 256.456C1556.38 256.456 1535.06 244.009 1522.69 225.159C1511.3 233.38 1497.32 238.224 1482.2 238.224C1460.21 238.224 1440.61 227.966 1427.92 211.972C1410.04 247.033 1373.6 271.041 1331.55 271.041C1285.87 271.041 1246.81 242.701 1230.97 202.638C1220.36 196.068 1210.98 187.715 1203.23 177.998C1183.83 196.488 1157.57 207.838 1128.66 207.838C1076.43 207.838 1032.85 170.79 1022.74 121.529C1003.24 142.255 975.657 155.283 945.028 155.57C941.233 232.736 877.492 294.134 799.417 294.134C733.917 294.134 678.506 250.921 660.114 191.438L660.114 191.437C639.996 201.916 617.13 207.838 592.88 207.838C536.23 207.838 487.126 175.514 462.993 128.295C450.227 156.565 421.797 176.237 388.774 176.237C378.712 176.237 369.076 174.411 360.18 171.071C348.757 191.428 328.843 206.375 305.24 211.11C306.636 217.086 307.375 223.315 307.375 229.716C307.375 274.691 270.931 311.15 225.975 311.15C208.469 311.15 192.255 305.622 178.979 296.215C164.708 319.741 138.86 335.459 109.343 335.459C85.2477 335.459 63.5978 324.985 48.6937 308.341C38.9116 328.107 21.3436 343.33 -0.00012207 350V264.964V194.512V121.398H1920V334.164C1867.47 332.279 1823.44 297.032 1808.44 248.964C1773.63 238.42 1747.74 207.32 1744.89 169.78C1742.81 170.031 1740.69 170.16 1738.55 170.16C1724.62 170.16 1711.97 164.71 1702.61 155.825C1693.63 171.644 1676.63 182.314 1657.15 182.314C1654.6 182.314 1652.1 182.132 1649.65 181.78C1649.79 183.561 1649.86 185.36 1649.86 187.176Z" fill="#171717"/>
</svg>
