<svg width="1920" height="500" viewBox="0 0 1920 500" fill="none" xmlns="http://www.w3.org/2000/svg">
<path fill-rule="evenodd" clip-rule="evenodd" d="M223 264.881C223 209.652 178.228 164.881 123 164.881C111.679 164.881 100.796 166.762 90.6494 170.229C91.5349 165.918 92 161.454 92 156.881C92 130.492 76.5129 107.72 54.1321 97.1594C59.1514 87.8504 62 77.1983 62 65.8808C62 30.7731 34.5882 2.06771 0 0V96.1994V131.762V141.381V500H1920V379.845V321.881V251.917C1902.43 257.404 1887.97 269.93 1879.92 286.192C1867.65 272.498 1849.83 263.881 1830 263.881C1805.7 263.881 1784.43 276.813 1772.68 296.168C1761.76 288.429 1748.41 283.881 1734 283.881C1697 283.881 1667 313.878 1667 350.881C1667 356.148 1667.61 361.273 1668.76 366.189C1649.33 370.084 1632.94 382.382 1623.54 399.131C1616.21 396.384 1608.28 394.881 1600 394.881C1572.82 394.881 1549.42 411.067 1538.91 434.326C1519.05 395.476 1478.63 368.881 1432 368.881C1412.04 368.881 1393.22 373.754 1376.66 382.375L1376.66 382.374C1361.52 333.434 1315.91 297.881 1262 297.881C1197.74 297.881 1145.27 348.396 1142.15 411.885C1116.94 412.121 1094.23 422.84 1078.18 439.892C1069.86 399.362 1033.99 368.881 991 368.881C967.204 368.881 945.589 378.22 929.621 393.432C923.245 385.437 915.521 378.565 906.792 373.16C893.754 340.197 861.6 316.881 824 316.881C789.392 316.881 759.398 336.634 744.677 365.48C734.236 352.32 718.103 343.881 700 343.881C687.559 343.881 676.049 347.866 666.678 354.63C656.491 339.121 638.942 328.881 619 328.881C587.52 328.881 562 354.401 562 385.881C562 387.375 562.057 388.855 562.17 390.32C560.155 390.031 558.095 389.881 556 389.881C539.963 389.881 525.976 398.66 518.584 411.675C510.876 404.365 500.462 399.881 489 399.881C487.235 399.881 485.494 399.987 483.785 400.194C481.437 369.307 460.129 343.72 431.473 335.044C418.781 294.389 380.837 264.881 336 264.881C311.818 264.881 289.64 273.464 272.348 287.751C266.088 286.524 259.619 285.881 253 285.881C241.201 285.881 229.879 287.924 219.369 291.677C221.736 283.149 223 274.162 223 264.881Z" fill="#1E2224"/>
<path fill-rule="evenodd" clip-rule="evenodd" d="M1696 324.881C1696 269.652 1740.77 224.881 1796 224.881C1807.32 224.881 1818.2 226.762 1828.35 230.229C1827.47 225.918 1827 221.454 1827 216.881C1827 190.492 1842.49 167.72 1864.87 157.159C1859.85 147.85 1857 137.198 1857 125.881C1857 90.7731 1884.41 62.0677 1919 60V156.199V191.762V201.381V500H-1V439.845V381.881V311.917C16.568 317.404 31.0282 329.93 39.0798 346.192C51.3474 332.498 69.1674 323.881 89 323.881C113.296 323.881 134.571 336.813 146.318 356.168C157.245 348.429 170.591 343.881 185 343.881C222.003 343.881 252 373.878 252 410.881C252 416.148 251.392 421.273 250.243 426.189C269.671 430.084 286.062 442.382 295.464 459.131C302.787 456.384 310.718 454.881 319 454.881C346.181 454.881 369.582 471.067 380.089 494.326C399.953 455.476 440.371 428.881 487 428.881C506.96 428.881 525.781 433.754 542.34 442.375L542.34 442.374C557.478 393.434 603.087 357.881 657 357.881C721.264 357.881 773.729 408.396 776.853 471.885C802.063 472.121 824.768 482.84 840.819 499.892C849.138 459.362 885.009 428.881 928 428.881C951.796 428.881 973.411 438.22 989.379 453.432C995.755 445.437 1003.48 438.565 1012.21 433.16C1025.25 400.197 1057.4 376.881 1095 376.881C1129.61 376.881 1159.6 396.634 1174.32 425.48C1184.76 412.32 1200.9 403.881 1219 403.881C1231.44 403.881 1242.95 407.866 1252.32 414.63C1262.51 399.121 1280.06 388.881 1300 388.881C1331.48 388.881 1357 414.401 1357 445.881C1357 447.375 1356.94 448.855 1356.83 450.32C1358.84 450.031 1360.9 449.881 1363 449.881C1379.04 449.881 1393.02 458.66 1400.42 471.675C1408.12 464.365 1418.54 459.881 1430 459.881C1431.77 459.881 1433.51 459.987 1435.22 460.194C1437.56 429.307 1458.87 403.72 1487.53 395.044C1500.22 354.389 1538.16 324.881 1583 324.881C1607.18 324.881 1629.36 333.464 1646.65 347.751C1652.91 346.524 1659.38 345.881 1666 345.881C1677.8 345.881 1689.12 347.924 1699.63 351.677C1697.26 343.149 1696 334.162 1696 324.881Z" fill="#171717"/>
</svg>
