<svg width="353" height="383" viewBox="0 0 353 383" fill="none" xmlns="http://www.w3.org/2000/svg">
<path d="M329.439 178.22C323.471 202.582 306.643 212.362 294.381 217.606C281.336 223.191 261.968 228.746 232.612 225.023C228.535 224.506 224.265 223.811 219.789 222.91L190.271 196.598L186.711 193.422L156.07 166.091L190.803 161.393L191.541 161.289C191.541 161.289 196.505 166.091 206.729 170.685C208.251 171.365 209.89 172.059 211.649 172.709C221.488 176.388 235.021 179.416 252.394 178.87C292.889 177.614 321.417 139.912 321.417 139.912C321.417 139.912 337.772 144.152 329.439 178.22Z" fill="url(#paint0_linear_369:1228)"/>
<g opacity="0.35">
<path opacity="0.35" d="M328.095 182.947C321.225 203.882 305.816 212.716 294.381 217.621C281.336 223.206 261.968 228.761 232.612 225.038C228.535 224.521 224.265 223.826 219.789 222.925L190.271 196.613L156.07 166.12L171.257 164.067L188.099 179.091L201.78 193.525C210.201 187.941 240.708 222.644 293.332 209.688C309.273 205.743 320.664 196.613 328.095 182.947Z" fill="black"/>
</g>
<path d="M251.213 228.923C241.935 228.923 231.357 227.948 219.257 225.525C217.824 225.23 216.893 223.841 217.174 222.393C217.469 220.96 218.873 220.029 220.306 220.31C257.521 227.8 279.8 220.96 293.332 215.169C305.004 210.175 321.166 200.838 326.854 177.584C332.852 153.104 325.465 145.363 322.185 143.221C315.936 150.8 289.24 180.391 252.483 181.544C210.467 182.844 190.507 164.022 189.68 163.21C188.631 162.19 188.602 160.506 189.621 159.457C190.64 158.408 192.31 158.379 193.374 159.398C193.595 159.62 212.771 177.481 252.321 176.24C291.087 175.029 319.039 138.685 319.304 138.331L320.368 136.927L322.082 137.37C322.85 137.563 340.859 142.674 332.01 178.87C325.761 204.428 308.136 214.622 295.415 220.074C285.68 224.24 271.615 228.923 251.213 228.923Z" fill="black"/>
<path d="M277.82 225.392C277.524 225.392 277.229 225.333 276.934 225.2C253.192 214.814 259.235 179.091 259.501 177.585C259.707 176.373 260.86 175.575 262.071 175.797C263.283 176.004 264.08 177.156 263.874 178.368C263.815 178.707 258.171 212.17 278.721 221.152C279.844 221.64 280.361 222.955 279.859 224.077C279.489 224.89 278.677 225.392 277.82 225.392Z" fill="black"/>
<path d="M299.552 110.785L277.17 176.862C276.771 178.118 277.451 179.462 278.707 179.891L302.33 187.928C303.63 188.371 305.033 187.647 305.432 186.347L328.597 116.872C329.026 115.483 328.154 114.035 326.736 113.77L302.33 109.131C301.118 108.894 299.922 109.618 299.552 110.785Z" fill="#F1F9FF"/>
<path d="M303.231 190.88C302.684 190.88 302.123 190.792 301.591 190.6L277.968 182.563C275.338 181.662 273.92 178.884 274.762 176.225L297.277 109.693C298.045 107.24 300.542 105.748 303.068 106.221L327.474 110.86C328.893 111.126 330.134 111.997 330.887 113.238C331.626 114.479 331.818 115.972 331.389 117.36L308.091 187.29C307.678 188.62 306.776 189.684 305.55 190.319C304.811 190.688 304.028 190.88 303.231 190.88ZM279.888 177.614L303.068 185.503L326.219 116.031L302.256 111.48L279.888 177.614Z" fill="black"/>
<path d="M325.967 146.604C326.529 145.703 327.681 144.728 327.208 144.078C323.175 138.538 315.227 135.731 312.76 143.841C311.666 147.431 313.262 149.234 312.76 150.268C312.76 150.268 310.307 152.351 309.923 155.424C309.642 157.625 310.47 158.911 309.805 160.698C309.805 160.698 303.349 169.37 306.835 178.456C307.914 181.278 309.849 182.475 309.436 185.385L325.967 146.604Z" fill="url(#paint1_linear_369:1228)"/>
<path d="M309.436 188.044C309.317 188.044 309.184 188.03 309.066 188.015C307.618 187.808 306.599 186.464 306.806 185.016C306.939 184.129 306.673 183.642 305.89 182.371C305.417 181.603 304.826 180.628 304.353 179.402C300.793 170.139 306.052 161.496 307.382 159.516C307.441 159.221 307.412 158.881 307.338 158.202C307.249 157.389 307.131 156.37 307.293 155.099C307.633 152.395 309.081 150.327 310.086 149.204C309.805 147.963 309.362 145.91 310.219 143.073C311.932 137.459 315.7 136.322 317.798 136.159C322.569 135.76 328.169 139.542 330.828 144.95C331.478 146.264 330.931 147.86 329.617 148.51C328.302 149.16 326.706 148.613 326.056 147.299C324.387 143.915 320.782 141.256 318.211 141.448C317.709 141.493 316.202 141.611 315.286 144.625C314.813 146.161 315.05 147.151 315.256 148.096C315.463 149.042 315.729 150.209 315.124 151.45L314.872 151.952L314.444 152.307C314.444 152.307 312.775 153.799 312.523 155.764C312.449 156.414 312.509 156.975 312.582 157.625C312.701 158.704 312.848 160.048 312.257 161.644L312.124 161.998L311.903 162.309C311.859 162.383 306.377 169.961 309.288 177.526C309.583 178.294 309.982 178.929 310.396 179.609C311.312 181.101 312.449 182.947 312.051 185.769C311.873 187.099 310.736 188.044 309.436 188.044Z" fill="black"/>
<path d="M290.85 135.982C290.85 135.982 297.853 135.997 296.08 142.926C293.894 151.465 285.606 152.647 285.606 152.647C285.606 152.647 279.933 140.99 290.85 135.982Z" fill="url(#paint2_linear_369:1228)"/>
<path d="M284.32 155.07L283.611 153.622C283.493 153.371 280.568 147.269 282.666 141.404C283.833 138.139 286.27 135.642 289.905 133.973L290.348 133.766H290.836C291.264 133.766 295.046 133.855 297.218 136.647C298.163 137.858 299.094 140.03 298.222 143.487C295.696 153.356 286.315 154.789 285.916 154.848L284.32 155.07ZM291.279 138.242C289.018 139.38 287.571 140.916 286.861 142.911C285.945 145.467 286.477 148.274 286.994 150.002C289.137 149.219 292.712 147.225 293.938 142.394C294.293 141.02 294.219 140.015 293.731 139.38C293.17 138.626 291.988 138.331 291.279 138.242Z" fill="black"/>
<path d="M39.9934 224.343C42.0322 223.974 44.0266 223.664 46.0506 223.353C48.0598 223.058 50.0838 222.777 52.1078 222.526C56.1558 222.039 60.2038 221.654 64.2961 221.507C65.0348 221.477 65.6405 222.053 65.6701 222.792C65.6996 223.472 65.1973 224.048 64.5473 224.151H64.5325C60.6027 224.727 56.6877 225.54 52.8022 226.441C50.8521 226.899 48.9167 227.387 46.9961 227.889C45.0756 228.391 43.1254 228.938 41.2492 229.484H41.2344C39.8309 229.898 38.3535 229.1 37.9251 227.697C37.5114 226.293 38.3092 224.816 39.7127 224.388C39.8013 224.388 39.9048 224.373 39.9934 224.343Z" fill="black"/>
<path d="M185.514 174.881L172.72 152.513C176.561 160.536 180.919 167.996 185.514 174.881Z" fill="url(#paint3_linear_369:1228)"/>
<path d="M305.447 312.262C305.447 312.262 287.054 304.225 267.892 300.28C255.334 297.695 242.437 296.867 234.193 301.226C234.193 301.226 173.902 360.055 116.595 280.572C98.423 255.368 90.6668 235.025 89.8247 218.596C89.7065 216.292 89.7213 214.061 89.869 211.904C90.0168 209.629 90.3122 207.442 90.7407 205.33C91.9078 199.524 94.05 194.323 96.9309 189.67C99.1174 186.139 101.732 182.933 104.657 180.008C131.812 152.913 186.548 150.298 186.548 150.298C187.907 154.154 189.311 157.862 190.788 161.422C193.566 168.189 196.506 174.438 199.534 180.185C200.406 181.839 201.292 183.45 202.179 185.031C212.609 203.572 223.807 216.572 232.612 225.038C242.082 234.153 248.775 238.068 248.775 238.068C294.839 218.611 313.218 256.86 313.218 256.86C313.218 256.86 342.676 226.973 349.472 258.899C354.51 282.507 326.987 320.358 305.447 312.262Z" fill="url(#paint4_linear_369:1228)"/>
<path d="M166.972 245.395C165.056 237.201 170.146 229.006 178.339 227.091C181.295 226.4 184.251 226.621 186.913 227.57L188.628 223.773C185.158 222.465 181.276 222.137 177.394 223.045C166.965 225.483 160.488 235.913 162.925 246.341C165.363 256.769 175.793 263.247 186.222 260.809C196.013 258.52 202.321 249.186 201.038 239.423C200.954 238.787 200.839 238.15 200.69 237.513C200.519 236.783 200.309 236.073 200.063 235.383L189.126 237.94L186.97 242.712L196.966 240.375C197.745 247.894 192.83 254.997 185.276 256.763C177.082 258.678 168.887 253.589 166.972 245.395Z" fill="black"/>
<path fill-rule="evenodd" clip-rule="evenodd" d="M177.658 224.178C167.856 226.469 161.767 236.273 164.058 246.076C166.35 255.879 176.154 261.968 185.957 259.676C195.16 257.525 201.09 248.751 199.884 239.574C199.806 238.977 199.697 238.378 199.557 237.778C199.476 237.434 199.387 237.094 199.288 236.759L189.95 238.943L189.001 241.042L197.987 238.941L198.123 240.255C198.962 248.349 193.672 255.995 185.541 257.896C176.721 259.958 167.9 254.479 165.839 245.66C163.777 236.84 169.255 228.02 178.075 225.958C180.88 225.302 183.689 225.41 186.279 226.146L187.04 224.463C184.09 223.576 180.875 223.426 177.658 224.178ZM161.792 246.606C159.208 235.552 166.075 224.496 177.129 221.912C181.242 220.95 185.359 221.298 189.039 222.684L190.2 223.121L187.531 229.026L186.522 228.666C184.065 227.789 181.336 227.585 178.604 228.224C171.036 229.993 166.335 237.562 168.104 245.13C169.874 252.698 177.443 257.399 185.011 255.63C191.54 254.104 195.937 248.258 195.883 241.823L184.938 244.381L188.302 236.938L200.81 234.014L201.159 234.992C201.42 235.723 201.642 236.475 201.823 237.248C201.98 237.923 202.103 238.598 202.191 239.271C203.552 249.622 196.866 259.516 186.486 261.942C175.432 264.526 164.376 257.66 161.792 246.606Z" fill="black"/>
<g opacity="0.35">
<path opacity="0.35" d="M305.447 312.262C305.447 312.262 255.024 290.205 234.193 301.226C234.193 301.226 173.902 360.055 116.595 280.572C98.423 255.368 90.6668 235.025 89.8247 218.596C89.5735 213.854 89.9133 209.437 90.7406 205.33C91.0657 203.705 91.4646 202.124 91.9373 200.602C91.9078 201.932 91.9373 203.291 91.9964 204.68C92.8385 221.108 100.595 241.451 118.766 266.655C176.074 346.138 232.302 279.272 232.302 279.272C267.537 259.549 288.738 296.941 305.772 301.004C322.806 305.067 343.563 284.354 350.049 263.966C350.728 287.53 325.495 319.796 305.447 312.262Z" fill="black"/>
</g>
<path d="M205.798 189.492C207.733 191.501 209.418 193.629 211.131 195.741C212.904 197.795 214.485 199.996 216.214 202.065C217.056 203.113 217.883 204.177 218.71 205.241C219.552 206.29 220.439 207.309 221.266 208.358C222.95 210.456 224.738 212.45 226.467 214.504C230.027 218.522 233.676 222.452 237.635 226.042C238.625 226.943 239.615 227.845 240.634 228.701L242.156 230.002L243.722 231.243C244.756 232.07 245.835 232.853 246.899 233.636C247.43 234.02 247.977 234.404 248.509 234.759C249.041 235.113 249.617 235.497 250.09 235.778L247.726 235.63C253.606 233.148 259.826 231.272 266.267 230.415C272.693 229.529 279.386 229.795 285.753 231.508C292.136 233.163 298.089 236.384 303.127 240.55C305.654 242.633 307.973 244.953 310.041 247.479C311.09 248.735 312.065 250.035 312.981 251.394C313.439 252.073 313.882 252.753 314.311 253.462C314.533 253.817 314.739 254.171 314.946 254.541C315.153 254.925 315.345 255.25 315.567 255.723L311.282 255.013C312.907 253.403 314.518 252.014 316.217 250.64C317.916 249.281 319.689 247.981 321.55 246.785C323.411 245.588 325.362 244.495 327.459 243.593C329.557 242.692 331.788 241.968 334.226 241.658C336.634 241.363 339.323 241.555 341.76 242.618C344.213 243.652 346.207 245.499 347.611 247.494L348.157 248.247L348.601 249.03C348.881 249.547 349.221 250.064 349.458 250.596C349.93 251.66 350.433 252.724 350.758 253.817L351.289 255.442L351.703 257.067C351.821 257.614 351.999 258.131 352.087 258.707L352.368 260.421C353.003 264.986 352.575 269.521 351.674 273.865C350.713 278.193 349.221 282.345 347.374 286.304C345.513 290.263 343.267 294.031 340.667 297.547C338.067 301.063 335.142 304.343 331.803 307.253C330.104 308.672 328.361 310.06 326.44 311.242C325.509 311.877 324.49 312.394 323.5 312.941C322.998 313.207 322.466 313.429 321.949 313.665C321.432 313.901 320.915 314.153 320.368 314.33L318.743 314.921L317.044 315.379C316.483 315.541 315.906 315.645 315.316 315.733C314.725 315.807 314.163 315.955 313.557 315.97C311.179 316.221 308.756 315.97 306.392 315.379L304.605 314.817L304.383 314.744L304.161 314.64L303.807 314.492L303.098 314.197L300.217 313.03C298.296 312.262 296.346 311.523 294.396 310.814C290.496 309.395 286.566 308.066 282.592 306.854C278.632 305.643 274.629 304.564 270.61 303.634C266.592 302.703 262.544 301.935 258.481 301.536C254.418 301.152 250.4 300.945 246.426 300.96C242.422 300.974 238.64 301.299 234.533 302.038L234.444 302.053C233.957 302.142 233.484 301.817 233.395 301.329C233.336 301.004 233.469 300.679 233.706 300.472C234.548 299.748 235.464 299.01 236.468 298.492C236.971 298.227 237.473 297.931 237.975 297.695L239.556 297.074C240.62 296.631 241.698 296.424 242.791 296.114C243.338 296.01 243.885 295.907 244.431 295.818C244.978 295.73 245.539 295.626 246.086 295.597C250.503 295.124 254.891 295.434 259.146 296.07C263.416 296.72 267.626 297.503 271.792 298.463C275.958 299.423 280.065 300.546 284.128 301.787C288.191 303.028 292.209 304.387 296.198 305.835C298.193 306.559 300.172 307.312 302.152 308.095L305.107 309.292L305.846 309.602L306.215 309.765L306.348 309.824L306.496 309.868L307.722 310.238C309.421 310.636 311.223 310.858 313.04 310.666C313.498 310.666 313.942 310.533 314.4 310.474C314.858 310.4 315.301 310.341 315.759 310.193L317.103 309.839L318.433 309.351C318.876 309.203 319.319 308.997 319.748 308.804C320.176 308.598 320.619 308.42 321.048 308.199C321.89 307.726 322.747 307.298 323.559 306.751C325.229 305.746 326.765 304.491 328.287 303.235C331.271 300.62 333.96 297.621 336.353 294.385C338.747 291.15 340.83 287.678 342.529 284.029C344.228 280.395 345.587 276.598 346.444 272.727C347.241 268.856 347.596 264.912 347.064 261.145L346.828 259.741C346.754 259.283 346.606 258.796 346.503 258.323L346.148 256.89L345.69 255.531C345.424 254.6 345.011 253.772 344.641 252.916C344.464 252.487 344.198 252.118 343.991 251.719L343.666 251.128L343.282 250.611C342.278 249.193 341.051 248.099 339.618 247.494C338.2 246.873 336.545 246.725 334.817 246.932C331.315 247.375 327.696 249.119 324.372 251.246C322.702 252.325 321.077 253.507 319.496 254.762C317.945 256.018 316.364 257.392 315.02 258.722L312.405 261.307L310.736 258.013C310.47 257.495 310.086 256.801 309.716 256.21C309.347 255.59 308.948 254.969 308.534 254.378C307.707 253.167 306.835 251.985 305.89 250.862C304.028 248.587 301.945 246.504 299.685 244.642C295.164 240.934 289.949 238.098 284.306 236.635C278.692 235.128 272.738 234.862 266.887 235.675C261.022 236.458 255.26 238.171 249.72 240.52L248.479 241.052L247.357 240.373C246.662 239.959 246.101 239.575 245.495 239.176C244.889 238.777 244.328 238.364 243.752 237.965C242.614 237.137 241.477 236.31 240.383 235.438L238.743 234.138L237.133 232.794C236.04 231.907 235.006 230.977 233.972 230.061C229.835 226.338 225.861 222.437 222.123 218.316C220.321 216.203 218.459 214.135 216.805 211.904C215.962 210.811 215.091 209.717 214.293 208.58C213.495 207.442 212.697 206.319 211.914 205.167C211.117 204.029 210.378 202.862 209.698 201.651C208.989 200.454 208.295 199.258 207.645 198.031C206.36 195.579 205.207 193.038 204.217 190.438C204.04 189.98 204.276 189.448 204.734 189.285C205.074 189.152 205.458 189.256 205.695 189.507L205.798 189.492Z" fill="black"/>
<path d="M304.472 353.982C301.473 370.204 282.385 383.811 262.293 378.906C249.011 375.67 239.645 366.983 233.824 359.242C227.013 350.186 221.665 340.597 211.915 337.687C200.805 334.363 186.075 356.302 148.033 343.641C136.17 339.696 121.189 329.192 108.07 311.833C103.83 306.234 99.797 299.94 96.1184 292.893C88.1701 277.706 81.8913 259.135 78.9809 237.063C77.7251 227.49 77.0898 217.267 77.2228 206.364C77.2819 201.311 77.5183 196.111 77.9319 190.763C78.4786 183.583 79.3502 176.151 80.5912 168.454L92.7943 184.262L96.9457 189.625L99.93 193.481L118.604 217.68C118.604 217.68 116.974 265.34 133.831 282.799C145.852 295.249 180.461 297.828 180.461 297.828L182.766 300.827C184.761 297.798 187.006 294.947 189.473 292.302C196.978 284.28 206.478 278.282 217.1 275.268C217.322 275.209 217.543 275.135 217.765 275.076C222.744 273.732 228.047 272.993 233.307 273.466C248.332 274.795 262.441 287.737 267.877 300.236C269.414 303.752 270.256 307.224 270.226 310.415C270.182 316.117 270.241 322.367 270.241 322.367C274.673 323.622 307.885 335.456 304.472 353.982Z" fill="url(#paint5_linear_369:1228)"/>
<g opacity="0.35">
<path opacity="0.35" fill-rule="evenodd" clip-rule="evenodd" d="M262.293 378.906C282.385 383.811 301.473 370.204 304.472 353.983C304.959 351.338 304.708 348.827 303.895 346.478C296.642 357.676 281.528 365.166 265.824 361.325C252.557 358.09 243.19 349.403 237.355 341.661C236.207 340.138 235.102 338.599 234.009 337.079C228.617 329.574 223.553 322.527 215.445 320.106C211.604 318.957 207.33 320.828 201.809 323.245C191.363 327.817 176.453 334.344 151.564 326.06C143.394 323.342 133.762 317.521 124.277 308.509L110.227 292.421C91.3168 266.463 76.6908 225.954 81.7139 169.932L80.5911 168.469C71.9189 222.689 80.9752 263.937 96.133 292.893C96.591 293.765 97.049 294.637 97.5217 295.479C98.2161 296.764 98.94 298.035 99.6787 299.276C99.9151 299.689 100.151 300.088 100.403 300.502C100.624 300.871 100.846 301.24 101.082 301.61C101.178 301.772 101.278 301.935 101.378 302.097C101.477 302.26 101.577 302.422 101.673 302.585C102.5 303.885 103.313 305.141 104.155 306.382C104.218 306.473 104.28 306.563 104.342 306.653C104.541 306.941 104.735 307.223 104.938 307.505C105.396 308.155 105.854 308.805 106.312 309.44C106.888 310.252 107.479 311.05 108.07 311.833C121.189 329.192 136.17 339.696 148.033 343.641C172.922 351.924 187.832 345.398 198.278 340.825C203.799 338.409 208.073 336.538 211.914 337.687C220.036 340.111 225.104 347.169 230.506 354.693C231.589 356.202 232.686 357.729 233.824 359.242C239.645 366.983 249.011 375.67 262.293 378.906Z" fill="black"/>
</g>
<path d="M182.027 300.369C186.947 290.618 195.205 282.448 205.06 277.204C206.271 276.524 207.556 275.948 208.812 275.342C210.097 274.81 211.383 274.234 212.712 273.776C215.342 272.816 218.031 272.018 220.808 271.486C223.571 270.94 226.408 270.6 229.259 270.541C230.692 270.511 232.125 270.556 233.558 270.688C234.282 270.777 235.006 270.866 235.73 270.969C236.439 271.117 237.163 271.22 237.872 271.398C243.53 272.712 248.716 275.327 253.281 278.607C257.861 281.902 261.864 285.92 265.203 290.441C268.513 294.976 271.26 300.073 272.442 305.894C272.723 307.357 272.886 308.849 272.886 310.385L272.9 314.389L272.915 322.382L270.965 319.841C272.221 320.195 273.299 320.579 274.422 320.993C275.53 321.392 276.623 321.835 277.717 322.278C279.888 323.179 282.031 324.14 284.143 325.189C288.354 327.301 292.461 329.695 296.243 332.694C298.134 334.186 299.951 335.84 301.591 337.717C303.231 339.593 304.708 341.706 305.772 344.114C306.836 346.507 307.441 349.225 307.323 351.944C307.19 354.721 306.54 357.085 305.668 359.449C303.881 364.147 300.97 368.298 297.439 371.711C293.909 375.138 289.713 377.842 285.177 379.704C280.642 381.565 275.737 382.555 270.817 382.57C268.365 382.584 265.898 382.348 263.49 381.89L261.687 381.506L259.929 381.033L259.057 380.797L258.201 380.516L256.487 379.94C254.226 379.083 252.01 378.093 249.898 376.926C247.785 375.744 245.746 374.459 243.826 373.026C239.985 370.145 236.513 366.806 233.484 363.113C230.441 359.39 227.944 355.593 225.24 352.003C222.566 348.428 219.73 345.104 216.361 342.784C215.948 342.503 215.519 342.208 215.076 341.972C214.633 341.735 214.219 341.454 213.746 341.262C213.288 341.07 212.845 340.819 212.373 340.671L211.663 340.42C211.442 340.346 211.161 340.228 210.999 340.213C209.551 339.8 207.704 340.081 205.739 340.701C203.774 341.336 201.721 342.237 199.638 343.139C197.555 344.055 195.412 344.985 193.211 345.842C188.823 347.541 184.199 348.915 179.442 349.61C177.078 349.994 174.685 350.156 172.291 350.26C171.095 350.26 169.898 350.304 168.701 350.245L166.914 350.171L165.126 350.023C160.384 349.61 155.701 348.694 151.18 347.393C150.042 347.068 148.934 346.699 147.797 346.359C146.674 346.02 145.536 345.547 144.414 345.148C143.291 344.705 142.212 344.188 141.119 343.715C140.041 343.213 138.992 342.636 137.928 342.105C129.581 337.539 122.223 331.556 115.708 324.849L113.3 322.293C112.502 321.436 111.764 320.535 110.981 319.663C109.415 317.92 108.011 316.058 106.549 314.241C105.825 313.325 105.16 312.365 104.465 311.42C103.786 310.474 103.062 309.558 102.441 308.568C101.171 306.618 99.8117 304.712 98.6446 302.688C93.7693 294.74 89.6918 286.334 86.3824 277.647C79.7343 260.258 76.2181 241.821 75.0067 223.368L74.6374 216.439C74.5487 215.287 74.5783 214.12 74.5487 212.968L74.4749 209.496C74.4601 208.343 74.401 207.176 74.4305 206.024L74.5044 202.552L74.6078 199.08L74.6669 197.352L74.7999 195.623C74.9771 193.319 75.1987 191.014 75.4204 188.709C75.509 187.557 75.7306 186.419 75.8931 185.267C76.0556 184.129 76.2329 182.977 76.4397 181.839C76.6466 180.702 76.8091 179.564 77.0455 178.427C77.2966 177.304 77.5478 176.166 77.8432 175.044C78.3899 172.798 79.0104 170.567 79.7195 168.351C79.8672 167.878 80.3843 167.627 80.8423 167.775C81.2117 167.893 81.448 168.233 81.4628 168.617V168.632C81.6105 177.88 80.7832 186.877 80.4434 195.919C80.2809 198.179 80.2957 200.44 80.1923 202.7L80.0593 206.083C80.0002 207.206 80.0298 208.343 80.015 209.466C80.015 211.727 79.9559 213.987 80.0298 216.247L80.3105 223.014C81.4924 241.023 84.9198 258.929 91.3464 275.741C94.5523 284.147 98.4969 292.258 103.18 299.896C104.303 301.846 105.603 303.663 106.829 305.54C107.435 306.485 108.129 307.357 108.779 308.273C109.444 309.174 110.079 310.105 110.774 310.976C112.177 312.72 113.522 314.507 115.014 316.177C115.753 317.019 116.462 317.876 117.23 318.703L119.535 321.141C125.74 327.538 132.757 333.211 140.469 337.421C141.444 337.909 142.404 338.441 143.394 338.913C144.399 339.342 145.374 339.829 146.393 340.213C147.413 340.583 148.388 340.996 149.466 341.321C150.53 341.647 151.579 342.001 152.642 342.297C156.897 343.508 161.241 344.365 165.614 344.734C169.972 345.118 174.36 345.03 178.659 344.365C182.973 343.73 187.169 342.489 191.305 340.893C193.374 340.095 195.427 339.194 197.525 338.278C199.623 337.362 201.765 336.417 204.158 335.634C205.37 335.264 206.626 334.924 208.014 334.792C209.388 334.659 210.91 334.659 212.387 335.087C214.958 335.811 217.248 336.963 219.36 338.396C223.556 341.292 226.688 345.089 229.48 348.797C232.287 352.505 234.829 356.361 237.576 359.715C243.131 366.466 250.223 371.962 258.333 374.932L259.87 375.449L260.638 375.7L261.421 375.907L262.972 376.335L264.524 376.675C266.607 377.074 268.719 377.266 270.832 377.266C275.057 377.251 279.283 376.394 283.198 374.784C287.113 373.174 290.747 370.825 293.776 367.885C296.804 364.945 299.257 361.414 300.734 357.558C301.458 355.652 301.975 353.539 302.049 351.737C302.123 349.875 301.724 348.014 300.941 346.241C299.36 342.666 296.361 339.519 292.993 336.86C289.609 334.186 285.768 331.925 281.809 329.946C279.829 328.956 277.79 328.04 275.737 327.198C274.703 326.784 273.669 326.371 272.634 326.001C271.615 325.632 270.522 325.248 269.591 324.982L267.641 324.42V322.441L267.626 314.404L267.611 310.385C267.597 309.248 267.478 308.081 267.257 306.914C266.311 302.23 263.933 297.65 260.948 293.588C257.964 289.51 254.285 285.905 250.164 282.995C246.057 280.085 241.447 277.883 236.675 276.864C231.962 275.859 226.851 276.081 221.931 277.085C219.464 277.603 216.997 278.253 214.589 279.095C213.377 279.479 212.21 279.981 211.013 280.424C209.846 280.941 208.664 281.414 207.542 282.02C198.367 286.541 190.36 293.277 183.52 301.359C183.194 301.728 182.633 301.787 182.264 301.462C181.924 301.181 181.85 300.723 182.027 300.369Z" fill="black"/>
<path d="M215.667 341.233C215.032 341.233 214.411 340.923 214.027 340.361C202.725 323.815 207.054 303.264 216.361 290.234C224.753 278.489 236.882 273.097 248.007 276.17C249.07 276.465 249.691 277.558 249.395 278.622C249.1 279.686 248.007 280.306 246.943 280.011C237.325 277.351 227.117 282.035 219.597 292.554C211.368 304.062 207.143 323.239 217.307 338.116C217.927 339.017 217.691 340.258 216.79 340.878C216.45 341.115 216.051 341.233 215.667 341.233Z" fill="black"/>
<path d="M272.324 323.253C271.63 324.627 270.935 325.824 270.167 327.05C269.414 328.262 268.616 329.443 267.774 330.596C266.09 332.9 264.243 335.087 262.16 337.052C260.092 339.002 257.772 340.745 255.216 341.986C253.931 342.592 252.601 343.109 251.227 343.405C249.853 343.7 248.45 343.833 247.061 343.774C248.45 343.641 249.794 343.331 251.065 342.873C252.35 342.415 253.547 341.75 254.67 341.026C255.807 340.302 256.841 339.43 257.816 338.5C258.792 337.584 259.707 336.579 260.55 335.53C262.249 333.447 263.696 331.172 264.982 328.808C265.617 327.626 266.223 326.43 266.769 325.203C267.316 323.992 267.848 322.707 268.247 321.554L268.261 321.525C268.66 320.358 269.916 319.737 271.083 320.136C272.25 320.535 272.871 321.791 272.472 322.958C272.413 323.061 272.369 323.165 272.324 323.253Z" fill="black"/>
<path d="M278.352 304.801C277.82 304.801 277.273 304.579 276.889 304.151C264.627 290.781 258.91 277.085 259.885 263.42C261.288 243.859 275.885 231.701 276.505 231.198C277.362 230.504 278.618 230.622 279.312 231.479C280.006 232.336 279.888 233.577 279.031 234.286C278.898 234.404 265.1 245.928 263.844 263.759C262.958 276.273 268.335 288.949 279.814 301.462C280.553 302.275 280.509 303.53 279.696 304.269C279.312 304.624 278.825 304.801 278.352 304.801Z" fill="black"/>
<g opacity="0.35">
<path opacity="0.35" d="M219.789 272.269C219.434 271.516 217.721 267.94 215.047 262.208C217.735 267.94 219.434 271.53 219.789 272.269Z" fill="black"/>
</g>
<g opacity="0.35">
<path opacity="0.35" d="M219.863 272.417C219.863 272.417 219.848 272.372 219.804 272.269C219.833 272.372 219.863 272.417 219.863 272.417Z" fill="black"/>
</g>
<path d="M314.99 258.175C314.015 259.209 313.026 260.362 312.095 261.514C311.164 262.666 310.233 263.848 309.376 265.074C308.52 266.301 307.692 267.542 306.954 268.856C306.23 270.157 305.565 271.516 305.077 272.964C305.195 271.442 305.535 269.935 305.934 268.443C306.348 266.951 306.865 265.488 307.426 264.04C307.988 262.592 308.623 261.174 309.273 259.771C309.938 258.352 310.617 256.993 311.415 255.575C312.021 254.496 313.38 254.112 314.459 254.718C315.537 255.324 315.921 256.683 315.315 257.761C315.227 257.894 315.123 258.042 314.99 258.175Z" fill="black"/>
<path d="M105.455 179.756L99.9151 193.525L94.4045 207.235L92.2032 212.716L89.8394 218.596L85.0528 230.489C82.8367 232.75 80.8127 234.951 78.9808 237.093C53.378 267.025 64.3548 284.842 64.3548 284.842C64.3548 284.842 72.436 292.48 73.219 297.931C73.9873 303.309 68.2255 307.416 68.2255 307.416C68.2255 307.416 73.8395 323.357 64.8276 331.955C58.6817 337.805 38.9145 337.717 32.7982 336.771C17.7143 334.422 4.62476 302.91 3.45764 294.193C-2.90982 246.932 32.9164 215.848 63.8525 198.179C67.0732 196.332 70.2348 194.648 73.2929 193.082C74.8737 192.284 76.4249 191.516 77.9318 190.792C83.4867 188.133 88.5541 185.961 92.7942 184.292C98.7037 181.943 102.988 180.539 104.672 179.993C105.189 179.845 105.455 179.756 105.455 179.756Z" fill="url(#paint6_linear_369:1228)"/>
<g opacity="0.35">
<path opacity="0.35" d="M68.2256 307.401C68.2256 307.401 73.8396 323.342 64.8276 331.94C58.6818 337.791 38.9146 337.702 32.7983 336.756C28.7503 336.121 24.8352 333.388 21.26 329.562C21.4816 329.621 21.7032 329.65 21.9248 329.695C28.0411 330.64 54.8111 330.773 60.9569 324.923C65.4777 320.609 65.8027 316.058 65.0049 312.587C64.2219 309.144 65.6845 305.628 68.7131 303.841C70.9883 302.496 73.0566 300.797 73.293 298.965C73.2634 303.811 68.2256 307.401 68.2256 307.401Z" fill="black"/>
</g>
<g opacity="0.35">
<path opacity="0.35" d="M85.0527 230.474C51.7527 264.365 64.3547 284.827 64.3547 284.827C64.3547 284.827 72.4359 292.465 73.2189 297.916C70.3528 286.718 62.8626 289.554 56.0962 283.527C50.5413 278.563 41.618 245.351 80.8569 226.559C83.3832 225.348 86.1016 227.859 85.0527 230.474Z" fill="black"/>
</g>
<g opacity="0.35">
<path opacity="0.35" d="M73.2191 297.916C73.3078 298.271 73.3373 298.596 73.293 298.906C73.293 298.596 73.2634 298.256 73.2191 297.916Z" fill="black"/>
</g>
<path d="M105.706 180.613C95.35 186.02 84.7573 190.438 74.5191 195.668C64.2218 200.765 54.2791 206.659 45.2081 213.647C36.137 220.606 27.7751 228.539 21.0531 237.684C19.3689 239.959 17.7881 242.308 16.3403 244.731C14.8629 247.139 13.5628 249.651 12.3514 252.192C9.9876 257.303 8.11135 262.637 6.97378 268.133C6.35328 270.866 5.98394 273.658 5.68846 276.45C5.46686 279.242 5.30434 282.064 5.40776 284.871C5.43731 287.678 5.70323 290.5 6.02826 293.292L6.08735 293.824L6.16122 294.282C6.20554 294.578 6.2794 294.903 6.3385 295.228C6.48624 295.863 6.64875 296.528 6.84081 297.192C7.21015 298.522 7.63859 299.852 8.12612 301.181C10.0319 306.485 12.44 311.686 15.2323 316.59C16.6358 319.043 18.1575 321.407 19.8121 323.652C21.4668 325.883 23.2692 327.996 25.2488 329.783C27.2285 331.556 29.4002 333.063 31.6606 333.757L32.0743 333.905L32.5027 333.994C32.7982 334.053 33.0493 334.127 33.3596 334.171C33.9949 334.26 34.6744 334.334 35.354 334.393C36.728 334.511 38.1315 334.57 39.5498 334.599C42.3716 334.644 45.2081 334.555 48.0003 334.334C50.7925 334.097 53.5848 333.728 56.2145 333.078C57.5294 332.753 58.7999 332.369 59.967 331.881C61.1341 331.394 62.1683 330.788 62.907 330.123C64.6355 328.513 65.8765 326.356 66.5413 323.933C67.2357 321.51 67.3834 318.851 67.2061 316.177C67.1175 314.847 66.9402 313.503 66.6743 312.173C66.5413 311.508 66.4083 310.843 66.2311 310.193C66.0686 309.558 65.8765 308.849 65.6992 308.332L65.0787 306.5L66.6595 305.288C66.7481 305.215 66.9697 305.037 67.147 304.904C67.3243 304.757 67.5016 304.594 67.6789 304.432C68.0187 304.107 68.3585 303.752 68.654 303.397C69.2597 302.688 69.762 301.935 70.1018 301.167C70.4416 300.413 70.6189 299.674 70.6336 298.965C70.6336 298.271 70.4268 297.547 70.087 296.69C69.3483 294.991 68.1664 293.218 66.8368 291.564C65.5219 289.909 64.015 288.254 62.5229 286.807L62.2274 286.526L62.0797 286.275L61.8876 285.935L61.7546 285.654L61.4887 285.122C61.3262 284.768 61.208 284.428 61.0603 284.088C60.7796 283.394 60.6023 282.714 60.3807 282.02C60.1886 281.326 60.0557 280.631 59.8931 279.937C59.7306 279.242 59.6863 278.548 59.5829 277.839L59.4499 276.79L59.4056 275.741L59.3318 273.643L59.4499 271.575C59.509 270.881 59.4943 270.186 59.642 269.521L59.967 267.483C60.0852 266.803 60.1591 266.123 60.3511 265.473C60.7057 264.159 61.016 262.829 61.4148 261.529L62.8036 257.717C63.0104 257.067 63.3206 256.476 63.6013 255.87L64.4435 254.039L65.2708 252.207C65.5662 251.601 65.906 251.039 66.2163 250.449L68.1664 246.947C68.846 245.81 69.6438 244.746 70.3825 243.653C70.7518 243.106 71.1507 242.574 71.5348 242.042C71.9337 241.51 72.2883 240.949 72.7463 240.462C74.4896 238.482 76.1885 236.458 78.1239 234.685C80.1331 232.971 82.1571 231.302 84.4027 229.884C84.8311 229.618 85.3925 229.751 85.6585 230.164C85.8358 230.445 85.8357 230.785 85.688 231.065L85.6585 231.11C84.4175 233.474 82.9697 235.571 81.4923 237.625C81.1082 238.127 80.7684 238.659 80.4138 239.191L79.3501 240.742C78.6262 241.776 77.8727 242.766 77.1341 243.771C76.3954 244.775 75.7601 245.839 75.051 246.859L74.002 248.395C73.6622 248.912 73.2486 249.4 72.9531 249.931L71.0325 253.093C70.7223 253.625 70.3825 254.142 70.087 254.689L69.2744 256.343C67.0141 260.701 65.5219 265.414 64.9162 270.127C64.798 270.718 64.8128 271.309 64.7537 271.9L64.6503 273.673L64.7094 275.431L64.7389 276.302L64.8571 277.159C64.9457 277.736 64.9753 278.312 65.1083 278.873C65.2412 279.435 65.3446 279.996 65.4924 280.543C65.6697 281.06 65.8026 281.636 66.0095 282.123C66.1129 282.374 66.2015 282.64 66.3049 282.862L66.4674 283.187L66.5413 283.335L66.5856 283.423L66.1424 282.892C67.9153 284.605 69.4665 286.319 70.9734 288.21C72.4656 290.101 73.8691 292.11 74.9475 294.578C75.4499 295.819 75.9078 297.311 75.9078 298.906C75.8931 300.472 75.5089 301.979 74.918 303.294C74.3271 304.609 73.544 305.746 72.6872 306.766C72.2587 307.283 71.8008 307.756 71.328 308.214C71.0916 308.435 70.8405 308.657 70.5893 308.878C70.3234 309.1 70.1018 309.292 69.7472 309.558L70.7075 306.515C70.9882 307.372 71.1803 308.066 71.3871 308.849C71.5791 309.602 71.7417 310.371 71.8894 311.124C72.1849 312.646 72.3917 314.197 72.4951 315.763C72.702 318.895 72.5542 322.13 71.653 325.322C70.7666 328.513 69.0528 331.6 66.497 333.964C65.0639 335.25 63.5275 336.077 62.0058 336.712C60.4841 337.347 58.9624 337.805 57.4555 338.175C54.4269 338.913 51.4278 339.312 48.414 339.563C45.4149 339.815 42.4159 339.903 39.4168 339.844C37.9099 339.815 36.4177 339.755 34.8813 339.623C34.113 339.563 33.3448 339.49 32.547 339.371C32.1482 339.312 31.6902 339.209 31.2617 339.12L30.6117 338.973L29.9912 338.766C26.6671 337.702 23.9931 335.752 21.6293 333.669C19.295 331.556 17.3006 329.192 15.4834 326.755C13.6663 324.317 12.0559 321.776 10.5638 319.176C7.59427 313.961 5.09752 308.553 3.05875 302.895C2.55644 301.477 2.08368 300.044 1.67002 298.566C1.46318 297.828 1.27112 297.074 1.09384 296.291C1.0052 295.892 0.916557 295.508 0.857462 295.095L0.754044 294.474L0.694955 293.913C0.340386 290.928 0.0596861 287.929 0.0301387 284.93C-0.0732772 281.916 0.104004 278.903 0.340383 275.904C0.665404 272.905 1.0643 269.92 1.72911 266.965C2.95533 261.056 4.96455 255.339 7.49085 249.887C8.79094 247.184 10.1649 244.51 11.7457 241.954C13.2821 239.383 14.9663 236.901 16.7392 234.493C23.8306 224.846 32.5618 216.602 41.9431 209.392C51.3687 202.227 61.4296 195.978 71.8894 190.526C77.1341 187.823 82.5264 185.444 88.037 183.361C89.411 182.844 90.7997 182.357 92.218 181.913L94.3306 181.249L96.458 180.643C99.3094 179.875 102.19 179.21 105.175 178.87C105.662 178.811 106.12 179.165 106.164 179.653C106.209 180.037 106.002 180.377 105.692 180.554L105.706 180.613Z" fill="black"/>
<path d="M211.161 154.464C136.716 265.518 -21.1702 167.657 38.6042 53.6037C112.118 -61.8823 275.22 39.4357 211.161 154.464Z" fill="url(#paint7_linear_369:1228)"/>
<path d="M211.161 154.464C136.716 265.518 -21.1702 167.657 38.6042 53.6037C112.118 -61.8823 275.22 39.4357 211.161 154.464Z" fill="url(#paint8_linear_369:1228)"/>
<g opacity="0.35">
<path opacity="0.35" d="M206.729 170.715C204.409 174.068 202.016 177.215 199.549 180.185C195.456 185.119 191.157 189.536 186.725 193.437C165.924 211.712 141.828 218.907 118.604 217.725C109.592 217.267 100.713 215.538 92.2179 212.702C91.4349 212.436 90.6667 212.184 89.8984 211.904C85.5697 210.338 81.3445 208.506 77.2374 206.393C72.5837 203.985 68.1072 201.237 63.8672 198.179C67.0879 196.332 70.2494 194.648 73.3076 193.082C74.8884 192.284 76.4396 191.516 77.9465 190.792C78.4932 183.612 79.3648 176.181 80.6058 168.484L92.8089 184.292C98.7183 181.943 103.003 180.539 104.687 179.993C131.841 152.898 186.577 150.283 186.577 150.283C187.937 154.139 189.34 157.847 190.818 161.407L191.556 161.304C191.527 161.319 196.491 166.12 206.729 170.715Z" fill="black"/>
</g>
<path d="M211.161 154.464C136.716 265.518 -21.1702 167.657 38.6042 53.6037C112.118 -61.8823 275.22 39.4357 211.161 154.464Z" fill="url(#paint9_linear_369:1228)"/>
<path d="M126.759 205.137C108.646 205.137 90.4304 200.085 74.0316 190.319C52.0336 177.23 35.7382 157.197 28.174 133.913C19.7087 107.882 22.7373 79.7974 36.9348 52.7172L37.0087 52.5843C54.2792 25.4598 77.7693 8.20409 104.953 2.66396C129.064 -2.24091 154.652 2.38325 177.004 15.7091C199.401 29.0645 215.844 49.4523 223.275 73.1197C231.608 99.6533 227.988 128.093 212.801 155.38L212.712 155.513C195.205 181.632 171.789 198.179 144.99 203.394C138.992 204.561 132.875 205.137 126.759 205.137ZM40.2441 54.5492C9.73647 112.846 37.3633 164.111 75.9522 187.069C115.457 210.574 172.07 209.289 209.551 153.459C242.26 94.645 214.618 42.5086 175.084 18.9446C135.933 -4.3831 77.0454 -3.18643 40.2441 54.5492Z" fill="black"/>
<g opacity="0.35">
<path opacity="0.35" d="M211.161 154.449C148.52 251.483 6.38272 190.556 27.8637 81.6589C32.5617 117.559 44.7795 119.627 62.5523 138.73C116.89 201.193 209.536 162.382 224.797 91.188C227.456 113.541 222.389 135.76 211.161 154.449Z" fill="black"/>
</g>
<path d="M126.759 205.906C108.513 205.906 90.1644 200.809 73.6326 190.984C51.4721 177.806 35.0733 157.625 27.4353 134.165C18.9109 107.926 21.9543 79.6496 36.2552 52.3774L36.3734 52.1853C53.7473 24.8835 77.4147 7.50968 104.82 1.92523C129.123 -3.02396 154.903 1.64452 177.418 15.059C199.977 28.5031 216.539 49.0533 224.029 72.8981C232.435 99.6385 228.786 128.285 213.495 155.749L213.377 155.941C195.752 182.223 172.158 198.903 145.152 204.148C139.08 205.315 132.919 205.906 126.759 205.906ZM40.9089 54.9332C10.6524 112.787 38.0576 163.638 76.351 186.419C115.546 209.732 171.715 208.447 208.901 153.075C241.329 94.7188 213.909 42.9961 174.685 19.6241C135.845 -3.54104 77.4295 -2.34438 40.9089 54.9332Z" fill="black"/>
<path d="M126.759 205.906C108.513 205.906 90.1644 200.809 73.6326 190.984C51.4721 177.806 35.0733 157.625 27.4353 134.165C18.9109 107.926 21.9543 79.6496 36.2552 52.3774L36.3734 52.1853C53.7473 24.8835 77.4147 7.50968 104.82 1.92523C129.123 -3.02396 154.903 1.64452 177.418 15.059C199.977 28.5031 216.539 49.0533 224.029 72.8981C232.435 99.6385 228.786 128.285 213.495 155.749L213.377 155.941C195.752 182.223 172.158 198.903 145.152 204.148C139.08 205.315 132.919 205.906 126.759 205.906ZM40.9089 54.9332C10.6524 112.787 38.0576 163.638 76.351 186.419C115.546 209.732 171.715 208.447 208.901 153.075C241.329 94.7188 213.909 42.9961 174.685 19.6241C135.845 -3.54104 77.4295 -2.34438 40.9089 54.9332Z" fill="black"/>
<path d="M195.279 174.541C94.3601 234.508 8.18509 116.791 84.6537 48.1375C174.98 -23.574 276.963 87.4356 195.279 174.541Z" fill="url(#paint10_linear_369:1228)"/>
<path d="M135.18 203.291C121.662 203.291 107.982 200.07 95.2467 193.762C75.1249 183.789 59.1102 167.169 50.1869 146.959C40.3328 124.665 39.8896 100.067 48.8868 75.7937C58.8738 50.8557 80.0593 30.5862 107.007 20.1264C134.057 9.62235 163.531 10.3315 187.863 22.0766L188.07 22.18L188.247 22.313C208.62 36.8355 222.227 59.2767 226.54 85.5148C230.618 110.29 225.831 135.937 213.407 155.852L213.392 155.867C198.663 179.106 178.969 194.559 156.469 200.528C149.54 202.375 142.375 203.291 135.18 203.291ZM145.98 18.0581C133.629 18.0581 121.027 20.3924 108.927 25.0904C83.3391 35.0183 63.2616 54.2094 53.836 77.7143C35.3984 127.369 61.8877 171.306 97.5957 189.005C128.665 204.399 176.458 204.221 208.915 153.031C231.697 116.466 227.649 57.0607 185.351 26.7598C173.237 20.9685 159.763 18.0581 145.98 18.0581Z" fill="black"/>
<path d="M139.701 193.688C133.762 193.688 127.896 193.112 122.135 191.974C100.772 187.719 81.906 175.723 69.0085 158.172C57.1009 141.965 51.3983 122.434 52.9643 103.184C54.6928 81.9101 65.0344 62.1872 82.881 46.1725L82.9992 46.0691C104.377 29.0941 127.941 21.0277 151.121 22.7119C171.966 24.2336 191.335 33.6296 205.65 49.1716C220.306 65.0828 228.166 85.766 227.811 107.409C227.412 131.594 216.834 155.454 197.2 176.373L196.949 176.654L196.624 176.846C177.846 187.985 158.463 193.688 139.701 193.688ZM86.3676 50.1614C48.872 83.875 52.787 127.118 73.2929 155.025C95.8819 185.769 141.828 203.025 193.595 172.458C234.518 128.58 226.54 79.6793 201.75 52.7616C176.827 25.6814 131.486 14.3943 86.3676 50.1614Z" fill="black"/>
<path d="M12.2775 123.823C18.8075 170.508 66.1424 167.893 64.4139 122.7C59.3613 73.5039 8.7466 76.2961 12.2775 123.823Z" fill="url(#paint11_linear_369:1228)"/>
<g opacity="0.35">
<path opacity="0.35" d="M41.9431 157.847C56.1406 157.167 66.5708 139.926 64.1923 120.322C55.136 140.768 33.8028 106.774 32.355 97.0679C-4.15084 106.021 15.8971 159.649 41.9431 157.847Z" fill="black"/>
</g>
<path d="M40.7169 160.373C27.8342 160.373 13.1639 149.382 9.64781 124.178L9.63304 124C7.742 98.4271 20.8758 85.5444 33.8767 84.3921C48.281 83.1068 64.3105 95.7678 67.0436 122.405L67.0584 122.567C68.0039 147.033 55.5053 159.132 42.6966 160.27C42.0465 160.344 41.3817 160.373 40.7169 160.373ZM14.9072 123.528C18.1575 146.53 31.3356 155.971 42.2238 154.996C52.5063 154.08 62.5229 143.797 61.7546 122.863C59.3465 99.6976 46.1536 88.6469 34.3346 89.6811C23.8601 90.6266 13.3117 101.603 14.9072 123.528Z" fill="black"/>
<path d="M10.4158 126.409C15.7491 164.244 51.2503 162.885 49.8468 126.32C45.9022 85.9877 7.32813 87.5094 10.4158 126.409Z" fill="url(#paint12_linear_369:1228)"/>
<path d="M32.4141 156.916C22.3384 156.916 10.7411 147.742 7.78633 126.778L7.77155 126.615C6.08735 105.533 16.1926 94.9552 26.283 94.0688C37.644 93.0641 50.305 103.731 52.4915 126.069L52.5063 126.231C53.2745 146.176 43.7012 155.985 33.8767 156.857C33.3891 156.887 32.9016 156.916 32.4141 156.916ZM13.0605 126.113C15.6902 144.61 25.4409 152.262 33.4039 151.553C40.7169 150.903 47.8083 142.896 47.2025 126.497C45.3263 107.646 35.5018 98.5747 26.7557 99.3578C19.2064 100.023 11.7013 108.68 13.0605 126.113Z" fill="black"/>
<g opacity="0.35">
<path opacity="0.35" d="M51.6199 134.903C52.3882 129.585 51.6938 124.03 49.8914 118.948C42.7557 144.373 17.2563 132.717 11.5832 114.294C5.33396 151.967 43.4353 170.212 51.6199 134.903Z" fill="black"/>
</g>
<path d="M67.5902 255.826C66.6595 255.826 65.7879 255.22 65.4776 254.289C62.0797 243.756 56.5838 236.975 49.1083 234.123C35.7234 229.026 20.0928 238.053 19.9451 238.142C18.8961 238.762 17.537 238.408 16.9165 237.359C16.296 236.31 16.6505 234.951 17.6995 234.33C18.4086 233.917 35.2802 224.136 50.6744 229.972C59.4795 233.311 65.8765 241.037 69.7177 252.93C70.087 254.097 69.4517 255.338 68.2846 255.723C68.0482 255.782 67.8118 255.826 67.5902 255.826Z" fill="black"/>
<path d="M309.569 150.165C310.618 149.352 311.814 148.687 313.114 148.333C314.414 147.963 315.774 147.934 317.015 148.141C318.256 148.347 319.408 148.776 320.442 149.382C321.476 150.002 322.407 150.682 323.22 151.908C323.618 152.514 323.456 153.326 322.835 153.725C322.333 154.065 321.668 153.991 321.24 153.607L321.033 153.415C320.619 153.045 319.822 152.602 319.053 152.395C318.27 152.159 317.458 152.056 316.719 152.115C315.966 152.174 315.286 152.366 314.71 152.706C314.134 153.045 313.646 153.503 313.218 154.035C312.287 155.173 310.588 155.35 309.45 154.405C308.313 153.459 308.136 151.775 309.081 150.637C309.214 150.49 309.347 150.342 309.495 150.224L309.569 150.165Z" fill="black"/>
<path d="M307.22 159.93C308.357 158.719 309.997 157.98 311.445 157.832C312.907 157.67 314.193 157.906 315.36 158.261C316.527 158.615 317.576 159.103 318.566 159.649C319.57 160.225 320.457 160.802 321.402 161.688C321.934 162.176 321.978 163.018 321.476 163.564C321.048 164.022 320.368 164.111 319.851 163.815L319.703 163.727C319.024 163.343 318.093 162.944 317.207 162.678C316.32 162.397 315.404 162.22 314.547 162.146C313.69 162.087 312.893 162.161 312.331 162.382C311.755 162.619 311.504 162.914 311.312 163.298C310.632 164.628 309.007 165.16 307.678 164.48C306.348 163.801 305.816 162.176 306.496 160.846C306.614 160.624 306.747 160.418 306.909 160.24L307.22 159.93Z" fill="black"/>
<path d="M313.498 313.281C311.888 312.01 310.75 309.809 310.499 306.234C309.273 289.008 329.794 245.558 347.241 251.955C348.128 253.846 348.881 256.136 349.472 258.884C353.904 279.641 333.192 311.375 313.498 313.281Z" fill="url(#paint13_linear_369:1228)"/>
<g opacity="0.35">
<path opacity="0.35" d="M344.73 285.787C337.89 299.881 325.509 312.128 313.498 313.281C311.888 312.01 310.75 309.809 310.499 306.234C309.938 298.374 313.912 285.063 320.058 273.51C318.418 280.335 316.571 297.089 324.002 299.201C331.448 301.299 338.687 290.987 344.73 285.787Z" fill="black"/>
</g>
<g opacity="0.7">
<path opacity="0.7" d="M347.36 279.464C348.408 274.515 348.586 269.669 347.655 265.296C347.625 265.163 347.596 265.045 347.566 264.912C346.399 259.652 340.564 256.875 335.777 259.342C325.879 264.454 316.423 280.793 311.711 295.153C316.364 275.298 332.837 246.681 347.227 251.955C348.113 253.846 348.867 256.136 349.457 258.884C350.802 265.119 349.871 272.358 347.36 279.464Z" fill="url(#paint14_linear_369:1228)"/>
</g>
<path d="M312.686 316.029L311.844 315.364C309.48 313.488 308.136 310.474 307.84 306.426C306.836 292.317 319.039 263.213 332.882 252.797C339.485 247.833 344.819 248.247 348.143 249.458L349.162 249.828L349.62 250.818C350.625 252.96 351.437 255.486 352.043 258.337C354.451 269.654 350.152 284.605 340.8 297.384C332.823 308.273 322.954 315.039 313.72 315.925L312.686 316.029ZM343.681 253.979C341.332 253.979 338.791 254.999 336.088 257.037C323.648 266.389 312.258 293.44 313.159 306.056C313.292 308.007 313.735 309.484 314.474 310.489C321.787 309.262 329.956 303.279 336.56 294.252C344.907 282.847 348.97 269.181 346.887 259.46C346.473 257.481 345.942 255.708 345.321 254.171C344.774 254.038 344.228 253.979 343.681 253.979Z" fill="black"/>
<path d="M331.862 265.872C329.114 265.872 327.061 265.754 326.455 265.71C324.992 265.621 323.884 264.351 323.973 262.888C324.062 261.425 325.332 260.317 326.795 260.406C333.192 260.82 344.627 260.495 348.025 257.835C349.177 256.934 350.846 257.141 351.748 258.293C352.649 259.446 352.442 261.115 351.29 262.016C347.123 265.296 337.875 265.872 331.862 265.872Z" fill="black"/>
<path d="M331.906 278.577C324.771 278.577 319.275 276.864 318.876 276.731C317.487 276.288 316.719 274.781 317.162 273.392C317.606 272.003 319.112 271.235 320.501 271.678C320.664 271.723 336.56 276.657 348.069 268.768C349.28 267.94 350.935 268.251 351.762 269.462C352.59 270.674 352.279 272.328 351.068 273.156C344.863 277.396 337.816 278.577 331.906 278.577Z" fill="black"/>
<path d="M327.415 290.618C318.241 290.618 313.602 287.294 313.306 287.087C312.124 286.216 311.888 284.546 312.76 283.379C313.631 282.212 315.271 281.961 316.453 282.818C316.645 282.951 325.731 289.008 344.523 281.71C345.882 281.178 347.434 281.857 347.965 283.216C348.497 284.576 347.818 286.127 346.459 286.659C338.732 289.643 332.409 290.618 327.415 290.618Z" fill="black"/>
<path d="M324.904 304.535C315.951 304.535 309.953 300.384 309.613 300.132C308.416 299.29 308.136 297.621 308.992 296.424C309.835 295.228 311.489 294.947 312.686 295.789C313.1 296.084 322.304 302.319 334.61 297.222C335.969 296.661 337.52 297.311 338.082 298.655C338.643 300.014 338.008 301.565 336.649 302.127C332.379 303.9 328.405 304.535 324.904 304.535Z" fill="black"/>
<path d="M226.5 13.5L325.5 116.5L319 136.5C313.5 136 308.5 142.5 310 149.5C307.312 151.955 307.218 154.587 307.5 159.5C303.463 166.954 302.789 171.018 304.5 180.5L303 185.5L175 217.5L226.5 13.5Z" fill="url(#paint15_radial_369:1228)"/>
<path opacity="0.4" d="M153.5 167.5C165.278 128.408 170.447 106.511 176.5 67.5C186.412 81.4457 192.008 88.4998 203 93.5C203.701 119.967 199.001 134.579 187.5 160.5C175.127 157.707 167.592 159.787 153.5 167.5Z" fill="url(#paint16_linear_369:1228)"/>
<defs>
<linearGradient id="paint0_linear_369:1228" x1="243.937" y1="139.912" x2="243.937" y2="226.232" gradientUnits="userSpaceOnUse">
<stop stop-color="#1B0050"/>
<stop offset="1" stop-color="#B41AFF"/>
</linearGradient>
<linearGradient id="paint1_linear_369:1228" x1="316.561" y1="138.778" x2="316.561" y2="185.385" gradientUnits="userSpaceOnUse">
<stop stop-color="#1B0050"/>
<stop offset="1" stop-color="#B41AFF"/>
</linearGradient>
<linearGradient id="paint2_linear_369:1228" x1="290.25" y1="135.982" x2="290.25" y2="152.647" gradientUnits="userSpaceOnUse">
<stop stop-color="#1B0050"/>
<stop offset="1" stop-color="#B41AFF"/>
</linearGradient>
<linearGradient id="paint3_linear_369:1228" x1="179.117" y1="152.513" x2="179.117" y2="174.881" gradientUnits="userSpaceOnUse">
<stop stop-color="#1B0050"/>
<stop offset="1" stop-color="#B41AFF"/>
</linearGradient>
<linearGradient id="paint4_linear_369:1228" x1="219.911" y1="150.298" x2="219.911" y2="322.18" gradientUnits="userSpaceOnUse">
<stop stop-color="#4503FF"/>
<stop offset="1" stop-color="#9325AF"/>
</linearGradient>
<linearGradient id="paint5_linear_369:1228" x1="190.961" y1="168.454" x2="190.961" y2="379.921" gradientUnits="userSpaceOnUse">
<stop stop-color="#1B0050"/>
<stop offset="1" stop-color="#B41AFF"/>
</linearGradient>
<linearGradient id="paint6_linear_369:1228" x1="54.0853" y1="179.756" x2="54.0853" y2="337.254" gradientUnits="userSpaceOnUse">
<stop stop-color="#1B0050"/>
<stop offset="1" stop-color="#B41AFF"/>
</linearGradient>
<linearGradient id="paint7_linear_369:1228" x1="125.568" y1="2.6543" x2="125.568" y2="203.255" gradientUnits="userSpaceOnUse">
<stop stop-color="#1B0050"/>
<stop offset="1" stop-color="#B41AFF"/>
</linearGradient>
<linearGradient id="paint8_linear_369:1228" x1="125.568" y1="2.6543" x2="125.568" y2="203.255" gradientUnits="userSpaceOnUse">
<stop stop-color="#1B0050"/>
<stop offset="1" stop-color="#B41AFF"/>
</linearGradient>
<linearGradient id="paint9_linear_369:1228" x1="125.568" y1="2.6543" x2="125.568" y2="203.255" gradientUnits="userSpaceOnUse">
<stop stop-color="#1B0050"/>
<stop offset="1" stop-color="#B41AFF"/>
</linearGradient>
<linearGradient id="paint10_linear_369:1228" x1="140.276" y1="25.1294" x2="140.276" y2="191.037" gradientUnits="userSpaceOnUse">
<stop stop-color="#4503FF"/>
<stop offset="1" stop-color="#9325AF"/>
</linearGradient>
<linearGradient id="paint11_linear_369:1228" x1="38.2806" y1="86.9756" x2="38.2806" y2="157.73" gradientUnits="userSpaceOnUse">
<stop stop-color="#1B0050"/>
<stop offset="1" stop-color="#B41AFF"/>
</linearGradient>
<linearGradient id="paint12_linear_369:1228" x1="30.0637" y1="96.6494" x2="30.0637" y2="154.267" gradientUnits="userSpaceOnUse">
<stop stop-color="#1B0050"/>
<stop offset="1" stop-color="#B41AFF"/>
</linearGradient>
<linearGradient id="paint13_linear_369:1228" x1="330.262" y1="251.318" x2="330.262" y2="313.281" gradientUnits="userSpaceOnUse">
<stop stop-color="#1B0050"/>
<stop offset="1" stop-color="#B41AFF"/>
</linearGradient>
<linearGradient id="paint14_linear_369:1228" x1="330.892" y1="251.318" x2="330.892" y2="295.153" gradientUnits="userSpaceOnUse">
<stop stop-color="#1B0050"/>
<stop offset="1" stop-color="#B41AFF"/>
</linearGradient>
<radialGradient id="paint15_radial_369:1228" cx="0" cy="0" r="1" gradientUnits="userSpaceOnUse" gradientTransform="translate(308.5 155.5) rotate(-153.326) scale(118.065 79.5574)">
<stop stop-color="white"/>
<stop offset="1" stop-color="white" stop-opacity="0"/>
</radialGradient>
<linearGradient id="paint16_linear_369:1228" x1="178.284" y1="67.5" x2="178.284" y2="167.5" gradientUnits="userSpaceOnUse">
<stop stop-color="white"/>
<stop offset="1" stop-color="white" stop-opacity="0"/>
</linearGradient>
</defs>
</svg>
