<svg width="151" height="305" viewBox="0 0 151 305" fill="none" xmlns="http://www.w3.org/2000/svg">
<path d="M149.301 78.2051H149.834C150.128 78.2051 150.367 78.4439 150.367 78.7384V113.575C150.367 113.87 150.128 114.108 149.834 114.108H149.301V78.2051Z" fill="#1C3343"/>
<path d="M1.06644 121.573L0.533218 121.573C0.23873 121.573 1.33217e-06 121.335 1.35792e-06 121.04L3.19145e-06 100.067C3.2172e-06 99.7725 0.238733 99.5338 0.53322 99.5338L1.06644 99.5338L1.06644 121.573Z" fill="#1C3343"/>
<path d="M1.06644 92.4243L0.533218 92.4243C0.23873 92.4243 1.33217e-06 92.1855 1.35792e-06 91.891L3.19145e-06 70.9178C3.2172e-06 70.6234 0.238733 70.3846 0.53322 70.3846L1.06644 70.3846L1.06644 92.4243Z" fill="#213744"/>
<path d="M1.06644 59.7203L0.533219 59.7203C0.238732 59.7203 2.28585e-06 59.4815 2.31159e-06 59.1871L3.21282e-06 48.8782C3.23857e-06 48.5837 0.238732 48.345 0.53322 48.345L1.06644 48.345L1.06644 59.7203Z" fill="#213744"/>
<path d="M1.06644 32.3485C1.06644 23.7471 1.06644 19.4464 2.19733 15.9659C4.48293 8.93153 9.99797 3.41649 17.0323 1.13089C20.5129 0 24.8135 0 33.4149 0H116.952C125.554 0 129.854 0 133.335 1.13089C140.369 3.41649 145.884 8.93153 148.17 15.9659C149.301 19.4464 149.301 23.7471 149.301 32.3485V272.652C149.301 281.253 149.301 285.554 148.17 289.034C145.884 296.068 140.369 301.584 133.335 303.869C129.854 305 125.554 305 116.952 305H33.4149C24.8135 305 20.5129 305 17.0323 303.869C9.99797 301.584 4.48293 296.068 2.19733 289.034C1.06644 285.554 1.06644 281.253 1.06644 272.652V32.3485Z" fill="#213744"/>
<path fill-rule="evenodd" clip-rule="evenodd" d="M117.094 0.710947H33.2727C24.776 0.710947 20.612 0.715332 17.252 1.80704C10.4341 4.02232 5.08875 9.36766 2.87348 16.1856C1.78177 19.5455 1.77738 23.7096 1.77738 32.2063V272.794C1.77738 281.29 1.78177 285.454 2.87348 288.814C5.08875 295.632 10.4341 300.978 17.252 303.193C20.612 304.285 24.776 304.289 33.2727 304.289H117.094C125.591 304.289 129.755 304.285 133.115 303.193C139.933 300.978 145.278 295.632 147.494 288.814C148.585 285.454 148.59 281.29 148.59 272.794V32.2063C148.59 23.7096 148.585 19.5455 147.494 16.1856C145.278 9.36766 139.933 4.02232 133.115 1.80704C129.755 0.715332 125.591 0.710947 117.094 0.710947ZM2.5354 16.0757C1.42191 19.5027 1.42191 23.7372 1.42191 32.2063V272.794C1.42191 281.263 1.42191 285.497 2.5354 288.924C4.78584 295.85 10.216 301.281 17.1422 303.531C20.5692 304.645 24.8037 304.645 33.2727 304.645H117.094C125.563 304.645 129.798 304.645 133.225 303.531C140.151 301.281 145.581 295.85 147.832 288.924C148.945 285.497 148.945 281.263 148.945 272.794V32.2063C148.945 23.7372 148.945 19.5027 147.832 16.0757C145.581 9.14959 140.151 3.7194 133.225 1.46896C129.798 0.355469 125.563 0.355469 117.094 0.355469H33.2727C24.8037 0.355469 20.5692 0.355469 17.1422 1.46896C10.216 3.7194 4.78584 9.14959 2.5354 16.0757Z" fill="#8EADC1"/>
<path d="M2.84383 31.6375C2.84383 23.6978 2.84383 19.7279 3.88773 16.5151C5.99751 10.0219 11.0883 4.93106 17.5816 2.82127C20.7944 1.77737 24.7642 1.77737 32.704 1.77737H117.663C125.603 1.77737 129.573 1.77737 132.786 2.82127C139.279 4.93106 144.37 10.0219 146.479 16.5151C147.523 19.7279 147.523 23.6978 147.523 31.6375V273.362C147.523 281.302 147.523 285.272 146.479 288.485C144.37 294.978 139.279 300.069 132.786 302.179C129.573 303.223 125.603 303.223 117.663 303.223H32.704C24.7642 303.223 20.7944 303.223 17.5816 302.179C11.0883 300.069 5.99751 294.978 3.88773 288.485C2.84383 285.272 2.84383 281.302 2.84383 273.362V31.6375Z" fill="#121515"/>
<rect x="117.663" width="2.13287" height="1.77739" fill="#36454C"/>
<rect x="147.523" y="30.5711" width="1.77739" height="2.13287" fill="#36454C"/>
<rect x="1.06644" y="30.5711" width="1.77739" height="2.13287" fill="#36454C"/>
<rect x="1.06644" y="272.296" width="1.77739" height="2.13287" fill="#36454C"/>
<rect x="147.523" y="272.296" width="1.77739" height="2.13287" fill="#36454C"/>
<rect x="30.5711" y="303.223" width="2.13287" height="1.77739" fill="#36454C"/>
<mask id="mask0_116:915" style="mask-type:alpha" maskUnits="userSpaceOnUse" x="7" y="6" width="136" height="293">
<path d="M38.7472 10.3089V8.70923C38.7472 7.62944 37.8719 6.7541 36.7921 6.7541L32.2134 6.75409C25.0556 6.75409 21.4766 6.75409 18.6223 7.83266C14.1359 9.52793 10.5944 13.0695 8.89908 17.5559C7.82051 20.4102 7.82051 23.9891 7.82051 31.147V273.853C7.82051 281.011 7.82051 284.59 8.89908 287.444C10.5944 291.931 14.1359 295.472 18.6223 297.167C21.4766 298.246 25.0556 298.246 32.2134 298.246H118.154C125.312 298.246 128.89 298.246 131.745 297.167C136.231 295.472 139.773 291.931 141.468 287.444C142.547 284.59 142.547 281.011 142.547 273.853V31.147C142.547 23.9891 142.547 20.4102 141.468 17.5559C139.773 13.0695 136.231 9.52793 131.745 7.83266C128.89 6.75409 125.312 6.75409 118.154 6.75409L113.575 6.7541C112.495 6.7541 111.62 7.62944 111.62 8.70923V10.3089L111.595 10.3081L111.62 10.4866C111.62 14.7076 108.198 18.1294 103.977 18.1294H46.3899C42.1689 18.1294 38.7471 14.7076 38.7471 10.4866L38.7726 10.3081L38.7472 10.3089Z" fill="#C4C4C4"/>
</mask>
<g mask="url(#mask0_116:915)">
<rect x="7.82051" y="6.75409" width="134.726" height="291.492" fill="#272727"/>
</g>
<path fill-rule="evenodd" clip-rule="evenodd" d="M90.2914 14.2191C91.862 14.2191 93.1352 12.9459 93.1352 11.3753C93.1352 9.80469 91.862 8.53146 90.2914 8.53146C88.7208 8.53146 87.4476 9.80469 87.4476 11.3753C87.4476 12.9459 88.7208 14.2191 90.2914 14.2191Z" fill="#262C2D"/>
<path fill-rule="evenodd" clip-rule="evenodd" d="M90.2914 13.1527C91.273 13.1527 92.0688 12.3569 92.0688 11.3753C92.0688 10.3937 91.273 9.5979 90.2914 9.5979C89.3097 9.5979 88.514 10.3937 88.514 11.3753C88.514 12.3569 89.3097 13.1527 90.2914 13.1527Z" fill="#121515"/>
<path opacity="0.4" fill-rule="evenodd" clip-rule="evenodd" d="M90.2914 11.0198C90.4877 11.0198 90.6469 10.8607 90.6469 10.6643C90.6469 10.468 90.4877 10.3089 90.2914 10.3089C90.0951 10.3089 89.9359 10.468 89.9359 10.6643C89.9359 10.8607 90.0951 11.0198 90.2914 11.0198Z" fill="#636F73"/>
<path fill-rule="evenodd" clip-rule="evenodd" d="M66.4744 11.3753C66.4744 10.7863 66.9518 10.3089 67.5408 10.3089H82.8263C83.4153 10.3089 83.8928 10.7863 83.8928 11.3753C83.8928 11.9643 83.4153 12.4417 82.8263 12.4417H67.5408C66.9518 12.4417 66.4744 11.9643 66.4744 11.3753Z" fill="#262C2D"/>
<path d="M18 42C18 38.134 21.134 35 25 35H45C48.866 35 52 38.134 52 42V62C52 65.866 48.866 69 45 69H25C21.134 69 18 65.866 18 62V42Z" fill="#121E2E"/>
<path d="M59 42C59 38.134 62.134 35 66 35H86C89.866 35 93 38.134 93 42V62C93 65.866 89.866 69 86 69H66C62.134 69 59 65.866 59 62V42Z" fill="#121E2E"/>
<path d="M100 42C100 38.134 103.134 35 107 35H127C130.866 35 134 38.134 134 42V62C134 65.866 130.866 69 127 69H107C103.134 69 100 65.866 100 62V42Z" fill="#121E2E"/>
<path d="M18 84C18 80.134 21.134 77 25 77H45C48.866 77 52 80.134 52 84V104C52 107.866 48.866 111 45 111H25C21.134 111 18 107.866 18 104V84Z" fill="#121E2E"/>
<path d="M59 84C59 80.134 62.134 77 66 77H86C89.866 77 93 80.134 93 84V104C93 107.866 89.866 111 86 111H66C62.134 111 59 107.866 59 104V84Z" fill="#121E2E"/>
<path d="M100 84C100 80.134 103.134 77 107 77H127C130.866 77 134 80.134 134 84V104C134 107.866 130.866 111 127 111H107C103.134 111 100 107.866 100 104V84Z" fill="#121E2E"/>
<path d="M18 126C18 122.134 21.134 119 25 119H45C48.866 119 52 122.134 52 126V146C52 149.866 48.866 153 45 153H25C21.134 153 18 149.866 18 146V126Z" fill="#121E2E"/>
<path d="M59 126C59 122.134 62.134 119 66 119H86C89.866 119 93 122.134 93 126V146C93 149.866 89.866 153 86 153H66C62.134 153 59 149.866 59 146V126Z" fill="#121E2E"/>
<path d="M100 126C100 122.134 103.134 119 107 119H127C130.866 119 134 122.134 134 126V146C134 149.866 130.866 153 127 153H107C103.134 153 100 149.866 100 146V126Z" fill="#121E2E"/>
<path d="M70.0701 94C70.0701 90.725 72.725 88.0701 76 88.0701C77.1814 88.0701 78.2822 88.4156 79.2067 89.0111L80.1934 87.7241C78.994 86.9211 77.5517 86.4528 76 86.4528C71.8318 86.4528 68.4528 89.8318 68.4528 94C68.4528 98.1682 71.8318 101.547 76 101.547C79.9135 101.547 83.1312 98.5685 83.5099 94.7547C83.5346 94.5065 83.5472 94.2547 83.5472 94C83.5472 93.7083 83.5306 93.4205 83.4984 93.1375H79.1267L77.8868 94.7547H81.8823C81.5116 97.6734 79.0193 99.9299 76 99.9299C72.725 99.9299 70.0701 97.275 70.0701 94Z" fill="url(#paint0_linear_116:915)"/>
<path fill-rule="evenodd" clip-rule="evenodd" d="M76 86.9057C72.0819 86.9057 68.9057 90.0819 68.9057 94C68.9057 97.9181 72.0819 101.094 76 101.094C79.6784 101.094 82.7034 98.2945 83.0593 94.71C83.0825 94.4766 83.0943 94.2398 83.0943 94C83.0943 93.8624 83.0904 93.7258 83.0827 93.5903H79.3501L78.8046 94.3019H82.3963L82.3316 94.8118C81.9325 97.9538 79.2502 100.383 76 100.383C72.4749 100.383 69.6173 97.5251 69.6173 94C69.6173 90.4749 72.4749 87.6173 76 87.6173C77.1214 87.6173 78.1763 87.9068 79.0928 88.4154L79.5302 87.8449C78.4908 87.2474 77.2858 86.9057 76 86.9057ZM68 94C68 89.5817 71.5817 86 76 86C77.6442 86 79.1738 86.4965 80.4453 87.3478L80.8465 87.6164L79.3122 89.6177L78.9615 89.3918C78.1079 88.842 77.0919 88.5229 76 88.5229C72.9751 88.5229 70.5229 90.9751 70.5229 94C70.5229 97.0249 72.9751 99.4771 76 99.4771C78.6099 99.4771 80.7939 97.6513 81.3436 95.2075H76.969L78.9033 92.6846H83.9027L83.9483 93.0863C83.9825 93.3863 84 93.6912 84 94C84 94.2697 83.9866 94.5364 83.9605 94.7995C83.5591 98.8426 80.1486 102 76 102C71.5817 102 68 98.4183 68 94Z" fill="url(#paint1_linear_116:915)"/>
<path d="M114.126 221.465L120.808 221.425L116.974 210.041L114.126 221.465Z" fill="url(#paint2_linear_116:915)"/>
<path d="M62.1137 248.335L68.1366 248.299L64.6812 238.037L62.1137 248.335Z" fill="url(#paint3_linear_116:915)"/>
<path d="M21.1458 179.241L28.8625 179.195L24.4353 166.047L21.1458 179.241Z" fill="url(#paint4_linear_116:915)"/>
<rect opacity="0.21" width="0.877342" height="59.6593" transform="matrix(-0.999939 0.0110815 0.0110815 0.999939 117.707 221.335)" fill="url(#paint5_linear_116:915)"/>
<rect opacity="0.21" width="0.790844" height="53.7774" transform="matrix(-0.999939 0.0110815 0.0110815 0.999939 65.3412 248.217)" fill="url(#paint6_linear_116:915)"/>
<rect opacity="0.21" width="1.01327" height="68.9023" transform="matrix(-0.999939 0.0110815 0.0110815 0.999939 25.2809 179.091)" fill="url(#paint7_linear_116:915)"/>
<rect x="22" y="40" width="24" height="4" rx="2" fill="#2B3D56"/>
<rect x="105" y="82" width="24" height="4" rx="2" fill="#2B3D56"/>
<rect x="22" y="123" width="24" height="4" rx="2" fill="#2B3D56"/>
<rect x="22" y="47" width="20" height="4" rx="2" fill="#2B3D56"/>
<rect x="105" y="89" width="20" height="4" rx="2" fill="#2B3D56"/>
<rect x="22" y="130" width="20" height="4" rx="2" fill="#2B3D56"/>
<rect x="22" y="54" width="25" height="4" rx="2" fill="#2B3D56"/>
<rect x="105" y="96" width="25" height="4" rx="2" fill="#2B3D56"/>
<rect x="22" y="137" width="25" height="4" rx="2" fill="#2B3D56"/>
<defs>
<linearGradient id="paint0_linear_116:915" x1="84" y1="86" x2="68" y2="102" gradientUnits="userSpaceOnUse">
<stop stop-color="#0057FF"/>
<stop offset="1" stop-color="#FC5DA5"/>
</linearGradient>
<linearGradient id="paint1_linear_116:915" x1="84" y1="86" x2="68" y2="102" gradientUnits="userSpaceOnUse">
<stop stop-color="#0057FF"/>
<stop offset="1" stop-color="#FC5DA5"/>
</linearGradient>
<linearGradient id="paint2_linear_116:915" x1="117.341" y1="210.037" x2="117.467" y2="221.462" gradientUnits="userSpaceOnUse">
<stop stop-color="#0057FF"/>
<stop offset="1" stop-color="#0241BB"/>
</linearGradient>
<linearGradient id="paint3_linear_116:915" x1="65.0112" y1="238.033" x2="65.1253" y2="248.332" gradientUnits="userSpaceOnUse">
<stop stop-color="#0057FF"/>
<stop offset="1" stop-color="#0241BB"/>
</linearGradient>
<linearGradient id="paint4_linear_116:915" x1="24.8581" y1="166.043" x2="25.0044" y2="179.238" gradientUnits="userSpaceOnUse">
<stop stop-color="#0057FF"/>
<stop offset="1" stop-color="#0241BB"/>
</linearGradient>
<linearGradient id="paint5_linear_116:915" x1="0.438671" y1="0" x2="0.438671" y2="59.6593" gradientUnits="userSpaceOnUse">
<stop stop-color="white"/>
<stop offset="1" stop-color="white" stop-opacity="0"/>
</linearGradient>
<linearGradient id="paint6_linear_116:915" x1="0.395422" y1="0" x2="0.395422" y2="53.7774" gradientUnits="userSpaceOnUse">
<stop stop-color="white"/>
<stop offset="1" stop-color="white" stop-opacity="0"/>
</linearGradient>
<linearGradient id="paint7_linear_116:915" x1="0.506634" y1="0" x2="0.506634" y2="68.9023" gradientUnits="userSpaceOnUse">
<stop stop-color="white"/>
<stop offset="1" stop-color="white" stop-opacity="0"/>
</linearGradient>
</defs>
</svg>
