<svg width="535" height="520" viewBox="0 0 535 520" fill="none" xmlns="http://www.w3.org/2000/svg">
<path d="M168.378 234.947H29.1046C28.1999 234.947 27.3719 234.579 26.7892 233.966C26.3906 233.567 26.0992 233.046 25.9612 232.479L2.53175 137.411C1.51974 133.302 4.6171 129.346 8.84912 129.346H138.861C143.139 129.346 146.896 132.137 148.169 136.185C148.23 136.384 148.291 136.583 148.337 136.783L171.537 230.93C172.043 232.969 170.479 234.947 168.378 234.947Z" fill="white"/>
<path d="M168.378 237.293H29.12C26.5439 237.293 24.3053 235.545 23.6919 233.031L0.262437 137.963C-0.396901 135.311 0.201099 132.551 1.88778 130.389C3.57445 128.227 6.11981 127 8.84916 127H138.861C144.443 127 149.273 130.787 150.607 136.2L173.806 230.347C174.22 232.034 173.852 233.767 172.779 235.131C171.706 236.511 170.111 237.293 168.378 237.293ZM8.84916 131.692C7.56115 131.692 6.36514 132.275 5.5678 133.287C4.77046 134.299 4.49446 135.602 4.80113 136.844L28.2306 231.911C28.338 232.325 28.6906 232.601 29.12 232.601H168.378C168.762 232.601 168.992 232.387 169.099 232.249C169.206 232.111 169.359 231.85 169.268 231.467L146.068 137.319C145.255 133.992 142.281 131.677 138.861 131.677H8.84916V131.692Z" fill="#201F1F"/>
<path d="M233 255.578L173.599 237.532H27.3515L81.1134 258.21L233 255.578Z" fill="black" stroke="#201F1F" stroke-width="9" stroke-linejoin="round"/>
<path d="M261.849 253.752C255.048 253.314 247.988 251.707 240.691 249.177C218.685 241.534 194.823 225.505 171.321 208.601C155.478 197.201 138.496 196.437 137.483 190.66C136.039 182.349 151.533 184.072 151.533 184.072C151.533 184.072 154.459 180.581 134.402 166.756C118.209 155.583 122.482 144.44 142.043 146.869C178.212 151.366 207.502 173.676 234.487 191.792C241.772 196.675 248.869 201.247 255.912 205.11C266.492 210.895 276.892 215.002 287.438 215.995L269.335 242.698L261.849 253.752Z" fill="url(#paint0_linear)"/>
<g opacity="0.35">
<path opacity="0.35" d="M260.818 253.959C254.058 253.536 247.038 251.958 239.783 249.467C217.902 241.945 194.17 226.137 170.795 209.464C155.037 198.22 138.156 197.489 137.145 191.781C137.005 190.892 137.037 190.14 137.227 189.473C146.251 196.69 165.406 198.423 178.932 208.106C202.283 224.773 228.778 228.113 250.658 235.636C257.398 237.954 263.974 239.496 270.309 240.03L268.247 243.047L260.818 253.959Z" fill="black"/>
</g>
<path d="M248.912 255.299C222.936 248.94 194.469 229.604 169.199 211.412C161.67 205.983 153.812 203.097 147.53 200.765C140.354 198.119 134.701 196.037 133.827 191.035C133.344 188.27 134.053 185.845 135.854 184C138.297 181.494 142.361 180.66 145.797 180.418C143.753 178.234 139.834 174.748 132.353 169.572C123.189 163.263 119.166 156.286 121.271 150.449C123.418 144.526 131.084 141.928 142.286 143.322C175.616 147.487 203.409 166.417 227.948 183.156C248.727 197.337 268.357 210.732 287.659 212.522C289.668 212.701 291.274 214.442 291.17 216.389C291.09 218.343 289.376 219.776 287.348 219.568C266.042 217.577 245.595 203.621 223.926 188.86C198.989 171.856 173.215 154.262 141.749 150.361C133.527 149.335 128.969 151.082 128.24 153.118C127.507 155.176 129.73 159.281 136.418 163.902C148.36 172.143 154.501 178.29 155.274 182.69C155.631 184.726 154.815 185.97 154.446 186.409C153.707 187.287 152.525 187.744 151.314 187.616C148.08 187.257 142.814 187.556 141.34 189.048C141.182 189.202 140.956 189.436 141.077 190.187C141.842 191.24 146.461 192.948 149.84 194.185C156.242 196.546 164.99 199.77 173.423 205.828C202.049 226.455 234.856 248.586 261.933 250.281C263.975 250.42 265.596 252.092 265.564 254.057C265.537 256 263.885 257.496 261.843 257.357C257.629 257.096 253.309 256.375 248.912 255.299Z" fill="black"/>
<path d="M207.635 237.522C207.128 237.402 206.647 237.163 206.216 236.813C204.836 235.669 204.631 233.765 205.775 232.529C220.239 216.706 225.709 186.921 225.749 186.609C226.046 184.973 227.706 183.934 229.465 184.303C231.203 184.642 232.421 186.292 232.124 187.928C231.903 189.211 226.332 219.59 210.755 236.632C209.986 237.488 208.775 237.793 207.635 237.522Z" fill="black"/>
<path d="M388.273 272.686C391.31 273.624 394.265 274.589 397.231 275.626C400.197 276.664 403.154 277.746 406.097 278.895C409.04 280.044 411.97 281.259 414.893 282.637C417.816 284.015 420.696 285.476 423.597 287.34C425.315 288.444 425.86 290.615 424.819 292.16C423.777 293.705 421.514 294.058 419.796 292.955C419.685 292.881 419.598 292.812 419.511 292.744L419.487 292.738C417.287 291.024 414.735 289.433 412.141 287.926C409.523 286.413 406.81 284.993 404.065 283.612C401.319 282.231 398.531 280.934 395.711 279.675C392.89 278.416 390.041 277.173 387.199 276.026L387.175 276.02C386.198 275.614 385.677 274.573 386.033 273.678C386.357 272.821 387.322 272.405 388.273 272.686Z" fill="black"/>
<path d="M336.191 378.001C322.521 385.936 310.713 388.29 305.876 408.562C302.895 421.078 306.212 429.861 296.019 445.445C281.477 467.708 263.026 477.401 237.677 458.292C222.257 446.657 225.662 431.753 234.412 421.094C238.133 416.558 242.797 412.791 247.383 410.373C240.762 399.482 237.187 382.374 247.776 358.162C247.776 358.162 247.723 358.051 247.615 357.829C247.053 356.713 244.89 353.078 239.975 350.33C220.803 339.338 214.252 346.602 206.484 359.921C204.002 364.175 198.782 377.95 190.839 381.694C174.149 389.594 146.379 391.474 131.319 366.362C124.424 354.818 127.08 346.304 134.222 340.628C140.081 335.932 148.975 333.155 158.012 332.149C160.616 280.652 219.557 288.949 219.557 288.949C219.557 288.949 258.563 244.708 273.761 204.25L380.139 238.891C381.948 269.571 380.806 293.146 377.7 311.522C370.583 353.698 352.895 368.32 336.191 378.001Z" fill="url(#paint1_linear)"/>
<path fill-rule="evenodd" clip-rule="evenodd" d="M237.677 458.292C241.665 461.298 245.481 463.591 249.139 465.235C249.139 465.235 263.798 438.785 275.097 415.913C279.171 407.667 279.77 396.658 280.366 385.709C281.359 367.459 282.343 349.377 299.394 344.536C331.441 335.438 347.172 254.531 336.452 224.664L273.761 204.25C258.563 244.708 219.557 288.949 219.557 288.949C219.557 288.949 160.616 280.652 158.012 332.149C148.975 333.155 140.081 335.932 134.222 340.628C127.08 346.304 124.424 354.818 131.319 366.362C146.379 391.474 174.149 389.594 190.839 381.694C197.176 378.707 201.78 369.335 204.643 363.507C205.369 362.03 205.983 360.781 206.484 359.921C214.252 346.602 220.803 339.338 239.975 350.33C244.89 353.078 247.053 356.713 247.615 357.829L247.776 358.162C237.187 382.374 240.762 399.482 247.383 410.373C242.797 412.791 238.133 416.558 234.412 421.094C225.662 431.753 222.257 446.657 237.677 458.292Z" fill="url(#paint2_linear)"/>
<g opacity="0.3">
<path opacity="0.3" d="M262.427 347.794C255.694 350.662 250.899 355.167 247.576 359.428C247.021 358.325 244.882 354.729 240.026 352.014C221.081 341.149 214.611 348.336 206.94 361.515C204.489 365.725 199.334 379.352 191.488 383.059C175 390.882 147.564 392.752 132.679 367.919C125.865 356.502 128.487 348.08 135.541 342.462C136.543 355.739 142.453 368.94 153.524 372.964C168.879 378.572 181.984 381.475 194.115 368.182C207.07 353.98 205.031 332.445 213.344 326.75C221.656 321.054 236.904 326.683 246.614 333.347C256.188 339.928 262.427 347.794 262.427 347.794Z" fill="black"/>
</g>
<g opacity="0.3">
<path opacity="0.3" fill-rule="evenodd" clip-rule="evenodd" d="M326.715 381.355C328.999 380.17 331.369 378.939 333.797 377.535C350.635 367.81 368.464 353.124 375.591 310.734C374.606 310.125 373.701 309.756 372.875 309.628C369.495 309.095 365.299 309.125 365.299 309.125C362.47 327.382 361.644 328.849 352.285 343.103C349.626 347.156 348.867 347.407 348.59 346.496L331.197 362.466C326.387 369.591 317.691 372.141 310.309 374.307C305.359 375.758 301 377.037 298.8 379.405C291.596 387.179 291.623 401.235 291.651 415.203C291.654 417.127 291.658 419.05 291.643 420.954C291.518 436.681 280.376 446.867 269.636 452.315C255.969 459.257 233.865 451.468 229.953 438.705C228.204 432.999 229.549 426.112 231.204 420.822C222.385 431.527 218.953 446.495 234.498 458.177C260.051 477.364 278.65 467.628 293.307 445.269C300.332 434.566 300.99 427.058 301.664 419.362C301.975 415.802 302.291 412.203 303.241 408.229C307.256 391.458 316.041 386.897 326.715 381.355Z" fill="black"/>
</g>
<path d="M259.251 237.628C256.868 242.515 254.32 247.337 251.499 251.994C248.722 256.686 245.769 261.237 242.7 265.735C239.605 270.227 236.428 274.625 233.046 278.9C229.684 283.204 226.199 287.355 222.403 291.406L221.019 292.874L219.166 292.54C217.615 292.355 215.772 292.22 214.041 292.161C212.286 292.096 210.521 292.077 208.766 292.134C205.26 292.226 201.784 292.544 198.362 293.095C191.541 294.204 184.999 296.31 179.432 299.754C176.663 301.468 174.07 303.445 171.907 305.82C169.748 308.172 167.871 310.765 166.4 313.628C163.506 319.366 162.066 325.877 161.688 332.576L161.529 335.419L158.613 335.753C154.62 336.213 150.691 336.982 146.995 338.224C143.305 339.442 139.81 341.075 136.973 343.236C134.136 345.397 132.075 348.14 131.325 351.229C130.576 354.319 131.138 357.755 132.626 361.174C133.402 362.855 134.251 364.554 135.427 366.162L137.066 368.617C137.671 369.401 138.315 370.121 138.954 370.864C140.135 372.449 141.681 373.635 143.086 375.007C143.827 375.629 144.637 376.17 145.412 376.751C145.812 377.045 146.187 377.332 146.592 377.603L147.85 378.327C148.704 378.781 149.509 379.346 150.406 379.713L153.088 380.86C153.985 381.228 154.936 381.461 155.872 381.765C156.331 381.902 156.804 382.091 157.272 382.182L158.725 382.466C160.627 382.933 162.597 383.075 164.552 383.287C166.522 383.307 168.496 383.426 170.461 383.224C174.391 382.944 178.32 382.298 182.055 381.114C183.005 380.859 183.907 380.47 184.838 380.186C185.774 379.879 186.652 379.483 187.553 379.094L188.879 378.516L189.869 377.953C190.522 377.527 191.161 377.049 191.799 376.449C194.314 374.111 196.409 370.839 198.295 367.467C199.24 365.769 200.127 363.984 201.018 362.176L202.397 359.387C202.621 358.929 202.942 358.373 203.196 357.898L203.99 356.554C206.168 353.01 208.404 349.309 212.001 346.088C212.839 345.268 213.931 344.584 214.955 343.858C216.105 343.261 217.241 342.612 218.548 342.249C219.801 341.775 221.161 341.646 222.482 341.457C223.794 341.438 225.168 341.36 226.426 341.596C231.571 342.249 235.964 344.282 240.002 346.422L241.524 347.236C242.046 347.56 242.621 347.872 243.138 348.219C244.221 348.925 245.23 349.735 246.182 350.579C247.152 351.453 248.03 352.402 248.845 353.408C249.25 353.923 249.625 354.455 249.996 355.01C250.167 355.297 250.362 355.589 250.533 355.875L250.792 356.354C250.879 356.546 250.938 356.634 251.075 356.961L251.689 358.309L251.09 359.701C249.415 363.662 247.905 367.688 246.81 371.816C245.739 375.951 244.989 380.139 244.772 384.361C244.554 388.583 244.848 392.808 245.757 396.916C246.636 401.04 248.271 404.985 250.433 408.618L252.306 411.79L249.182 413.49C243.084 416.78 237.713 421.86 234.205 427.716C232.46 430.659 231.233 433.826 230.791 437.04C230.377 440.236 230.725 443.473 232.111 446.403C232.779 447.862 233.633 449.294 234.716 450.61C235.214 451.294 235.858 451.892 236.414 452.542C237.058 453.14 237.672 453.755 238.374 454.319C239.706 455.428 241.306 456.603 242.857 457.643C243.642 458.178 244.432 458.69 245.232 459.155C246.022 459.667 246.851 460.115 247.66 460.534C250.928 462.314 254.351 463.595 257.789 464.318C259.515 464.644 261.246 464.825 262.938 464.826C264.634 464.803 266.341 464.612 267.979 464.257C274.599 462.757 280.409 458.395 285.181 453.118C287.603 450.488 289.8 447.584 291.818 444.562C293.835 441.54 295.628 438.487 296.972 435.251C298.341 432.02 299.193 428.687 299.728 425.154C300.238 421.615 300.393 417.818 300.888 413.86C301.122 411.89 301.487 409.903 301.9 407.928C302.134 406.935 302.411 405.977 302.664 405.013C302.893 404.043 303.224 403.074 303.575 402.134C304.914 398.31 306.78 394.543 309.441 391.263C312.082 387.955 315.416 385.256 318.867 383.1C322.323 380.92 325.838 379.194 329.182 377.426C335.836 373.931 342.124 369.98 347.534 365.202C348.82 363.954 350.219 362.784 351.442 361.472L355.029 357.443L358.245 353.103C358.825 352.415 359.23 351.586 359.697 350.822L361.081 348.499C361.524 347.728 362.041 346.976 362.44 346.17L363.619 343.724L364.798 341.277C365.178 340.442 365.622 339.672 365.909 338.79C367.141 335.355 368.632 332.032 369.537 328.444C373.749 314.332 375.571 299.389 376.437 284.358L376.886 273.036L376.857 261.669C376.842 259.784 376.88 257.888 376.816 255.991L376.575 250.288L376.092 238.883L376.092 238.761C376.018 236.789 377.607 235.2 379.65 235.238C381.693 235.276 383.429 236.9 383.503 238.872L383.981 250.423L384.232 256.201C384.315 258.127 384.267 260.07 384.278 261.978L384.317 273.543L383.844 285.104C382.958 300.472 381.087 315.891 376.661 330.781C375.722 334.532 374.124 338.121 372.795 341.776C372.473 342.699 372.01 343.563 371.596 344.438L370.325 347.082L369.053 349.725C368.615 350.594 368.059 351.411 367.572 352.268L366.042 354.799C365.511 355.622 365.068 356.514 364.444 357.289L360.911 362.04C359.625 363.531 358.265 365.005 356.954 366.491C355.599 367.941 354.074 369.227 352.631 370.607C346.631 375.875 339.88 380.08 332.939 383.724C329.482 385.537 326.104 387.223 323.067 389.115C320.031 391.008 317.399 393.17 315.313 395.785C313.232 398.376 311.668 401.436 310.519 404.72C310.222 405.527 309.92 406.356 309.711 407.233C309.482 408.081 309.224 408.946 309.019 409.8C308.635 411.513 308.319 413.267 308.12 415.075C307.653 418.649 307.484 422.516 306.935 426.486C306.356 430.472 305.309 434.49 303.736 438.207C302.182 441.954 300.126 445.407 297.958 448.66C295.794 451.891 293.421 455.021 290.726 457.974C288.056 460.933 285.048 463.663 281.607 466.018C278.171 468.349 274.217 470.212 269.883 471.199C267.709 471.666 265.476 471.923 263.238 471.96C260.981 471.967 258.723 471.73 256.529 471.312C252.131 470.403 247.956 468.79 244.157 466.733C243.211 466.232 242.246 465.701 241.339 465.136C240.402 464.589 239.524 464.007 238.651 463.401C236.876 462.208 235.208 460.992 233.457 459.56C232.604 458.861 231.799 458.053 230.984 457.291C230.213 456.442 229.404 455.656 228.726 454.732C227.272 452.983 226.052 450.973 225.106 448.884C223.139 444.687 222.64 439.972 223.208 435.665C223.806 431.341 225.404 427.386 227.504 423.846C229.604 420.307 232.216 417.138 235.16 414.344C238.108 411.526 241.437 409.095 245.137 407.097L243.867 411.939C241.271 407.564 239.338 402.838 238.298 398.014C237.233 393.184 236.894 388.313 237.151 383.539C237.407 378.765 238.229 374.105 239.402 369.605C240.605 365.088 242.227 360.772 244.009 356.544L244.02 359.307C244.055 359.389 243.981 359.249 243.967 359.196L243.835 358.968C243.742 358.799 243.65 358.63 243.528 358.478C243.318 358.133 243.054 357.799 242.815 357.472C242.288 356.805 241.703 356.173 241.054 355.598C240.406 355.023 239.728 354.466 238.982 353.989C238.626 353.731 238.231 353.536 237.821 353.289L236.46 352.563C232.895 350.612 229.175 349.038 225.747 348.636C224.889 348.449 224.094 348.571 223.28 348.542C222.529 348.7 221.734 348.7 221.052 349.021C220.32 349.208 219.648 349.604 218.96 349.948C218.322 350.427 217.625 350.817 217.006 351.447C214.457 353.703 212.332 356.992 210.296 360.351L209.541 361.632C209.297 362.06 209.126 362.385 208.883 362.814L207.553 365.492C206.656 367.323 205.726 369.196 204.698 371.044C202.618 374.735 200.352 378.453 196.877 381.703C196.014 382.517 195.01 383.272 193.938 383.986C193.382 384.313 192.773 384.652 192.227 384.933L190.701 385.609C189.687 386.044 188.668 386.502 187.596 386.849C186.548 387.202 185.509 387.631 184.422 387.926C180.166 389.274 175.7 390.033 171.147 390.355C168.875 390.554 166.559 390.474 164.262 390.422C161.956 390.173 159.635 389.994 157.314 389.448L155.593 389.098C155.027 388.983 154.456 388.77 153.876 388.603C152.75 388.228 151.604 387.947 150.492 387.502L147.2 386.083C146.093 385.615 145.108 384.934 144.045 384.379L142.489 383.484C141.997 383.143 141.509 382.779 141.041 382.444C140.09 381.721 139.105 381.04 138.183 380.3C136.476 378.659 134.613 377.151 133.183 375.285C132.422 374.389 131.632 373.511 130.93 372.581L128.993 369.711C127.666 367.846 126.568 365.744 125.582 363.596C124.63 361.408 123.913 359.082 123.58 356.63C123.243 354.202 123.29 351.649 123.899 349.233C124.483 346.812 125.574 344.539 126.982 342.589C128.396 340.615 130.101 338.958 131.934 337.552C135.629 334.722 139.792 332.838 144.033 331.437C148.299 330.043 152.686 329.166 157.123 328.669L154.043 331.87C154.44 324.467 156.036 316.969 159.48 310.193C161.21 306.832 163.456 303.695 166.044 300.886C168.637 298.054 171.693 295.703 174.959 293.696C181.495 289.659 188.939 287.287 196.472 286.084C200.24 285.471 204.058 285.114 207.895 285.031C209.801 284.987 211.722 284.995 213.658 285.055C215.613 285.145 217.461 285.257 219.563 285.505L216.35 286.645L226.33 274.122C229.669 269.935 232.987 265.718 236.281 261.495C239.6 257.278 242.831 252.99 246.062 248.703L255.695 235.753L255.7 235.73C256.275 234.943 257.436 234.788 258.279 235.411C259.352 235.919 259.616 236.863 259.251 237.628Z" fill="black"/>
<path d="M357.451 204.555C357.389 204.075 357.331 203.572 357.247 203.062L357.752 204.386L357.451 204.555Z" fill="url(#paint3_linear)"/>
<path d="M282.917 396.883C262.871 392.014 242.057 381.329 240.301 366.661C240.112 365.04 241.306 363.661 242.984 363.567C244.663 363.474 246.166 364.698 246.355 366.318C248.309 382.561 285.645 395.017 307.189 393.929C308.868 393.835 310.366 395.082 310.555 396.702C310.744 398.323 309.526 399.697 307.847 399.79C300.899 400.082 291.983 399.085 282.917 396.883Z" fill="black"/>
<path d="M219.597 349.911C219.549 349.899 219.476 349.881 219.404 349.864C207.588 346.232 181.22 329.569 173.561 313.215C171.051 307.846 170.84 303.019 172.92 298.9C173.654 297.456 175.49 296.938 177.027 297.728C178.564 298.517 179.203 300.323 178.469 301.767C177.209 304.269 177.424 307.376 179.127 311.019C185.658 324.988 210.174 340.904 220.942 344.205C222.59 344.708 223.562 346.377 223.133 347.944C222.767 349.454 221.168 350.297 219.597 349.911Z" fill="black"/>
<path d="M263.366 347.804C263.224 347.867 262.76 347.997 262.448 348.141C262.106 348.301 261.769 348.439 261.422 348.622C260.733 348.967 260.079 349.393 259.425 349.819C258.136 350.701 256.964 351.759 255.856 352.88C254.747 354.002 253.766 355.253 252.809 356.51L251.447 358.475L250.198 360.516L250.125 360.62C249.105 362.301 246.824 362.769 245.021 361.69C243.218 360.611 242.607 358.382 243.627 356.701C243.739 356.533 243.856 356.341 243.988 356.202L245.824 354.183L247.772 352.24C249.134 351.01 250.521 349.785 252.054 348.718C253.587 347.652 255.179 346.673 256.937 345.882C257.816 345.487 258.71 345.144 259.643 344.859C260.111 344.705 260.6 344.581 261.083 344.479C261.62 344.367 262.021 344.294 262.754 344.229C263.77 344.161 264.673 344.872 264.825 345.863C264.938 346.673 264.479 347.392 263.732 347.649L263.366 347.804Z" fill="black"/>
<g opacity="0.35">
<path opacity="0.35" d="M307.753 341.298C307.758 341.519 307.768 341.716 307.773 341.936C308.108 342.043 308.302 342.091 308.302 342.091C308.098 341.846 307.923 341.584 307.753 341.298Z" fill="black"/>
</g>
<path d="M371.616 236.126C371.616 236.126 396.633 248.377 418.926 263.495C432.346 272.601 456.086 289.611 460.462 315.279C464.486 338.957 449.8 362.548 449.8 362.548L414.063 350.174C414.063 350.174 411.415 314.539 368.267 305.052" fill="url(#paint4_linear)"/>
<g opacity="0.3">
<path opacity="0.3" d="M448.809 362.561L413.442 350.337C413.442 350.337 410.812 315.078 368.114 305.715C361.255 303.043 354.02 306.288 354.75 303.523C356.143 298.313 365.753 296.784 364.47 293.959C361.316 287.127 359.986 279.318 362.972 280.412C389.766 290.292 398.121 317.179 422.366 324.72C446.611 332.26 454.127 344.869 454.127 344.869C454.127 344.869 456.488 341.08 459.05 334.998C456.317 350.499 448.809 362.561 448.809 362.561Z" fill="black"/>
</g>
<path d="M451.55 366.884L410.536 352.701L410.36 350.242C410.257 348.9 407.281 317.282 367.632 308.558C365.583 308.078 364.239 306.186 364.593 304.249C364.948 302.311 366.865 301.099 368.894 301.549C407.535 310.074 415.767 338.837 417.391 347.58L447.955 358.144C451.373 351.715 459.838 333.522 456.799 315.649C452.521 290.493 427.554 273.596 416.914 266.368C395.136 251.597 370.333 239.423 370.104 239.294C368.225 238.368 367.397 236.213 368.253 234.447C369.108 232.682 371.298 232 373.177 232.926C373.43 233.061 398.696 245.47 420.97 260.559C432.443 268.332 459.332 286.557 464.151 314.871C468.351 339.543 453.665 363.501 453.043 364.519L451.55 366.884Z" fill="black"/>
<path d="M397.084 322.621C395.7 322.284 394.628 321.088 394.563 319.671C394.522 318.505 393.47 290.954 408.769 277.645C415.352 271.922 423.899 269.703 434.167 271.026C435.911 271.255 437.201 272.775 437.059 274.437C436.917 276.098 435.4 277.253 433.656 277.025C425.261 275.937 418.374 277.675 413.159 282.207C399.874 293.721 400.837 319.479 400.857 319.755C400.922 321.418 399.574 322.761 397.84 322.732C397.583 322.719 397.331 322.682 397.084 322.621Z" fill="black"/>
<path d="M466.039 355.178C462.167 362.277 454.794 367.642 444.57 365.857C429.987 363.29 413.607 354.729 413.607 354.729C413.607 354.729 404.453 356.577 395.557 351.238C390.408 348.153 388.511 343.734 389.398 339.248C390.535 333.562 396.139 327.786 405.374 324.576C421.876 318.812 420.425 307.398 432.972 307.063C445.519 306.729 467.359 328.926 468.965 340.572C469.605 345.167 468.584 350.542 466.039 355.178Z" fill="url(#paint5_linear)"/>
<g opacity="0.3">
<path opacity="0.3" d="M465.316 355.399C461.483 362.407 454.181 367.71 444.05 365.96C429.599 363.444 413.363 355.016 413.363 355.016C413.363 355.016 404.295 356.85 395.477 351.592C390.373 348.555 388.49 344.197 389.366 339.77C390.724 342.182 393.198 344.794 397.745 346.523C408.42 350.607 416.578 344.101 412.862 340.206C412.862 340.206 409.327 335.804 416.731 335.67C424.135 335.536 424.38 332.558 427.969 334.173C431.582 335.795 442.333 343.126 447.502 348.739C451.54 353.144 460.356 356.966 465.316 355.399Z" fill="black"/>
</g>
<path d="M439.263 368.793C427.896 365.998 416.765 360.738 413.06 358.881C409.703 359.244 401.53 359.419 393.485 354.602C387.767 351.182 384.693 345.937 385.043 340.248C385.551 332.099 392.7 324.661 403.754 320.803C410.915 318.293 414.153 314.721 417.266 311.265C420.809 307.332 424.482 303.26 432.612 303.051C447.449 302.623 471.155 326.431 473.092 340.277C474.257 348.692 470.78 358.271 464.399 364.103C458.951 369.12 451.712 371.15 444.061 369.803C442.465 369.532 440.859 369.185 439.263 368.793ZM414.013 350.55L415.391 351.253C415.551 351.34 431.355 359.545 445.092 361.952C450.291 362.866 454.803 361.598 458.515 358.191C463.083 353.976 465.71 346.882 464.87 340.925C463.526 331.179 443.454 310.788 433.274 311.076C428.593 311.211 426.833 313.18 423.595 316.752C420.187 320.524 415.948 325.232 406.926 328.377C397.845 331.555 393.534 337.095 393.285 341.207C393.112 343.858 394.545 346.127 397.529 347.904C404.781 352.259 412.446 350.868 412.528 350.84L414.013 350.55Z" fill="black"/>
<path d="M408.13 334.666C409.002 334.83 409.617 334.98 410.342 335.231C411.046 335.452 411.736 335.744 412.42 336.058C413.785 336.711 415.1 337.598 416.243 338.81C417.392 340 418.294 341.497 418.767 343.062C419.009 343.882 419.152 344.556 419.261 345.27C419.369 345.984 419.424 346.71 419.454 347.429C419.484 348.886 419.327 350.37 418.88 351.881C418.437 353.37 417.626 354.89 416.4 356.162C415.199 357.441 413.599 358.4 411.979 358.962C410.334 359.518 408.679 359.752 407.089 359.805L406.961 359.798C404.641 359.87 402.576 358.113 402.373 355.877C402.17 353.642 403.888 351.753 406.208 351.682C406.415 351.683 406.646 351.691 406.823 351.71C408.67 351.915 410.084 351.721 411.064 351.002C412.088 350.319 412.909 348.752 413.15 346.871C413.223 346.397 413.243 345.936 413.243 345.444C413.242 344.953 413.217 344.456 413.163 344.099C413.044 343.308 412.758 342.575 412.261 341.864C411.763 341.153 411.044 340.511 410.206 339.938C409.388 339.394 408.304 338.884 407.457 338.603L407.24 338.525C406.127 338.155 405.491 336.993 405.816 335.942C406.136 335.038 407.13 334.495 408.13 334.666Z" fill="black"/>
<path d="M430.332 315.839C428.898 317.959 427.58 320.373 426.949 322.666C426.283 324.999 426.415 327.164 427.498 328.666C428.015 329.472 428.779 330.193 429.736 330.84C430.93 331.691 432.133 332.496 433.356 333.329C435.777 334.991 438.392 336.579 440.939 338.732C441.567 339.25 442.2 339.866 442.776 340.395C443.259 340.877 443.796 341.348 444.303 341.837C445.347 342.796 446.43 343.692 447.537 344.595C449.726 346.393 452.027 348.025 454.332 349.391C456.618 350.729 459.116 351.779 460.976 351.872C461.908 351.908 462.551 351.751 463.14 351.362C463.71 350.945 464.313 350.245 464.767 349.29L464.81 349.204C465.52 347.754 467.341 347.184 468.882 347.95C470.38 348.682 471.067 350.378 470.488 351.811C469.851 353.399 468.862 355.095 467.167 356.399C465.472 357.704 463.168 358.276 461.173 358.222C459.148 358.185 457.337 357.74 455.689 357.117C454.036 356.517 452.543 355.762 451.113 354.95C448.276 353.332 445.724 351.444 443.317 349.471C442.099 348.493 440.949 347.435 439.822 346.383C439.247 345.853 438.701 345.307 438.131 344.755C437.628 344.244 437.207 343.825 436.69 343.383C434.713 341.661 432.292 340 429.866 338.24C428.653 337.36 427.416 336.474 426.212 335.548C424.767 334.442 423.384 333.036 422.427 331.298C421.44 329.577 421.048 327.566 421.095 325.76C421.172 323.936 421.688 322.318 422.324 320.851C423.719 317.946 425.64 315.679 428.055 313.728C428.697 313.207 429.663 313.324 430.239 313.974C430.712 314.502 430.761 315.241 430.399 315.758L430.332 315.839Z" fill="black"/>
<path d="M231.807 166.15C267.63 292.696 451.176 266.63 430.431 143.074C396.943 12.9901 207.269 40.0857 231.807 166.15Z" fill="url(#paint6_linear)"/>
<path d="M231.807 166.15C267.63 292.696 451.176 266.63 430.431 143.074C396.943 12.9901 207.269 40.0857 231.807 166.15Z" fill="url(#paint7_linear)"/>
<path d="M231.807 166.15C267.63 292.696 451.176 266.63 430.431 143.074C396.943 12.9901 207.269 40.0857 231.807 166.15Z" fill="url(#paint8_linear)"/>
<path d="M310.166 248.277C299.311 245.5 288.903 241.131 279.34 235.247C255.056 220.284 237.72 196.544 229.225 166.603L229.188 166.401C223.339 136.296 229.065 109.633 245.753 89.2352C260.656 71.0496 283.211 59.2454 309.26 56.0039C335.255 52.7728 361.586 58.4989 383.36 72.1707C407.92 87.5651 425.099 111.962 433.018 142.717L433.055 142.919C444.14 208.935 399.015 245.209 352.389 250.976C338.175 252.725 323.827 251.772 310.166 248.277ZM234.406 165.789C252.348 228.943 306.018 251.568 351.293 245.96C395.506 240.489 438.32 206.076 427.84 143.388C411.137 78.8196 355.268 55.416 310.409 61.0101C265.105 66.6343 222.004 101.84 234.406 165.789Z" fill="black"/>
<g opacity="0.35">
<path opacity="0.35" d="M231.579 167.805C260.164 276.026 414.66 276.28 428.962 173.177C413.061 202.739 400.801 199.959 377.822 209.964C306.284 244.066 230.631 175.376 238.803 107.498C229.147 125.966 226.868 147.257 231.579 167.805Z" fill="black"/>
</g>
<path d="M309.971 249.262C298.993 246.453 288.466 242.03 278.814 236.074C254.277 220.95 236.751 196.994 228.208 166.776L228.135 166.493C222.213 136.104 228.019 109.173 244.905 88.5613C259.976 70.1784 282.76 58.2643 309.049 54.988C335.308 51.7283 361.886 57.5175 383.917 71.3272C408.73 86.8825 426.094 111.519 434.09 142.534L434.159 142.84C439.16 172.657 432.919 199.045 416.08 219.163C401.013 237.138 378.509 248.812 352.68 251.989C338.28 253.763 323.779 252.794 309.971 249.262ZM235.444 165.646C253.213 228.107 306.287 250.483 351.053 244.962C394.787 239.561 437.116 205.504 426.779 143.525C410.244 79.6727 355.001 56.5013 310.646 62.032C265.821 67.5866 223.214 102.39 235.444 165.646Z" fill="black"/>
<path d="M309.971 249.262C298.993 246.453 288.466 242.03 278.814 236.074C254.277 220.95 236.751 196.994 228.208 166.776L228.135 166.493C222.213 136.104 228.019 109.173 244.905 88.5613C259.976 70.1784 282.76 58.2643 309.049 54.988C335.308 51.7283 361.886 57.5175 383.917 71.3272C408.73 86.8825 426.094 111.519 434.09 142.534L434.159 142.84C439.16 172.657 432.919 199.045 416.08 219.163C401.013 237.138 378.509 248.812 352.68 251.989C338.28 253.763 323.779 252.794 309.971 249.262ZM235.444 165.646C253.213 228.107 306.287 250.483 351.053 244.962C394.787 239.561 437.116 205.504 426.779 143.525C410.244 79.6727 355.001 56.5013 310.646 62.032C265.821 67.5866 223.214 102.39 235.444 165.646Z" fill="black"/>
<path d="M241.126 190.542C318.884 282.047 439.747 211.094 388.313 121.249C324.536 23.4168 190.643 82.4337 241.126 190.542Z" fill="url(#paint9_linear)"/>
<path opacity="0.4" d="M318.5 214C304.84 170.717 306.86 161.719 315.137 130.527C306.208 143.441 260.18 138.836 247.976 130.097C241.901 146.556 243.231 167.763 255.219 193.174C266.93 191.075 295.208 203.758 318.5 214Z" fill="url(#paint10_linear)"/>
<path d="M301.411 242.559C290.1 239.667 279.367 234.78 269.895 228.122C250.18 214.248 236.214 193.106 229.537 166.968L229.541 166.945C218.831 123.625 243.289 69.8018 296.8 58.7412L297.227 58.6817C324.425 57.6211 352.993 68.2713 375.636 87.8528C398.185 107.386 412.017 133.356 413.592 159.104C415.414 213.1 373.42 243.425 330.968 245.519C320.949 246.014 310.972 245.004 301.411 242.559ZM234.401 166.214C249.168 224.002 295.283 242.508 330.283 240.771C370.508 238.805 410.301 210.036 408.581 158.905C407.096 134.528 393.916 109.833 372.426 91.2203C350.912 72.6014 323.821 62.4729 298.073 63.3991C247.393 74.0284 224.234 125.103 234.401 166.214Z" fill="black"/>
<path d="M300.674 233.698C277.673 227.817 256.209 213.7 238.303 192.634L237.944 192.229L237.726 191.765C225.472 165.558 222.974 140.212 230.459 118.476C237.185 98.9974 251.588 83.5487 271.05 75.0175C290.063 66.6602 312.011 65.7591 332.805 72.47C355.932 79.9219 376.184 96.2282 391.434 119.596L391.55 119.794C403.69 140.996 407.323 162.595 402.051 182.301C397.285 200.118 385.35 215.38 368.467 225.244C350.179 235.926 327.911 239.341 305.735 234.896C304.053 234.514 302.347 234.126 300.674 233.698ZM244.304 188.857C283.809 235.034 332.939 237.334 364.164 219.072C392.518 202.504 409.966 166.323 385.106 122.809C353.588 74.5635 306.927 67.2711 274.655 81.4435C241.502 96.0155 219.33 134.882 244.304 188.857Z" fill="black"/>
<path d="M429.004 213.524C407.454 252.516 362.338 231.978 378.749 192.45C399.653 150.68 447.902 172.646 429.004 213.524Z" fill="url(#paint11_linear)"/>
<g opacity="0.35">
<path opacity="0.35" d="M389.023 232.414C375.535 226.362 371.023 207.074 379.675 190.644C381.805 212.241 413.419 190.298 417.955 182.269C450.344 204.197 413.584 243.997 389.023 232.414Z" fill="black"/>
</g>
<path d="M392.519 237.059C390.658 236.584 388.86 235.931 387.176 235.09C374.669 228.923 366.142 212.887 375.249 190.927L375.34 190.732C386.93 167.568 407.225 162.419 421.275 169.344C433.976 175.585 442.904 192.618 432.477 215.184L432.386 215.379C421.456 235.108 405.12 240.275 392.519 237.059ZM382.25 194.117C374.963 211.8 380.966 224.29 390.202 228.824C400.005 233.648 415.233 230.375 425.546 211.771C433.937 193.522 427.65 180.235 418.25 175.61C407.595 170.351 391.85 175.04 382.25 194.117Z" fill="black"/>
<path d="M429.501 216.387C411.975 248.017 377.865 233.121 391.15 201.114C408.154 166.734 445.189 182.957 429.501 216.387Z" fill="url(#paint12_linear)"/>
<path d="M400.429 236.223C399.062 235.874 397.773 235.4 396.56 234.8C387.122 230.141 380.868 217.527 388.221 199.832L388.303 199.684C397.825 180.412 413.875 175.785 424.765 181.153C434.468 185.928 441.012 199.44 432.377 217.8L432.295 217.949C423.229 234.286 410.222 238.72 400.429 236.223ZM394.089 202.491C388.262 216.603 392.397 226.231 399.102 229.539C406.425 233.15 418.135 230.105 426.585 214.894C433.472 200.181 429.148 189.803 422.228 186.392C414.167 182.423 401.925 186.688 394.089 202.491Z" fill="black"/>
<g opacity="0.35">
<path opacity="0.35" d="M386.678 208.46C387.643 203.485 390.108 198.869 393.463 195.08C392.122 220.175 420.329 219.622 431.675 205.586C425.554 241.101 383.168 242.631 386.678 208.46Z" fill="black"/>
</g>
<path d="M58.9999 57.0002L5 133.5L28.5 233.5H169.5L272.5 260C273.5 220.5 272.5 36.5002 272.5 36.5002C272.5 36.5002 140.333 55.0002 58.9999 57.0002Z" fill="url(#paint13_radial)"/>
<defs>
<linearGradient id="paint0_linear" x1="210.483" y1="162.847" x2="192.155" y2="237.768" gradientUnits="userSpaceOnUse">
<stop stop-color="#1B0050"/>
<stop offset="1" stop-color="#B41AFF"/>
</linearGradient>
<linearGradient id="paint1_linear" x1="279.033" y1="205.545" x2="217.002" y2="458.036" gradientUnits="userSpaceOnUse">
<stop stop-color="#1B0050"/>
<stop offset="1" stop-color="#B41AFF"/>
</linearGradient>
<linearGradient id="paint2_linear" x1="279.033" y1="205.545" x2="217.002" y2="458.036" gradientUnits="userSpaceOnUse">
<stop stop-color="#4503FF"/>
<stop offset="1" stop-color="#9325AF"/>
</linearGradient>
<linearGradient id="paint3_linear" x1="357.614" y1="203.155" x2="357.273" y2="204.51" gradientUnits="userSpaceOnUse">
<stop stop-color="#1B0050"/>
<stop offset="1" stop-color="#B41AFF"/>
</linearGradient>
<linearGradient id="paint4_linear" x1="423.55" y1="248.896" x2="398.695" y2="349.982" gradientUnits="userSpaceOnUse">
<stop stop-color="#1B0050"/>
<stop offset="1" stop-color="#B41AFF"/>
</linearGradient>
<linearGradient id="paint5_linear" x1="436.583" y1="307.501" x2="423.476" y2="360.82" gradientUnits="userSpaceOnUse">
<stop stop-color="#1B0050"/>
<stop offset="1" stop-color="#B41AFF"/>
</linearGradient>
<linearGradient id="paint6_linear" x1="349.311" y1="60.5913" x2="302.477" y2="243.751" gradientUnits="userSpaceOnUse">
<stop stop-color="#1B0050"/>
<stop offset="1" stop-color="#B41AFF"/>
</linearGradient>
<linearGradient id="paint7_linear" x1="349.311" y1="60.5913" x2="302.477" y2="243.751" gradientUnits="userSpaceOnUse">
<stop stop-color="#1B0050"/>
<stop offset="1" stop-color="#B41AFF"/>
</linearGradient>
<linearGradient id="paint8_linear" x1="349.311" y1="60.5913" x2="302.477" y2="243.751" gradientUnits="userSpaceOnUse">
<stop stop-color="#1B0050"/>
<stop offset="1" stop-color="#B41AFF"/>
</linearGradient>
<linearGradient id="paint9_linear" x1="330.939" y1="75.3655" x2="291.943" y2="227.873" gradientUnits="userSpaceOnUse">
<stop stop-color="#4503FF"/>
<stop offset="1" stop-color="#9325AF"/>
</linearGradient>
<linearGradient id="paint10_linear" x1="270.579" y1="106.312" x2="265.882" y2="201.837" gradientUnits="userSpaceOnUse">
<stop stop-color="white"/>
<stop offset="1" stop-color="white" stop-opacity="0"/>
</linearGradient>
<linearGradient id="paint11_linear" x1="410.771" y1="169.623" x2="394.361" y2="233.951" gradientUnits="userSpaceOnUse">
<stop stop-color="#1B0050"/>
<stop offset="1" stop-color="#B41AFF"/>
</linearGradient>
<linearGradient id="paint12_linear" x1="416.015" y1="181.463" x2="402.683" y2="233.79" gradientUnits="userSpaceOnUse">
<stop stop-color="#1B0050"/>
<stop offset="1" stop-color="#B41AFF"/>
</linearGradient>
<radialGradient id="paint13_radial" cx="0" cy="0" r="1" gradientUnits="userSpaceOnUse" gradientTransform="translate(69.5 194) rotate(-15.3616) scale(188.743 99.2887)">
<stop stop-color="white"/>
<stop offset="1" stop-color="white" stop-opacity="0"/>
</radialGradient>
</defs>
</svg>
