<svg width="1200" height="392" viewBox="0 0 1200 392" fill="none" xmlns="http://www.w3.org/2000/svg">
<path d="M1095 5.5L1090 3.11325V8.88675L1095 6.5V5.5ZM110 196.5H113.009V195.5H110V196.5ZM119.026 196.5H125.043V195.5H119.026V196.5ZM131.06 196.5H137.077V195.5H131.06V196.5ZM143.094 196.5H149.111V195.5H143.094V196.5ZM155.128 196.5H161.145V195.5H155.128V196.5ZM167.162 196.5H173.179V195.5H167.162V196.5ZM179.196 196.5H185.213V195.5H179.196V196.5ZM191.23 196.5H197.247V195.5H191.23V196.5ZM203.264 196.5H209.281V195.5H203.264V196.5ZM215.298 196.5H221.315V195.5H215.298V196.5ZM227.332 196.5H233.349V195.5H227.332V196.5ZM239.366 196.5H245.383V195.5H239.366V196.5ZM251.401 196.5H257.418V195.5H251.401V196.5ZM263.435 196.5H269.452V195.5H263.435V196.5ZM275.469 196.5H281.486V195.5H275.469V196.5ZM287.503 196.5H293.52V195.5H287.503V196.5ZM299.537 196.5H305.554V195.5H299.537V196.5ZM311.571 196.5H317.588V195.5H311.571V196.5ZM323.605 196.5H329.622V195.5H323.605V196.5ZM335.639 196.5H341.656V195.5H335.639V196.5ZM347.673 196.5H353.69V195.5H347.673V196.5ZM359.707 196.5H365.724V195.5H359.707V196.5ZM371.741 196.5H377.758V195.5H371.741V196.5ZM383.776 196.5H389.793V195.5H383.776V196.5ZM395.81 196.5H401.827V195.5H395.81V196.5ZM407.844 196.5H413.861V195.5H407.844V196.5ZM419.878 196.5H425.895V195.5H419.878V196.5ZM431.912 196.5H437.929V195.5H431.912V196.5ZM443.946 196.5H449.963V195.5H443.946V196.5ZM455.98 196.5H461.997V195.5H455.98V196.5ZM468.014 196.5H474.031V195.5H468.014V196.5ZM480.048 196.5H486.066V195.5H480.048V196.5ZM492.083 196.5H498.1V195.5H492.083V196.5ZM504.117 196.5H510.134V195.5H504.117V196.5ZM516.151 196.5H522.168V195.5H516.151V196.5ZM528.185 196.5H534.202V195.5H528.185V196.5ZM540.219 196.5H546.236V195.5H540.219V196.5ZM552.253 196.5H558.27V195.5H552.253V196.5ZM564.287 196.5H570.304V195.5H564.287V196.5ZM576.321 196.5H582.339V195.5H576.321V196.5ZM588.356 196.5H594.373V195.5H588.356V196.5ZM600.39 196.5H606.407V195.5H600.39V196.5ZM612.424 196.5H618.441V195.5H612.424V196.5ZM624.458 196.5H630.475V195.5H624.458V196.5ZM636.492 196.5H642.509V195.5H636.492V196.5ZM648.526 196.5H654.543V195.5H648.526V196.5ZM660.56 196.5H666.577V195.5H660.56V196.5ZM672.594 196.5H678.611V195.5H672.594V196.5ZM684.628 196.5H690.645V195.5H684.628V196.5ZM696.662 196.5H702.679V195.5H696.662V196.5ZM708.696 196.5H714.713V195.5H708.696V196.5ZM720.73 196.5H726.747V195.5H720.73V196.5ZM732.764 196.5H738.781V195.5H732.764V196.5ZM744.798 196.5H750.815V195.5H744.798V196.5ZM756.833 196.5H762.85V195.5H756.833V196.5ZM768.867 196.5H774.884V195.5H768.867V196.5ZM780.901 196.5H786.918V195.5H780.901V196.5ZM792.935 196.5H798.952V195.5H792.935V196.5ZM804.969 196.5H810.986V195.5H804.969V196.5ZM817.003 196.5H823.02V195.5H817.003V196.5ZM829.037 196.5H835.054V195.5H829.037V196.5ZM841.071 196.5H847.088V195.5H841.071V196.5ZM853.105 196.5H859.122V195.5H853.105V196.5ZM865.139 196.5H871.156V195.5H865.139V196.5ZM877.173 196.5H883.19V195.5H877.173V196.5ZM889.207 196.5H895.224V195.5H889.207V196.5ZM901.241 196.5H907.258V195.5H901.241V196.5ZM913.275 196.5H919.292V195.5H913.275V196.5ZM925.309 196.5H931.326V195.5H925.309V196.5ZM937.343 196.5H943.36V195.5H937.343V196.5ZM949.377 196.5H955.394V195.5H949.377V196.5ZM961.412 196.5H967.429V195.5H961.412V196.5ZM973.446 196.5H979.463V195.5H973.446V196.5ZM985.48 196.5H991.497V195.5H985.48V196.5ZM997.514 196.5H1003.53V195.5H997.514V196.5ZM1009.55 196.5H1015.56V195.5H1009.55V196.5ZM1021.58 196.5H1027.6V195.5H1021.58V196.5ZM1033.62 196.5H1039.63V195.5H1033.62V196.5ZM1045.65 196.5H1051.67V195.5H1045.65V196.5ZM1057.68 196.5H1063.7V195.5H1057.68V196.5ZM1069.72 196.5H1075.74V195.5H1069.72V196.5ZM1081.75 196.5H1087.77V195.5H1081.75V196.5ZM1093.79 196.5H1099.8V195.5H1093.79V196.5ZM1105.82 196.5H1111.84V195.5H1105.82V196.5ZM1117.85 196.5H1123.87V195.5H1117.85V196.5ZM1129.89 196.5H1135.91V195.5H1129.89V196.5ZM1141.92 196.5H1147.94V195.5H1141.92V196.5ZM1153.96 196.5H1159.97V195.5H1153.96V196.5ZM1165.99 196.5H1169V195.5H1165.99V196.5ZM1169 196.5C1170.01 196.5 1171.01 196.451 1171.99 196.355L1171.89 195.36C1170.94 195.453 1169.98 195.5 1169 195.5V196.5ZM1177.86 195.194C1179.79 194.61 1181.63 193.839 1183.38 192.904L1182.91 192.022C1181.22 192.927 1179.43 193.672 1177.57 194.237L1177.86 195.194ZM1188.35 189.578C1189.89 188.309 1191.31 186.893 1192.58 185.35L1191.8 184.715C1190.58 186.208 1189.21 187.578 1187.71 188.805L1188.35 189.578ZM1195.9 180.381C1196.84 178.634 1197.61 176.786 1198.19 174.856L1197.24 174.567C1196.67 176.432 1195.93 178.219 1195.02 179.908L1195.9 180.381ZM1199.36 168.99C1199.45 168.006 1199.5 167.009 1199.5 166H1198.5C1198.5 166.976 1198.45 167.941 1198.36 168.893L1199.36 168.99ZM1199.5 166V162.75H1198.5V166H1199.5ZM1199.5 156.25V149.75H1198.5V156.25H1199.5ZM1199.5 143.25V136.75H1198.5V143.25H1199.5ZM1199.5 130.25V123.75H1198.5V130.25H1199.5ZM1199.5 117.25V110.75H1198.5V117.25H1199.5ZM1199.5 104.25V101H1198.5V104.25H1199.5ZM1199.5 101V97.75H1198.5V101H1199.5ZM1199.5 91.25V84.75H1198.5V91.25H1199.5ZM1199.5 78.25V71.75H1198.5V78.25H1199.5ZM1199.5 65.25V58.75H1198.5V65.25H1199.5ZM1199.5 52.25V45.75H1198.5V52.25H1199.5ZM1199.5 39.25V36H1198.5V39.25H1199.5ZM1199.5 36C1199.5 34.9913 1199.45 33.9938 1199.36 33.0099L1198.36 33.1068C1198.45 34.0585 1198.5 35.0236 1198.5 36H1199.5ZM1198.19 27.1435C1197.61 25.2143 1196.84 23.366 1195.9 21.6195L1195.02 22.0917C1195.93 23.7808 1196.67 25.5681 1197.24 27.4335L1198.19 27.1435ZM1192.58 16.6505C1191.31 15.1071 1189.89 13.6905 1188.35 12.4225L1187.71 13.1951C1189.21 14.4218 1190.58 15.7923 1191.8 17.2853L1192.58 16.6505ZM1183.38 9.09626C1181.63 8.1608 1179.79 7.39036 1177.86 6.80587L1177.57 7.76291C1179.43 8.32807 1181.22 9.07307 1182.91 9.97778L1183.38 9.09626ZM1171.99 5.64474C1171.01 5.54899 1170.01 5.5 1169 5.5V6.5C1169.98 6.5 1170.94 6.54741 1171.89 6.64004L1171.99 5.64474ZM1169 5.5H1166.18V6.5H1169V5.5ZM1160.54 5.5H1154.89V6.5H1160.54V5.5ZM1149.25 5.5H1143.61V6.5H1149.25V5.5ZM1137.96 5.5H1132.32V6.5H1137.96V5.5ZM1126.68 5.5H1121.04V6.5H1126.68V5.5ZM1115.39 5.5H1109.75V6.5H1115.39V5.5ZM1104.11 5.5H1098.46V6.5H1104.11V5.5ZM1100 5L1090 0.226497V11.7735L1100 7V5ZM110 197H113.009V195H110V197ZM119.026 197H125.043V195H119.026V197ZM131.06 197H137.077V195H131.06V197ZM143.094 197H149.111V195H143.094V197ZM155.128 197H161.145V195H155.128V197ZM167.162 197H173.179V195H167.162V197ZM179.196 197H185.213V195H179.196V197ZM191.23 197H197.247V195H191.23V197ZM203.264 197H209.281V195H203.264V197ZM215.298 197H221.315V195H215.298V197ZM227.332 197H233.349V195H227.332V197ZM239.366 197H245.383V195H239.366V197ZM251.401 197H257.418V195H251.401V197ZM263.435 197H269.452V195H263.435V197ZM275.469 197H281.486V195H275.469V197ZM287.503 197H293.52V195H287.503V197ZM299.537 197H305.554V195H299.537V197ZM311.571 197H317.588V195H311.571V197ZM323.605 197H329.622V195H323.605V197ZM335.639 197H341.656V195H335.639V197ZM347.673 197H353.69V195H347.673V197ZM359.707 197H365.724V195H359.707V197ZM371.741 197H377.758V195H371.741V197ZM383.776 197H389.793V195H383.776V197ZM395.81 197H401.827V195H395.81V197ZM407.844 197H413.861V195H407.844V197ZM419.878 197H425.895V195H419.878V197ZM431.912 197H437.929V195H431.912V197ZM443.946 197H449.963V195H443.946V197ZM455.98 197H461.997V195H455.98V197ZM468.014 197H474.031V195H468.014V197ZM480.048 197H486.066V195H480.048V197ZM492.083 197H498.1V195H492.083V197ZM504.117 197H510.134V195H504.117V197ZM516.151 197H522.168V195H516.151V197ZM528.185 197H534.202V195H528.185V197ZM540.219 197H546.236V195H540.219V197ZM552.253 197H558.27V195H552.253V197ZM564.287 197H570.304V195H564.287V197ZM576.321 197H582.339V195H576.321V197ZM588.356 197H594.373V195H588.356V197ZM600.39 197H606.407V195H600.39V197ZM612.424 197H618.441V195H612.424V197ZM624.458 197H630.475V195H624.458V197ZM636.492 197H642.509V195H636.492V197ZM648.526 197H654.543V195H648.526V197ZM660.56 197H666.577V195H660.56V197ZM672.594 197H678.611V195H672.594V197ZM684.628 197H690.645V195H684.628V197ZM696.662 197H702.679V195H696.662V197ZM708.696 197H714.713V195H708.696V197ZM720.73 197H726.747V195H720.73V197ZM732.764 197H738.781V195H732.764V197ZM744.798 197H750.815V195H744.798V197ZM756.833 197H762.85V195H756.833V197ZM768.867 197H774.884V195H768.867V197ZM780.901 197H786.918V195H780.901V197ZM792.935 197H798.952V195H792.935V197ZM804.969 197H810.986V195H804.969V197ZM817.003 197H823.02V195H817.003V197ZM829.037 197H835.054V195H829.037V197ZM841.071 197H847.088V195H841.071V197ZM853.105 197H859.122V195H853.105V197ZM865.139 197H871.156V195H865.139V197ZM877.173 197H883.19V195H877.173V197ZM889.207 197H895.224V195H889.207V197ZM901.241 197H907.258V195H901.241V197ZM913.275 197H919.292V195H913.275V197ZM925.309 197H931.326V195H925.309V197ZM937.343 197H943.36V195H937.343V197ZM949.377 197H955.394V195H949.377V197ZM961.412 197H967.429V195H961.412V197ZM973.446 197H979.463V195H973.446V197ZM985.48 197H991.497V195H985.48V197ZM997.514 197H1003.53V195H997.514V197ZM1009.55 197H1015.56V195H1009.55V197ZM1021.58 197H1027.6V195H1021.58V197ZM1033.62 197H1039.63V195H1033.62V197ZM1045.65 197H1051.67V195H1045.65V197ZM1057.68 197H1063.7V195H1057.68V197ZM1069.72 197H1075.74V195H1069.72V197ZM1081.75 197H1087.77V195H1081.75V197ZM1093.79 197H1099.8V195H1093.79V197ZM1105.82 197H1111.84V195H1105.82V197ZM1117.85 197H1123.87V195H1117.85V197ZM1129.89 197H1135.91V195H1129.89V197ZM1141.92 197H1147.94V195H1141.92V197ZM1153.96 197H1159.97V195H1153.96V197ZM1165.99 197H1169V195H1165.99V197ZM1169 197C1170.02 197 1171.04 196.95 1172.04 196.853L1171.84 194.862C1170.91 194.953 1169.96 195 1169 195V197ZM1178 195.673C1179.96 195.078 1181.84 194.295 1183.62 193.344L1182.67 191.581C1181.01 192.471 1179.26 193.203 1177.42 193.759L1178 195.673ZM1188.67 189.964C1190.24 188.675 1191.68 187.235 1192.96 185.667L1191.42 184.397C1190.21 185.865 1188.87 187.213 1187.4 188.419L1188.67 189.964ZM1196.34 180.617C1197.3 178.841 1198.08 176.963 1198.67 175.001L1196.76 174.422C1196.2 176.255 1195.47 178.012 1194.58 179.672L1196.34 180.617ZM1199.85 169.039C1199.95 168.039 1200 167.025 1200 166H1198C1198 166.96 1197.95 167.909 1197.86 168.845L1199.85 169.039ZM1200 166V162.75H1198V166H1200ZM1200 156.25V149.75H1198V156.25H1200ZM1200 143.25V136.75H1198V143.25H1200ZM1200 130.25V123.75H1198V130.25H1200ZM1200 117.25V110.75H1198V117.25H1200ZM1200 104.25V101H1198V104.25H1200ZM1200 101V97.75H1198V101H1200ZM1200 91.25V84.75H1198V91.25H1200ZM1200 78.25V71.75H1198V78.25H1200ZM1200 65.25V58.75H1198V65.25H1200ZM1200 52.25V45.75H1198V52.25H1200ZM1200 39.25V36H1198V39.25H1200ZM1200 36C1200 34.9751 1199.95 33.9614 1199.85 32.9615L1197.86 33.1552C1197.95 34.0909 1198 35.0398 1198 36H1200ZM1198.67 26.9985C1198.08 25.0374 1197.3 23.1587 1196.34 21.3834L1194.58 22.3277C1195.47 23.9881 1196.2 25.745 1196.76 27.5785L1198.67 26.9985ZM1192.96 16.3331C1191.68 14.7646 1190.24 13.3249 1188.67 12.0361L1187.4 13.5814C1188.87 14.7875 1190.21 16.1349 1191.42 17.6027L1192.96 16.3331ZM1183.62 8.65551C1181.84 7.70466 1179.96 6.92151 1178 6.32735L1177.42 8.24143C1179.26 8.79693 1181.01 9.52921 1182.67 10.4185L1183.62 8.65551ZM1172.04 5.14709C1171.04 5.04977 1170.02 5 1169 5V7C1169.96 7 1170.91 7.04663 1171.84 7.13769L1172.04 5.14709ZM1169 5H1166.18V7H1169V5ZM1160.54 5H1154.89V7H1160.54V5ZM1149.25 5H1143.61V7H1149.25V5ZM1137.96 5H1132.32V7H1137.96V5ZM1126.68 5H1121.04V7H1126.68V5ZM1115.39 5H1109.75V7H1115.39V5ZM1104.11 5H1098.46V7H1104.11V5Z" fill="#909FAD"/>
<path d="M110 386L105 388.887V383.113L110 386ZM110 196.5H107.179V195.5H110V196.5ZM101.536 196.5H95.8929V195.5H101.536V196.5ZM90.25 196.5H84.6071V195.5H90.25V196.5ZM78.9643 196.5H73.3214V195.5H78.9643V196.5ZM67.6786 196.5H62.0357V195.5H67.6786V196.5ZM56.3929 196.5H50.75V195.5H56.3929V196.5ZM45.1071 196.5H39.4643V195.5H45.1071V196.5ZM33.8214 196.5H31V195.5H33.8214V196.5ZM31 196.5C30.0237 196.5 29.0585 196.547 28.1068 196.64L28.0099 195.645C28.9938 195.549 29.9913 195.5 31 195.5V196.5ZM22.4335 197.763C20.5681 198.328 18.7808 199.073 17.0917 199.978L16.6195 199.096C18.366 198.161 20.2143 197.39 22.1435 196.806L22.4335 197.763ZM12.2853 203.195C10.7923 204.422 9.42183 205.792 8.19513 207.285L7.42247 206.65C8.69052 205.107 10.1071 203.691 11.6505 202.422L12.2853 203.195ZM4.97779 212.092C4.07308 213.781 3.32808 215.568 2.76292 217.433L1.80588 217.144C2.39037 215.214 3.1608 213.366 4.09628 211.62L4.97779 212.092ZM1.64004 223.107C1.54742 224.059 1.5 225.024 1.5 226H0.5C0.5 224.991 0.548988 223.994 0.644737 223.01L1.64004 223.107ZM1.5 226V229.25H0.5V226H1.5ZM1.5 235.75V242.25H0.5V235.75H1.5ZM1.5 248.75V255.25H0.5V248.75H1.5ZM1.5 261.75V268.25H0.5V261.75H1.5ZM1.5 274.75V281.25H0.5V274.75H1.5ZM1.5 287.75V291H0.5V287.75H1.5ZM1.5 291V294.25H0.5V291H1.5ZM1.5 300.75V307.25H0.5V300.75H1.5ZM1.5 313.75V320.25H0.5V313.75H1.5ZM1.5 326.75V333.25H0.5V326.75H1.5ZM1.5 339.75V346.25H0.5V339.75H1.5ZM1.5 352.75V356H0.5V352.75H1.5ZM1.5 356C1.5 356.976 1.54742 357.941 1.64004 358.893L0.644737 358.99C0.548988 358.006 0.5 357.009 0.5 356H1.5ZM2.76292 364.567C3.32808 366.432 4.07308 368.219 4.97779 369.908L4.09628 370.38C3.1608 368.634 2.39037 366.786 1.80588 364.856L2.76292 364.567ZM8.19513 374.715C9.42183 376.208 10.7923 377.578 12.2853 378.805L11.6505 379.578C10.1071 378.309 8.69052 376.893 7.42247 375.35L8.19513 374.715ZM17.0917 382.022C18.7808 382.927 20.5681 383.672 22.4335 384.237L22.1435 385.194C20.2143 384.61 18.366 383.839 16.6195 382.904L17.0917 382.022ZM28.1068 385.36C29.0585 385.453 30.0237 385.5 31 385.5V386.5C29.9913 386.5 28.9938 386.451 28.0099 386.355L28.1068 385.36ZM31 385.5H33.8214V386.5H31V385.5ZM39.4643 385.5H45.1071V386.5H39.4643V385.5ZM50.75 385.5H56.3929V386.5H50.75V385.5ZM62.0357 385.5H67.6786V386.5H62.0357V385.5ZM73.3214 385.5H78.9643V386.5H73.3214V385.5ZM84.6071 385.5H90.25V386.5H84.6071V385.5ZM95.8929 385.5H101.536V386.5H95.8929V385.5ZM110 386L100 391.773V380.227L110 386ZM110 197H107.179V195H110V197ZM101.536 197H95.8929V195H101.536V197ZM90.25 197H84.6071V195H90.25V197ZM78.9643 197H73.3214V195H78.9643V197ZM67.6786 197H62.0357V195H67.6786V197ZM56.3929 197H50.75V195H56.3929V197ZM45.1071 197H39.4643V195H45.1071V197ZM33.8214 197H31V195H33.8214V197ZM31 197C30.0398 197 29.0909 197.047 28.1552 197.138L27.9615 195.147C28.9614 195.05 29.9751 195 31 195V197ZM22.5785 198.241C20.745 198.797 18.9881 199.529 17.3277 200.419L16.3834 198.656C18.1587 197.705 20.0375 196.922 21.9986 196.327L22.5785 198.241ZM12.6027 203.581C11.1349 204.787 9.78748 206.135 8.58145 207.603L7.03615 206.333C8.32487 204.765 9.76456 203.325 11.3331 202.036L12.6027 203.581ZM5.41855 212.328C4.52921 213.988 3.79694 215.745 3.24144 217.578L1.32735 216.999C1.92152 215.037 2.70467 213.159 3.65552 211.383L5.41855 212.328ZM2.13769 223.155C2.04662 224.091 2 225.04 2 226H0C0 224.975 0.0497742 223.961 0.147095 222.961L2.13769 223.155ZM2 226V229.25H0V226H2ZM2 235.75V242.25H0V235.75H2ZM2 248.75V255.25H0V248.75H2ZM2 261.75V268.25H0V261.75H2ZM2 274.75V281.25H0V274.75H2ZM2 287.75V291H0V287.75H2ZM2 291V294.25H0V291H2ZM2 300.75V307.25H0V300.75H2ZM2 313.75V320.25H0V313.75H2ZM2 326.75V333.25H0V326.75H2ZM2 339.75V346.25H0V339.75H2ZM2 352.75V356H0V352.75H2ZM2 356C2 356.96 2.04662 357.909 2.13769 358.845L0.147095 359.039C0.0497742 358.039 0 357.025 0 356H2ZM3.24144 364.422C3.79694 366.255 4.52921 368.012 5.41855 369.672L3.65552 370.617C2.70467 368.841 1.92152 366.963 1.32735 365.001L3.24144 364.422ZM8.58145 374.397C9.78748 375.865 11.1349 377.213 12.6027 378.419L11.3331 379.964C9.76456 378.675 8.32487 377.235 7.03615 375.667L8.58145 374.397ZM17.3277 381.581C18.9881 382.471 20.745 383.203 22.5785 383.759L21.9986 385.673C20.0375 385.078 18.1587 384.295 16.3834 383.344L17.3277 381.581ZM28.1552 384.862C29.0909 384.953 30.0398 385 31 385V387C29.9751 387 28.9614 386.95 27.9615 386.853L28.1552 384.862ZM31 385H33.8214V387H31V385ZM39.4643 385H45.1071V387H39.4643V385ZM50.75 385H56.3929V387H50.75V385ZM62.0357 385H67.6786V387H62.0357V385ZM73.3214 385H78.9643V387H73.3214V385ZM84.6071 385H90.25V387H84.6071V385ZM95.8929 385H101.536V387H95.8929V385Z" fill="#909FAD"/>
</svg>
