<svg width="159" height="12" viewBox="0 0 159 12" fill="none" xmlns="http://www.w3.org/2000/svg">
<path d="M159 6L154 3.11325V8.88675L159 6ZM0 6.5H3.05769V5.5H0V6.5ZM9.17308 6.5H15.2885V5.5H9.17308V6.5ZM21.4038 6.5H27.5192V5.5H21.4038V6.5ZM33.6346 6.5H39.75V5.5H33.6346V6.5ZM45.8654 6.5H51.9808V5.5H45.8654V6.5ZM58.0961 6.5H64.2115V5.5H58.0961V6.5ZM70.3269 6.5H76.4423V5.5H70.3269V6.5ZM82.5577 6.5H88.6731V5.5H82.5577V6.5ZM94.7885 6.5H100.904V5.5H94.7885V6.5ZM107.019 6.5H113.135V5.5H107.019V6.5ZM119.25 6.5H125.365V5.5H119.25V6.5ZM131.481 6.5H137.596V5.5H131.481V6.5ZM143.712 6.5H149.827V5.5H143.712V6.5ZM159 6L149 0.226497V11.7735L159 6ZM0 7H3.05769V5H0V7ZM9.17308 7H15.2885V5H9.17308V7ZM21.4038 7H27.5192V5H21.4038V7ZM33.6346 7H39.75V5H33.6346V7ZM45.8654 7H51.9808V5H45.8654V7ZM58.0961 7H64.2115V5H58.0961V7ZM70.3269 7H76.4423V5H70.3269V7ZM82.5577 7H88.6731V5H82.5577V7ZM94.7885 7H100.904V5H94.7885V7ZM107.019 7H113.135V5H107.019V7ZM119.25 7H125.365V5H119.25V7ZM131.481 7H137.596V5H131.481V7ZM143.712 7H149.827V5H143.712V7Z" fill="#909FAD"/>
</svg>
