<svg width="20" height="21" viewBox="0 0 20 21" fill="none" xmlns="http://www.w3.org/2000/svg">
<path d="M10 0C7.87827 0 5.84344 0.842855 4.34315 2.34315C2.84285 3.84344 2 5.87827 2 8C2 12.03 5 15.42 9 15.93V17H8C7.73478 17 7.48043 17.1054 7.29289 17.2929C7.10536 17.4804 7 17.7348 7 18H0V20H7C7 20.2652 7.10536 20.5196 7.29289 20.7071C7.48043 20.8946 7.73478 21 8 21H12C12.2652 21 12.5196 20.8946 12.7071 20.7071C12.8946 20.5196 13 20.2652 13 20H20V18H13C13 17.7348 12.8946 17.4804 12.7071 17.2929C12.5196 17.1054 12.2652 17 12 17H11V15.93C15 15.43 18 12.03 18 8C18 5.87827 17.1571 3.84344 15.6569 2.34315C14.1566 0.842855 12.1217 0 10 0ZM10 2C10 2 10.74 3.28 11.26 5H8.74C9.26 3.28 10 2 10 2ZM7.77 2.43C7.5 2.93 7.09 3.84 6.74 5H4.81C5.5 3.84 6.5 2.93 7.77 2.43ZM12.23 2.44C13.5 2.94 14.5 3.84 15.19 5H13.26C12.91 3.84 12.5 2.93 12.23 2.44ZM4.09 7H6.32C6.28 7.33 6.25 7.66 6.25 8C6.25 8.34 6.28 8.67 6.32 9H4.09C4.03 8.67 4 8.34 4 8C4 7.66 4.03 7.33 4.09 7ZM8.32 7H11.68C11.72 7.33 11.75 7.66 11.75 8C11.75 8.34 11.72 8.67 11.68 9H8.32C8.28 8.67 8.25 8.34 8.25 8C8.25 7.66 8.28 7.33 8.32 7ZM13.68 7H15.91C15.97 7.33 16 7.66 16 8C16 8.34 15.97 8.67 15.91 9H13.68C13.72 8.67 13.75 8.34 13.75 8C13.75 7.66 13.72 7.33 13.68 7ZM4.81 11H6.74C7.09 12.16 7.5 13.07 7.77 13.56C6.5 13.06 5.5 12.16 4.81 11ZM8.74 11H11.26C10.74 12.72 10 14 10 14C10 14 9.26 12.72 8.74 11ZM13.26 11H15.19C14.5 12.16 13.5 13.07 12.23 13.57C12.5 13.07 12.91 12.16 13.26 11Z" fill="#fff"/>
</svg>
