<svg width="22" height="22" viewBox="0 0 22 22" fill="none" xmlns="http://www.w3.org/2000/svg">
<path d="M2.00014 16.2501V20.0001H5.75014L16.8101 8.93014L13.0601 5.18014L2.00014 16.2501ZM21.6101 17.3601L17.3601 21.6101L12.1601 16.4101L13.9301 14.6401L14.9301 15.6401L17.4001 13.1601L18.8201 14.5801L17.3601 16.0001L18.4201 17.0001L19.8401 15.6001L21.6101 17.3601ZM5.61014 9.83014L0.390137 4.64014L4.64014 0.390137L6.40014 2.16014L3.93014 4.64014L5.00014 5.70014L7.46014 3.22014L8.88014 4.64014L7.46014 6.05014L8.46014 7.05014L5.61014 9.83014ZM19.7101 6.00014C20.1001 5.61014 20.1001 5.00014 19.7101 4.59014L17.3701 2.29014C17.0001 1.90014 16.3501 1.90014 15.9601 2.29014L14.1201 4.12014L17.8701 7.87014L19.7101 6.00014Z" fill="#fff"/>
</svg>
