<svg width="38" height="25" viewBox="0 0 38 25" fill="none" xmlns="http://www.w3.org/2000/svg">
<path d="M34.8333 20.3125H28.5V9.375H34.8333V20.3125ZM36.4167 6.25H26.9167C26.4967 6.25 26.094 6.41462 25.7971 6.70765C25.5001 7.00067 25.3333 7.3981 25.3333 7.8125V23.4375C25.3333 23.8519 25.5001 24.2493 25.7971 24.5424C26.094 24.8354 26.4967 25 26.9167 25H36.4167C36.8366 25 37.2393 24.8354 37.5363 24.5424C37.8332 24.2493 38 23.8519 38 23.4375V7.8125C38 7.3981 37.8332 7.00067 37.5363 6.70765C37.2393 6.41462 36.8366 6.25 36.4167 6.25ZM6.33333 3.125H34.8333V0H6.33333C5.49348 0 4.68803 0.32924 4.09416 0.915291C3.5003 1.50134 3.16667 2.2962 3.16667 3.125V20.3125H0V25H22.1667V20.3125H6.33333V3.125Z" fill="white"/>
</svg>
