<svg width="26" height="25" viewBox="0 0 26 25" fill="none" xmlns="http://www.w3.org/2000/svg">
<path d="M9.47918 19.1435V24.1848C9.47918 24.537 9.70452 24.8489 10.0382 24.9598C10.1216 24.987 10.2072 25 10.2917 25C10.5452 25 10.79 24.8804 10.946 24.6674L13.8851 20.6544L9.47918 19.1435Z" fill="white"/>
<path d="M25.6587 0.151183C25.4095 -0.0259905 25.0824 -0.0499035 24.8116 0.0924873L0.43663 12.8642C0.148464 13.0153 -0.0216184 13.324 0.00221484 13.649C0.0271314 13.975 0.242714 14.2533 0.549296 14.3587L7.32552 16.6826L21.7566 4.30225L10.5896 17.8011L21.9461 21.6957C22.0306 21.7239 22.1195 21.7391 22.2083 21.7391C22.3556 21.7391 22.5019 21.6989 22.6308 21.6207C22.8366 21.4946 22.9764 21.2826 23.0121 21.0446L25.9913 0.935962C26.0357 0.631616 25.9079 0.329443 25.6587 0.151183Z" fill="white"/>
</svg>
