<svg width="166" height="25" viewBox="0 0 166 25" fill="none" xmlns="http://www.w3.org/2000/svg">
<path fill-rule="evenodd" clip-rule="evenodd" d="M152.188 1.28084C152.62 1.10797 152.966 0.819843 153.34 0.56053C156.567 0.56053 160.745 0.502905 165.182 0.502905C164.923 2.00116 164.52 3.35535 164.145 4.70954C162.82 5.97729 161.437 7.15861 160.025 8.33992C158.959 12.4889 157.777 16.4939 156.74 20.6717C155.011 21.9106 153.369 23.2648 151.669 24.5326C149.883 24.4461 148.212 24.5326 146.31 24.5326C146.396 23.5818 146.829 22.5733 146.944 21.4784C146.396 21.7089 145.878 22.0547 145.359 22.4004C144.869 22.7174 144.351 23.0055 143.832 23.3224C142.017 24.3021 139.942 25.0224 137.09 24.6478C135.188 24.3885 134.094 23.4377 133.027 22.1988C130.78 23.9563 126.372 25.541 122.713 24.3885C120.379 23.6394 119.111 21.4784 119.658 18.4243C118.938 18.4531 118.016 18.7124 117.037 18.6548C116.691 19.2599 116.575 20.1243 116.259 20.8158C115.02 21.7089 113.781 22.775 112.426 23.7834C112.023 24.1004 111.504 24.6478 111.13 24.7343C110.237 24.9648 109.199 24.6478 108.306 24.6766C107.355 24.7055 106.462 24.7919 105.483 24.6766C107.01 19.0294 108.566 12.7482 110.266 6.81285C110.467 6.06373 110.582 4.96885 110.928 4.36379C111.13 4.01804 111.649 3.67229 112.023 3.35535C113.176 2.40453 114.415 1.56897 115.509 0.589343C117.094 0.589343 118.794 0.589343 120.523 0.589343C122.223 0.589343 124.009 0.416468 125.507 0.589343C126.084 0.646968 126.573 0.963906 127.034 1.22322C127.351 1.68422 127.668 2.14522 127.985 2.60622C129.051 2.05878 130.089 1.19441 131.529 0.704593C132.912 0.21478 134.612 0.128342 136.168 0.185967C138.156 0.272405 140.029 1.02153 140.663 2.63503C142.19 1.51134 143.803 0.272405 146.31 0.0995294C148.586 -0.0733459 150.632 0.243592 152.188 1.28084ZM151.525 1.79947C150.459 1.05034 148.99 0.791031 147.405 0.762218C146.425 0.733406 145.734 1.07916 144.956 1.25203C143.342 1.56897 141.988 2.57741 141.181 3.64347C140.576 4.45023 140.058 6.66879 140.403 7.79248C140.749 8.91617 141.614 9.72292 142.305 10.6737C143.025 11.6534 143.919 12.4889 144.495 13.2957C144.697 13.5838 144.956 13.9584 145.071 14.3041C145.417 15.4854 144.812 16.9261 143.342 16.8396C143.198 16.8396 143.169 16.7244 143.112 16.6956C143.025 16.6667 142.939 16.7532 142.824 16.6956C141.7 16.1481 142.161 15.0244 142.334 13.8143C141.009 13.8431 139.28 13.7855 138.041 13.8719C137.753 15.0821 137.263 15.9752 137.321 17.2718C137.436 19.6056 139.683 20.6141 142.046 20.6141C144.149 20.6141 145.561 20.1819 146.886 19.3751C147.635 18.9141 148.356 18.4531 148.788 17.9057C149.652 16.8108 150.286 15.0532 150.113 13.3245C149.94 11.5669 148.759 10.472 147.78 9.46361C146.973 8.62805 145.907 7.82129 145.388 6.98573C145.013 6.38067 144.898 5.57391 145.1 5.02648C145.273 4.53666 146.166 4.21972 146.713 4.30616C148.183 4.53666 147.722 6.55354 147.491 7.56198C148.759 7.67723 150.315 7.56198 151.496 7.61961C152.188 5.89085 152.995 3.09604 151.525 1.79947ZM130.117 2.17403C129.599 2.51978 129.339 2.72147 128.936 3.18247C128.619 3.49941 128.273 3.81635 128.158 4.04685C127.928 4.50785 127.87 5.11291 127.726 5.63154C126.804 8.80092 125.911 12.0279 125.104 15.0532C124.96 15.5719 124.758 16.1481 124.672 16.6667C124.413 18.5972 125.623 19.9802 127.265 20.3836C130.29 21.1327 133.805 20.3259 135.448 18.5684C135.822 18.165 136.399 17.4159 136.629 16.8108C136.975 15.9752 137.176 14.8516 137.493 13.7855C138.098 11.7974 138.732 9.69411 139.222 7.70604C139.481 6.63998 139.885 5.51629 140 4.56548C140.087 3.72991 140.058 2.80791 139.626 2.23166C139.28 1.77066 138.243 1.25203 137.378 1.05034C136.399 0.791031 134.756 0.819843 134.094 0.906281C132.566 1.05034 131.039 1.59778 130.117 2.17403ZM153.917 1.42491C153.628 2.37572 153.34 3.35535 153.196 4.45023C154.089 4.47904 155.098 4.3926 155.933 4.50785C154.695 9.69411 153.167 14.5922 151.928 19.7497C153.167 19.8361 154.752 19.8361 155.991 19.7497C157.461 14.6787 158.728 9.69411 160.14 4.59429C161.062 4.59429 162.215 4.70954 163.194 4.53666C163.454 3.49941 163.828 2.34691 164.001 1.39609C160.14 1.30966 157.144 1.30966 153.917 1.42491ZM124.384 12.8347C125.046 12.2584 125.248 11.3076 125.623 10.3856C126.228 8.94498 126.516 7.70604 126.862 6.09254C127.034 5.34341 127.294 4.53666 127.294 3.84516C127.265 2.60622 126.689 1.59778 125.68 1.39609C125.018 1.28084 124.124 1.39609 123.346 1.39609C120.926 1.39609 118.679 1.36728 116.259 1.45372C114.616 7.56198 112.916 13.6414 111.389 19.7497C112.484 19.8073 114.415 19.8649 115.538 19.7497C116.086 17.8769 116.575 15.9752 117.152 14.1601C120.148 14.3617 122.684 14.3906 124.384 12.8347Z" fill="#E9E9E9"/>
<path fill-rule="evenodd" clip-rule="evenodd" d="M74.7691 0.704633C77.6503 0.44532 80.474 0.647007 80.935 3.03845C80.9926 3.32658 80.9926 3.8452 80.935 4.27739C80.8197 5.28583 80.4452 6.46714 80.157 7.47558C79.6096 9.46365 79.0622 11.6246 78.4859 13.6991C78.169 14.8228 77.9385 15.9753 77.6215 16.7532C77.2182 17.7617 76.1233 18.8277 75.2301 19.4328C73.5878 20.5277 70.1303 21.1327 67.8253 20.2972C67.249 20.0955 65.9813 19.404 65.7796 18.626C65.3762 17.0125 66.1829 15.1973 66.5575 13.6991C67.1049 11.2788 67.8829 8.59927 68.5168 6.15021C68.8049 5.02652 69.0354 4.36383 69.6116 3.52826C70.6777 1.94357 72.3776 0.90632 74.7691 0.704633ZM74.8267 10.8467C75.1725 9.55009 75.6911 7.99421 75.9792 6.58239C76.0657 6.12139 76.325 5.4587 76.2673 5.05533C76.0945 3.90283 73.8471 4.3062 73.4437 5.05533C73.2708 5.34345 73.1844 5.94852 73.0691 6.38071C72.4353 8.71452 71.8878 10.8755 71.1963 13.2669C70.9082 14.2465 70.1591 15.8889 70.7641 16.6668C71.4556 17.0702 72.7522 16.8973 73.2132 16.3787C73.8759 14.7075 74.3081 12.8347 74.8267 10.8467Z" fill="#0071E3"/>
<path fill-rule="evenodd" clip-rule="evenodd" d="M67.9401 0.733368C68.0265 0.733368 68.0265 0.790993 68.1418 0.790993C68.1418 0.877431 68.1418 0.963868 68.1418 1.02149C68.0553 1.02149 68.0553 1.07912 67.9401 1.07912C67.8536 1.02149 67.8536 0.819806 67.9401 0.733368Z" fill="#0071E3"/>
<path fill-rule="evenodd" clip-rule="evenodd" d="M151.583 7.53314C150.402 7.47551 148.846 7.59076 147.578 7.47551C147.809 6.46707 148.299 4.4502 146.8 4.2197C146.224 4.13326 145.331 4.4502 145.187 4.94001C144.985 5.48745 145.101 6.2942 145.475 6.89926C145.965 7.76364 147.06 8.54158 147.867 9.37714C148.846 10.3856 150.056 11.4805 150.2 13.238C150.344 14.9668 149.739 16.7243 148.875 17.8192C148.443 18.3667 147.722 18.8277 146.973 19.2887C145.677 20.0954 144.236 20.5276 142.133 20.5276C139.77 20.5276 137.523 19.5192 137.408 17.1853C137.35 15.8888 137.811 14.9956 138.128 13.7855C139.367 13.699 141.096 13.7566 142.421 13.7278C142.219 14.938 141.758 16.0617 142.911 16.6091C143.026 16.6667 143.112 16.5803 143.199 16.6091C143.257 16.6379 143.285 16.7532 143.429 16.7532C144.899 16.8396 145.504 15.399 145.158 14.2177C145.043 13.8719 144.784 13.4973 144.582 13.2092C143.977 12.3736 143.112 11.5381 142.392 10.5873C141.701 9.66527 140.836 8.8297 140.491 7.70601C140.145 6.58232 140.635 4.36376 141.268 3.55701C142.075 2.49094 143.429 1.4825 145.043 1.16556C145.821 1.0215 146.484 0.675751 147.492 0.675751C149.077 0.704563 150.546 0.963876 151.612 1.713C152.995 3.09601 152.188 5.89082 151.583 7.53314Z" fill="#0071E3"/>
<path fill-rule="evenodd" clip-rule="evenodd" d="M134.036 0.877535C134.699 0.791097 136.341 0.762285 137.321 1.0216C138.185 1.2521 139.223 1.77072 139.568 2.20291C140.001 2.77916 140.029 3.70117 139.943 4.53673C139.857 5.48754 139.453 6.61123 139.165 7.6773C138.675 9.66536 138.041 11.7399 137.436 13.7567C137.119 14.8228 136.918 15.9465 136.572 16.7821C136.313 17.3871 135.765 18.1363 135.391 18.5396C133.777 20.2972 130.262 21.1039 127.208 20.3548C125.566 19.9514 124.355 18.5684 124.615 16.638C124.701 16.0906 124.903 15.5431 125.047 15.0245C125.883 11.9992 126.776 8.77217 127.669 5.60279C127.813 5.08417 127.871 4.4791 128.101 4.0181C128.216 3.7876 128.562 3.47066 128.879 3.15373C129.311 2.69273 129.542 2.49104 130.06 2.14529C131.04 1.59785 132.567 1.05041 134.036 0.877535ZM132.279 16.4363C132.365 16.3211 132.625 15.8024 132.711 15.5719C132.999 14.794 133.143 13.9008 133.374 13.0364C133.979 10.9043 134.555 8.74336 135.045 6.58242C135.16 6.06379 135.362 5.60279 135.333 5.25704C135.218 4.07573 133.403 4.16217 132.653 4.73842C132.135 5.14179 131.847 6.35192 131.616 7.2163C131.069 9.20436 130.579 10.9331 130.089 12.7483C129.772 13.9296 129.369 14.9669 129.311 16.2346C129.426 16.3211 129.484 16.4939 129.513 16.6668C130.233 17.2143 131.731 17.0702 132.279 16.4363Z" fill="#0071E3"/>
<path fill-rule="evenodd" clip-rule="evenodd" d="M38.7246 1.36733C38.5229 4.36383 38.2636 7.44678 37.9467 10.3568C38.2924 10.1263 38.4077 9.66534 38.5806 9.31959C39.7907 6.75528 41.0296 4.01808 42.2686 1.39614C43.5363 1.36733 44.9769 1.36733 46.3311 1.45377C46.1871 4.56552 45.7549 7.56203 45.6108 10.5873C47.2243 7.64847 48.5785 4.45027 50.1056 1.39614C51.2005 1.45377 52.497 1.33852 53.8224 1.45377C50.9411 7.59084 48.0887 13.7567 45.1786 19.865C43.7668 19.8362 42.5567 20.0091 41.2025 19.8074C41.433 16.2922 41.8364 13.0076 42.1245 9.43484C41.5483 10.2128 41.2313 11.1348 40.8279 12.028C39.6178 14.5923 38.4365 17.3007 37.2552 19.9226C36.0739 19.865 34.8061 19.865 33.1926 19.865C33.279 14.7652 33.7977 9.57891 33.9994 4.65196C32.4147 4.59433 30.369 4.62315 28.5538 4.59433C27.9775 5.8909 27.6606 7.44678 27.1708 8.80097C28.5826 8.88741 30.4842 8.82978 32.1554 8.85859C32.0113 9.83822 31.5503 10.9043 31.3486 11.9704C29.9656 11.9992 28.3233 12.028 26.4217 12.028C25.903 13.4974 25.5573 15.1685 25.0963 16.7244C26.8827 16.7532 28.7843 16.6668 30.4842 16.782C30.1385 17.8481 29.7927 18.8566 29.447 19.8938C26.2776 19.865 22.8777 19.8938 19.9965 19.8362C21.4371 13.555 23.1082 7.47559 24.7217 1.36733C29.1877 1.28089 33.9994 1.3097 38.7246 1.36733Z" fill="#0071E3"/>
<path fill-rule="evenodd" clip-rule="evenodd" d="M10.8052 1.30957C12.361 1.33839 14.061 1.25195 15.5304 1.3672C15.905 4.30608 16.1931 7.3314 16.6253 10.2127C17.6049 7.3314 18.3252 4.19083 19.3049 1.30957C20.4862 1.3672 22.0132 1.19432 22.8776 1.39601C21.2353 7.64833 19.6506 13.6413 17.8931 19.7784C16.5389 19.7784 15.1847 19.7784 13.8305 19.7784C13.3119 16.3209 13.0814 12.8634 12.5339 9.46353C11.439 12.777 10.6611 16.465 9.5086 19.7784C8.35609 19.7496 7.08834 19.836 6.02228 19.7208C7.49172 13.5549 9.16285 7.59071 10.6611 1.45364C10.6899 1.39601 10.7475 1.33839 10.8052 1.30957Z" fill="#0071E3"/>
<path fill-rule="evenodd" clip-rule="evenodd" d="M61.5151 1.42491C61.688 3.58585 61.8896 5.86204 62.0049 8.02298C63.4455 6.06373 64.7421 3.55704 66.1539 1.42491C67.364 1.42491 68.9775 1.36728 70.3029 1.48253C68.3148 4.70954 66.0098 7.87892 63.9065 11.1924C63.5896 11.6822 63.1862 12.1432 62.9845 12.5754C62.754 13.1516 62.6676 13.8431 62.4947 14.477C62.0337 16.1769 61.4863 17.9921 60.91 19.8649C59.4982 19.8073 58.0576 19.9226 56.8474 19.8073C57.222 17.3871 58.1728 14.938 58.6626 12.5466C58.7779 11.9991 58.5474 11.4517 58.4609 10.8178C58.0576 7.64842 57.5966 4.56548 57.1644 1.3961C58.7779 1.33847 59.8151 1.36728 61.5151 1.42491Z" fill="#0071E3"/>
<path fill-rule="evenodd" clip-rule="evenodd" d="M164 1.36728C163.828 2.31809 163.453 3.49941 163.194 4.50785C162.214 4.65191 161.062 4.56547 160.14 4.56547C158.699 9.66529 157.46 14.6499 155.991 19.7209C154.752 19.8073 153.167 19.8073 151.928 19.7209C153.196 14.5634 154.694 9.63648 155.933 4.47903C155.126 4.36378 154.089 4.45022 153.196 4.42141C153.34 3.32653 153.628 2.37572 153.916 1.39609C157.143 1.30965 160.14 1.30965 164 1.36728Z" fill="#0071E3"/>
<path fill-rule="evenodd" clip-rule="evenodd" d="M91.0192 10.7313C91.7684 11.1059 92.5751 11.2499 92.4887 12.4024C92.4599 12.921 92.2006 13.6702 91.9989 14.304C91.5379 15.9752 90.8464 18.2514 90.4718 19.8072C88.9735 19.8072 87.7922 19.8937 86.0635 19.7496C86.2652 18.2802 86.8414 16.2921 87.2448 14.5345C87.3889 13.9583 87.7058 13.2092 87.5905 12.8058C87.3024 11.999 85.8042 12.3736 84.8534 12.2872C83.989 14.6498 83.4127 17.3294 82.6636 19.7784C81.2518 19.7208 79.7535 19.8072 78.457 19.7208C79.1197 16.6091 80.0705 13.5549 80.8484 10.5008C81.6263 7.44666 82.3467 4.36372 83.2975 1.36721C85.6025 1.42484 87.9075 1.30959 90.0972 1.30959C91.3362 1.30959 93.2954 1.19434 94.0734 1.74178C95.4852 2.77903 94.592 4.76709 94.1598 6.43822C93.9293 7.33141 93.6988 8.25341 93.4971 8.77204C93.0937 9.86692 91.9412 10.2127 91.0192 10.7313ZM88.9736 8.62798C89.1464 7.87885 89.7227 6.81278 89.8379 5.94841C90.1261 4.04678 88.3685 4.76709 87.216 4.62303C86.6109 5.97722 86.294 7.59072 85.833 9.06016C86.7262 9.11779 88.4549 9.29066 88.9736 8.62798Z" fill="#0071E3"/>
<path fill-rule="evenodd" clip-rule="evenodd" d="M101.305 1.45375C100.815 3.52825 100.268 5.42988 99.778 7.41795C100.354 7.0722 100.7 6.49594 101.161 5.97732C102.515 4.53669 103.869 2.89438 105.224 1.42494C106.462 1.3385 108.018 1.3385 109.229 1.42494C108.307 2.89438 107.212 4.19094 106.174 5.54513C105.137 6.87051 104.1 8.2247 103.063 9.55008C103.783 13.0364 104.532 16.2634 105.224 19.7209C103.293 19.8362 101.881 19.8073 100.383 19.7785C99.8644 17.0702 99.3458 14.3618 98.7984 11.6534C97.8475 14.2177 97.156 17.0702 96.3493 19.7785C94.8799 19.8073 93.4968 19.8073 91.7969 19.7785C92.085 18.2515 92.5172 16.7532 92.9782 15.2261C93.4392 13.7279 93.785 12.2008 94.2172 10.6738C94.6782 9.1467 95.168 7.61963 95.5425 6.09257C95.9459 4.53669 96.4357 2.92319 96.8679 1.45375C98.2797 1.3385 99.8644 1.42494 101.305 1.45375Z" fill="#0071E3"/>
<path fill-rule="evenodd" clip-rule="evenodd" d="M117.151 14.1889C116.546 16.0041 116.056 17.9057 115.538 19.7785C114.385 19.8938 112.484 19.8362 111.389 19.7785C112.916 13.6415 114.616 7.59083 116.258 1.48257C118.678 1.39613 120.897 1.42494 123.346 1.42494C124.153 1.42494 125.046 1.30969 125.68 1.42494C126.688 1.59782 127.293 2.63507 127.293 3.87401C127.293 4.56551 127.034 5.37226 126.861 6.12139C126.487 7.73489 126.199 8.97383 125.622 10.4145C125.248 11.3365 125.017 12.2585 124.383 12.8635C122.683 14.3906 120.148 14.3618 117.151 14.1889ZM121.07 10.4145C121.617 9.49246 122.194 7.61964 122.453 6.29426C122.539 5.9197 122.597 5.51632 122.539 5.28582C122.366 4.33501 120.724 4.42145 119.773 4.65195C119.197 6.66883 118.65 8.6857 118.102 10.7314C119.053 11.1924 120.378 10.9331 121.07 10.4145Z" fill="#0071E3"/>
<path fill-rule="evenodd" clip-rule="evenodd" d="M129.484 16.6668C129.455 16.4939 129.426 16.321 129.282 16.2346C129.311 14.9668 129.714 13.9296 130.06 12.7482C130.579 10.9331 131.04 9.2043 131.587 7.21623C131.818 6.35186 132.135 5.11292 132.624 4.73835C133.374 4.1621 135.189 4.10448 135.304 5.25698C135.333 5.60273 135.131 6.06373 135.016 6.58236C134.526 8.7433 133.95 10.9042 133.345 13.0364C133.114 13.9007 132.97 14.7939 132.682 15.5719C132.596 15.8024 132.336 16.321 132.25 16.4363C131.731 17.0701 130.233 17.2142 129.484 16.6668Z" fill="#E9E9E9"/>
<path fill-rule="evenodd" clip-rule="evenodd" d="M73.1839 16.3786C72.7229 16.8972 71.4263 17.0701 70.7348 16.6667C70.1297 15.9176 70.8789 14.2465 71.167 13.2668C71.8585 10.9042 72.3771 8.71444 73.0398 6.38063C73.1551 5.91963 73.2415 5.34338 73.4144 5.05525C73.8177 4.30612 76.0363 3.90275 76.238 5.05525C76.2956 5.45863 76.0363 6.12131 75.9499 6.58232C75.6617 7.96532 75.1431 9.5212 74.7974 10.8466C74.3076 12.8346 73.8754 14.7075 73.1839 16.3786Z" fill="#E9E9E9"/>
<path fill-rule="evenodd" clip-rule="evenodd" d="M118.131 10.7314C118.678 8.6857 119.226 6.66882 119.802 4.65194C120.753 4.42144 122.424 4.335 122.568 5.28581C122.597 5.51632 122.539 5.91969 122.482 6.29425C122.222 7.61963 121.646 9.46364 121.099 10.4144C120.378 10.9331 119.053 11.1924 118.131 10.7314Z" fill="#E9E9E9"/>
<path fill-rule="evenodd" clip-rule="evenodd" d="M85.804 9.06027C86.265 7.59083 86.5819 5.94852 87.187 4.62314C88.3395 4.79601 90.097 4.0757 89.8089 5.94852C89.6936 6.78408 89.1174 7.87896 88.9445 8.62808C88.4547 9.29077 86.726 9.1179 85.804 9.06027Z" fill="#E9E9E9"/>
<path fill-rule="evenodd" clip-rule="evenodd" d="M81.2514 1.71304C81.7412 1.3961 82.1446 1.02154 82.5768 0.675786C85.2275 0.61816 88.2529 0.704598 90.9901 0.675786C91.8256 0.675786 92.7188 0.531723 93.5256 0.733411C94.0442 0.848661 94.4476 1.28085 94.9086 1.54016C95.3984 1.33847 95.6577 0.935099 96.0611 0.61816C98.1356 0.61816 100.239 0.61816 102.313 0.61816C102.256 1.28085 102.083 1.8571 101.968 2.49098C102.457 2.34691 102.861 1.94354 103.293 1.6266C103.725 1.30966 104.157 0.963911 104.532 0.61816C106.347 0.646973 108.854 0.646973 110.842 0.61816C110.957 0.848661 110.669 1.05035 110.554 1.19441C108.364 3.9316 106.088 6.95692 103.898 9.75174C104.676 13.4397 105.483 17.0701 106.347 20.7005C104.59 21.9971 102.976 23.4377 101.276 24.7631C99.144 24.7631 97.0119 24.7631 94.8797 24.7631C94.7069 24.158 94.534 23.5241 94.2459 23.0343C93.7272 23.1208 93.4103 23.5818 92.9493 23.8987C92.5459 24.1868 92.0561 24.6766 91.6527 24.7631C90.8172 24.9648 89.6359 24.7631 88.6274 24.7631C85.7174 24.7631 82.6632 24.7919 80.0125 24.7055C80.0413 24.2156 80.3006 23.9851 80.243 23.4089C79.465 23.7546 78.8888 24.3309 78.1973 24.7343C76.3821 24.7343 74.5669 24.7343 72.7517 24.7343C72.8381 23.9851 73.011 23.3513 73.0975 22.5733C72.3483 22.8038 71.6568 23.3225 70.8501 23.7258C69.3806 24.475 67.5366 25.1088 65.2028 24.9071C62.7249 24.7055 61.486 23.5818 60.5064 21.853C59.1522 22.7174 57.9997 23.8123 56.6743 24.7343C54.6286 24.7631 52.6117 24.7919 50.8542 24.7343C51.4304 22.631 51.9778 20.4988 52.5829 18.3379C52.7558 17.6464 53.0727 16.8973 53.1592 16.2346C53.2168 15.5719 52.9863 14.8516 52.9287 14.1312C52.6982 12.0856 52.4388 9.8958 52.1219 7.73486C51.6033 8.10942 51.5168 8.77211 51.2575 9.31955C49.4712 12.9787 47.5983 16.8973 45.8696 20.7005C44.7171 21.709 43.2188 22.6886 41.8646 23.7546C41.4613 24.0716 40.9426 24.6478 40.5393 24.7631C39.7613 24.9648 38.7241 24.7631 37.8021 24.7631C36.8801 24.7631 36.0157 24.7631 35.3242 24.7055C35.4106 23.9851 35.6411 23.4089 35.7564 22.6886C35.1513 22.775 34.7191 23.2936 34.1717 23.6394C33.6819 23.9563 32.9904 24.6766 32.4141 24.7343C32.1836 24.7631 31.9243 24.7055 31.6938 24.6766C30.3972 24.619 28.8414 24.7343 27.4296 24.6766C27.3719 24.2733 27.6312 23.7546 27.5736 23.2072C27.1126 23.2936 26.7957 23.6682 26.4211 23.9275C26.0754 24.158 25.672 24.5902 25.3262 24.7055C24.8076 24.8495 23.8856 24.7343 23.1653 24.7631C21.0044 24.8495 17.7773 24.5902 14.9825 24.7631C14.8097 24.5326 14.7232 24.1868 14.4639 24.0428C14.0893 24.1292 13.9165 24.6766 13.5131 24.7631C13.1962 24.8495 12.6487 24.7631 12.2741 24.7631C11.064 24.7343 9.65221 24.7631 8.41327 24.7631C8.24039 24.0716 8.2692 23.3801 8.06752 22.7462C7.03026 23.2936 6.22351 24.1004 5.30151 24.7631C3.54394 24.7631 1.75757 24.7631 0 24.7631C1.06606 20.1243 2.59313 15.0244 3.77444 10.1551C4.09138 8.85855 4.40832 7.70605 4.78288 6.32305C4.92695 5.7468 4.98457 5.08411 5.21507 4.59429C5.44557 4.13329 5.9642 3.9316 6.45401 3.55704C7.72177 2.49098 8.84545 1.42491 10.1708 0.50291C12.1589 0.50291 14.147 0.50291 16.135 0.50291C16.2791 0.906286 16.3079 1.36729 16.4232 1.79948C17.057 1.74185 17.7773 0.646973 18.3824 0.50291C18.901 0.38766 19.5637 0.61816 20.1112 0.589348C26.0177 0.330035 33.9124 0.560535 39.3868 0.531723C39.4732 0.906286 39.4444 1.42491 39.5884 1.77066C40.2799 1.68423 40.7121 0.762223 41.346 0.589348C42.0663 0.38766 43.19 0.589348 44.112 0.589348C45.0628 0.589348 46.0136 0.589348 46.9356 0.589348C47.0797 1.02154 46.9933 1.65541 47.0797 2.11641C47.9729 1.74185 48.5492 1.07916 49.3271 0.589348C51.1999 0.589348 53.0727 0.589348 54.9744 0.589348C54.9455 0.906286 54.7439 1.07916 54.7439 1.45372C55.2913 1.28085 55.6082 0.877473 56.0404 0.589348C58.1437 0.589348 60.2471 0.589348 62.3504 0.589348C62.4944 1.19441 62.408 2.17404 62.4944 2.69266C63.5317 2.0876 64.2808 1.25204 65.2604 0.589348C67.3061 0.589348 69.2942 0.589348 71.4263 0.589348C71.6856 0.50291 71.5416 0.819848 71.7721 0.791036C74.5669 -0.275029 79.321 -0.217403 81.2514 1.71304ZM69.6111 3.52823C69.0349 4.36379 68.8044 5.05529 68.5163 6.15017C67.8824 8.59924 67.1044 11.2788 66.557 13.6991C66.2113 15.1973 65.3757 16.9837 65.7791 18.626C65.9808 19.4328 67.2485 20.0954 67.8248 20.2971C70.1298 21.1327 73.5873 20.5276 75.2296 19.4328C76.1228 18.8277 77.2177 17.7616 77.621 16.7532C77.938 15.9753 78.1685 14.8228 78.4854 13.6991C79.0617 11.6534 79.6091 9.49243 80.1565 7.47555C80.4158 6.46711 80.8192 5.25698 80.9345 4.27735C80.9921 3.84517 80.9921 3.32654 80.9345 3.03841C80.4735 0.646973 77.6498 0.445285 74.7686 0.704598C72.3771 0.906286 70.6772 1.94354 69.6111 3.52823ZM24.7212 1.36729C23.1077 7.47555 21.4365 13.555 19.9383 19.7785C22.8195 19.8361 26.2482 19.8073 29.3888 19.8361C29.7346 18.7989 30.1091 17.7904 30.4261 16.7244C28.7261 16.6091 26.7957 16.6956 25.0381 16.6668C25.4991 15.1109 25.8449 13.4686 26.3635 11.9703C28.2651 11.9703 29.9074 11.9415 31.2904 11.9127C31.5209 10.8466 31.9531 9.78055 32.0972 8.80093C30.4549 8.77211 28.5532 8.82974 27.1126 8.7433C27.6024 7.38911 27.9194 5.83323 28.4956 4.53667C30.3108 4.53667 32.3565 4.50786 33.9412 4.59429C33.7683 9.55005 33.2785 14.7363 33.1921 19.8073C34.8056 19.8073 36.0733 19.8073 37.2546 19.8649C38.4648 17.243 39.6461 14.5634 40.8274 11.9703C41.2308 11.1059 41.5477 10.1551 42.124 9.37718C41.8358 12.9499 41.4613 16.2346 41.202 19.7497C42.5273 19.9226 43.7375 19.7785 45.1781 19.8073C48.0882 13.6991 50.9694 7.56199 53.8219 1.3961C52.4965 1.28085 51.1999 1.3961 50.105 1.33847C48.578 4.36379 47.2238 7.56199 45.6103 10.5297C45.7543 7.50436 46.1865 4.50786 46.3306 1.3961C44.9764 1.30966 43.5358 1.30966 42.268 1.33847C41.0291 3.96042 39.7901 6.69761 38.58 9.26193C38.4071 9.60768 38.3207 10.0687 37.9461 10.2992C38.2343 7.38911 38.4936 4.30617 38.7241 1.30966C33.9988 1.30966 29.1871 1.28085 24.7212 1.36729ZM10.6606 1.45372C9.16239 7.56199 7.49126 13.5262 6.02182 19.7209C7.08789 19.8361 8.35564 19.7497 9.50814 19.7785C10.6318 16.4651 11.4098 12.8059 12.5335 9.46362C13.0809 12.8635 13.3114 16.321 13.83 19.7785C15.1842 19.7785 16.5384 19.7785 17.8926 19.7785C19.6502 13.6414 21.2349 7.64842 22.906 1.42491C22.0416 1.22322 20.4857 1.36729 19.3332 1.33847C18.3536 4.21973 17.6333 7.3603 16.6537 10.2416C16.2215 7.3603 15.9333 4.33498 15.5588 1.3961C14.0893 1.28085 12.3894 1.36729 10.8335 1.33847C10.7471 1.33847 10.6895 1.3961 10.6606 1.45372ZM57.2217 1.42491C57.6539 4.59429 58.1149 7.67724 58.5183 10.8466C58.6047 11.4805 58.8352 12.0279 58.72 12.5754C58.2302 14.9668 57.2794 17.4159 56.9048 19.8361C58.1149 19.9226 59.5555 19.8361 60.9674 19.8938C61.5148 18.0209 62.0911 16.1769 62.5521 14.5058C62.7249 13.8719 62.8114 13.1804 63.0419 12.6042C63.2147 12.172 63.6469 11.711 63.9639 11.2212C66.0672 7.90774 68.3722 4.73836 70.3603 1.51135C69.0061 1.3961 67.4214 1.48254 66.2113 1.45372C64.7994 3.58585 63.5029 6.09255 62.0622 8.0518C61.947 5.89086 61.7453 3.61467 61.5724 1.45372C59.8149 1.36729 58.7776 1.33847 57.2217 1.42491ZM93.4967 8.82974C93.6984 8.31111 93.9289 7.3603 94.1594 6.49592C94.5916 4.85361 95.4848 2.83673 94.073 1.79948C93.3239 1.25204 91.3646 1.36729 90.0969 1.36729C87.9071 1.36729 85.6309 1.45372 83.2971 1.42491C82.3751 4.42142 81.6548 7.50436 80.848 10.5585C80.0701 13.6126 79.1193 16.6668 78.4566 19.7785C79.7532 19.8649 81.2514 19.7785 82.6632 19.8361C83.4124 17.3583 83.9886 14.7075 84.853 12.3449C85.775 12.4313 87.302 12.0567 87.5902 12.8635C87.7342 13.2669 87.3885 13.9872 87.2444 14.5922C86.841 16.3498 86.236 18.3091 86.0631 19.8073C87.763 19.9226 88.9444 19.8649 90.4714 19.8649C90.846 18.3379 91.5375 16.0329 91.9985 14.3617C92.1714 13.6991 92.4307 12.9787 92.4883 12.4601C92.5747 11.3076 91.7392 11.1636 91.0189 10.789C91.9409 10.2127 93.0934 9.86699 93.4967 8.82974ZM96.9542 1.51135C96.4932 2.95198 96.0034 4.59429 95.6289 6.15017C95.2255 7.67724 94.7357 9.23311 94.3035 10.7314C93.8425 12.2296 93.5256 13.7855 93.0646 15.2838C92.6036 16.782 92.1714 18.3091 91.8832 19.8361C93.5544 19.8649 94.9662 19.8649 96.4356 19.8361C97.2424 17.1278 97.9339 14.2753 98.8847 11.711C99.4321 14.4194 99.9219 17.1278 100.469 19.8361C101.968 19.8649 103.379 19.8938 105.31 19.7785C104.647 16.321 103.869 13.094 103.149 9.60768C104.186 8.25349 105.223 6.92811 106.261 5.60273C107.298 4.24854 108.393 2.95198 109.315 1.48254C108.076 1.3961 106.52 1.3961 105.31 1.48254C103.956 2.95198 102.602 4.56548 101.247 6.03492C100.786 6.52473 100.412 7.1298 99.8643 7.47555C100.354 5.48748 100.902 3.58585 101.391 1.51135C99.8643 1.42491 98.2796 1.33847 96.9542 1.51135Z" fill="#E9E9E9"/>
</svg>
