<svg width="158" height="26" viewBox="0 0 158 26" fill="none" xmlns="http://www.w3.org/2000/svg">
<path d="M157.133 9.10669H154.56L154.24 6.26668C154.213 6.01335 154 5.82669 153.747 5.82669H150.88C150.68 5.82669 150.52 5.98668 150.52 6.18668V9.10669L150.547 12.16V17.4267C150.547 18.0934 150.627 18.7067 150.773 19.2534C150.92 19.8 151.173 20.2667 151.507 20.6534C151.853 21.0534 152.307 21.3467 152.867 21.56C153.44 21.7734 154.133 21.88 154.973 21.88C155.413 21.88 155.84 21.84 156.28 21.7734C156.587 21.72 156.867 21.6534 157.093 21.5867C157.253 21.5467 157.347 21.4 157.347 21.24L157.307 18.9734C157.307 18.7467 157.093 18.5867 156.88 18.6267C156.84 18.64 156.787 18.64 156.747 18.6534C156.52 18.6934 156.307 18.7067 156.107 18.7067C155.52 18.7067 155.12 18.56 154.893 18.2667C154.667 17.9733 154.56 17.5334 154.56 16.9467V12.1734H157.133C157.333 12.1734 157.493 12.0134 157.493 11.8134V9.48003C157.493 9.26669 157.333 9.10669 157.133 9.10669Z" fill="#0071E3"/>
<path d="M45.6 10.2534C45.24 9.77335 44.7733 9.38669 44.1867 9.09336C43.6133 8.80002 42.9333 8.65335 42.1333 8.64002C42.12 8.64002 42.1067 8.64002 42.0933 8.64002C42.08 8.64002 42.0667 8.64002 42.0533 8.64002C42.0133 8.64002 41.96 8.64002 41.92 8.64002C40.9867 8.66669 40.2 8.84002 39.5467 9.16002C38.9467 9.45336 38.4667 9.78668 38.0933 10.1333L37.8533 9.33335C37.7867 9.12002 37.6 8.98668 37.3867 8.98668H34.6533C34.4533 8.98668 34.2933 9.1467 34.2933 9.34669V21.1067C34.2933 21.3067 34.4533 21.4667 34.6533 21.4667H38.0667C38.2667 21.4667 38.4267 21.3067 38.4267 21.1067V14.7067C38.4267 14.36 38.4667 14.0134 38.56 13.6934C38.6533 13.3734 38.7867 13.08 38.9733 12.8267C39.16 12.5734 39.3867 12.3867 39.6667 12.24C39.9467 12.0934 40.2667 12.0267 40.6267 12.0267C41 12.0267 41.2933 12.0934 41.5467 12.24C41.7867 12.3867 41.9733 12.5734 42.1067 12.8134C42.24 13.0534 42.3333 13.3334 42.4 13.6534C42.4533 13.9734 42.4933 14.3067 42.4933 14.6534V21.1067C42.4933 21.3067 42.6533 21.4667 42.8533 21.4667H46.2667C46.4667 21.4667 46.6267 21.3067 46.6267 21.1067V13.7467C46.6267 13.1334 46.5467 12.5067 46.3867 11.8934C46.2267 11.28 45.96 10.7334 45.6 10.2534Z" fill="#0071E3"/>
<path d="M76.4267 18.1334C76.0533 17.9467 75.7467 17.7067 75.5067 17.4134C75.2533 17.1067 75.0667 16.76 74.9467 16.3734C74.8267 15.9867 74.76 15.5867 74.76 15.1867C74.76 14.7867 74.8267 14.4 74.9467 14.0134C75.0667 13.6267 75.2533 13.2934 75.5067 13C75.76 12.7067 76.0667 12.4667 76.4267 12.28C76.8 12.0934 77.2133 12 77.7067 12C78.1733 12 78.5867 12.0934 78.96 12.28C79.3333 12.4667 79.64 12.7067 79.8933 13C80.1467 13.3067 80.3467 13.64 80.4933 14.0267C80.64 14.4134 80.7067 14.8 80.7067 15.2C80.7067 15.6 80.64 15.9867 80.4933 16.3734C80.3467 16.76 80.1467 17.0934 79.8933 17.4C79.64 17.7067 79.32 17.9467 78.96 18.12C78.5867 18.3067 78.1733 18.4 77.7067 18.4C77.2133 18.4134 76.7867 18.32 76.4267 18.1334ZM84.28 4.12003H80.8933C80.6933 4.12003 80.5333 4.28004 80.5333 4.48004V10.32H80.48C80.1333 9.90669 79.64 9.52003 79 9.17336C78.36 8.8267 77.5867 8.65336 76.6667 8.65336C75.76 8.65336 74.9467 8.8267 74.2267 9.17336C73.5067 9.52003 72.88 10 72.3733 10.6C71.8667 11.2 71.4667 11.8934 71.2 12.6934C70.92 13.48 70.7867 14.32 70.7867 15.1867C70.7867 16.0534 70.92 16.8934 71.1867 17.6934C71.4533 18.4934 71.84 19.2 72.3467 19.8134C72.8533 20.4267 73.48 20.9067 74.2133 21.28C74.9467 21.6534 75.7867 21.8267 76.72 21.8267C76.8267 21.8267 76.9467 21.8267 77.0533 21.8134C78.0267 21.7867 78.8667 21.6134 79.5467 21.2667C80.1333 20.9734 80.6267 20.6534 81 20.3067L81.2667 21.12C81.3333 21.32 81.52 21.4534 81.7333 21.4534H84.2667C84.4667 21.4534 84.6267 21.2934 84.6267 21.0934V4.46669C84.64 4.28002 84.48 4.12003 84.28 4.12003Z" fill="#0071E3"/>
<path d="M106.76 8.98668H103.28C103.12 8.98668 102.973 9.09334 102.933 9.25334L100.827 16.88H100.773L98.5467 9.25334C98.5067 9.10668 98.36 9 98.2 9H94.6133C94.4533 9 94.3067 9.10667 94.2667 9.26667L92.1067 16.8933H92.0267L89.9467 9.26667C89.9067 9.10667 89.76 9 89.6 9H85.9467C85.7067 9 85.5333 9.24002 85.6133 9.48002L89.6667 21.24C89.72 21.3867 89.8533 21.48 90 21.48H93.6133C93.7733 21.48 93.9067 21.3734 93.96 21.2267L96.28 13.72H96.3333L98.7067 21.2267C98.76 21.3734 98.8933 21.48 99.0533 21.48H102.667C102.813 21.48 102.96 21.3867 103 21.24L107.08 9.48002C107.187 9.24002 107.013 8.98668 106.76 8.98668Z" fill="#0071E3"/>
<path d="M127.44 4.12002H123.973C123.773 4.12002 123.613 4.28003 123.613 4.48003V21.1067C123.613 21.3067 123.773 21.4667 123.973 21.4667H127.44C127.64 21.4667 127.8 21.3067 127.8 21.1067V4.48003C127.8 4.28003 127.64 4.12002 127.44 4.12002Z" fill="#0071E3"/>
<path d="M134.307 4.12002H130.84C130.64 4.12002 130.48 4.28003 130.48 4.48003V21.1067C130.48 21.3067 130.64 21.4667 130.84 21.4667H134.307C134.507 21.4667 134.667 21.3067 134.667 21.1067V4.48003C134.653 4.28003 134.493 4.12002 134.307 4.12002Z" fill="#0071E3"/>
<path d="M111.84 17.4C111.587 17.0933 111.4 16.7467 111.28 16.36C111.16 15.9734 111.093 15.5734 111.093 15.1734C111.093 14.7734 111.16 14.3867 111.28 14C111.4 13.6133 111.6 13.28 111.84 12.9867C112.093 12.6934 112.4 12.4533 112.76 12.2667C113.133 12.08 113.547 11.9867 114.04 11.9867C114.507 11.9867 114.92 12.08 115.293 12.2667C115.667 12.4533 115.973 12.6934 116.227 12.9867C116.48 13.2934 116.68 13.6267 116.827 14.0134C116.973 14.4 117.04 14.7867 117.04 15.1867C117.04 15.5867 116.973 15.9734 116.827 16.36C116.68 16.7467 116.48 17.08 116.227 17.3867C115.973 17.6934 115.653 17.9334 115.293 18.1067C114.92 18.2934 114.507 18.3867 114.04 18.3867C113.56 18.3867 113.133 18.2934 112.76 18.1067C112.4 17.9467 112.093 17.7067 111.84 17.4ZM120.627 8.56003H117.76C117.547 8.56003 117.347 8.70669 117.293 8.90669L116.96 10.04C116.6 9.72002 116.147 9.42669 115.6 9.16003C114.893 8.81336 114.04 8.64002 113.013 8.64002C112.107 8.64002 111.293 8.81336 110.573 9.16003C109.853 9.50669 109.227 9.98669 108.72 10.5867C108.213 11.1867 107.813 11.88 107.547 12.68C107.267 13.4667 107.133 14.3067 107.133 15.1734C107.133 16.04 107.267 16.88 107.533 17.68C107.8 18.48 108.187 19.1867 108.693 19.8C109.2 20.4133 109.827 20.8933 110.56 21.2667C111.293 21.64 112.133 21.8134 113.067 21.8134C113.28 21.8134 113.493 21.8 113.707 21.7734C114.467 21.7067 115.133 21.5334 115.707 21.2534C116.373 20.92 116.907 20.5467 117.307 20.16L117.613 21.12C117.68 21.32 117.867 21.4534 118.08 21.4534H120.613C120.813 21.4534 120.973 21.2934 120.973 21.0934V8.92002C120.987 8.72002 120.827 8.56003 120.627 8.56003Z" fill="#0071E3"/>
<path d="M70.3467 8.68002H70.32L70.36 8.65334C70.2533 8.65334 70.16 8.65334 70.0533 8.66667C69.9733 8.66667 69.8933 8.65334 69.8 8.65334C69.2533 8.65334 68.76 8.76002 68.32 8.96002C68.1333 9.02668 67.9467 9.09334 67.7733 9.18668C67.1067 9.52001 66.5867 9.88001 66.2 10.2667L65.9467 9.38668C65.88 9.17334 65.6933 9.02668 65.48 9.02668H62.76C62.56 9.02668 62.4 9.18668 62.4 9.38668V21.12C62.4 21.32 62.56 21.48 62.76 21.48H66.1467C66.3467 21.48 66.5067 21.32 66.5067 21.12V15.08C66.5067 14.8267 66.56 14.5333 66.6533 14.2C66.76 13.8667 66.92 13.56 67.1467 13.28C67.3733 13 67.6667 12.76 68.0533 12.56C68.4267 12.36 68.8933 12.2667 69.44 12.2667C69.6133 12.2667 69.7733 12.28 69.96 12.2933L70.12 12.32C70.32 12.3333 70.4933 12.2 70.5067 12L70.64 9.10668C70.6933 8.88001 70.5467 8.69335 70.3467 8.68002Z" fill="#0071E3"/>
<path d="M51.92 13.8C51.9333 13.48 52.0267 13.1734 52.1733 12.88C52.32 12.5867 52.52 12.3334 52.7733 12.12C53.0267 11.9067 53.32 11.7334 53.6533 11.6134C53.9867 11.4934 54.36 11.4267 54.76 11.4267C55.5733 11.4267 56.1867 11.6667 56.6 12.1333C57.0133 12.6 57.2133 13.16 57.2133 13.8134H51.92V13.8ZM59.24 10.4C58.6933 9.81335 58.0267 9.37335 57.2667 9.06668C56.4933 8.76002 55.6533 8.60002 54.7333 8.60002C53.7867 8.60002 52.8933 8.76003 52.08 9.08003C51.2667 9.40003 50.5467 9.84003 49.9467 10.4134C49.3467 10.9867 48.8667 11.6934 48.52 12.52C48.1733 13.3467 48 14.2667 48 15.2934C48 16.3467 48.1733 17.28 48.5333 18.0934C48.8933 18.9067 49.3867 19.6 50.0133 20.16C50.64 20.72 51.3733 21.1467 52.2 21.44C53.04 21.7334 53.92 21.88 54.8533 21.88C56.12 21.88 57.24 21.6534 58.2 21.1867C58.7867 20.9067 59.3067 20.5467 59.7467 20.12C59.92 19.96 59.92 19.68 59.7467 19.52L57.9733 17.7333C57.8133 17.5733 57.5467 17.56 57.3867 17.7333C57.1467 17.9733 56.88 18.1867 56.56 18.36C56.1067 18.6 55.56 18.72 54.9067 18.72C54.5333 18.72 54.1867 18.6667 53.84 18.5467C53.4933 18.4267 53.1867 18.2667 52.92 18.0534C52.64 17.84 52.4133 17.6 52.24 17.32C52.0667 17.04 51.96 16.72 51.92 16.3734H60.96C60.9733 16.2267 60.9867 16.0667 60.9867 15.8934C60.9867 15.72 60.9867 15.56 60.9867 15.3867C60.9867 14.32 60.8267 13.3733 60.52 12.5333C60.2133 11.6933 59.7867 10.9733 59.24 10.4Z" fill="#0071E3"/>
<path d="M140.147 13.8C140.16 13.48 140.253 13.1734 140.4 12.88C140.547 12.5867 140.747 12.3334 141 12.12C141.253 11.9067 141.547 11.7334 141.88 11.6134C142.213 11.4934 142.587 11.4267 142.987 11.4267C143.8 11.4267 144.413 11.6667 144.827 12.1333C145.24 12.6 145.44 13.16 145.44 13.8134H140.147V13.8ZM147.467 10.4C146.92 9.81335 146.253 9.37335 145.493 9.06668C144.72 8.76002 143.88 8.60002 142.96 8.60002C142.013 8.60002 141.12 8.76003 140.307 9.08003C139.493 9.40003 138.773 9.84003 138.173 10.4134C137.573 10.9867 137.093 11.6934 136.747 12.52C136.4 13.3467 136.227 14.2667 136.227 15.2934C136.227 16.3467 136.4 17.28 136.76 18.0934C137.12 18.9067 137.613 19.6 138.24 20.16C138.867 20.72 139.6 21.1467 140.427 21.44C141.267 21.7334 142.147 21.88 143.08 21.88C144.347 21.88 145.467 21.6534 146.427 21.1867C147.013 20.9067 147.533 20.5467 147.973 20.12C148.147 19.96 148.147 19.68 147.973 19.52L146.2 17.7333C146.04 17.5733 145.773 17.56 145.613 17.7333C145.373 17.9733 145.107 18.1867 144.787 18.36C144.333 18.6 143.787 18.72 143.133 18.72C142.76 18.72 142.413 18.6667 142.067 18.5467C141.72 18.4267 141.413 18.2667 141.147 18.0534C140.867 17.84 140.64 17.6 140.467 17.32C140.293 17.04 140.187 16.72 140.16 16.3734H149.2C149.213 16.2267 149.227 16.0667 149.227 15.8934C149.227 15.72 149.227 15.56 149.227 15.3867C149.227 14.32 149.067 13.3733 148.76 12.5333C148.44 11.6933 148.013 10.9733 147.467 10.4Z" fill="#0071E3"/>
<path d="M8.48 0.253349C8.38667 0.226682 8.29333 0.200012 8.2 0.200012H0.573333C0.266667 0.200012 0.0133333 0.453355 0.0133333 0.760022V8.73335L8.48 0.253349Z" fill="#0071E3"/>
<path d="M0.173334 25.6267C0.28 25.7334 0.413334 25.7867 0.573334 25.7867H7.97333C8.28 25.7867 8.53333 25.5334 8.53333 25.2267V17.2534L0.173334 25.6267Z" fill="#0071E3"/>
<path d="M17.0667 8.73335V25.72C17.08 25.7334 17.1067 25.7334 17.12 25.7467L25.6 17.2667L17.0667 8.73335Z" fill="#0071E3"/>
<path d="M8.53333 17.2667V0.280024C8.52 0.266691 8.49333 0.266682 8.48 0.253349L0 8.73334V25.2267C0 25.3867 0.0666663 25.52 0.16 25.6267L8.53333 17.2667Z" fill="#0071E3"/>
<path d="M25.5867 17.2667V0.773344C25.5867 0.466678 25.3333 0.213351 25.0267 0.213351H17.6267C17.32 0.213351 17.0667 0.466678 17.0667 0.773344V8.74668L25.5867 17.2667Z" fill="#0071E3"/>
<path d="M25.5867 17.2667L17.1067 25.7467C17.2 25.7734 17.2933 25.8 17.3867 25.8H25.0267C25.3333 25.8 25.5867 25.5467 25.5867 25.24V17.2667Z" fill="#0071E3"/>
<path d="M8.76 0.440014C8.69333 0.373347 8.61333 0.320024 8.53333 0.280024V17.2667L16.8267 25.56C16.8933 25.6267 16.9733 25.68 17.0533 25.72V8.73334L8.76 0.440014Z" fill="#0071E3"/>
</svg>
