<svg width="148" height="51" viewBox="0 0 148 51" fill="none" xmlns="http://www.w3.org/2000/svg">
<path d="M115.411 21.8V15.8H120.611C121.011 15.8 121.111 16 121.111 16.3V33.1C121.111 33.8 121.011 34.1 120.211 34.1H115.411L115.311 32.7C115.011 32.6 114.911 32.8 114.811 32.9C112.511 35.2 108.611 34.7 106.711 32C104.811 29.3 104.811 24.9 106.811 22.2C108.711 19.6 112.211 19.2 114.811 21.3C115.011 21.5 115.111 21.6 115.411 21.8ZM113.311 24.8C112.011 24.8 111.011 25.8 111.011 27.3C111.011 28.7 111.911 29.8 113.311 29.8C114.711 29.8 115.611 28.8 115.611 27.4C115.511 25.9 114.611 24.8 113.311 24.8ZM104.011 34.1H98.3111L98.2112 32.8C97.9111 32.7 97.9111 32.9 97.7112 33C95.2112 35.2 91.7112 34.9 89.7112 32.2C87.7112 29.5 87.7112 24.9 89.8111 22.3C91.8111 19.7 95.2112 19.4 97.7112 21.5L98.2112 21.9V15.9H103.511C103.911 15.9 104.011 16.1 104.011 16.4V34.1ZM98.3111 27.3C98.3111 25.9 97.3111 24.8 96.0111 24.8C94.7111 24.8 93.7112 25.9 93.7112 27.3C93.7112 28.7 94.7111 29.8 96.0111 29.8C97.3111 29.7 98.3111 28.7 98.3111 27.3ZM71.7112 33.7H66.1112V26.8C66.1112 25.5 65.5112 24.8 64.6112 24.8C63.6112 24.8 63.0112 25.5 63.0112 26.8V33.7H57.5112V15.8H63.1112V21.7C63.6112 21.7 63.7112 21.3 63.9112 21.2C65.5112 19.9 67.2111 19.6 69.0111 20.3C70.8111 20.9 71.7112 22.4 71.7112 24.1V33.7ZM135.511 33.3H130.011L129.911 32.1C128.911 33 127.911 33.5 126.711 33.6C123.511 33.9 121.311 31.6 122.011 28.5C122.311 27.1 123.311 26.3 124.611 25.8C126.011 25.3 127.511 25.4 129.011 25.7L129.911 25.8C130.011 24.7 129.511 24.1 128.411 23.9C126.911 23.7 125.511 24 124.011 24.5L123.011 20.9C126.211 19.9 129.411 19.5 132.511 20.6C134.211 21.2 135.111 22.5 135.311 24.2C135.711 27.4 135.311 30.3 135.511 33.3ZM129.011 27.8C127.911 27.8 127.211 28.3 127.211 29.2C127.211 30 127.611 30.5 128.411 30.5C129.411 30.6 130.111 29.8 130.111 28.6C130.111 27.7 129.411 27.9 129.011 27.8ZM87.5111 28.6H79.2112C79.5112 29.9 80.6111 30.6 81.9111 30.4C82.6111 30.3 83.2112 29.9 83.8111 29.4C84.0111 29.2 84.2112 29 84.6112 29.3L87.2112 31.5C85.1112 34.2 82.4111 34.9 79.4111 34.3C76.7112 33.8 74.9111 32.2 74.2112 29.4C73.5112 26.6 74.1112 24 76.2112 22C78.3111 20 80.8111 19.8 83.4111 20.7C86.1111 21.7 87.2111 23.9 87.5111 26.7C87.5111 27.2 87.5111 27.8 87.5111 28.6ZM79.0111 26H82.4111C82.1111 24.6 81.5112 24 80.6112 24.1C79.7112 24.1 79.2111 24.8 79.0111 26ZM56.6112 23.9L52.7112 26.1C51.4112 24.6 50.2112 24.4 49.3112 25.4C48.3112 26.4 48.3112 28.3 49.4112 29.2C50.4112 30.1 51.5112 29.8 52.8112 28.4L56.8112 30.7C55.6112 33.6 52.1112 35.1 48.6112 34.3C45.4112 33.6 43.1112 30.6 43.1112 27.2C43.2112 23.8 45.6112 20.9 48.9112 20.3C52.3112 19.6 55.5112 21 56.6112 23.9ZM147.711 20.1V25.9C147.511 25.9 147.411 26 147.311 26C144.611 26.2 143.511 27.2 143.411 29.8V33.6H137.711V20.3H143.411V22.4C144.411 21 145.611 19.9 147.711 20.1Z" fill="#0071E3"/>
<path d="M9.61115 41.3C10.9112 41.6 11.7112 41.2 12.5112 40.1C13.0112 39.3 12.9112 38.3 12.2112 37.4C11.7112 36.7 11.1112 36.3 10.3112 36C10.0112 35.9 9.91115 35.8 9.91115 35.5C10.3112 31.6 10.2112 27.7 10.1112 23.8C10.1112 23.7 10.1112 23.5 10.1112 23.4C12.1112 23.6 14.4112 22.3 15.2112 20.4C15.5112 19.6 15.4112 18.8 15.1112 18.1C14.2112 15.9 12.5112 14.7 10.3112 14.1C10.0112 14.1 9.71115 13.8 9.71115 13.5L8.11115 4.3C8.01115 3.7 7.81115 3.2 7.51115 2.7L6.91115 1.4C6.81115 1.1 6.41115 0.700001 6.61115 0.300001C6.91115 -0.0999989 7.41115 3.7998e-07 7.81115 0.1C9.01115 0.2 10.0112 0.8 11.0112 1.4L13.5112 3.2C15.9112 5 18.5112 5.3 21.3112 4.2L22.7112 3.7C24.0112 3.2 25.3112 2.9 26.7112 3L31.2112 3.3C33.2112 3.6 34.2112 4.6 34.7112 6.6C35.0112 7.9 35.1112 9.2 35.0112 10.5C34.9112 13.7 35.4112 16.8 35.7112 19.9L36.7112 27.1C36.8112 28.6 36.5112 30.1 35.9112 31.5C35.8112 31.8 35.6112 32 35.3112 32.1C32.7112 33.4 32.2112 36.2 34.0112 38.4C34.4112 38.9 35.0112 39.4 35.5112 39.8C37.1112 41 37.7112 42.7 37.6112 44.7C37.5112 46 36.8112 46.8 35.6112 47.4C34.4112 48 33.2112 48.2 31.9112 48.3L29.2112 48.4C28.5112 48.5 28.0112 48.3 27.5112 47.9L25.9112 46.9C24.7112 46.1 23.4112 46.1 22.1112 46.6C21.5112 46.8 20.9112 47.1 20.4112 47.5C18.5112 49 16.4112 49.7 14.1112 49.9C13.7112 49.9 13.3112 50 12.9112 50.1C11.5112 50.3 10.6112 49.8 10.1112 48.5C9.71115 47.6 9.61115 46.7 9.61115 45.8C9.61115 44.3 9.71115 42.8 9.61115 41.3ZM16.4112 35.5C14.8112 35.5 13.8112 36.3 13.6112 37.8C13.4112 39.9 14.6112 42.4 16.5112 43.5C17.5112 44.1 18.6112 44.3 19.6112 43.5C20.8112 42.6 21.9112 41.5 21.9112 39.7C21.9112 39.6 21.8112 39.5 21.8112 39.4C21.3112 37.3 18.8112 35.5 16.4112 35.5ZM24.9112 12.6C24.9112 13.4 25.2112 14.2 25.7112 14.9C27.0112 16.7 28.8112 17.4 30.5112 14.9C31.1112 14.1 31.0112 13.2 30.5112 12.4C29.6112 11.1 28.4112 10.5 26.9112 10.5C25.7112 10.5 24.9112 11.3 24.9112 12.6ZM29.2112 46.2C29.9112 46.2 30.6112 46.1 31.1112 45.7C31.9112 45.2 31.9112 44.3 31.2112 43.8C30.2112 43 28.2112 43 27.2112 43.8C26.5112 44.4 26.5112 45.1 27.2112 45.7C27.8112 46.1 28.5112 46.2 29.2112 46.2ZM23.5112 33.4C22.9112 33.4 22.4112 33.5 21.9112 33.9C21.1112 34.5 21.1112 35.4 21.9112 36C22.8112 36.7 24.2112 36.7 25.1112 36C25.9112 35.4 25.9112 34.5 25.1112 33.9C24.6112 33.5 24.0112 33.4 23.5112 33.4ZM31.6112 7.9C31.0112 7.9 30.4112 8 29.9112 8.4C29.3112 8.9 29.3112 9.6 29.9112 10.2C30.8112 11 32.6112 11 33.4112 10.2C34.0112 9.7 34.0112 9 33.4112 8.5C32.8112 8 32.2112 7.9 31.6112 7.9ZM25.4112 39.7C26.1112 39.7 26.7112 39.3 26.7112 38.7C26.7112 38.1 26.1112 37.7 25.4112 37.6C24.7112 37.6 24.1112 38 24.1112 38.6C24.1112 39.3 24.6112 39.7 25.4112 39.7ZM23.7112 27.3C23.0112 27.3 22.5112 27.8 22.5112 28.3C22.5112 28.8 23.0112 29.3 23.7112 29.3C24.4112 29.3 24.9112 28.8 24.9112 28.3C25.0112 27.7 24.4112 27.3 23.7112 27.3ZM33.8112 6.5C33.5112 6.6 33.2112 6.6 33.2112 7.1C33.2112 7.5 33.6112 7.6 33.9112 7.6C34.3112 7.6 34.6112 7.5 34.6112 7C34.6112 6.6 34.2112 6.5 33.8112 6.5ZM8.51115 45.7L7.01115 40.1L2.01115 21.1C1.91115 20.8 1.91115 20.4 2.01115 20.1C2.51115 18.5 2.31115 17.2 1.01115 16.1C0.811153 15.9 0.711153 15.7 0.711153 15.5L0.0111533 11.3C-0.0888467 10.4 0.511153 9.6 0.711153 8.8C0.811153 8.6 1.01115 8.7 1.11115 8.7C2.51115 8.8 3.61115 8.1 4.01115 6.7C4.31115 5.5 4.61115 4.2 3.51115 3.2C3.41115 3.1 3.31115 3 3.41115 2.8C4.01115 1.8 4.71115 0.9 5.61115 0C6.11115 1.7 6.71115 3.2 6.91115 4.9L8.21115 12.9C8.31115 13.4 8.31115 13.6 7.71115 13.8C6.61115 14.2 6.11115 15.1 6.01115 16.2C5.71115 18.6 6.41115 20.7 8.21115 22.3C8.41115 22.5 8.51115 22.7 8.51115 23L8.61115 35.1C8.61115 35.4 8.51115 35.7 8.21115 36C7.51115 36.6 7.61115 37.5 7.71115 38.3C7.71115 38.6 7.81115 38.8 7.91115 39C8.71115 41.2 8.31115 43.4 8.81115 45.6C8.61115 45.6 8.51115 45.7 8.51115 45.7Z" fill="#0071E3"/>
</svg>
