<svg width="154" height="23" viewBox="0 0 154 23" fill="none" xmlns="http://www.w3.org/2000/svg">
<path d="M43 0.588013H28.7V7.88801H43V0.588013Z" fill="#0071E3"/>
<path d="M0 0.588013V7.88801H7.2V22.488H14.3V7.88801H21.5V0.588013H0Z" fill="#0071E3"/>
<path d="M21.5 22.488H28.7H43V15.188H28.7V7.888H21.5V22.488Z" fill="#0071E3"/>
<path d="M61.2 6.08801H50.7V9.18801H54.2V18.688H57.7V9.18801H61.2V6.08801Z" fill="#0071E3"/>
<path d="M65.2 9.08801C62.7 9.08801 60.9 10.788 60.9 13.988C60.9 16.888 62.5 18.888 65.3 18.888C66.8 18.888 68 18.488 69.1 17.788L67.9 15.688C67 16.188 66.3 16.388 65.5 16.388C64.6 16.388 64 15.888 63.9 14.888H69.4C69.4 14.688 69.4 14.488 69.4 14.288C69.4 10.788 67.8 9.08801 65.2 9.08801ZM63.8 12.888C63.9 11.988 64.3 11.488 65.1 11.488C66.1 11.488 66.4 11.988 66.5 12.888H63.8Z" fill="#0071E3"/>
<path d="M75.5 16.288C74.6 16.288 74.2 15.488 74.2 13.988C74.2 12.488 74.6 11.688 75.4 11.688C76.1 11.688 76.4 12.088 76.9 12.888L79.1 11.188C78.3 9.88804 77.3 8.98804 75.5 8.98804C72.5 8.98804 71 10.988 71 13.888C71 17.088 72.7 18.788 75.4 18.788C77.1 18.788 78.1 18.188 79.2 16.588L77.2 14.988C76.5 15.888 76.1 16.288 75.5 16.288Z" fill="#0071E3"/>
<path d="M86.6 9.08801C85.5 9.08801 84.8 9.48801 84.2 9.88801V5.58801L81 6.88801V18.688H84.2V13.288C84.2 12.088 84.6 11.788 85.3 11.788C86 11.788 86.4 12.088 86.4 13.288V18.588H89.6V12.888C89.7 10.488 88.7 9.08801 86.6 9.08801Z" fill="#0071E3"/>
<path d="M97.5 15.888C96 15.888 95.4 14.388 95.4 12.488C95.4 10.488 96 9.08801 97.5 9.08801C98.6 9.08801 99.1 9.78801 99.5 10.988L102.7 9.78801C101.8 7.38801 100.6 6.08801 97.5 6.08801C94.1 6.08801 91.8 8.48801 91.8 12.588C91.8 16.288 93.8 19.088 97.5 19.088C100.5 19.088 101.9 17.488 102.7 15.888L99.8 14.288C99 15.288 98.6 15.888 97.5 15.888Z" fill="#0071E3"/>
<path d="M107.8 9.98801V9.28801H104.6V18.688H107.8V13.588C107.8 12.488 108.3 12.088 109.1 12.088C109.7 12.088 110.2 12.388 110.6 12.888L111.4 9.48801C111 9.28801 110.6 9.08801 109.9 9.08801C109 9.08801 108.4 9.38801 107.8 9.98801Z" fill="#0071E3"/>
<path d="M118.3 14.688C118.3 15.888 117.9 16.188 117.2 16.188C116.5 16.188 116.1 15.888 116.1 14.688V9.388H112.9V15.188C112.9 17.688 113.9 19.088 116 19.088C117.1 19.088 117.8 18.688 118.4 18.288V18.888H121.6V9.488H118.4V14.688H118.3Z" fill="#0071E3"/>
<path d="M129.5 9.08801C128.4 9.08801 127.7 9.48801 127.1 9.88801V9.28801H123.9V18.688H127.1V13.288C127.1 12.088 127.5 11.788 128.2 11.788C128.9 11.788 129.3 12.088 129.3 13.288V18.588H132.5V12.888C132.6 10.488 131.6 9.08801 129.5 9.08801Z" fill="#0071E3"/>
<path d="M139 16.288C138.1 16.288 137.7 15.488 137.7 13.988C137.7 12.488 138.1 11.688 138.9 11.688C139.6 11.688 139.9 12.088 140.4 12.888L142.6 11.188C141.8 9.88804 140.8 8.98804 139 8.98804C136 8.98804 134.5 10.988 134.5 13.888C134.5 17.088 136.2 18.788 138.9 18.788C140.6 18.788 141.6 18.188 142.7 16.588L140.7 14.988C140 15.888 139.6 16.288 139 16.288Z" fill="#0071E3"/>
<path d="M150.1 9.08801C149 9.08801 148.3 9.48801 147.7 9.88801V5.58801L144.5 6.88801V18.688H147.7V13.288C147.7 12.088 148.1 11.788 148.8 11.788C149.5 11.788 149.9 12.088 149.9 13.288V18.588H153.1V12.888C153.2 10.488 152.2 9.08801 150.1 9.08801Z" fill="#0071E3"/>
</svg>
