<svg width="151" height="29" viewBox="0 0 151 29" fill="none" xmlns="http://www.w3.org/2000/svg">
<path d="M0.106812 0.78009H11.1068C13.2068 0.78009 14.8068 1.28009 15.9068 2.18009C17.2068 3.18009 17.9068 4.78009 17.9068 6.58009C17.9068 8.78009 17.0068 10.0801 15.3068 10.8801V10.9801C17.6068 11.7801 19.0068 13.7801 19.0068 16.2801C19.0068 18.6801 18.1068 20.4801 16.6068 21.6801C15.3068 22.5801 13.7068 22.9801 11.5068 22.9801H0.106812V0.78009ZM10.0068 9.48009C11.2068 9.48009 12.0068 8.88009 12.0068 7.48009C12.0068 6.18009 11.1068 5.58009 9.90681 5.58009H6.10681V9.38009L10.0068 9.48009ZM10.6068 18.1801C11.9068 18.1801 12.9068 17.3801 12.9068 15.8801C12.9068 14.2801 11.9068 13.5801 10.6068 13.5801H6.30681V18.1801H10.6068Z" fill="#0071E3"/>
<path d="M20.0068 0.78009H25.8068V23.1801H20.0068V0.78009Z" fill="#0071E3"/>
<path d="M26.9068 15.1801C26.9068 10.0801 30.2068 6.78009 35.2068 6.78009C40.2068 6.78009 43.5068 10.1801 43.5068 15.1801C43.5068 20.2801 40.3068 23.5801 35.2068 23.5801C30.1068 23.5801 26.9068 20.2801 26.9068 15.1801ZM37.7068 15.1801C37.7068 12.3801 36.8068 10.6801 35.1068 10.6801C33.4068 10.6801 32.5068 12.3801 32.5068 15.1801C32.5068 17.9801 33.3068 19.7801 35.1068 19.7801C36.8068 19.7801 37.7068 17.9801 37.7068 15.1801Z" fill="#0071E3"/>
<path d="M44.1068 15.1801C44.1068 10.0801 47.4068 6.78009 52.4068 6.78009C57.4068 6.78009 60.6068 10.1801 60.6068 15.1801C60.6068 20.1801 57.4068 23.5801 52.3068 23.5801C47.4068 23.6801 44.1068 20.2801 44.1068 15.1801ZM54.9068 15.1801C54.9068 12.3801 54.0068 10.6801 52.3068 10.6801C50.6068 10.6801 49.7068 12.3801 49.7068 15.1801C49.7068 17.9801 50.5068 19.7801 52.3068 19.7801C54.0068 19.7801 54.9068 17.9801 54.9068 15.1801Z" fill="#0071E3"/>
<path d="M67.1068 7.18009V9.58009H67.2068C68.2068 7.68009 69.7068 6.78009 72.0068 6.78009C74.0068 6.78009 75.5068 7.78009 76.3068 9.48009H76.4068C77.7068 7.38009 79.4068 6.78009 81.3068 6.78009C85.0068 6.78009 86.6068 9.48009 86.6068 13.1801V23.1801H81.1068V14.1801C81.1068 12.5801 80.6068 11.4801 79.2068 11.4801C77.8068 11.4801 77.1068 12.7801 77.1068 14.4801V23.1801H71.5068V14.1801C71.5068 12.5801 71.0068 11.4801 69.6068 11.4801C68.2068 11.4801 67.5068 12.7801 67.5068 14.4801V23.1801H61.7068V7.18009H67.1068Z" fill="#0071E3"/>
<path d="M93.8068 21.0801L93.7068 23.1801H88.4068V0.78009H94.0068V8.78009H94.1068C95.1068 7.38009 96.6068 6.58009 98.6068 6.58009C102.607 6.58009 104.907 10.1801 104.907 14.9801C104.907 20.3801 102.407 23.4801 98.2068 23.4801C96.5068 23.6801 94.7068 22.8801 93.8068 21.0801ZM99.2068 15.0801C99.2068 12.4801 98.3068 10.8801 96.6068 10.8801C94.9068 10.8801 93.8068 12.5801 93.8068 15.0801C93.8068 17.5801 94.9068 19.2801 96.6068 19.2801C98.3068 19.2801 99.2068 17.6801 99.2068 15.0801Z" fill="#0071E3"/>
<path d="M105.607 15.1801C105.607 10.1801 108.907 6.78009 113.707 6.78009C116.107 6.78009 117.907 7.58009 119.307 8.88009C121.207 10.6801 122.007 13.4801 121.907 16.7801H111.207C111.407 18.7801 112.407 19.7801 114.007 19.7801C115.007 19.7801 115.907 19.2801 116.207 18.2801H121.607C120.707 21.9801 117.807 23.7801 113.807 23.7801C108.907 23.5801 105.607 20.1801 105.607 15.1801ZM111.207 13.4801H116.307C116.207 11.5801 115.107 10.5801 113.807 10.5801C112.207 10.4801 111.307 11.5801 111.207 13.4801Z" fill="#0071E3"/>
<path d="M128.207 9.98009H128.307C129.507 7.78009 131.007 6.88009 132.907 6.88009C133.407 6.88009 133.707 6.98009 133.807 7.08009V11.9801H133.707C130.407 11.3801 128.507 12.9801 128.507 16.5801V23.2801H122.907V7.28009H128.207V9.98009Z" fill="#0071E3"/>
<path d="M134.407 23.1801H139.807C140.007 23.8801 140.707 24.4801 142.107 24.4801C143.907 24.4801 144.507 23.3801 144.507 21.6801V20.4801H144.407C143.507 21.4801 142.307 22.2801 140.607 22.2801C137.207 22.2801 134.107 19.6801 134.107 14.6801C134.107 10.0801 136.507 6.58009 140.307 6.58009C142.507 6.58009 143.707 7.48009 144.607 8.78009H144.707V7.08009H150.007V20.8801C150.007 23.4801 149.107 25.3801 147.807 26.5801C146.407 27.7801 144.407 28.2801 142.207 28.2801C137.907 28.4801 134.907 26.7801 134.407 23.1801ZM144.807 14.5801C144.807 12.5801 143.907 10.9801 142.207 10.9801C140.607 10.9801 139.607 12.3801 139.607 14.5801C139.607 16.7801 140.607 18.2801 142.207 18.2801C143.807 18.2801 144.807 16.6801 144.807 14.5801Z" fill="#0071E3"/>
</svg>
