<svg width="142" height="38" viewBox="0 0 142 38" fill="none" xmlns="http://www.w3.org/2000/svg">
<path d="M14.4068 0.626013C19.0068 0.626013 23.6068 0.626013 28.2068 0.626013C28.6068 0.626013 28.7068 0.726013 28.7068 1.12601C28.8068 3.12601 28.7068 5.02601 28.8068 7.02601C28.8068 8.12601 28.8068 9.22601 28.9068 10.326C28.9068 10.626 28.8068 10.826 28.5068 10.926C28.1068 11.026 27.7068 11.326 27.3068 11.226C27.0068 11.026 27.0068 10.526 26.8068 10.126C26.2068 8.62601 25.5068 7.02601 24.4068 5.82601C23.1068 4.32601 21.4068 3.42601 19.4068 3.42601C17.5068 3.42601 15.6068 3.42601 13.7068 3.42601C13.4068 3.42601 13.3068 3.52601 13.2068 3.82601C13.1068 5.72601 13.1068 7.62601 13.0068 9.52601C12.9068 11.926 13.0068 14.526 12.9068 17.126C12.9068 17.526 12.9068 17.626 13.4068 17.626C14.5068 17.526 15.6068 17.526 16.8068 17.526C18.1068 17.526 19.1068 16.926 19.8068 15.826C20.3068 14.926 20.6068 14.026 20.8068 13.026C20.9068 12.726 20.9068 12.626 21.2068 12.626C22.3068 12.626 22.3068 12.526 22.3068 13.726C22.3068 17.226 22.3068 20.726 22.3068 24.226C22.3068 24.626 22.2068 24.726 21.8068 24.726C20.9068 24.726 20.9068 24.726 20.7068 23.826C20.4068 22.626 20.0068 21.426 19.0068 20.526C18.5068 20.126 17.9068 19.826 17.2068 19.826C15.9068 19.726 14.6068 19.726 13.3068 19.626C13.0068 19.626 12.9068 19.726 12.9068 19.926C12.9068 22.426 12.9068 25.026 13.1068 27.526C13.2068 28.926 13.2068 30.426 13.6068 31.726C13.9068 32.926 14.4068 33.926 15.6068 34.426C16.3068 34.726 17.1068 34.726 17.9068 34.826C18.1068 34.826 18.4068 34.826 18.5068 35.026C18.6068 35.426 18.6068 35.826 18.5068 36.226C18.4068 36.426 18.2068 36.326 18.0068 36.326C16.5068 36.326 14.9068 36.326 13.4068 36.326C9.20684 36.326 5.00684 36.326 0.706836 36.326C0.506836 36.326 0.106835 36.426 0.106835 36.126C0.00683536 35.726 0.00683536 35.326 0.106835 34.926C0.106835 34.826 0.306836 34.826 0.506836 34.826C1.00684 34.726 1.60684 34.626 2.10684 34.526C3.20684 34.326 3.90684 33.726 4.30684 32.726C4.70684 31.826 4.90684 30.826 4.90684 29.926C5.30684 24.126 5.30683 18.426 5.20683 12.626C5.20683 10.826 5.10684 8.92601 4.90684 7.12601C4.80684 6.22601 4.70684 5.32601 4.30684 4.52601C3.80684 3.22601 2.80684 2.62601 1.50684 2.42601C1.20684 2.42601 0.806836 2.32601 0.506836 2.32601C0.106836 2.32601 0.00683594 2.22601 0.00683594 1.82601C0.00683594 0.726013 0.00683534 0.726013 1.10684 0.726013C5.50684 0.626013 10.0068 0.626013 14.4068 0.626013Z" fill="#0071E3"/>
<path d="M140.507 14.826C140.507 15.826 140.507 16.726 140.507 17.726C140.507 18.426 139.907 18.226 139.607 18.326C139.207 18.526 139.207 18.126 139.207 17.926C138.607 16.226 137.907 14.626 136.607 13.426C135.507 12.326 134.207 11.926 132.707 12.026C130.807 12.226 129.507 13.726 129.607 15.826C129.607 17.026 130.207 17.826 131.107 18.526C132.507 19.626 134.207 20.326 135.907 21.026C137.607 21.726 139.207 22.526 140.407 23.826C141.407 24.926 141.807 26.226 141.907 27.726C142.007 29.526 141.707 31.226 140.707 32.826C139.307 35.026 137.207 36.126 134.807 36.726C132.407 37.226 130.107 37.126 127.707 36.826C126.207 36.626 124.707 36.326 123.307 35.726C123.007 35.626 122.907 35.426 122.907 35.126C122.907 32.926 122.807 30.626 122.807 28.426C122.807 28.226 122.807 28.026 123.107 28.026C123.207 28.026 123.307 27.926 123.407 27.926C123.807 27.726 124.107 27.826 124.207 28.326C124.607 29.426 125.107 30.426 125.707 31.426C126.607 32.826 127.707 34.026 129.407 34.526C130.807 34.926 132.207 34.926 133.507 34.126C135.407 32.926 136.207 29.526 133.307 27.726C132.007 26.926 130.707 26.426 129.307 25.926C127.807 25.326 126.307 24.626 125.107 23.426C123.607 21.826 123.107 19.926 123.307 17.826C123.607 13.826 126.907 11.226 130.507 10.526C133.707 9.92601 136.907 10.326 140.007 11.326C140.507 11.526 140.707 11.726 140.707 12.226C140.607 13.126 140.707 14.026 140.707 14.926C140.407 14.826 140.507 14.826 140.507 14.826Z" fill="#0071E3"/>
<path d="M61.1068 15.726C61.5068 15.426 61.5068 15.126 61.7068 14.826C62.8068 12.826 64.2068 11.226 66.4068 10.426C67.9068 9.92601 69.4068 9.92601 70.9068 10.526C71.3068 10.726 71.5068 10.926 71.3068 11.326C70.5068 13.326 69.8068 15.326 69.1068 17.326C68.9068 17.726 68.8068 17.726 68.5068 17.526C66.5068 16.426 64.5068 16.126 62.4068 17.026C61.7068 17.326 61.3068 17.826 61.3068 18.626C61.2068 21.426 61.2068 24.326 61.3068 27.126C61.3068 28.926 61.4068 30.626 61.7068 32.426C62.0068 34.026 62.6068 34.626 64.3068 34.726C64.6068 34.726 64.9068 34.726 65.2068 34.826C65.4068 34.826 65.7068 34.726 65.8068 35.026C65.9068 35.426 65.8068 35.826 65.8068 36.226C65.8068 36.326 65.6068 36.326 65.5068 36.326C65.2068 36.326 64.9068 36.326 64.5068 36.326C60.1068 36.326 55.7068 36.326 51.3068 36.326C51.1068 36.326 50.7068 36.426 50.7068 36.126C50.6068 35.726 50.6068 35.326 50.7068 34.926C50.7068 34.826 50.8068 34.826 50.9068 34.826C51.1068 34.826 51.2068 34.726 51.4068 34.726C53.1068 34.526 53.8068 33.826 54.0068 32.226C53.9068 30.526 53.9068 28.826 53.9068 27.126C54.0068 24.926 54.0068 22.826 53.9068 20.626C53.9068 19.126 53.9068 17.626 53.6068 16.226C53.4068 14.226 52.9068 13.726 50.9068 13.526C50.4068 13.426 50.2068 13.026 50.4068 12.526C50.5068 12.326 50.7068 12.326 50.8068 12.326C54.2068 11.626 57.6068 10.926 61.0068 10.226C61.6068 10.126 61.5068 10.526 61.4068 10.826C61.2068 12.426 61.3068 14.026 61.1068 15.726Z" fill="#0071E3"/>
<path d="M95.1068 16.826C93.3068 12.426 89.4068 9.62601 84.0068 10.626C82.8068 10.826 81.7068 11.326 80.5068 11.926C80.5068 11.626 80.5068 11.526 80.5068 11.326C80.5068 7.72601 80.5068 4.02601 80.6068 0.426013C80.6068 0.126013 80.7068 -0.0739871 80.2068 0.026013C76.9068 0.626013 73.5068 1.32601 70.1068 1.92601C69.9068 1.92601 69.8068 1.92601 69.7068 2.12601C69.5068 2.72601 69.7068 3.02601 70.3068 3.12601C71.3068 3.22601 72.1068 3.52601 72.6068 4.52601C72.9068 5.22601 73.1068 5.92601 73.1068 6.62601C73.3068 8.82601 73.2068 11.026 73.3068 13.226C73.4068 17.226 73.3068 21.126 73.3068 25.126C73.2068 28.526 73.3068 31.926 73.2068 35.326C73.2068 35.726 73.4068 35.826 73.7068 35.926C75.1068 36.226 76.6068 36.526 78.0068 36.726C80.6068 37.026 83.3068 37.226 85.9068 36.626C89.5068 35.926 92.3068 34.026 94.2068 30.826C95.3068 28.926 95.9068 26.826 96.1068 24.626C96.4068 22.026 96.2068 19.326 95.1068 16.826ZM87.5068 30.026C87.0068 31.426 86.4068 32.726 85.4068 33.826C84.4068 34.826 83.2068 35.226 81.8068 35.026C80.7068 34.926 80.7068 34.926 80.7068 33.826C80.6068 31.126 80.6068 28.526 80.6068 25.726C80.5068 21.926 80.6068 18.026 80.6068 14.026C80.6068 13.926 80.6068 13.726 80.8068 13.626C82.4068 13.026 84.0068 12.926 85.5068 14.026C86.3068 14.626 86.9068 15.526 87.3068 16.426C87.9068 17.826 88.3068 19.326 88.4068 20.826C88.7068 24.026 88.4068 27.026 87.5068 30.026Z" fill="#0071E3"/>
<path d="M49.3068 17.726C48.2068 14.526 46.1068 12.126 42.8068 10.926C40.5068 10.026 38.0068 9.92601 35.6068 10.326C32.9068 10.726 30.6068 11.826 28.8068 13.826C26.3068 16.626 25.3068 19.926 25.3068 23.426C25.3068 24.726 25.4068 25.826 25.6068 26.826C25.7068 27.526 25.9068 28.226 26.1068 28.826C27.2068 32.226 29.3068 34.826 32.8068 36.126C35.0068 36.926 37.2068 37.026 39.5068 36.826C44.1068 36.226 47.4068 33.826 49.2068 29.426C50.7068 25.626 50.6068 21.626 49.3068 17.726ZM42.5068 24.526C42.4068 26.926 42.3068 29.126 41.7068 31.326C41.4068 32.226 41.1068 33.126 40.5068 33.826C39.1068 35.726 36.6068 35.726 35.2068 33.826C34.2068 32.426 33.7068 30.926 33.4068 29.326C32.9068 26.526 32.9068 23.726 33.0068 20.926C33.1068 19.026 33.3068 17.126 33.8068 15.326C34.0068 14.626 34.3068 13.826 34.8068 13.226C36.2068 11.326 38.8068 11.426 40.2068 13.426C41.3068 14.926 41.7068 16.626 42.0068 18.426C42.1068 18.926 42.2068 19.426 42.2068 20.026C42.5068 21.526 42.6068 23.126 42.5068 24.526Z" fill="#0071E3"/>
<path d="M106.307 22.426C108.607 22.426 111.007 22.426 113.307 22.426C115.707 22.426 118.007 22.426 120.407 22.426C120.807 22.426 120.907 22.326 120.907 21.826C120.907 20.826 120.807 19.826 120.607 18.826C120.207 16.526 119.307 14.426 117.607 12.726C115.607 10.826 113.207 10.126 110.507 10.126C105.307 10.126 101.307 12.826 99.3068 17.626C98.1068 20.526 97.9068 23.626 98.4068 26.726C98.9068 29.426 100.107 31.726 102.007 33.626C105.907 37.426 112.507 37.926 117.107 35.226C118.307 34.526 119.407 33.626 120.207 32.526C120.607 32.026 120.107 31.826 119.907 31.526C119.707 31.226 119.507 31.426 119.307 31.526C117.507 32.926 115.507 33.326 113.307 33.126C110.707 32.926 108.607 31.726 107.207 29.526C105.907 27.526 105.607 25.226 105.507 22.926C105.807 22.526 105.907 22.426 106.307 22.426ZM105.907 20.226C106.107 17.826 106.507 15.526 107.807 13.426C108.407 12.526 109.207 11.826 110.307 11.926C111.107 11.926 111.607 12.426 112.007 13.026C112.707 14.126 113.007 15.426 113.207 16.726C113.307 17.626 113.407 18.426 113.407 19.326C113.407 20.326 113.407 20.326 112.407 20.326C110.307 20.426 108.307 20.426 106.207 20.526C106.107 20.526 105.807 20.526 105.907 20.226Z" fill="#0071E3"/>
</svg>
