<svg width="1920" height="1080" viewBox="0 0 1920 1080" fill="none" xmlns="http://www.w3.org/2000/svg">
<rect width="1919" height="1080" fill="#151515"/>
<circle r="1" transform="matrix(-0.110417 0.993885 0.993885 0.110417 735.857 676.104)" fill="white"/>
<circle cx="1240.93" cy="295.588" r="1" transform="rotate(-137.917 1240.93 295.588)" fill="white"/>
<circle cx="1000.91" cy="602.92" r="1" transform="rotate(-94.8179 1000.91 602.92)" fill="white"/>
<circle cx="782.505" cy="530.679" r="1" transform="rotate(-114.086 782.505 530.679)" fill="white"/>
<circle cx="1708.17" cy="68.5956" r="1" transform="rotate(-128.283 1708.17 68.5956)" fill="white"/>
<circle cx="23.8119" cy="834.233" r="1" transform="rotate(167.83 23.8119 834.233)" fill="white"/>
<circle cx="131.908" cy="580.102" r="1" transform="rotate(174.421 131.908 580.102)" fill="white"/>
<circle cx="706.326" cy="259.624" r="1" transform="rotate(-121.692 706.326 259.624)" fill="white"/>
<circle cx="548.511" cy="103.319" r="1" transform="rotate(23.8308 548.511 103.319)" fill="white"/>
<circle cx="941.69" cy="84.4661" r="1" transform="rotate(157.182 941.69 84.4661)" fill="white"/>
<circle cx="779.404" cy="174.355" r="1" transform="rotate(28.3935 779.404 174.355)" fill="white"/>
<circle cx="414.953" cy="474.587" r="1" transform="rotate(-136.903 414.953 474.587)" fill="white"/>
<circle cx="898.931" cy="129.936" r="1" transform="rotate(-93.8036 898.931 129.936)" fill="white"/>
<circle cx="1889.65" cy="937.434" r="1" transform="rotate(117.126 1889.65 937.434)" fill="white"/>
<circle cx="1508.5" cy="961.679" r="1" transform="rotate(-114.086 1508.5 961.679)" fill="white"/>
<circle cx="1170.62" cy="724.301" r="1" transform="rotate(122.702 1170.62 724.301)" fill="white"/>
<circle cx="609.876" cy="733.141" r="1" transform="rotate(172.393 609.876 733.141)" fill="white"/>
<circle cx="1484.61" cy="288.277" r="1" transform="rotate(123.717 1484.61 288.277)" fill="white"/>
<circle cx="1484.03" cy="938.414" r="1" transform="rotate(43.6045 1484.03 938.414)" fill="white"/>
<circle cx="1559.8" cy="221.255" r="1" transform="rotate(166.816 1559.8 221.255)" fill="white"/>
<circle cx="1238.41" cy="114.109" r="1" transform="rotate(-40.565 1238.41 114.109)" fill="white"/>
<circle cx="1063.59" cy="562.153" r="1" transform="rotate(128.788 1063.59 562.153)" fill="white"/>
<circle cx="826.703" cy="310.563" r="1" transform="rotate(111.549 826.703 310.563)" fill="white"/>
<circle cx="1328.75" cy="550.653" r="1" transform="rotate(107.491 1328.75 550.653)" fill="white"/>
<circle cx="1568.63" cy="106.668" r="1" transform="rotate(148.562 1568.63 106.668)" fill="white"/>
<circle cx="1753.62" cy="772.705" r="1" transform="rotate(147.042 1753.62 772.705)" fill="white"/>
<circle opacity="0.3" cx="2114" cy="-54" r="747" fill="url(#paint0_radial)"/>
<circle opacity="0.3" cx="731" cy="1174" r="333" fill="url(#paint1_radial)"/>
<circle opacity="0.3" cx="1257" cy="1124" r="333" fill="url(#paint2_radial)"/>
<circle opacity="0.3" cx="967" cy="1180" r="747" fill="url(#paint3_radial)"/>
<circle opacity="0.3" cx="-68.5" cy="-72.5" r="658.5" fill="url(#paint4_radial)"/>
<circle opacity="0.3" cx="401.5" cy="-258.5" r="658.5" fill="url(#paint5_radial)"/>
<circle opacity="0.3" cx="382.5" cy="1244.5" r="658.5" fill="url(#paint6_radial)"/>
<circle opacity="0.3" cx="1090.5" cy="1096.5" r="243.5" fill="url(#paint7_radial)"/>
<circle opacity="0.3" cx="1578.5" cy="-123.5" r="484.5" fill="url(#paint8_radial)"/>
<g opacity="0.24">
<circle r="4.5" transform="matrix(-1 0 0 1 1316.47 594.5)" fill="white"/>
<circle r="1" transform="matrix(-1 0 0 1 1289.97 597)" fill="white"/>
<circle opacity="0.824533" r="4.5" transform="matrix(0.463829 -0.885925 -0.885925 -0.463829 81.0742 597.926)" fill="white"/>
<circle opacity="0.363078" r="4.5" transform="matrix(-0.666916 -0.745133 -0.745133 0.666916 1707.62 40.648)" fill="white"/>
<circle opacity="0.137781" r="4.5" transform="matrix(0.653644 0.756802 0.756802 -0.653644 1754.32 715.464)" fill="white"/>
<circle opacity="0.476153" r="4.5" transform="matrix(-0.266643 -0.963795 -0.963795 0.266643 949.437 798.863)" fill="white"/>
<circle opacity="0.292" r="4.5" transform="matrix(-0.914742 0.404038 0.404038 0.914742 1088.68 161.934)" fill="white"/>
<circle opacity="0.185573" r="4.5" transform="matrix(-0.952422 0.304782 0.304782 0.952422 1034.06 243.657)" fill="white"/>
<circle opacity="0.571231" r="4.5" transform="matrix(-0.317429 0.948282 0.948282 0.317429 1361.81 706.696)" fill="white"/>
<circle opacity="0.448054" r="4.5" transform="matrix(-0.776686 0.629888 0.629888 0.776686 1673.31 896.33)" fill="white"/>
<circle opacity="0.126328" r="4.5" transform="matrix(-0.258131 0.96611 0.96611 0.258131 1130.16 37.5091)" fill="white"/>
<circle opacity="0.0386773" r="4.5" transform="matrix(0.51777 0.85552 0.85552 -0.51777 933.153 967.52)" fill="white"/>
<circle opacity="0.236161" r="4.5" transform="matrix(0.626444 0.779466 0.779466 -0.626444 1803.3 686.689)" fill="white"/>
<circle opacity="0.902344" r="4.5" transform="matrix(-0.829327 0.558764 0.558764 0.829327 999.756 355.246)" fill="white"/>
<circle opacity="0.556939" r="4.5" transform="matrix(-0.85322 0.521551 0.521551 0.85322 1809.48 713.186)" fill="white"/>
<circle opacity="0.153006" r="4.5" transform="matrix(-0.367319 0.930095 0.930095 0.367319 1597.51 937.838)" fill="white"/>
<circle opacity="0.551321" r="4.5" transform="matrix(0.309023 -0.951055 -0.951055 -0.309023 1093.08 953.33)" fill="white"/>
<circle opacity="0.0735284" r="4.5" transform="matrix(0.555088 0.831792 0.831792 -0.555088 1162.21 345.245)" fill="white"/>
<circle opacity="0.541642" r="4.5" transform="matrix(-0.819306 0.573357 0.573357 0.819306 366.867 853.267)" fill="white"/>
<circle opacity="0.646622" r="4.5" transform="matrix(-0.154251 0.988032 0.988032 0.154251 439.726 69.1402)" fill="white"/>
<circle opacity="0.0671247" r="4.5" transform="matrix(0.83424 -0.551402 -0.551402 -0.83424 904.246 1040.76)" fill="white"/>
<circle opacity="0.257602" r="4.5" transform="matrix(-0.803775 -0.594933 -0.594933 0.803775 585.679 897.94)" fill="white"/>
<circle opacity="0.25189" r="4.5" transform="matrix(-0.0044257 0.99999 0.99999 0.0044257 1180.45 404.52)" fill="white"/>
<circle opacity="0.0404165" r="4.5" transform="matrix(0.819288 0.573382 0.573382 -0.819288 1177.24 133.893)" fill="white"/>
<circle opacity="0.785699" r="4.5" transform="matrix(0.82931 0.558789 0.558789 -0.82931 760.22 699.783)" fill="white"/>
<circle opacity="0.324102" r="4.5" transform="matrix(0.931722 -0.363171 -0.363171 -0.931722 650.532 553.173)" fill="white"/>
<circle opacity="0.131683" r="1" transform="matrix(0.455942 0.890009 0.890009 -0.455942 1141.32 334.434)" fill="white"/>
<circle opacity="0.194735" r="1" transform="matrix(0.619544 -0.784962 -0.784962 -0.619544 1418.81 365.595)" fill="white"/>
<circle opacity="0.680402" r="1" transform="matrix(-0.0486335 -0.998817 -0.998817 0.0486335 841.926 488.05)" fill="white"/>
<circle opacity="0.910377" r="1" transform="matrix(-0.110417 0.993885 0.993885 0.110417 810.857 723.104)" fill="white"/>
<circle opacity="0.636515" r="1" transform="matrix(0.40811 -0.912933 -0.912933 -0.40811 321.469 702.679)" fill="white"/>
<circle opacity="0.29601" r="1" transform="matrix(0.240959 0.970535 0.970535 -0.240959 1091.19 9.72952)" fill="white"/>
<circle opacity="0.930336" r="1" transform="matrix(-0.753902 -0.656987 -0.656987 0.753902 1456.56 405.097)" fill="white"/>
<circle opacity="0.476384" r="1" transform="matrix(0.283633 0.958933 0.958933 -0.283633 168.216 262.675)" fill="white"/>
<circle opacity="0.305379" r="1" transform="matrix(0.350769 0.936462 0.936462 -0.350769 1178.26 211.586)" fill="white"/>
<circle opacity="0.238555" r="1" transform="matrix(0.432178 -0.901788 -0.901788 -0.432178 1403.5 163.666)" fill="white"/>
<circle opacity="0.579952" r="1" transform="matrix(0.998592 -0.0530535 -0.0530535 -0.998592 255.919 196.948)" fill="white"/>
<circle opacity="0.674358" r="1" transform="matrix(0.997496 -0.0707222 -0.0707222 -0.997496 1679.9 7.93172)" fill="white"/>
<circle opacity="0.395257" r="1" transform="matrix(0.999961 0.00885131 0.00885131 -0.999961 1188.98 1024.01)" fill="white"/>
<circle opacity="0.514396" r="1" transform="matrix(-0.646919 -0.762558 -0.762558 0.646919 1848.56 685.884)" fill="white"/>
<circle opacity="0.692208" r="1" transform="matrix(0.857803 -0.513978 -0.513978 -0.857803 101.317 1037.63)" fill="white"/>
<circle opacity="0.28129" r="1" transform="matrix(-0.605528 -0.795824 -0.795824 0.605528 925.572 431.81)" fill="white"/>
<circle opacity="0.907223" r="1" transform="matrix(-0.776686 0.629888 0.629888 0.776686 275.827 28.4065)" fill="white"/>
<circle opacity="0.356375" r="1" transform="matrix(0.736193 0.676772 0.676772 -0.736193 381.387 836.941)" fill="white"/>
<circle opacity="0.647428" r="1" transform="matrix(-0.99859 -0.0530836 -0.0530836 0.99859 1175.92 228.945)" fill="white"/>
<circle opacity="0.755965" r="1" transform="matrix(-0.887983 0.459877 0.459877 0.887983 732.546 464.348)" fill="white"/>
<circle opacity="0.590004" r="1" transform="matrix(-0.136737 -0.990607 -0.990607 0.136737 97.8463 188.146)" fill="white"/>
<circle opacity="0.032811" r="1" transform="matrix(0.692896 -0.721038 -0.721038 -0.692896 1455.95 147.586)" fill="white"/>
<circle opacity="0.450573" r="1" transform="matrix(0.0132767 -0.999912 -0.999912 -0.0132767 311.987 512.987)" fill="white"/>
<circle opacity="0.186049" r="1" transform="matrix(1 3.01444e-05 3.01444e-05 -1 1874.97 620)" fill="white"/>
<circle opacity="0.810344" r="1" transform="matrix(-0.308994 -0.951064 -0.951064 0.308994 1343.71 712.358)" fill="white"/>
</g>
<defs>
<radialGradient id="paint0_radial_201:401" cx="0" cy="0" r="1" gradientUnits="userSpaceOnUse" gradientTransform="translate(2114 -54) rotate(90) scale(747)">
<stop stop-color="#0071E3"/>
<stop offset="1" stop-color="#0071E3" stop-opacity="0"/>
</radialGradient>
<radialGradient id="paint1_radial" cx="0" cy="0" r="1" gradientUnits="userSpaceOnUse" gradientTransform="translate(731 1174) rotate(90) scale(333)">
<stop stop-color="#0071E3"/>
<stop offset="1" stop-color="#0071E3" stop-opacity="0"/>
</radialGradient>
<radialGradient id="paint2_radial" cx="0" cy="0" r="1" gradientUnits="userSpaceOnUse" gradientTransform="translate(1257 1124) rotate(90) scale(333)">
<stop stop-color="#0071E3"/>
<stop offset="1" stop-color="#0071E3" stop-opacity="0"/>
</radialGradient>
<radialGradient id="paint3_radial" cx="0" cy="0" r="1" gradientUnits="userSpaceOnUse" gradientTransform="translate(967 1180) rotate(90) scale(747)">
<stop/>
<stop offset="1" stop-opacity="0"/>
</radialGradient>
<radialGradient id="paint4_radial" cx="0" cy="0" r="1" gradientUnits="userSpaceOnUse" gradientTransform="translate(-68.5 -72.5) rotate(90) scale(658.5)">
<stop stop-color="#0071E3"/>
<stop offset="1" stop-color="#0071E3" stop-opacity="0"/>
</radialGradient>
<radialGradient id="paint5_radial" cx="0" cy="0" r="1" gradientUnits="userSpaceOnUse" gradientTransform="translate(401.5 -258.5) rotate(90) scale(658.5)">
<stop stop-color="#9923AC"/>
<stop offset="1" stop-color="#9525AE" stop-opacity="0"/>
</radialGradient>
<radialGradient id="paint6_radial" cx="0" cy="0" r="1" gradientUnits="userSpaceOnUse" gradientTransform="translate(382.5 1244.5) rotate(90) scale(658.5)">
<stop stop-color="#9923AC"/>
<stop offset="1" stop-color="#9525AE" stop-opacity="0"/>
</radialGradient>
<radialGradient id="paint7_radial" cx="0" cy="0" r="1" gradientUnits="userSpaceOnUse" gradientTransform="translate(1090.5 1096.5) rotate(90) scale(243.5)">
<stop stop-color="#9923AC"/>
<stop offset="1" stop-color="#9525AE" stop-opacity="0"/>
</radialGradient>
<radialGradient id="paint8_radial" cx="0" cy="0" r="1" gradientUnits="userSpaceOnUse" gradientTransform="translate(1578.5 -123.5) rotate(90) scale(484.5)">
<stop stop-color="#9923AC"/>
<stop offset="1" stop-color="#9525AE" stop-opacity="0"/>
</radialGradient>
</defs>
</svg>
