<svg width="817" height="460" viewBox="0 0 817 460" fill="none" xmlns="http://www.w3.org/2000/svg">
<path fill-rule="evenodd" clip-rule="evenodd" d="M940.075 162.787L531.384 -18.719C510.105 0.648849 525.666 24.5832 537.088 30.8489C538.581 31.6675 540.107 32.3657 541.655 32.9467C541.002 33.9461 540.383 34.9781 539.799 36.0422C527.5 58.4644 535.706 86.6118 558.128 98.911C572.332 106.702 588.833 106.265 602.148 99.198C606.18 107.677 612.821 115.013 621.682 119.874C634.577 126.947 649.364 127.238 661.943 121.945C661.158 148.242 674.804 174.03 699.454 187.551C726.235 202.242 758.247 198.197 780.412 179.813C788.741 179.373 796.928 177.496 804.592 174.292C810.023 191.367 821.769 206.463 838.718 215.76C869.339 232.557 918.315 188.404 940.075 162.787Z" fill="#1E2224"/>
<path fill-rule="evenodd" clip-rule="evenodd" d="M110.5 14.4998L563.466 14.4999C572.81 41.7093 547.653 55.2078 534.623 55.2078C532.92 55.2078 531.246 55.0861 529.609 54.8509C529.701 56.0408 529.748 57.2432 529.748 58.4566C529.748 84.0255 509.013 104.753 483.435 104.753C467.233 104.753 452.974 96.4357 444.698 83.8388C437.083 89.3327 427.731 92.5699 417.623 92.5699C402.914 92.5699 389.807 85.715 381.323 75.0267C369.362 98.4563 344.992 114.5 316.874 114.5C286.324 114.5 260.199 95.5618 249.605 68.7889C242.513 64.3986 236.237 58.8169 231.057 52.3232C218.083 64.6792 200.521 72.2644 181.187 72.2644C146.257 72.2644 117.259 47.4192 110.5 14.4998Z" fill="#1E2224"/>
<path fill-rule="evenodd" clip-rule="evenodd" d="M-104.499 275.303L246.339 -11.2141C270.787 3.9503 259.84 30.3181 249.747 38.5601C248.429 39.6369 247.055 40.6014 245.639 41.4548C246.462 42.3184 247.259 43.2202 248.027 44.16C264.2 63.964 261.251 93.1337 241.44 109.312C228.891 119.561 212.586 122.138 198.208 117.616C195.785 126.688 190.589 135.111 182.76 141.504C171.368 150.808 156.88 153.79 143.548 150.877C149.104 176.59 140.377 204.431 118.598 222.217C94.936 241.541 62.7222 243.398 37.5825 229.362C29.3127 230.448 20.9212 230.094 12.8013 228.341C10.5679 246.118 1.76346 263.102 -13.2115 275.331C-40.2659 297.425 -78.4414 296.524 -104.499 275.303Z" fill="#1E2224"/>
<path fill-rule="evenodd" clip-rule="evenodd" d="M435.5 -17.5348C447.746 4.85813 472.651 24.8828 499.754 22.8164C508.012 22.1867 515.806 20.0854 522.898 16.7889C533.547 32.7745 550.825 43.7907 570.493 46.1976C569.721 51.1874 569.505 56.3438 569.905 61.5954C572.718 98.4914 604.909 126.121 641.805 123.308C656.172 122.213 669.134 116.663 679.441 108.115C692.625 126.522 714.822 137.799 739.047 135.952C758.823 134.444 775.936 124.497 787.127 109.91C796.392 125.513 811.762 136.903 829.697 141.039L824.378 71.2774L819.971 13.4811L815.398 -46.5L435.5 -17.5348Z" fill="#171717"/>
<path fill-rule="evenodd" clip-rule="evenodd" d="M717.357 61.5001C709.076 85.6419 711.081 117.536 730.881 136.158C736.914 141.833 743.721 146.172 750.937 149.187C746.311 167.829 749.826 188.017 761.309 204.164C757.104 206.959 753.15 210.275 749.542 214.112C724.191 241.067 725.491 283.469 752.445 308.82C762.941 318.691 775.779 324.522 789.041 326.37C784.337 348.518 790.976 372.514 808.673 389.159C823.12 402.746 842.005 408.678 860.323 407.107C855.047 424.47 856.999 443.5 866.037 459.534L913.97 408.569L953.681 366.345L994.894 322.526L717.357 61.5001Z" fill="#171717"/>
<path fill-rule="evenodd" clip-rule="evenodd" d="M102.037 54.5C110.318 78.6419 108.313 110.536 88.5134 129.158C82.4803 134.833 75.6733 139.172 68.4569 142.187C73.0826 160.829 69.5681 181.017 58.0845 197.164C62.2901 199.959 66.244 203.275 69.8524 207.112C95.2035 234.067 93.9035 276.469 66.9489 301.82C56.4529 311.691 43.6147 317.522 30.353 319.37C35.0567 341.518 28.4185 365.514 10.7205 382.159C-3.72641 395.746 -22.6109 401.678 -40.9292 400.107C-35.6527 417.47 -37.6048 436.5 -46.6427 452.534L-94.5755 401.569L-134.287 359.345L-175.5 315.526L102.037 54.5Z" fill="#171717"/>
<path fill-rule="evenodd" clip-rule="evenodd" d="M710.503 -51.4999L153.003 -51.5C141.503 -18 172.465 -1.38074 188.503 -1.38073C190.598 -1.38073 192.658 -1.53057 194.673 -1.82013C194.56 -0.355144 194.503 1.12535 194.503 2.61927C194.503 34.0995 220.022 59.6193 251.503 59.6193C271.444 59.6193 288.994 49.3788 299.18 33.8696C308.552 40.6336 320.062 44.6193 332.503 44.6193C350.606 44.6193 366.738 36.1796 377.18 23.0202C391.901 51.8665 421.895 71.6193 456.503 71.6193C494.102 71.6193 526.257 48.3029 539.295 15.3403C548.023 9.93509 555.747 3.06288 562.123 -4.93209C578.092 10.2805 599.707 19.6193 623.503 19.6193C666.493 19.6193 702.184 -10.9699 710.503 -51.4999Z" fill="#171717"/>
<path fill-rule="evenodd" clip-rule="evenodd" d="M293.136 -78.4994L-134.5 93.6884C-113.241 103.512 -87.9682 105.006 -64.4939 95.8093C-37.8822 153.536 29.6537 180.799 89.2663 156.796C139.277 136.659 168.306 86.6436 164.069 35.5915L164.069 35.5904C182.649 37.403 201.929 34.8933 220.444 27.4382C263.698 10.0218 289.22 -35.0422 293.136 -78.4994Z" fill="#171717"/>
</svg>
