<svg width="817" height="703" viewBox="0 0 817 703" fill="none" xmlns="http://www.w3.org/2000/svg">
<path fill-rule="evenodd" clip-rule="evenodd" d="M-123.075 162.786L285.616 -18.7191C306.895 0.648727 291.334 24.5831 279.912 30.8488C278.419 31.6674 276.893 32.3656 275.345 32.9466C275.998 33.946 276.617 34.978 277.201 36.0421C289.5 58.4643 281.294 86.6116 258.872 98.9109C244.668 106.702 228.167 106.265 214.852 99.1979C210.82 107.677 204.179 115.013 195.318 119.873C182.423 126.946 167.636 127.238 155.057 121.944C155.842 148.242 142.196 174.03 117.546 187.551C90.7648 202.241 58.7529 198.197 36.5878 179.812C28.2591 179.373 20.0725 177.496 12.4075 174.292C6.97732 191.366 -4.76943 206.463 -21.7185 215.76C-52.3393 232.556 -101.315 188.404 -123.075 162.786Z" fill="#1E2224"/>
<path fill-rule="evenodd" clip-rule="evenodd" d="M706.5 14.4997L253.534 14.4998C244.19 41.7092 269.347 55.2076 282.377 55.2076C284.08 55.2076 285.754 55.0859 287.391 54.8508C287.299 56.0406 287.252 57.2431 287.252 58.4565C287.252 84.0254 307.987 104.753 333.565 104.753C349.767 104.753 364.026 96.4355 372.302 83.8387C379.917 89.3326 389.269 92.5698 399.377 92.5698C414.086 92.5698 427.193 85.7149 435.677 75.0265C447.638 98.4562 472.008 114.5 500.126 114.5C530.676 114.5 556.801 95.5617 567.395 68.7887C574.487 64.3985 580.763 58.8168 585.943 52.3231C598.917 64.679 616.479 72.2642 635.813 72.2642C670.743 72.2642 699.741 47.419 706.5 14.4997Z" fill="#1E2224"/>
<path d="M587.436 519.264L598.423 519.247L592.203 500.5L587.436 519.264Z" fill="url(#paint0_linear_401:668)"/>
<path fill-rule="evenodd" clip-rule="evenodd" d="M921.499 275.303L570.661 -11.2141C546.213 3.9503 557.16 30.3181 567.253 38.5601C568.571 39.6369 569.945 40.6014 571.361 41.4548C570.538 42.3184 569.741 43.2202 568.973 44.16C552.8 63.964 555.749 93.1337 575.56 109.312C588.109 119.561 604.414 122.138 618.792 117.616C621.215 126.688 626.411 135.111 634.24 141.504C645.632 150.808 660.12 153.79 673.452 150.877C667.896 176.59 676.623 204.431 698.402 222.217C722.064 241.541 754.278 243.398 779.418 229.362C787.687 230.448 796.079 230.094 804.199 228.341C806.432 246.118 815.237 263.102 830.211 275.331C857.266 297.425 895.441 296.524 921.499 275.303Z" fill="#1E2224"/>
<path fill-rule="evenodd" clip-rule="evenodd" d="M381.5 -17.5348C369.254 4.85813 344.349 24.8828 317.246 22.8164C308.988 22.1867 301.194 20.0854 294.102 16.7889C283.453 32.7745 266.175 43.7907 246.507 46.1976C247.279 51.1874 247.495 56.3438 247.095 61.5954C244.282 98.4914 212.091 126.121 175.195 123.308C160.828 122.213 147.866 116.663 137.559 108.115C124.375 126.522 102.178 137.799 77.9526 135.952C58.1774 134.444 41.064 124.497 29.8731 109.91C20.6084 125.513 5.23782 136.903 -12.6965 141.039L-7.37755 71.2774L-2.97088 13.4811L1.60236 -46.5L381.5 -17.5348Z" fill="#171717"/>
<path fill-rule="evenodd" clip-rule="evenodd" d="M99.6429 61.4997C107.924 85.6415 105.919 117.536 86.1194 136.158C80.0863 141.832 73.2793 146.171 66.0629 149.186C70.6886 167.828 67.1741 188.016 55.6905 204.164C59.8961 206.958 63.85 210.275 67.4584 214.112C92.8095 241.066 91.5095 283.468 64.5549 308.819C54.059 318.691 41.2207 324.522 27.959 326.37C32.6627 348.518 26.0245 372.513 8.32656 389.159C-6.12036 402.746 -25.0048 408.678 -43.3232 407.107C-38.0466 424.469 -39.9988 443.5 -49.0366 459.533L-96.9695 408.569L-136.681 366.345L-177.894 322.525L99.6429 61.4997Z" fill="#171717"/>
<path fill-rule="evenodd" clip-rule="evenodd" d="M714.963 54.4999C706.682 78.6417 708.687 110.536 728.487 129.158C734.52 134.832 741.327 139.171 748.543 142.187C743.917 160.829 747.432 181.017 758.915 197.164C754.71 199.958 750.756 203.275 747.148 207.112C721.797 234.067 723.096 276.469 750.051 301.82C760.547 311.691 773.385 317.522 786.647 319.37C781.943 341.518 788.582 365.514 806.279 382.159C820.726 395.746 839.611 401.678 857.929 400.107C852.653 417.469 854.605 436.5 863.643 452.534L911.576 401.569L951.287 359.345L992.5 315.526L714.963 54.4999Z" fill="#171717"/>
<path fill-rule="evenodd" clip-rule="evenodd" d="M106.498 -51.5L663.998 -51.5001C675.498 -18.0001 644.535 -1.38086 628.498 -1.38086C626.402 -1.38086 624.342 -1.53069 622.327 -1.82025C622.44 -0.355267 622.498 1.12523 622.498 2.61914C622.498 34.0994 596.978 59.6191 565.498 59.6191C545.556 59.6192 528.006 49.3786 517.82 33.8695C508.448 40.6335 496.938 44.6192 484.498 44.6192C466.394 44.6192 450.262 36.1795 439.821 23.0201C425.099 51.8664 395.105 71.6192 360.498 71.6192C322.898 71.6192 290.743 48.3028 277.705 15.3402C268.977 9.93496 261.253 3.06276 254.877 -4.93221C238.908 10.2803 217.294 19.6192 193.498 19.6192C150.507 19.6192 114.816 -10.97 106.498 -51.5Z" fill="#171717"/>
<path fill-rule="evenodd" clip-rule="evenodd" d="M523.864 -78.4996L951.5 93.6882C930.241 103.511 904.968 105.006 881.494 95.809C854.882 153.536 787.346 180.799 727.734 156.796C677.723 136.659 648.694 86.6433 652.931 35.5912L652.931 35.5902C634.351 37.4027 615.071 34.8931 596.556 27.438C553.302 10.0216 527.78 -35.0425 523.864 -78.4996Z" fill="#171717"/>
</svg>
