<svg width="817" height="509" viewBox="0 0 817 509" fill="none" xmlns="http://www.w3.org/2000/svg">
<path fill-rule="evenodd" clip-rule="evenodd" d="M409.999 530.5L18.3559 314.659C20.9208 285.999 49.3933 283.927 61.2897 289.238C62.8439 289.932 64.3225 290.726 65.7214 291.608C66.1229 290.484 66.5706 289.366 67.0654 288.258C77.4919 264.906 104.875 254.428 128.227 264.855C143.019 271.46 152.646 284.869 155.065 299.747C164.258 297.834 174.116 298.689 183.344 302.81C196.773 308.806 205.945 320.409 209.332 333.629C229.806 317.107 258.598 312.389 284.27 323.851C312.162 336.305 328.291 364.25 327.045 393.02C331.73 399.921 335.183 407.577 337.265 415.619C354.149 409.624 373.276 409.855 390.928 417.737C422.818 431.976 417.253 497.68 409.999 530.5Z" fill="#1E2224"/>
<path fill-rule="evenodd" clip-rule="evenodd" d="M761.501 461.5H308.534C299.19 434.291 324.348 420.792 337.378 420.792C339.08 420.792 340.754 420.914 342.391 421.149C342.299 419.959 342.253 418.757 342.253 417.543C342.253 391.974 362.987 371.247 388.565 371.247C404.768 371.247 419.027 379.564 427.303 392.161C434.917 386.667 444.269 383.43 454.377 383.43C469.086 383.43 482.194 390.285 490.677 400.973C502.638 377.544 527.008 361.5 555.127 361.5C585.677 361.5 611.802 380.438 622.395 407.211C629.487 411.601 635.763 417.183 640.943 423.677C653.918 411.321 671.48 403.736 690.814 403.736C725.744 403.736 754.742 428.581 761.501 461.5Z" fill="#1E2224"/>
<path d="M492.907 325.305C497.788 361.327 491.384 428.613 527.177 397.935L525.884 412.051L507.996 423.765C507.563 424.149 494.599 425.015 488.172 425.4L468.448 421.434L453.268 402.283L457.104 398.447C481.911 426.322 489.349 362.606 492.907 325.305Z" fill="#1E2224"/>
<path d="M496.391 322.045L489.046 322.033L493.204 309.5L496.391 322.045Z" fill="url(#paint0_linear_369:1587)"/>
<path fill-rule="evenodd" clip-rule="evenodd" d="M938.166 182.953L587.328 469.47C562.88 454.306 573.827 427.938 583.919 419.696C585.238 418.619 586.611 417.654 588.028 416.801C587.205 415.937 586.408 415.036 585.64 414.096C569.467 394.292 572.416 365.122 592.226 348.944C604.776 338.695 621.081 336.118 635.459 340.639C637.882 331.568 643.078 323.145 650.907 316.751C662.299 307.448 676.787 304.466 690.119 307.378C684.563 281.666 693.29 253.824 715.069 236.039C738.731 216.715 770.945 214.858 796.084 228.894C804.354 227.808 812.746 228.162 820.865 229.915C823.099 212.138 831.903 195.154 846.878 182.925C873.933 160.83 912.108 161.731 938.166 182.953Z" fill="#1E2224"/>
<path d="M629.218 229.481C637.859 293.256 626.521 412.383 689.89 358.069L687.601 383.06L655.932 403.8C655.166 404.48 632.214 406.013 620.834 406.695L585.915 399.672L559.038 365.766L565.83 358.975C609.749 408.327 622.918 295.52 629.218 229.481Z" fill="#1E2224"/>
<path d="M635.386 223.709L622.381 223.689L629.744 201.5L635.386 223.709Z" fill="url(#paint1_linear_369:1587)"/>
<path d="M224.353 225.141C231.654 279.023 222.075 379.669 275.613 333.781L273.679 354.895L246.923 372.418C246.275 372.992 226.884 374.288 217.269 374.864L187.767 368.93L165.06 340.284L170.798 334.546C207.904 376.243 219.03 280.935 224.353 225.141Z" fill="#1E2224"/>
<path d="M229.564 220.264L218.577 220.247L224.797 201.5L229.564 220.264Z" fill="url(#paint2_linear_369:1587)"/>
<path fill-rule="evenodd" clip-rule="evenodd" d="M392.5 503.583C381.992 480.324 358.681 458.464 331.5 458.464C323.218 458.464 315.287 459.967 307.964 462.715C298.562 445.966 282.171 433.668 262.743 429.773C263.892 424.856 264.5 419.731 264.5 414.464C264.5 377.461 234.503 347.464 197.5 347.464C183.091 347.464 169.745 352.013 158.818 359.752C147.071 340.396 125.796 327.464 101.5 327.464C81.6674 327.464 63.8474 336.081 51.5799 349.776C43.5283 333.513 29.0681 320.987 11.5001 315.5V385.464V443.428V503.583H392.5Z" fill="#171717"/>
<path fill-rule="evenodd" clip-rule="evenodd" d="M119.037 398.534C127.318 374.392 125.313 342.497 105.513 323.875C99.4803 318.201 92.6733 313.862 85.4569 310.847C90.0826 292.205 86.5681 272.017 75.0845 255.869C79.2901 253.075 83.244 249.758 86.8524 245.922C112.203 218.967 110.904 176.565 83.9489 151.214C73.4529 141.342 60.6147 135.512 47.353 133.663C52.0567 111.516 45.4185 87.5199 27.7205 70.8748C13.2736 57.2873 -5.61087 51.3558 -23.9292 52.9268C-18.6527 35.5641 -20.6048 16.5332 -29.6427 0.500042L-77.5755 51.4648L-117.287 93.6883L-158.5 137.508L119.037 398.534Z" fill="#171717"/>
<path fill-rule="evenodd" clip-rule="evenodd" d="M730.357 431.534C722.077 407.392 724.081 375.497 743.881 356.875C749.914 351.201 756.721 346.862 763.937 343.847C759.312 325.205 762.826 305.017 774.31 288.869C770.104 286.075 766.15 282.758 762.542 278.922C737.191 251.967 738.491 209.565 765.445 184.214C775.941 174.342 788.78 168.512 802.041 166.663C797.338 144.516 803.976 120.52 821.674 103.875C836.121 90.2873 855.005 84.3558 873.323 85.9268C868.047 68.5641 869.999 49.5332 879.037 33.5L926.97 84.4648L966.681 126.688L1007.89 170.508L730.357 431.534Z" fill="#171717"/>
<path fill-rule="evenodd" clip-rule="evenodd" d="M174.5 520.619H732C743.5 487.119 712.537 470.5 696.5 470.5C694.405 470.5 692.345 470.65 690.33 470.939C690.443 469.474 690.5 467.994 690.5 466.5C690.5 435.02 664.98 409.5 633.5 409.5C613.558 409.5 596.009 419.741 585.823 435.25C576.451 428.486 564.941 424.5 552.5 424.5C534.397 424.5 518.264 432.94 507.823 446.099C493.102 417.253 463.108 397.5 428.5 397.5C390.9 397.5 358.746 420.816 345.708 453.779C336.979 459.184 329.255 466.056 322.879 474.051C306.911 458.839 285.296 449.5 261.5 449.5C218.509 449.5 182.819 480.089 174.5 520.619Z" fill="#171717"/>
<path fill-rule="evenodd" clip-rule="evenodd" d="M547.584 515.52L975.219 343.332C953.961 333.509 928.688 332.015 905.213 341.211C878.602 283.485 811.066 256.221 751.453 280.224C701.442 300.361 672.413 350.377 676.65 401.429L676.651 401.43C658.07 399.618 638.791 402.127 620.276 409.582C577.022 426.999 551.499 472.063 547.584 515.52Z" fill="#171717"/>
<defs>
<linearGradient id="paint0_linear_369:1587" x1="488.937" y1="313.328" x2="496.594" y2="321.862" gradientUnits="userSpaceOnUse">
<stop stop-color="#0057FF"/>
<stop offset="1" stop-color="#0241BB"/>
</linearGradient>
<linearGradient id="paint1_linear_369:1587" x1="622.189" y1="208.278" x2="635.745" y2="223.387" gradientUnits="userSpaceOnUse">
<stop stop-color="#0057FF"/>
<stop offset="1" stop-color="#0241BB"/>
</linearGradient>
<linearGradient id="paint2_linear_369:1587" x1="218.415" y1="207.227" x2="229.868" y2="219.991" gradientUnits="userSpaceOnUse">
<stop stop-color="#0057FF"/>
<stop offset="1" stop-color="#0241BB"/>
</linearGradient>
</defs>
</svg>
