<svg width="817" height="509" viewBox="0 0 817 509" fill="none" xmlns="http://www.w3.org/2000/svg">
<path fill-rule="evenodd" clip-rule="evenodd" d="M407.001 530.5L798.644 314.659C796.079 285.999 767.607 283.926 755.71 289.238C754.156 289.932 752.678 290.726 751.279 291.608C750.877 290.484 750.429 289.366 749.935 288.258C739.508 264.906 712.125 254.428 688.773 264.855C673.981 271.459 664.354 284.869 661.935 299.747C652.742 297.833 642.884 298.689 633.656 302.81C620.227 308.806 611.055 320.409 607.668 333.629C587.194 317.107 558.402 312.389 532.73 323.851C504.838 336.304 488.709 364.25 489.955 393.02C485.271 399.921 481.817 407.577 479.735 415.619C462.851 409.624 443.724 409.855 426.073 417.737C394.182 431.976 399.748 497.68 407.001 530.5Z" fill="#1E2224"/>
<path fill-rule="evenodd" clip-rule="evenodd" d="M55.4991 461.5H508.466C517.81 434.291 492.652 420.792 479.622 420.792C477.92 420.792 476.246 420.914 474.609 421.149C474.701 419.959 474.747 418.757 474.747 417.543C474.747 391.974 454.013 371.247 428.435 371.247C412.232 371.247 397.973 379.564 389.697 392.161C382.083 386.667 372.731 383.43 362.623 383.43C347.914 383.43 334.806 390.285 326.323 400.973C314.362 377.544 289.992 361.5 261.873 361.5C231.323 361.5 205.198 380.438 194.605 407.211C187.513 411.601 181.237 417.183 176.057 423.677C163.082 411.321 145.52 403.735 126.186 403.735C91.2564 403.735 62.2581 428.581 55.4991 461.5Z" fill="#1E2224"/>
<path d="M324.093 325.305C319.212 361.327 325.616 428.613 289.823 397.935L291.116 412.051L309.004 423.765C309.437 424.149 322.401 425.015 328.828 425.4L348.552 421.434L363.732 402.283L359.896 398.447C335.089 426.322 327.651 362.605 324.093 325.305Z" fill="#1E2224"/>
<path d="M320.609 322.044L327.954 322.033L323.796 309.5L320.609 322.044Z" fill="url(#paint0_linear_401:668)"/>
<path fill-rule="evenodd" clip-rule="evenodd" d="M-121.166 182.953L229.672 469.47C254.12 454.306 243.173 427.938 233.081 419.696C231.762 418.619 230.389 417.654 228.972 416.801C229.795 415.937 230.592 415.036 231.36 414.096C247.533 394.292 244.584 365.122 224.774 348.944C212.224 338.695 195.919 336.118 181.541 340.639C179.118 331.568 173.922 323.145 166.093 316.751C154.701 307.448 140.213 304.466 126.881 307.378C132.437 281.666 123.71 253.824 101.931 236.039C78.2691 216.715 46.0554 214.858 20.9156 228.894C12.6459 227.808 4.25436 228.162 -3.8655 229.915C-6.09897 212.138 -14.9034 195.154 -29.8783 182.925C-56.9327 160.83 -95.1082 161.731 -121.166 182.953Z" fill="#1E2224"/>
<path d="M187.782 229.481C179.141 293.256 190.479 412.382 127.11 358.069L129.399 383.06L161.068 403.799C161.834 404.479 184.786 406.013 196.166 406.695L231.085 399.672L257.962 365.766L251.17 358.975C207.251 408.327 194.082 295.52 187.782 229.481Z" fill="#1E2224"/>
<path d="M181.614 223.709L194.619 223.689L187.256 201.5L181.614 223.709Z" fill="url(#paint1_linear_401:668)"/>
<path d="M592.647 225.141C585.346 279.022 594.925 379.669 541.387 333.781L543.321 354.895L570.077 372.417C570.725 372.992 590.116 374.288 599.731 374.863L629.233 368.93L651.94 340.284L646.202 334.546C609.096 376.243 597.97 280.935 592.647 225.141Z" fill="#1E2224"/>
<path d="M587.436 220.264L598.423 220.247L592.203 201.5L587.436 220.264Z" fill="url(#paint2_linear_401:668)"/>
<path fill-rule="evenodd" clip-rule="evenodd" d="M424.5 503.583C435.008 480.324 458.319 458.464 485.5 458.464C493.782 458.464 501.713 459.967 509.036 462.715C518.438 445.966 534.829 433.668 554.257 429.773C553.108 424.856 552.5 419.731 552.5 414.464C552.5 377.461 582.497 347.464 619.5 347.464C633.909 347.464 647.255 352.012 658.182 359.752C669.929 340.396 691.204 327.464 715.5 327.464C735.333 327.464 753.153 336.081 765.42 349.776C773.472 333.513 787.932 320.987 805.5 315.5V385.464V443.428V503.583H424.5Z" fill="#171717"/>
<path fill-rule="evenodd" clip-rule="evenodd" d="M697.963 398.534C689.682 374.392 691.687 342.497 711.487 323.875C717.52 318.201 724.327 313.862 731.543 310.847C726.917 292.205 730.432 272.017 741.915 255.869C737.71 253.075 733.756 249.758 730.148 245.922C704.797 218.967 706.096 176.565 733.051 151.214C743.547 141.342 756.385 135.512 769.647 133.663C764.943 111.516 771.581 87.5197 789.279 70.8746C803.726 57.2872 822.611 51.3556 840.929 52.9266C835.653 35.564 837.605 16.5331 846.643 0.49992L894.575 51.4647L934.287 93.6882L975.5 137.508L697.963 398.534Z" fill="#171717"/>
<path fill-rule="evenodd" clip-rule="evenodd" d="M86.6426 431.534C94.9233 407.392 92.9189 375.497 73.1191 356.875C67.086 351.201 60.279 346.862 53.0626 343.847C57.6883 325.205 54.1738 305.017 42.6903 288.87C46.8958 286.075 50.8497 282.758 54.4581 278.922C79.8092 251.967 78.5092 209.565 51.5546 184.214C41.0587 174.342 28.2204 168.512 14.9587 166.664C19.6624 144.516 13.0242 120.52 -4.67375 103.875C-19.1207 90.2874 -38.0052 84.3559 -56.3235 85.9269C-51.0469 68.5642 -52.9991 49.5334 -62.0369 33.5002L-109.97 84.465L-149.681 126.688L-190.894 170.508L86.6426 431.534Z" fill="#171717"/>
<path fill-rule="evenodd" clip-rule="evenodd" d="M642.5 520.619H84.9999C73.4999 487.119 104.463 470.5 120.5 470.5C122.595 470.5 124.655 470.65 126.67 470.939C126.557 469.474 126.5 467.994 126.5 466.5C126.5 435.02 152.02 409.5 183.5 409.5C203.442 409.5 220.991 419.741 231.177 435.25C240.549 428.486 252.059 424.5 264.5 424.5C282.603 424.5 298.736 432.94 309.177 446.099C323.898 417.253 353.892 397.5 388.5 397.5C426.1 397.5 458.254 420.816 471.292 453.779C480.021 459.184 487.745 466.056 494.121 474.051C510.089 458.839 531.704 449.5 555.5 449.5C598.491 449.5 634.181 480.089 642.5 520.619Z" fill="#171717"/>
<path fill-rule="evenodd" clip-rule="evenodd" d="M269.416 515.52L-158.219 343.332C-136.961 333.509 -111.688 332.014 -88.2134 341.211C-61.6017 283.485 5.9342 256.221 65.5468 280.224C115.558 300.361 144.587 350.377 140.35 401.429L140.349 401.43C158.93 399.618 178.209 402.127 196.724 409.582C239.978 426.999 265.501 472.063 269.416 515.52Z" fill="#171717"/>
<defs>
<linearGradient id="paint0_linear_401:668" x1="328.063" y1="313.328" x2="320.406" y2="321.862" gradientUnits="userSpaceOnUse">
<stop stop-color="#0057FF"/>
<stop offset="1" stop-color="#0241BB"/>
</linearGradient>
<linearGradient id="paint1_linear_401:668" x1="194.811" y1="208.278" x2="181.255" y2="223.386" gradientUnits="userSpaceOnUse">
<stop stop-color="#0057FF"/>
<stop offset="1" stop-color="#0241BB"/>
</linearGradient>
<linearGradient id="paint2_linear_401:668" x1="598.585" y1="207.227" x2="587.132" y2="219.991" gradientUnits="userSpaceOnUse">
<stop stop-color="#0057FF"/>
<stop offset="1" stop-color="#0241BB"/>
</linearGradient>
</defs>
</svg>
