<svg width="609" height="408" viewBox="0 0 609 408" fill="none" xmlns="http://www.w3.org/2000/svg">
<path d="M413 276C486 250 520.731 212.5 496.5 160C486.346 138 472 123 496.5 73C521 23 608 5.5 608 5.5" stroke="black" stroke-width="10"/>
<path d="M416.535 347.447C417.799 355.165 424.013 358.23 436.251 355.809C448.489 353.387 453.201 358.576 454.024 359.578C456.779 362.953 476.639 394.944 457.733 404.021C444.398 410.426 430.466 389.493 430.466 389.493C430.466 389.493 399.025 410.581 355.405 362.631" fill="url(#paint0_linear)"/>
<path d="M396.055 389.373C399.788 389.373 403.367 388.741 406.659 387.477C417.251 383.421 425.063 373.128 429.87 356.894C430.192 355.82 429.572 354.699 428.511 354.389C427.437 354.067 426.316 354.687 426.006 355.749C421.569 370.718 414.567 380.129 405.216 383.708C392.167 388.705 378.748 380.63 378.617 380.547C377.662 379.962 376.422 380.26 375.837 381.215C375.253 382.169 375.551 383.409 376.505 383.994C376.66 384.089 380.37 386.344 385.904 387.906C389.352 388.884 392.763 389.373 396.055 389.373Z" fill="black"/>
<g opacity="0.35">
<g opacity="0.35">
<g opacity="0.35">
<g opacity="0.35">
<path opacity="0.35" d="M457.734 404.033C444.399 410.438 430.467 389.505 430.467 389.505C430.467 389.505 399.025 410.581 355.405 362.643L395.399 352.707C409.569 378.77 432.125 377.768 432.125 377.768C432.125 377.768 439.818 403.603 459.773 397.282C465.153 395.576 464.294 388.956 465.558 386.666C466.489 393.87 464.89 400.586 457.734 404.033Z" fill="black"/>
</g>
</g>
</g>
</g>
<path d="M452.449 407.253C454.584 407.253 456.648 406.788 458.616 405.845C463.292 403.603 466.226 399.941 467.335 394.955C468.659 389.015 467.347 381.405 463.423 372.328C460.548 365.672 456.898 359.899 455.586 358.289C454.203 356.595 448.716 351.276 435.858 353.816C429.309 355.116 424.562 354.782 421.747 352.826C420.006 351.621 418.956 349.749 418.515 347.113C418.336 346.015 417.298 345.264 416.201 345.443C415.103 345.622 414.352 346.659 414.531 347.757C415.139 351.478 416.797 354.293 419.445 356.142C423.238 358.778 428.868 359.315 436.633 357.776C447.547 355.617 451.722 359.947 452.449 360.83C454.155 362.929 466.119 381.775 463.375 394.061C462.54 397.818 460.405 400.478 456.851 402.183C445.257 407.754 432.267 388.55 432.136 388.359L431.015 386.677L429.333 387.799C429.262 387.846 421.676 392.761 409.104 391.997C397.391 391.281 378.831 385.377 356.896 361.259C356.144 360.436 354.868 360.376 354.045 361.128C353.222 361.879 353.162 363.156 353.914 363.979C364.016 375.083 374.346 383.445 384.604 388.824C392.894 393.178 401.172 395.599 409.187 396.041C410.082 396.088 410.952 396.112 411.799 396.112C420.769 396.112 427.031 393.572 429.882 392.128C431.337 394.073 434.152 397.544 437.79 400.669C442.847 405.046 447.821 407.253 452.449 407.253Z" fill="black"/>
<path d="M407.841 255.805C407.185 256.521 406.553 257.225 405.92 257.941C405.288 258.656 404.668 259.372 404.048 260.099C402.807 261.543 401.591 263.01 400.398 264.513C399.205 266.016 398.036 267.519 396.927 269.093C396.784 269.284 396.641 269.487 396.509 269.678L396.104 270.274C395.841 270.679 395.555 271.061 395.305 271.479C395.042 271.896 394.78 272.302 394.529 272.719L393.802 273.995C393.492 274.544 393.682 275.248 394.231 275.57C394.768 275.88 395.46 275.701 395.782 275.176L395.806 275.14C396.748 273.602 397.869 272.111 399.014 270.656C400.171 269.2 401.388 267.781 402.628 266.385C403.869 264.99 405.145 263.618 406.445 262.258C407.089 261.579 407.745 260.911 408.401 260.243C409.057 259.575 409.725 258.907 410.381 258.275C411.085 257.583 411.109 256.462 410.417 255.758C409.725 255.054 408.604 255.03 407.9 255.722C407.888 255.758 407.865 255.782 407.841 255.805Z" fill="black"/>
<path d="M434.273 283.848L421.582 293.784C420.448 294.666 420.055 296.205 420.627 297.529C422.727 302.36 428.166 313.274 434.583 313.787C439.903 314.216 445.342 310.113 446.785 305.091C448.395 299.473 442.169 289.382 438.841 284.54C437.791 283.037 435.704 282.727 434.273 283.848Z" fill="url(#paint1_linear)"/>
<g opacity="0.35">
<g opacity="0.35">
<g opacity="0.35">
<g opacity="0.35">
<path opacity="0.35" d="M420.628 297.529C422.727 302.36 428.166 313.274 434.583 313.787C439.903 314.216 445.342 310.113 446.785 305.091C447.775 301.644 445.795 296.491 443.35 291.911C444.185 294.463 444.4 296.825 443.982 298.757C441.621 309.803 431.434 305.449 431.434 305.449C431.434 305.449 431.816 307.906 431.184 308.479C428.572 310.864 423.085 301.358 420.365 296.372C420.377 296.766 420.461 297.159 420.628 297.529Z" fill="black"/>
</g>
</g>
</g>
</g>
<path d="M435.334 315.838C441.179 315.838 447.059 311.437 448.717 305.652C450.435 299.664 445.199 290.241 440.499 283.394C439.688 282.226 438.424 281.426 437.016 281.212C435.609 280.997 434.153 281.379 433.032 282.249L420.341 292.185C418.48 293.64 417.836 296.169 418.778 298.328C419.959 301.036 421.88 304.984 424.349 308.443C427.629 313.047 431.028 315.516 434.428 315.79C434.714 315.826 435.024 315.838 435.334 315.838ZM436.217 285.196C436.288 285.196 436.348 285.196 436.396 285.208C436.575 285.231 436.921 285.339 437.159 285.685C442.932 294.094 445.795 301.143 444.829 304.543C443.66 308.598 439.414 311.807 435.346 311.807C435.143 311.807 434.941 311.795 434.738 311.783C430.372 311.437 425.542 303.779 422.476 296.73C422.273 296.253 422.416 295.704 422.822 295.382L435.513 285.446C435.764 285.243 436.026 285.196 436.217 285.196Z" fill="black"/>
<path d="M442.242 309.469H442.265C442.242 309.469 442.242 309.469 442.242 309.469L442.194 309.481C442.158 309.481 442.122 309.493 442.075 309.493C441.991 309.505 441.908 309.505 441.812 309.517C441.633 309.528 441.442 309.528 441.252 309.517C440.87 309.505 440.476 309.457 440.095 309.397C439.701 309.338 439.307 309.242 438.926 309.123C438.532 309.016 438.15 308.872 437.769 308.717C436.242 308.097 434.799 307.155 433.498 305.998C432.854 305.425 432.234 304.793 431.65 304.125L431.22 303.624L430.791 303.099C430.648 302.92 430.505 302.742 430.373 302.563C430.23 302.384 430.099 302.205 429.956 302.026C429.407 301.31 428.894 300.571 428.417 299.807C428.179 299.426 427.952 299.044 427.737 298.65C427.63 298.459 427.535 298.257 427.439 298.066C427.391 297.97 427.344 297.863 427.308 297.768C427.284 297.72 427.272 297.672 427.248 297.625L427.201 297.505L427.177 297.446C427.069 297.171 426.759 297.04 426.485 297.135C426.234 297.231 426.103 297.493 426.163 297.756L426.187 297.863L426.211 297.958C426.222 298.018 426.246 298.078 426.258 298.137C426.294 298.257 426.33 298.376 426.366 298.483C426.449 298.71 426.533 298.937 426.616 299.163C426.795 299.605 426.986 300.034 427.189 300.463C427.594 301.31 428.047 302.145 428.525 302.956C428.644 303.159 428.763 303.362 428.882 303.565C429.002 303.767 429.121 303.97 429.252 304.161L429.634 304.757L430.039 305.354C430.588 306.141 431.184 306.904 431.829 307.632C433.129 309.087 434.667 310.375 436.457 311.365C436.898 311.604 437.363 311.831 437.84 312.033C438.317 312.236 438.806 312.415 439.307 312.558C439.808 312.701 440.333 312.821 440.87 312.904C441.144 312.94 441.407 312.976 441.693 312.999C441.836 313.011 441.979 313.011 442.122 313.023C442.194 313.023 442.277 313.023 442.349 313.023H442.468H442.54H442.575H442.635C443.613 312.904 444.305 312.009 444.174 311.031C444.102 310.041 443.22 309.35 442.242 309.469Z" fill="black"/>
<path d="M329.892 312.057C329.892 312.057 323.701 312.916 314.039 312.2C294.716 310.757 261.474 303.04 235.924 269.582C232.596 265.229 216.47 263.44 220.68 254.351C221.957 251.595 225.297 251.011 225.297 251.011C225.297 251.011 220.394 249.007 221.539 243.902C223.34 235.839 237.988 239.298 237.988 239.298C237.988 239.298 233.085 234.133 232 229.278C231.237 225.879 233.622 222.79 235.733 221.978C241.733 219.676 254.043 228.718 261.533 233.787C268.594 238.546 273.139 244.713 277.827 251.047C285.138 260.911 292.82 271.181 310.962 277.145C317.045 279.136 324.297 280.663 333.1 281.51L330.929 302.109L329.892 312.057Z" fill="url(#paint2_linear)"/>
<g opacity="0.35">
<g opacity="0.35">
<g opacity="0.35">
<g opacity="0.35">
<path opacity="0.35" d="M329.892 312.057C329.892 312.057 323.701 312.916 314.04 312.2C294.716 310.757 261.474 303.04 235.924 269.582C233.109 265.896 221.134 264.048 220.06 258.072C221.384 255.245 232.477 263.296 235.447 264.131C241.196 265.753 242.461 262.247 242.699 260.72C243.606 254.899 222.005 251.846 221.742 246.752C221.396 240.252 228.326 251.702 244.632 252.024C249.784 252.12 251.073 245.762 251.263 246.204C257.108 259.396 247.077 268.413 252.945 277.037C270.455 302.801 296.911 298.781 313.264 299.998C322.926 300.714 329.116 299.855 329.116 299.855L330.166 289.907L331.072 281.295C331.74 281.379 332.432 281.45 333.112 281.51L330.941 302.109L329.892 312.057Z" fill="black"/>
</g>
</g>
</g>
</g>
<path d="M321.59 314.514C326.767 314.514 329.904 314.097 330.166 314.061C331.276 313.906 332.039 312.892 331.884 311.783C331.729 310.674 330.715 309.91 329.606 310.065C329.474 310.089 315.722 311.89 297.567 307.644C280.88 303.744 256.918 293.748 237.523 268.354C236.092 266.481 233.289 265.205 230.307 263.833C226.895 262.271 223.031 260.505 222.172 258.191C221.862 257.332 221.969 256.354 222.506 255.197C223.293 253.504 225.512 253.026 225.655 252.991C226.549 252.848 227.241 252.132 227.337 251.225C227.432 250.319 226.919 249.472 226.072 249.138C225.69 248.971 222.78 247.587 223.508 244.331C223.746 243.246 224.319 242.458 225.285 241.85C228.601 239.775 235.245 240.717 237.535 241.254C238.406 241.456 239.3 241.063 239.753 240.299C240.195 239.524 240.075 238.546 239.467 237.902C239.419 237.854 234.935 233.071 233.98 228.825C233.432 226.392 235.304 224.292 236.461 223.851C237.714 223.374 240.362 223.398 245.872 226.225C250.059 228.372 254.615 231.485 258.265 233.99C259.017 234.503 259.732 234.992 260.412 235.445C267.128 239.977 271.481 245.858 276.097 252.084C281.083 258.811 286.236 265.765 294.741 271.538C304.319 278.027 316.807 281.951 332.922 283.514C334.031 283.621 335.021 282.81 335.128 281.701C335.236 280.592 334.424 279.602 333.315 279.494C298.963 276.155 288.991 262.688 279.342 249.675C274.726 243.448 269.967 237.019 262.679 232.093C262.011 231.64 261.295 231.151 260.555 230.65C256.798 228.085 252.134 224.901 247.721 222.634C242.079 219.736 238.036 218.925 235.018 220.082C231.845 221.298 229.09 225.461 230.044 229.708C230.593 232.165 231.965 234.622 233.3 236.602C233.205 236.59 233.11 236.59 233.002 236.59C228.792 236.351 225.476 236.972 223.15 238.439C221.265 239.62 220.061 241.313 219.583 243.46C218.892 246.574 219.929 248.947 221.361 250.569C220.406 251.237 219.464 252.18 218.856 253.504C217.854 255.663 217.711 257.702 218.403 259.587C219.834 263.475 224.522 265.61 228.637 267.507C231.034 268.604 233.503 269.737 234.326 270.799C243.224 282.452 253.792 291.983 265.744 299.116C275.31 304.829 285.759 309.028 296.828 311.604C306.919 313.954 315.614 314.514 321.59 314.514Z" fill="black"/>
<path d="M499.147 349.475C490.046 360.186 476.818 347.387 476.818 347.387C476.818 347.387 466.727 375.382 445.543 381.203C427.747 386.081 405.669 374.38 405.669 374.38C405.669 374.38 330.297 395.302 314.039 312.2C312.93 306.499 312.083 300.308 311.57 293.593C311.177 288.428 310.962 282.953 310.962 277.145C310.962 274.103 311.022 270.978 311.141 267.757L373.631 262.116L380.835 261.471L382.636 261.304C382.732 261.71 382.839 262.104 382.946 262.497C386.048 273.829 392.131 282.405 398.667 289.227C406.945 297.899 415.927 303.756 420.364 308.849C422.809 311.652 424.717 314.383 426.149 316.721C428.725 320.908 429.823 323.866 429.823 323.866C432.566 326.037 441.285 332.323 448.478 327.623C450.971 325.989 452.664 323.222 454.143 320.204C456.779 314.872 458.783 308.753 463.519 306.773C470.365 303.911 478.214 306.499 484.762 311.306C488.841 314.3 492.408 318.164 494.901 322.101C499.207 328.876 505.803 341.662 499.147 349.475Z" fill="url(#paint3_linear)"/>
<path d="M363.268 328.664C358.756 319.745 350.34 314.922 344.469 317.892C342.351 318.963 340.853 320.902 340.016 323.362L336.475 320.752C337.519 317.478 339.459 314.895 342.241 313.487C349.713 309.708 360.425 315.846 366.167 327.198C371.909 338.55 370.507 350.816 363.035 354.596C356.019 358.144 346.147 352.95 340.215 342.907C339.829 342.253 339.459 341.579 339.108 340.885C338.706 340.091 338.34 339.292 338.007 338.492L345.844 334.528L350.295 337.808L343.132 341.431C347.818 349.044 355.394 352.929 360.807 350.191C366.678 347.222 367.78 337.584 363.268 328.664Z" fill="black"/>
<path fill-rule="evenodd" clip-rule="evenodd" d="M342.865 314.721C349.888 311.168 359.958 316.938 365.355 327.609C370.753 338.279 369.435 349.81 362.411 353.362C355.817 356.698 346.537 351.816 340.961 342.376C340.598 341.762 340.25 341.128 339.92 340.475C339.73 340.1 339.549 339.724 339.376 339.348L346.068 335.964L348.026 337.407L341.587 340.664L342.406 341.994C347.449 350.189 355.604 354.372 361.43 351.425C367.75 348.228 368.936 337.854 364.08 328.254C359.224 318.654 350.164 313.462 343.845 316.659C341.835 317.676 340.342 319.421 339.4 321.637L337.83 320.48C338.87 317.91 340.56 315.887 342.865 314.721ZM366.979 326.787C360.892 314.755 349.537 308.248 341.617 312.254C338.67 313.745 336.611 316.484 335.505 319.956L335.156 321.051L340.663 325.11L340.98 324.177C341.753 321.905 343.135 320.115 345.093 319.125C350.515 316.382 358.289 320.837 362.456 329.075C366.623 337.313 365.605 346.215 360.183 348.958C355.504 351.325 349.074 348.333 344.722 342.176L352.564 338.209L345.621 333.092L336.659 337.625L337.13 338.761C337.482 339.609 337.871 340.455 338.296 341.296C338.668 342.03 339.059 342.745 339.468 343.437C345.758 354.084 356.221 359.591 363.658 355.829C371.579 351.823 373.066 338.82 366.979 326.787Z" fill="black"/>
<g opacity="0.35">
<g opacity="0.35">
<g opacity="0.35">
<g opacity="0.35">
<path opacity="0.35" d="M500.686 347.149C500.28 347.96 499.767 348.747 499.147 349.475C490.046 360.186 476.818 347.387 476.818 347.387C476.818 347.387 466.727 375.382 445.544 381.203C427.747 386.081 405.669 374.38 405.669 374.38C405.669 374.38 332.325 394.741 314.731 315.504C332.456 371.028 381.229 367.915 397.522 365.184C401.029 364.599 404.631 365.005 407.911 366.365C415.462 369.502 430.18 374.344 442.776 370.885C463.96 365.076 469.196 337.678 478.333 335.364C480.468 334.816 484.714 357.848 500.686 347.149Z" fill="black"/>
</g>
</g>
</g>
</g>
<path d="M436.073 384.411C439.663 384.411 443.015 383.994 446.08 383.147C451.209 381.74 456.135 378.996 460.704 374.989C464.306 371.828 467.705 367.88 470.807 363.24C474.17 358.206 476.437 353.507 477.653 350.715C480.373 352.767 485.227 355.773 490.476 355.773C490.69 355.773 490.917 355.773 491.132 355.761C494.829 355.582 498.05 353.912 500.686 350.799C504.049 346.839 504.861 341.483 503.083 334.887C501.95 330.677 499.767 326.025 496.618 321.039C493.028 315.373 487.684 310.304 481.947 307.119C478.762 305.354 475.59 304.233 472.5 303.791C469.029 303.302 465.749 303.684 462.755 304.936C458.115 306.881 455.849 311.795 453.666 316.542C451.949 320.276 450.16 324.14 447.38 325.965C444.864 327.611 441.774 327.778 438.184 326.454C436.037 325.667 433.747 324.355 431.504 322.637C430.729 320.753 427.843 314.371 421.891 307.549C419.696 305.032 416.571 302.432 412.945 299.426C402.997 291.16 389.364 279.852 384.604 260.839C384.33 259.754 383.233 259.098 382.159 259.372C381.074 259.647 380.418 260.744 380.692 261.817C385.761 282.119 399.991 293.927 410.368 302.539C413.863 305.437 416.881 307.942 418.849 310.209C425.278 317.592 427.914 324.534 427.938 324.605L428.141 325.13L428.582 325.488C431.29 327.623 434.129 329.281 436.8 330.259C441.583 332.013 445.997 331.702 449.587 329.353C453.344 326.896 455.372 322.494 457.328 318.248C459.284 314.014 461.121 310.006 464.318 308.682C473.92 304.662 486.79 313.095 493.207 323.222C496.141 327.862 498.157 332.144 499.183 335.961C500.602 341.197 500.066 345.312 497.608 348.211C495.688 350.465 493.505 351.634 490.941 351.753C484.643 352.075 478.273 346.028 478.214 345.968L475.971 343.809L474.91 346.732C474.886 346.803 472.381 353.662 467.383 361.093C462.863 367.832 455.312 376.444 444.995 379.283C436.288 381.668 426.364 379.76 419.577 377.732C412.098 375.501 406.659 372.639 406.599 372.615L405.884 372.233L405.108 372.448C405.025 372.472 396.007 374.917 383.817 374.702C372.677 374.511 356.49 371.983 342.666 361.057C321.411 344.251 311.475 312.88 313.145 267.841C313.181 266.732 312.322 265.789 311.201 265.754C310.091 265.718 309.149 266.577 309.113 267.698C308.195 292.555 310.819 313.656 316.902 330.414C322.126 344.787 329.963 356.166 340.197 364.253C346.722 369.406 354.248 373.247 362.598 375.668C369.241 377.601 376.41 378.638 383.901 378.758C384.39 378.77 384.879 378.77 385.356 378.77C395.423 378.77 403.021 377.136 405.406 376.551C407.16 377.422 412.003 379.688 418.324 381.585C422.952 382.968 427.413 383.863 431.6 384.233C433.139 384.34 434.63 384.411 436.073 384.411Z" fill="black"/>
<path d="M264.181 238.475C259.183 230.65 248.543 228.754 246.444 229.159C244.846 229.469 241.076 234.563 244.965 237.64C248.853 240.717 252.086 240.646 252.026 242.184C251.967 243.723 249.33 249.21 253.577 254.601" fill="url(#paint4_linear)"/>
<path d="M264.754 238.105C263.8 235.994 262.273 234.133 260.508 232.594C258.73 231.056 256.691 229.839 254.532 228.92C253.446 228.467 252.349 228.062 251.192 227.763C250.619 227.608 250.035 227.477 249.439 227.358C248.842 227.251 248.234 227.167 247.578 227.131L247.327 227.119C247.244 227.119 247.148 227.119 247.065 227.119C246.898 227.119 246.683 227.131 246.48 227.143C246.361 227.155 246.23 227.179 246.111 227.191C245.956 227.215 245.729 227.274 245.586 227.334C245.288 227.453 245.049 227.573 244.846 227.704C244.441 227.954 244.143 228.205 243.868 228.467C243.594 228.73 243.355 228.992 243.141 229.278C242.699 229.827 242.341 230.423 242.031 231.067C241.733 231.712 241.495 232.403 241.375 233.155C241.256 233.906 241.232 234.717 241.411 235.517C241.578 236.328 241.936 237.103 242.401 237.759C242.508 237.926 242.64 238.069 242.771 238.224C242.89 238.379 243.033 238.51 243.176 238.642C243.308 238.785 243.463 238.892 243.594 239.011L243.701 239.095C243.737 239.119 243.773 239.155 243.809 239.178L243.987 239.31C244.477 239.667 244.989 240.013 245.502 240.323C246.54 240.956 247.649 241.457 248.711 241.886C249.236 242.089 249.761 242.292 250.154 242.459C250.345 242.542 250.5 242.626 250.536 242.637C250.536 242.637 250.524 242.614 250.476 242.53C250.429 242.447 250.381 242.303 250.381 242.196C250.381 242.172 250.381 242.148 250.381 242.125V242.113V242.125V242.137C250.381 242.137 250.381 242.137 250.381 242.148V242.208C250.381 242.28 250.357 242.399 250.345 242.518C250.309 242.757 250.25 243.019 250.202 243.294C250.106 243.842 249.999 244.427 249.928 245.023C249.784 246.204 249.761 247.432 249.928 248.649C250.095 249.866 250.452 251.059 250.989 252.132C251.526 253.217 252.242 254.184 253.053 255.007C253.315 255.269 253.744 255.281 254.007 255.019C254.233 254.792 254.269 254.458 254.114 254.196L254.102 254.184C253.577 253.277 253.136 252.347 252.862 251.381C252.731 250.903 252.623 250.414 252.552 249.925C252.492 249.436 252.456 248.947 252.468 248.458C252.468 247.969 252.516 247.48 252.576 246.991C252.635 246.502 252.743 246.013 252.85 245.524C252.969 245.035 253.1 244.546 253.267 244.021C253.339 243.759 253.422 243.496 253.506 243.198C253.542 243.043 253.589 242.888 253.625 242.697L253.649 242.542C253.649 242.518 253.661 242.482 253.661 242.459L253.673 242.363L253.685 242.268C253.685 242.256 253.685 242.244 253.685 242.22V242.148C253.685 242.053 253.685 241.97 253.685 241.874C253.661 241.492 253.53 241.087 253.339 240.765C253.148 240.443 252.933 240.216 252.731 240.037C252.337 239.703 252.015 239.512 251.717 239.345C251.132 239.023 250.631 238.809 250.154 238.57C249.677 238.343 249.224 238.117 248.782 237.866C248.341 237.628 247.924 237.365 247.518 237.091C247.113 236.817 246.719 236.53 246.337 236.22L246.194 236.101C246.17 236.077 246.158 236.065 246.135 236.053L246.087 236.006C246.027 235.946 245.956 235.886 245.896 235.827C245.777 235.707 245.681 235.588 245.598 235.457C245.431 235.206 245.335 234.968 245.288 234.694C245.276 234.622 245.276 234.55 245.264 234.491C245.264 234.419 245.252 234.348 245.264 234.264C245.276 234.193 245.264 234.109 245.276 234.026L245.288 233.906L245.311 233.787C245.419 233.119 245.801 232.356 246.278 231.747C246.397 231.592 246.528 231.449 246.647 231.33C246.767 231.211 246.886 231.115 246.958 231.067C246.993 231.044 246.993 231.044 246.946 231.056H246.934L246.922 231.067C246.91 231.067 246.898 231.079 246.886 231.079C246.874 231.079 246.862 231.091 246.85 231.091C246.838 231.091 246.814 231.091 246.826 231.091C246.838 231.091 246.85 231.091 246.862 231.079C246.934 231.079 246.993 231.067 247.101 231.067C247.148 231.067 247.196 231.067 247.244 231.067H247.399C247.828 231.079 248.317 231.127 248.806 231.199C249.295 231.258 249.796 231.354 250.285 231.449C250.786 231.557 251.275 231.676 251.776 231.807C252.265 231.938 252.766 232.081 253.243 232.248C255.188 232.881 257.084 233.715 258.838 234.801C260.591 235.874 262.201 237.21 263.609 238.809L263.621 238.821C263.871 239.107 264.301 239.131 264.575 238.88C264.813 238.701 264.873 238.367 264.754 238.105Z" fill="black"/>
<path d="M450.649 381.084C451.114 381.084 451.567 380.905 451.925 380.547C455.802 376.623 458.02 371.315 458.497 364.779C458.879 359.697 458.211 353.865 456.517 347.424C453.666 336.581 448.943 327.874 448.752 327.504C448.275 326.633 447.19 326.311 446.319 326.788C445.448 327.266 445.126 328.351 445.603 329.222C445.663 329.329 450.339 337.989 453.07 348.402C455.515 357.741 456.863 370.456 449.372 378.042C448.681 378.746 448.681 379.879 449.384 380.571C449.742 380.917 450.195 381.084 450.649 381.084Z" fill="black"/>
<path d="M272.793 302.503C272.829 302.503 272.877 302.503 272.925 302.503C282.789 301.823 289.767 295.525 293.094 284.313C295.516 276.131 295.146 268.27 295.122 267.948C295.074 266.958 294.228 266.207 293.238 266.254C292.248 266.302 291.496 267.149 291.544 268.139C291.556 268.27 291.89 275.809 289.635 283.383C286.725 293.128 281.024 298.364 272.674 298.948C271.684 299.02 270.945 299.867 271.016 300.857C271.076 301.787 271.863 302.503 272.793 302.503Z" fill="black"/>
<path d="M224.437 252.573C224.724 252.788 225.034 252.979 225.332 253.17C225.487 253.265 225.642 253.349 225.797 253.432C225.952 253.516 226.119 253.599 226.274 253.671C226.596 253.838 226.93 253.957 227.264 254.1C227.598 254.231 227.932 254.339 228.278 254.446C229.638 254.863 231.022 255.066 232.334 255.221C233.646 255.376 234.898 255.507 236.162 255.71C237.415 255.913 238.679 256.199 239.979 256.545C240.123 256.581 240.266 256.497 240.301 256.354C240.325 256.259 240.29 256.163 240.23 256.092C239.24 255.15 238.095 254.339 236.866 253.682C235.638 253.026 234.338 252.514 233.097 252.06C231.845 251.607 230.676 251.178 229.543 250.748C229.268 250.629 228.97 250.545 228.708 250.414L228.29 250.247L228.075 250.164C228.004 250.14 227.944 250.104 227.873 250.08C227.598 249.961 227.312 249.866 227.038 249.746C226.763 249.627 226.477 249.52 226.179 249.424L226.048 249.388C225.093 249.09 224.092 249.615 223.793 250.569C223.543 251.333 223.829 252.132 224.437 252.573Z" fill="black"/>
<path d="M236.592 240.407L236.723 240.622C236.759 240.681 236.795 240.741 236.831 240.801C236.902 240.908 236.986 241.027 237.057 241.123C237.212 241.337 237.379 241.528 237.546 241.731C237.88 242.113 238.238 242.471 238.608 242.804C239.348 243.472 240.171 244.057 240.994 244.606C241.829 245.154 242.675 245.655 243.558 246.132C243.999 246.359 244.453 246.586 244.906 246.8C245.133 246.908 245.371 247.003 245.598 247.099C245.836 247.194 246.063 247.289 246.313 247.373C246.457 247.421 246.612 247.349 246.659 247.206C246.683 247.122 246.671 247.039 246.635 246.979C246.504 246.765 246.373 246.55 246.23 246.335C246.087 246.12 245.956 245.918 245.812 245.715C245.526 245.309 245.24 244.904 244.942 244.51C244.357 243.723 243.761 242.96 243.164 242.208C242.556 241.469 241.972 240.717 241.339 240.037C241.029 239.691 240.707 239.357 240.373 239.047C240.206 238.892 240.039 238.737 239.872 238.582C239.789 238.51 239.705 238.439 239.622 238.367C239.586 238.332 239.538 238.296 239.503 238.272L239.443 238.224L239.419 238.2C239.407 238.2 239.407 238.2 239.407 238.2L238.548 237.926C237.654 237.652 236.712 238.141 236.425 239.035C236.27 239.5 236.354 240.001 236.592 240.407Z" fill="black"/>
<g opacity="0.3">
<g opacity="0.3">
<g opacity="0.3">
<g opacity="0.3">
<path opacity="0.3" d="M428.63 320.18C420.256 347.34 376.815 351.717 372.676 337.762C372.116 335.889 372.39 334.291 372.915 333.038C381.479 346.887 424.157 336.998 426.375 311.699C426.411 311.318 426.59 310.96 426.662 310.614C428.558 312.713 429.966 315.838 428.63 320.18Z" fill="black"/>
</g>
</g>
</g>
</g>
<path d="M496.212 297.791C496.212 297.791 496.725 301.203 494.781 303.791C493.803 305.091 492.24 306.463 490.344 307.811C488.662 309.016 486.742 310.208 484.774 311.318C480.42 313.763 475.828 315.838 473.12 316.828C467.419 318.928 460.93 320.001 454.155 320.216C444.899 320.502 435.142 319.19 426.16 316.733C417.727 314.419 409.986 311.079 404.058 307.083L399.836 300.845L394.063 292.317L373.642 262.115L369.002 255.257C369.205 255.376 373.702 257.941 380.847 261.471C381.526 261.805 382.23 262.151 382.958 262.497C391.069 266.433 401.983 271.288 413.696 275.272C431.921 281.474 452.079 285.565 466.608 280.759C483.521 275.152 491.501 271.049 495.735 275.522C500.029 280.055 494.853 286.114 494.853 286.114C494.853 286.114 498.586 288.762 498.61 292.603C498.622 295.656 496.212 297.791 496.212 297.791Z" fill="url(#paint5_linear)"/>
<g opacity="0.35">
<g opacity="0.35">
<g opacity="0.35">
<g opacity="0.35">
<path opacity="0.35" d="M473.133 293.414C473.133 293.414 472.978 294.38 472.202 295.895C472.703 294.404 473.133 293.414 473.133 293.414Z" fill="black"/>
</g>
</g>
</g>
</g>
<g opacity="0.35">
<g opacity="0.35">
<g opacity="0.35">
<g opacity="0.35">
<path opacity="0.35" d="M490.344 307.811C488.662 309.016 486.742 310.208 484.774 311.318C480.42 313.763 475.828 315.838 473.121 316.828C467.419 318.928 460.93 320.001 454.155 320.216C444.899 320.502 435.142 319.19 426.161 316.733C417.728 314.419 409.987 311.079 404.058 307.083C402.734 305.127 404.655 302.598 406.897 303.362C418.431 307.298 437.313 312.832 447.07 310.721C464.354 306.988 470.258 299.7 472.214 295.883C470.783 300.189 468.874 308.765 475.482 310.292C477.999 310.888 485.704 309.767 490.344 307.811Z" fill="black"/>
</g>
</g>
</g>
</g>
<path d="M368.669 255.841C369.265 256.354 369.862 256.843 370.482 257.308C371.09 257.774 371.722 258.227 372.354 258.656C373.619 259.527 374.907 260.362 376.207 261.149C378.819 262.724 381.539 264.131 384.258 265.503C389.721 268.234 395.375 270.56 401.065 272.779C403.916 273.888 406.766 274.974 409.641 276.011C412.515 277.049 415.414 278.015 418.348 278.934C424.205 280.747 430.157 282.285 436.228 283.383C439.258 283.931 442.323 284.361 445.424 284.623C448.514 284.886 451.639 284.981 454.764 284.85L455.945 284.778L456.529 284.742C456.72 284.731 456.923 284.707 457.114 284.695L458.294 284.587C458.688 284.552 459.082 284.492 459.463 284.444C460.251 284.361 461.026 284.206 461.813 284.075C462.004 284.039 462.207 284.003 462.398 283.967L462.982 283.848L463.567 283.729C463.662 283.705 463.757 283.693 463.853 283.669L464.139 283.597L465.296 283.299C465.391 283.275 465.487 283.251 465.582 283.228L465.869 283.144L466.441 282.965C467.228 282.739 467.932 282.488 468.648 282.25C470.091 281.76 471.534 281.271 472.966 280.771C475.84 279.78 478.691 278.755 481.53 277.824C482.949 277.359 484.369 276.906 485.764 276.536C486.11 276.441 486.468 276.345 486.814 276.274C487.16 276.19 487.506 276.119 487.852 276.047C488.531 275.916 489.223 275.797 489.867 275.749C490.523 275.701 491.144 275.689 491.716 275.761C492.289 275.832 492.778 275.976 493.207 276.19C493.637 276.417 494.018 276.715 494.376 277.121C494.734 277.526 494.996 277.956 495.163 278.421C495.33 278.874 495.402 279.375 495.39 279.912C495.378 280.448 495.259 281.009 495.08 281.582C494.889 282.154 494.638 282.739 494.328 283.299C494.173 283.585 494.006 283.86 493.827 284.122C493.744 284.253 493.648 284.385 493.553 284.516C493.505 284.575 493.458 284.647 493.41 284.707L493.291 284.85L491.967 286.508L493.648 287.808L493.744 287.879L493.875 287.987C493.959 288.058 494.054 288.13 494.138 288.213C494.316 288.369 494.483 288.536 494.638 288.702C494.961 289.036 495.259 289.394 495.521 289.764C496.034 290.504 496.392 291.291 496.511 292.042C496.523 292.138 496.547 292.233 496.547 292.329C496.559 292.424 496.559 292.519 496.559 292.615C496.559 292.663 496.559 292.71 496.559 292.758L496.547 292.901V293.044C496.547 293.092 496.535 293.14 496.523 293.187C496.511 293.283 496.499 293.378 496.475 293.462C496.452 293.557 496.428 293.653 496.416 293.748C496.356 293.939 496.308 294.13 496.225 294.309C496.07 294.69 495.867 295.06 495.617 295.418L495.521 295.549L495.426 295.68C495.366 295.764 495.295 295.847 495.223 295.931C495.151 296.014 495.08 296.098 495.008 296.169C494.972 296.205 494.937 296.241 494.901 296.277L494.853 296.324C494.841 296.336 494.817 296.36 494.829 296.348L494.173 298.161V298.185C494.173 298.209 494.173 298.221 494.185 298.245C494.185 298.292 494.197 298.34 494.197 298.388C494.209 298.495 494.209 298.591 494.209 298.698C494.209 298.805 494.209 298.913 494.209 299.02L494.197 299.342C494.173 299.772 494.114 300.201 494.018 300.606C493.982 300.809 493.911 301 493.851 301.203C493.78 301.394 493.72 301.585 493.625 301.752C493.553 301.93 493.446 302.097 493.362 302.264C493.314 302.348 493.255 302.419 493.207 302.503L493.136 302.622C493.112 302.658 493.076 302.706 493.04 302.742C492.515 303.421 491.812 304.101 491.06 304.733C490.297 305.378 489.486 305.986 488.639 306.582C486.945 307.763 485.132 308.837 483.295 309.862C481.446 310.888 479.562 311.842 477.641 312.749C476.687 313.202 475.721 313.632 474.755 314.049C474.266 314.252 473.789 314.455 473.3 314.646C472.811 314.836 472.345 315.015 471.844 315.182C471.355 315.349 470.866 315.516 470.377 315.683L468.886 316.125L468.517 316.232L468.135 316.327L467.383 316.518L466.632 316.709C466.381 316.769 466.119 316.816 465.869 316.876C461.801 317.759 457.603 318.176 453.392 318.283C452.342 318.295 451.281 318.319 450.231 318.283L449.444 318.272C449.182 318.272 448.919 318.26 448.657 318.248L447.07 318.176C444.959 318.057 442.848 317.89 440.749 317.616C436.55 317.115 432.375 316.303 428.272 315.278C426.221 314.741 424.193 314.145 422.213 313.429L421.843 313.298L421.473 313.155L420.734 312.88C420.245 312.689 419.744 312.522 419.255 312.32C418.766 312.129 418.277 311.938 417.776 311.759C417.287 311.568 416.798 311.365 416.309 311.174C416.058 311.079 415.819 310.984 415.569 310.888L414.841 310.59L414.102 310.304L413.732 310.161L413.362 310.006C412.873 309.803 412.396 309.6 411.895 309.409C411.406 309.206 410.917 309.004 410.428 308.813C409.927 308.634 409.45 308.419 408.949 308.228C408.699 308.133 408.448 308.037 408.198 307.942C408.066 307.894 407.947 307.847 407.828 307.799L407.458 307.656C407.208 307.56 406.957 307.465 406.707 307.37C406.575 307.322 406.456 307.274 406.325 307.238C406.194 307.191 406.074 307.143 405.943 307.095C405.442 306.904 404.917 306.725 404.381 306.57L404.357 306.558C403.987 306.451 403.605 306.666 403.498 307.036C403.426 307.274 403.498 307.513 403.641 307.692C404.011 308.121 404.405 308.527 404.798 308.92C405.001 309.123 405.204 309.302 405.418 309.493C405.633 309.672 405.836 309.862 406.051 310.041C406.48 310.411 406.921 310.745 407.375 311.079C407.828 311.413 408.281 311.735 408.746 312.033C409.211 312.331 409.689 312.63 410.166 312.916C410.655 313.19 411.144 313.453 411.633 313.715L412.003 313.906C412.122 313.966 412.253 314.025 412.372 314.085L413.124 314.443L413.875 314.801C414.126 314.92 414.388 315.027 414.639 315.135C416.666 316.029 418.778 316.721 420.889 317.389L422.475 317.866C423 318.021 423.537 318.164 424.074 318.307L424.873 318.534C425.135 318.606 425.409 318.677 425.672 318.749L427.27 319.178C431.54 320.252 435.882 321.098 440.26 321.623C442.442 321.898 444.649 322.077 446.856 322.208L448.514 322.279C448.788 322.291 449.062 322.303 449.337 322.303L450.16 322.315C451.269 322.351 452.366 322.315 453.476 322.315C457.901 322.196 462.338 321.766 466.715 320.812C466.99 320.753 467.264 320.705 467.538 320.633L468.35 320.43L469.161 320.228L469.566 320.12L469.972 320.001L471.594 319.524C472.131 319.357 472.656 319.166 473.192 318.975C473.729 318.796 474.266 318.594 474.779 318.391C475.303 318.188 475.816 317.973 476.329 317.759C477.355 317.329 478.357 316.876 479.359 316.399C481.351 315.457 483.319 314.467 485.251 313.393C487.184 312.32 489.092 311.174 490.941 309.886C491.871 309.242 492.778 308.562 493.672 307.811C494.567 307.059 495.426 306.224 496.237 305.211C496.285 305.139 496.332 305.091 496.392 305.02L496.547 304.805C496.642 304.662 496.75 304.519 496.833 304.364C497 304.054 497.179 303.755 497.322 303.433C497.477 303.123 497.585 302.801 497.704 302.479C497.799 302.157 497.907 301.835 497.966 301.513C498.109 300.869 498.205 300.225 498.241 299.569L498.265 299.08C498.265 298.913 498.265 298.758 498.265 298.591C498.265 298.424 498.253 298.269 498.241 298.102C498.241 298.018 498.229 297.935 498.217 297.839C498.217 297.791 498.205 297.756 498.205 297.708L498.193 297.636L498.181 297.541L497.525 299.354C497.597 299.294 497.62 299.259 497.668 299.223L497.775 299.115C497.847 299.044 497.907 298.984 497.966 298.913C498.098 298.781 498.205 298.65 498.324 298.519C498.432 298.388 498.551 298.245 498.658 298.114L498.813 297.899L498.968 297.684C499.362 297.112 499.708 296.479 499.982 295.811C500.125 295.477 500.233 295.12 500.34 294.762L500.471 294.213C500.507 294.034 500.531 293.843 500.555 293.653C500.567 293.557 500.579 293.462 500.59 293.366L500.602 293.08L500.614 292.794C500.614 292.698 500.614 292.603 500.614 292.507C500.614 292.317 500.602 292.126 500.579 291.935C500.567 291.744 500.531 291.565 500.507 291.374C500.388 290.635 500.161 289.919 499.875 289.263C499.589 288.607 499.231 287.999 498.849 287.438C498.455 286.878 498.026 286.365 497.561 285.876C497.334 285.637 497.096 285.41 496.845 285.184C496.726 285.076 496.595 284.957 496.463 284.85L496.261 284.683L496.153 284.599L496.01 284.492L496.38 287.45L496.511 287.283L496.619 287.14C496.69 287.045 496.75 286.961 496.821 286.866C496.952 286.687 497.072 286.508 497.203 286.329C497.442 285.971 497.668 285.601 497.883 285.22C498.3 284.456 498.67 283.645 498.956 282.774C499.231 281.904 499.422 280.973 499.457 279.983C499.481 279.005 499.35 277.967 498.992 277.001C498.646 276.035 498.098 275.153 497.453 274.425C496.821 273.685 496.01 273.017 495.092 272.552C494.173 272.075 493.183 271.813 492.253 271.705C491.311 271.586 490.416 271.61 489.557 271.682C487.852 271.837 486.277 272.194 484.75 272.6C483.224 273.005 481.756 273.471 480.289 273.96C477.379 274.926 474.516 275.94 471.666 276.93C470.234 277.431 468.815 277.908 467.383 278.397C466.668 278.635 465.94 278.886 465.272 279.077L464.759 279.232L464.509 279.315C464.425 279.339 464.33 279.363 464.246 279.387L463.209 279.649L462.946 279.721C462.863 279.745 462.767 279.757 462.684 279.78L462.159 279.888L461.634 279.995C461.455 280.031 461.276 280.067 461.097 280.103C460.382 280.222 459.678 280.353 458.95 280.437C458.593 280.484 458.235 280.532 457.865 280.568L456.78 280.663C456.601 280.675 456.422 280.699 456.231 280.711L455.682 280.747L454.585 280.806C451.663 280.926 448.716 280.83 445.758 280.592C442.812 280.341 439.866 279.936 436.932 279.399C431.075 278.337 425.266 276.834 419.541 275.069C416.678 274.186 413.828 273.22 411.001 272.206C408.174 271.192 405.359 270.131 402.58 268.974L400.492 268.103L398.417 267.209C397.045 266.6 395.661 265.992 394.29 265.372L386.071 261.638C383.328 260.398 380.597 259.121 377.817 257.941C376.434 257.344 375.026 256.772 373.619 256.223C372.915 255.949 372.199 255.674 371.484 255.412C370.768 255.15 370.04 254.899 369.313 254.66H369.301C368.943 254.541 368.55 254.744 368.442 255.102C368.371 255.376 368.466 255.662 368.669 255.841Z" fill="black"/>
<path d="M271.35 244.343C317.916 340.66 453.965 280.782 419.363 183.726C374.025 83.9974 233.456 146.034 271.35 244.343Z" fill="url(#paint6_linear)"/>
<path d="M271.35 244.343C317.916 340.66 453.965 280.782 419.363 183.726C374.025 83.9974 233.456 146.034 271.35 244.343Z" fill="url(#paint7_linear)"/>
<g opacity="0.35">
<g opacity="0.35">
<g opacity="0.35">
<g opacity="0.35">
<path opacity="0.35" d="M416.082 274.807C411.621 280.186 406.468 284.934 400.827 288.989C399.3 290.075 397.737 291.124 396.139 292.114C377.269 303.815 353.831 308.086 332.003 302.074C325.228 300.213 318.608 297.35 312.322 293.426C311.917 288.178 311.714 282.608 311.714 276.703C311.714 273.614 311.785 270.441 311.905 267.173L375.396 261.448L370.685 254.482C370.888 254.601 375.468 257.213 382.72 260.792L384.545 260.625C384.652 261.03 384.748 261.436 384.855 261.841C393.097 265.813 404.19 270.751 416.082 274.807Z" fill="black"/>
</g>
</g>
</g>
</g>
<path d="M271.35 244.343C317.916 340.66 453.965 280.782 419.363 183.726C374.025 83.9974 233.456 146.034 271.35 244.343Z" fill="url(#paint8_linear)"/>
<path d="M343.597 294.666C354.463 294.666 365.472 292.46 375.981 288.058C385.177 284.206 393.515 278.886 400.779 272.242C408.269 265.384 414.269 257.392 418.599 248.518C428.213 228.849 428.952 206.281 420.734 183.237L420.686 183.117C410.047 159.703 393.372 143.41 372.462 135.991C363.063 132.651 353.103 131.208 342.845 131.685C332.981 132.15 323.26 134.356 313.944 138.269C304.593 142.193 296.136 147.608 288.8 154.383C281.214 161.385 275.191 169.52 270.885 178.561C261.319 198.635 261.009 221.561 269.99 244.868L270.038 244.975C280.988 267.614 297.675 283.347 318.322 290.468C326.433 293.271 334.973 294.666 343.597 294.666ZM418.003 184.274C435.68 233.918 408.031 271.467 374.86 285.351C364.971 289.49 354.177 291.804 343.251 291.804C316.652 291.804 289.325 278.111 272.698 243.758C253.351 193.471 281.095 155.218 315.089 140.964C348.738 126.842 395.292 134.38 418.003 184.274Z" fill="black"/>
<g opacity="0.35">
<g opacity="0.35">
<g opacity="0.35">
<g opacity="0.35">
<path opacity="0.35" d="M271.351 244.331C310.128 328.232 429.561 295.847 424.73 207.152C416.989 235.063 407.089 235.35 390.867 248.494C340.818 291.911 271.756 250.796 267.629 192.672C263.025 210.086 264.54 228.264 271.351 244.331Z" fill="black"/>
</g>
</g>
</g>
</g>
<path d="M343.598 295.251C354.547 295.251 365.628 293.02 376.208 288.595C385.464 284.719 393.861 279.363 401.173 272.672C408.724 265.753 414.759 257.714 419.137 248.78C428.822 228.968 429.561 206.234 421.295 183.046L421.272 182.962L421.236 182.879C410.525 159.322 393.73 142.909 372.666 135.43C363.195 132.066 353.152 130.611 342.822 131.088C332.886 131.554 323.106 133.784 313.718 137.72C304.307 141.668 295.791 147.131 288.408 153.954C280.762 161.015 274.691 169.198 270.349 178.311C260.711 198.54 260.389 221.621 269.43 245.083L269.466 245.166L269.502 245.238C280.511 268.02 297.33 283.86 318.12 291.028C326.302 293.843 334.902 295.251 343.598 295.251ZM417.455 184.501C434.977 233.775 407.543 271.037 374.622 284.814C340.926 298.913 296.519 291.613 273.224 243.52C254.032 193.614 281.573 155.648 315.293 141.501C348.703 127.498 394.899 134.977 417.455 184.501Z" fill="black"/>
<path d="M343.598 295.251C354.547 295.251 365.628 293.02 376.208 288.595C385.464 284.719 393.861 279.363 401.173 272.672C408.724 265.753 414.759 257.714 419.137 248.78C428.822 228.968 429.561 206.234 421.295 183.046L421.272 182.962L421.236 182.879C410.525 159.322 393.73 142.909 372.666 135.43C363.195 132.066 353.152 130.611 342.822 131.088C332.886 131.554 323.106 133.784 313.718 137.72C304.307 141.668 295.791 147.131 288.408 153.954C280.762 161.015 274.691 169.198 270.349 178.311C260.711 198.54 260.389 221.621 269.43 245.083L269.466 245.166L269.502 245.238C280.511 268.02 297.33 283.86 318.12 291.028C326.302 293.843 334.902 295.251 343.598 295.251ZM417.455 184.501C434.977 233.775 407.543 271.037 374.622 284.814C340.926 298.913 296.519 291.613 273.224 243.52C254.032 193.614 281.573 155.648 315.293 141.501C348.703 127.498 394.899 134.977 417.455 184.501Z" fill="black"/>
<path d="M281.692 262.032C354.941 320.836 436.408 237.21 383.496 174.243C319.933 107.328 226.717 183.881 281.692 262.032Z" fill="url(#paint9_linear)"/>
<path d="M335.772 292.15C343.489 292.15 351.219 290.885 358.781 288.38C367.13 285.613 374.895 281.462 381.885 276.047C389.018 270.512 395.006 263.893 399.693 256.366C404.62 248.446 407.924 239.786 409.522 230.614C411.228 220.809 410.941 210.563 408.675 200.186L408.663 200.138C406.051 189.511 401.101 179.611 393.956 170.724C387.217 162.339 378.545 155.039 368.884 149.636C359.198 144.209 348.404 140.619 337.681 139.259C326.29 137.816 315.185 138.782 304.652 142.145L304.485 142.193L304.33 142.277C286.57 151.497 273.294 167.742 266.949 188.032C260.949 207.188 261.879 228.026 269.477 245.19L269.489 245.202C274.177 255.567 280.129 264.441 287.166 271.586C293.762 278.278 301.289 283.43 309.555 286.925C317.332 290.205 325.634 291.971 334.233 292.161C334.746 292.15 335.259 292.15 335.772 292.15ZM404.655 201.081C413.709 242.578 387.789 274.449 357.493 284.48C331.12 293.211 293.238 287.724 273.223 243.496C259.243 211.947 269.108 165.273 306.06 145.974C325.514 139.819 347.664 142.444 366.868 153.191C386.036 163.937 399.813 181.388 404.655 201.081Z" fill="black"/>
<path d="M333.697 284.063C335.033 284.063 336.357 284.027 337.693 283.955C355.071 282.977 371.353 275.582 383.519 263.141C394.755 251.655 401.447 236.828 402.365 221.406C403.379 204.373 397.391 187.614 385.058 172.931L384.975 172.836C369.945 157.008 352.197 147.978 333.649 146.726C316.974 145.593 300.597 150.865 287.524 161.576C274.153 172.526 265.613 188.02 263.478 205.196C261.092 224.388 266.806 244.45 279.998 263.213L280.165 263.451L280.391 263.63C297.114 277.049 315.459 284.063 333.697 284.063ZM381.957 175.615C407.924 206.556 399.98 240.419 380.585 260.267C359.222 282.118 320.851 290.671 283.206 260.613C255.653 221.227 267.462 183.32 290.136 164.749C312.942 146.058 350.169 142.181 381.957 175.615Z" fill="black"/>
<path d="M432.376 242.303C421.975 278.564 384.76 271.204 391.201 235.576C400.695 197.18 440.475 205.053 432.376 242.303Z" fill="url(#paint10_linear)"/>
<g opacity="0.35">
<g opacity="0.35">
<g opacity="0.35">
<g opacity="0.35">
<path opacity="0.35" d="M405.061 265.956C393.885 263.833 387.551 248.995 391.63 233.739C396.521 250.963 417.227 226.404 419.458 218.877C447.381 230.042 425.493 270.298 405.061 265.956Z" fill="black"/>
</g>
</g>
</g>
</g>
<path d="M408.412 268.223C412.897 268.223 417.418 266.612 421.485 263.511C427.294 259.086 431.743 251.953 434.343 242.876L434.379 242.745C436.312 233.87 435.751 225.891 432.757 219.676C429.99 213.939 425.338 210.063 419.648 208.739C416.726 208.059 413.708 208.094 410.667 208.846C407.565 209.621 404.619 211.1 401.888 213.259C395.948 217.959 391.558 225.509 389.197 235.087L389.173 235.218C387.634 243.735 388.409 251.357 391.391 257.261C394.171 262.736 398.715 266.457 404.19 267.734C405.585 268.056 406.993 268.223 408.412 268.223ZM430.383 241.802C425.231 259.718 413.684 265.73 405.132 263.738C400.85 262.736 397.272 259.778 395.053 255.4C392.477 250.307 391.833 243.604 393.192 236.006C395.339 227.346 399.228 220.595 404.44 216.468C408.889 212.949 413.959 211.613 418.718 212.722C423.179 213.76 426.841 216.861 429.059 221.454C431.648 226.821 432.101 233.859 430.383 241.802Z" fill="black"/>
<path d="M433.544 244.57C425.088 273.948 397.117 268.903 402.317 240.085C409.951 208.572 440.355 214.094 433.544 244.57Z" fill="url(#paint11_linear)"/>
<path d="M414.675 266.35C418.289 266.35 421.95 264.942 425.266 262.235C429.823 258.513 433.365 252.597 435.512 245.142L435.548 245.023C437.17 237.759 436.872 231.246 434.689 226.213C432.638 221.477 429.048 218.293 424.575 217.243C419.887 216.146 414.722 217.637 410.416 221.322C405.741 225.33 402.246 231.652 400.313 239.608L400.29 239.727C399.049 246.621 399.55 252.776 401.733 257.511C403.808 261.996 407.303 265.002 411.561 266.004C412.599 266.23 413.637 266.35 414.675 266.35ZM431.564 244.057C429.644 250.689 426.578 255.865 422.678 259.05C419.41 261.722 415.796 262.759 412.504 261.996C406.754 260.648 401.995 253.492 404.321 240.502C407.923 225.736 416.762 219.617 423.644 221.227C426.817 221.966 429.405 224.304 430.92 227.823C432.757 232.057 432.984 237.663 431.564 244.057Z" fill="black"/>
<g opacity="0.5">
<g opacity="0.5">
<g opacity="0.5">
<g opacity="0.5">
<path opacity="0.5" d="M386.119 219.092C379.833 233.679 363.146 226.797 366.45 213.271C371.591 196.453 391.391 204.253 386.119 219.092Z" fill="url(#paint12_linear)"/>
</g>
</g>
</g>
</g>
<g opacity="0.5">
<g opacity="0.5">
<g opacity="0.5">
<g opacity="0.5">
<path opacity="0.5" d="M373.774 241.671C371.043 247.11 363.695 244.236 366.105 238.057C368.824 232.606 376.184 235.481 373.774 241.671Z" fill="url(#paint13_linear)"/>
</g>
</g>
</g>
</g>
<g opacity="0.5">
<g opacity="0.5">
<g opacity="0.5">
<g opacity="0.5">
<path opacity="0.5" d="M275.692 211.541C273.056 150.912 335.57 150.889 352.662 165.822C312.871 163.604 292.367 185.789 275.692 211.541Z" fill="url(#paint14_linear)"/>
</g>
</g>
</g>
</g>
<g opacity="0.35">
<g opacity="0.35">
<g opacity="0.35">
<g opacity="0.35">
<path opacity="0.35" d="M399.956 246.693C399.944 242.387 401.113 238.069 403.105 234.24C405.908 255.185 427.426 248.792 433.986 234.848C434.726 265.395 402.485 275.582 399.956 246.693Z" fill="black"/>
</g>
</g>
</g>
</g>
<path d="M396.687 213.438C397.63 213.438 398.775 213.152 400.158 212.341C401.136 211.768 401.458 210.504 400.886 209.538C400.313 208.571 399.049 208.237 398.083 208.81C397.2 209.323 396.783 209.347 396.687 209.347C396.556 209.216 396.234 208.595 396.151 207.152C396.079 205.983 396.198 204.945 396.198 204.933C396.341 203.812 395.542 202.786 394.409 202.643C393.288 202.5 392.262 203.299 392.119 204.432C392.107 204.492 391.94 205.912 392.047 207.522C392.226 210.098 393.025 211.875 394.445 212.794C394.982 213.14 395.721 213.438 396.687 213.438Z" fill="black"/>
<path d="M463.721 282.572C476.222 279.017 485.931 279.649 487.148 282.977C488.042 285.41 487.279 289.359 482.174 291.064C478.679 292.221 473.669 292.007 473.669 292.007C473.669 292.007 471.069 299.819 466.882 302.992" fill="url(#paint15_linear)"/>
<path d="M464.27 284.516C467.705 283.598 471.176 282.834 474.659 282.452C476.401 282.25 478.13 282.142 479.836 282.19C480.683 282.214 481.518 282.274 482.305 282.393C483.092 282.512 483.856 282.691 484.464 282.953C484.619 283.013 484.75 283.085 484.87 283.156C484.989 283.228 485.096 283.299 485.168 283.359C485.251 283.419 485.299 283.478 485.335 283.526C485.347 283.538 485.359 283.55 485.359 283.562C485.371 283.574 485.371 283.574 485.371 283.586C485.383 283.598 485.383 283.598 485.383 283.61C485.383 283.61 485.383 283.609 485.394 283.621L485.418 283.669C485.621 284.206 485.693 284.85 485.609 285.47C485.526 286.09 485.287 286.687 484.929 287.224C484.559 287.76 484.047 288.249 483.438 288.643C482.21 289.454 480.623 289.919 478.93 290.206C478.083 290.349 477.224 290.456 476.341 290.528C475.9 290.563 475.47 290.587 475.029 290.611C474.814 290.623 474.588 290.623 474.373 290.635L474.051 290.647H473.741L472.667 290.659L472.381 291.589L472.274 291.947L472.155 292.317C472.071 292.567 471.988 292.818 471.892 293.056C471.713 293.557 471.534 294.046 471.343 294.535C470.962 295.525 470.556 296.492 470.115 297.458C469.674 298.412 469.196 299.354 468.66 300.261C468.6 300.38 468.529 300.487 468.457 300.595C468.385 300.702 468.314 300.821 468.242 300.929L468.028 301.263L467.801 301.585C467.491 302.014 467.157 302.444 466.799 302.849C466.739 302.921 466.739 303.028 466.811 303.088C466.871 303.135 466.942 303.147 467.002 303.111C468.016 302.599 468.91 301.871 469.709 301.06C470.509 300.249 471.212 299.354 471.856 298.424C472.011 298.197 472.166 297.959 472.322 297.72C472.465 297.482 472.62 297.243 472.763 297.004C473.049 296.527 473.323 296.026 473.586 295.525C473.848 295.024 474.087 294.523 474.325 294.011C474.445 293.748 474.552 293.498 474.659 293.235L474.826 292.842C474.886 292.71 474.934 292.579 474.981 292.424L473.622 293.355L473.991 293.378L474.349 293.39C474.588 293.402 474.826 293.402 475.065 293.414C475.542 293.426 476.007 293.426 476.484 293.414C477.439 293.39 478.393 293.343 479.347 293.235C480.313 293.128 481.279 292.973 482.269 292.699C482.77 292.567 483.259 292.4 483.748 292.209C484.237 292.007 484.726 291.78 485.192 291.506C486.134 290.957 487.029 290.218 487.744 289.287C488.46 288.357 488.973 287.236 489.176 286.055C489.283 285.458 489.319 284.862 489.283 284.254C489.247 283.645 489.14 283.049 488.937 282.452L488.901 282.345C488.889 282.297 488.865 282.25 488.842 282.202C488.806 282.107 488.758 281.999 488.71 281.916C488.663 281.82 488.615 281.725 488.567 281.641C488.52 281.546 488.46 281.462 488.4 281.379C488.174 281.045 487.911 280.771 487.649 280.532C487.386 280.294 487.112 280.103 486.85 279.936C486.575 279.769 486.313 279.626 486.05 279.494C484.989 278.993 483.963 278.743 482.961 278.552C481.959 278.361 480.969 278.266 479.991 278.218C478.035 278.123 476.127 278.206 474.23 278.397C470.449 278.791 466.763 279.566 463.173 280.639C462.099 280.962 461.491 282.083 461.813 283.156C462.123 284.194 463.209 284.79 464.27 284.516Z" fill="black"/>
<path d="M437.588 320.955C438.077 320.955 438.554 320.765 438.912 320.371C439.58 319.643 439.532 318.51 438.805 317.842C433.318 312.821 431.72 305.449 434.069 295.919C435.882 288.536 439.496 282.619 439.532 282.56C440.045 281.713 439.783 280.616 438.948 280.103C438.101 279.59 437.004 279.852 436.491 280.687C436.336 280.95 432.59 287.08 430.622 294.977C429.453 299.688 429.167 304.066 429.775 307.966C430.551 312.964 432.781 317.174 436.407 320.478C436.729 320.8 437.159 320.955 437.588 320.955Z" fill="black"/>
<path d="M493.601 284.826C493.291 285.053 492.981 285.279 492.694 285.53C492.396 285.768 492.098 285.983 491.812 286.222C491.669 286.341 491.526 286.448 491.37 286.556L490.929 286.89C490.786 287.009 490.631 287.104 490.488 287.212C490.345 287.319 490.202 287.426 490.046 287.534C489.45 287.939 488.842 288.333 488.198 288.715C487.876 288.905 487.542 289.096 487.208 289.287L486.17 289.86C484.751 290.623 483.307 291.47 481.936 292.4C481.602 292.639 481.256 292.877 480.922 293.116C480.588 293.355 480.266 293.617 479.944 293.867L479.455 294.249C479.299 294.38 479.144 294.523 478.989 294.655C478.679 294.917 478.369 295.191 478.071 295.478C477.964 295.573 477.964 295.74 478.059 295.847C478.131 295.919 478.238 295.955 478.333 295.919H478.345C479.133 295.669 479.884 295.37 480.647 295.108L481.78 294.702C482.162 294.571 482.532 294.44 482.914 294.309C484.428 293.796 485.919 293.331 487.458 292.83C487.852 292.698 488.233 292.579 488.627 292.436L489.223 292.221C489.426 292.15 489.617 292.066 489.82 291.983L490.118 291.864C490.213 291.828 490.321 291.78 490.416 291.732L491.013 291.446C491.215 291.351 491.406 291.243 491.597 291.136C491.788 291.029 491.979 290.921 492.182 290.802C492.372 290.683 492.551 290.563 492.742 290.432L493.016 290.241C493.112 290.182 493.195 290.122 493.291 290.051C493.637 289.776 493.995 289.514 494.317 289.227C494.472 289.084 494.639 288.941 494.794 288.786C494.949 288.643 495.116 288.488 495.259 288.333C495.557 288.023 495.843 287.713 496.118 287.379C496.762 286.615 496.654 285.482 495.903 284.85C495.259 284.313 494.352 284.301 493.708 284.755L493.601 284.826Z" fill="black"/>
<path d="M494.805 296.67C494.448 296.957 494.126 297.183 493.744 297.398C493.362 297.613 492.921 297.804 492.42 297.994C491.406 298.364 490.189 298.71 488.925 299.128C487.637 299.557 486.408 300.07 485.216 300.654C484.023 301.239 482.866 301.895 481.768 302.67C481.649 302.754 481.625 302.921 481.709 303.04C481.768 303.123 481.852 303.159 481.947 303.147C483.259 303.028 484.548 302.873 485.824 302.718C487.1 302.563 488.353 302.42 489.593 302.312C490.845 302.193 492.169 302.121 493.613 301.692C494.328 301.477 495.08 301.179 495.796 300.714C496.499 300.249 497.155 299.629 497.609 298.901C498.133 298.054 497.859 296.945 497.012 296.432C496.344 296.026 495.533 296.098 494.949 296.551L494.805 296.67Z" fill="black"/>
<path d="M477.272 327.766C477.534 329.412 477.629 331.058 477.641 332.704C477.641 333.11 477.641 333.527 477.629 333.933L477.582 335.161L477.486 336.378C477.474 336.581 477.451 336.784 477.427 336.986L477.355 337.595L477.284 338.191L477.188 338.787C477.117 339.181 477.057 339.587 476.985 339.98C476.806 340.767 476.663 341.555 476.437 342.318C476.055 343.869 475.494 345.348 474.91 346.791L474.886 346.851C474.469 347.888 474.97 349.081 476.007 349.499C477.045 349.916 478.238 349.415 478.655 348.377C478.703 348.258 478.739 348.115 478.775 347.984C479.097 346.242 479.359 344.513 479.442 342.783C479.514 341.924 479.502 341.054 479.514 340.195C479.514 339.765 479.49 339.336 479.466 338.907L479.442 338.263L479.395 337.618L479.347 336.986C479.335 336.772 479.311 336.557 479.287 336.354L479.132 335.09L478.93 333.837C478.858 333.42 478.775 333.002 478.691 332.597C478.297 330.951 477.856 329.329 477.272 327.766Z" fill="black"/>
<path d="M163.971 295.658L244.353 320.247C247.945 321.558 251.983 320.272 254.162 317.116L141.842 239.704L122.121 268.783L151.681 289.287C155.495 291.931 159.623 294.083 163.971 295.658Z" fill="#141414"/>
<g opacity="0.35">
<g opacity="0.35">
<path opacity="0.35" d="M252.603 318.824C250.347 320.688 247.225 321.298 244.365 320.256L163.984 295.667C159.623 294.083 155.486 291.944 151.693 289.296L122.134 268.792L126.771 266.005L156.197 286.705C159.993 289.375 164.113 291.54 168.457 293.15L248.596 318.376C249.906 318.864 251.275 319.01 252.603 318.824Z" fill="black"/>
</g>
</g>
<path d="M151.035 291.253C150.865 291.137 150.708 291.031 150.538 290.916L119.39 269.296L141.326 236.95L256.916 316.599L255.795 318.223C253.12 322.112 248.174 323.697 243.734 322.116L163.292 297.505C158.979 295.934 154.849 293.839 151.035 291.253ZM124.853 268.271L152.801 287.663C156.459 290.201 160.422 292.259 164.6 293.777L245.029 318.379C247.142 319.144 249.452 318.747 251.165 317.429L142.355 242.435L124.853 268.271Z" fill="black"/>
<path d="M166.808 287.455L253.756 316.955C253.817 316.977 253.849 316.903 253.796 316.868L142.223 239.142L126.755 261.951L156.03 281.805C159.401 284.091 163.015 285.989 166.808 287.455Z" fill="#141414"/>
<path d="M156.487 273.399L210.348 295.05C211.203 295.42 211.851 294.239 211.081 293.716L154.72 254.883L145.693 268.195L156.487 273.399Z" fill="black"/>
<path d="M142.783 268.969L154.212 252.117L212.209 292.078C213.372 292.867 213.749 294.42 213.057 295.666C212.364 296.913 210.858 297.418 209.554 296.838L155.632 275.165L142.783 268.969ZM155.245 257.624L148.618 267.395L157.297 271.584L201.012 289.157L155.245 257.624ZM211.075 293.216C211.062 293.208 211.027 293.203 211.014 293.194L211.075 293.216Z" fill="black"/>
<path d="M154.936 283.446L124.027 262.485L141.728 236.384L256.371 316.249L255.566 317.858C255.099 318.743 254.054 319.159 253.115 318.828L166.105 289.305C162.186 287.772 158.41 285.803 154.936 283.446ZM129.495 261.425L157.137 280.172C160.364 282.36 163.839 284.182 167.474 285.599L241.525 310.72L142.718 241.899L129.482 261.416L129.495 261.425ZM252.671 318.47C252.684 318.478 252.684 318.478 252.697 318.487L252.671 318.47Z" fill="black"/>
<path d="M145.493 285.053L48.199 218.079C44.5589 215.572 42.8741 211.054 43.972 206.763L45.5526 200.664L71.3399 101.052C73.4625 92.8599 83.0788 89.2542 90.0585 94.064L184.445 158.971C184.967 159.325 185.454 159.732 185.911 160.155C189.104 163.18 190.465 167.726 189.345 172.078L161.647 279.034C159.831 286.099 151.528 289.203 145.493 285.053Z" fill="#141414"/>
<g opacity="0.35">
<g opacity="0.35">
<path opacity="0.35" d="M44.6037 213.791L141.78 280.685C147.815 284.835 156.119 281.731 157.943 274.653L185.641 167.697C186.201 165.521 186.135 163.283 185.535 161.216C178.613 180.534 162.088 219.047 137.002 230.642C106.714 244.622 60.5603 212.253 45.5657 200.673L43.9851 206.772C43.3304 209.284 43.6558 211.87 44.7545 214.103C44.7115 213.997 44.6466 213.896 44.6037 213.791Z" fill="black"/>
</g>
</g>
<path d="M144.274 286.992C144.248 286.974 144.222 286.956 144.195 286.938L46.9011 219.964C42.4772 216.926 40.4153 211.389 41.761 206.199L69.129 100.487C70.3303 95.8471 73.5899 92.2218 78.0774 90.5543C82.5429 88.8911 87.3366 89.4719 91.2687 92.1386C91.2948 92.1563 91.321 92.174 91.3471 92.1917L185.733 157.098C190.732 160.526 193.068 166.784 191.547 172.655L163.849 279.612C162.806 283.654 159.846 286.949 155.921 288.406C152.061 289.851 147.71 289.322 144.274 286.992ZM146.791 283.168C146.804 283.177 146.83 283.194 146.843 283.203C149.077 284.718 151.811 285.046 154.357 284.103C156.913 283.147 158.768 281.087 159.454 278.444L187.152 171.487C188.199 167.467 186.596 163.195 183.178 160.839L88.7914 95.9321C88.7783 95.9233 88.7522 95.9056 88.7391 95.8967C86.048 94.0717 82.7677 93.6779 79.7117 94.8095C76.6468 95.9541 74.4075 98.4406 73.5944 101.608L46.2264 207.32C45.355 210.658 46.6971 214.219 49.5272 216.176L146.791 283.168Z" fill="black"/>
<path d="M101.553 195.615C102.303 197.314 103.725 197.641 105.233 197.557C106.827 197.492 108.091 197.936 109.293 199.119C110.781 200.615 111.825 200.748 113.303 200.138C121.922 195.976 124.84 185.705 118.037 182.658C116.317 182.103 114.802 182.52 113.782 182.21C112.426 181.332 111.357 179.899 109.734 179.408C107.776 178.837 106.059 179.066 104.575 180.095C107.542 184.025 104.568 188.993 100.409 189.108C100.376 191.334 100.555 193.614 101.549 195.632L101.553 195.615ZM114.343 181.155C115.64 178.331 114.291 175.076 111.773 173.839C110.13 177.04 112.458 180.805 114.343 181.155Z" fill="url(#paint16_linear)"/>
<path d="M257.5 310.5L162 283L190 179.5L185.5 157L90 92L144 29L360.5 150.5L257.5 310.5Z" fill="url(#paint17_linear)"/>
<path opacity="0.2" d="M280 185C311.847 195.155 330.256 197.133 364 193.5V245.5C334.595 251.736 317.294 250.06 284.5 235.5L280 185Z" fill="url(#paint18_linear)"/>
<defs>
<linearGradient id="paint0_linear" x1="410.605" y1="347.447" x2="410.605" y2="405.239" gradientUnits="userSpaceOnUse">
<stop stop-color="#1B0050"/>
<stop offset="1" stop-color="#B41AFF"/>
</linearGradient>
<linearGradient id="paint1_linear" x1="433.706" y1="283.174" x2="433.706" y2="313.818" gradientUnits="userSpaceOnUse">
<stop stop-color="#1B0050"/>
<stop offset="1" stop-color="#B41AFF"/>
</linearGradient>
<linearGradient id="paint2_linear" x1="276.542" y1="221.61" x2="276.542" y2="312.485" gradientUnits="userSpaceOnUse">
<stop stop-color="#1B0050"/>
<stop offset="1" stop-color="#B41AFF"/>
</linearGradient>
<linearGradient id="paint3_linear" x1="406.471" y1="261.304" x2="406.471" y2="382.393" gradientUnits="userSpaceOnUse">
<stop stop-color="#1B0050"/>
<stop offset="1" stop-color="#B41AFF"/>
</linearGradient>
<linearGradient id="paint4_linear" x1="253.721" y1="229.108" x2="253.721" y2="254.601" gradientUnits="userSpaceOnUse">
<stop stop-color="#1B0050"/>
<stop offset="1" stop-color="#B41AFF"/>
</linearGradient>
<linearGradient id="paint5_linear" x1="433.806" y1="255.257" x2="433.806" y2="320.255" gradientUnits="userSpaceOnUse">
<stop stop-color="#1B0050"/>
<stop offset="1" stop-color="#B41AFF"/>
</linearGradient>
<linearGradient id="paint6_linear" x1="344.937" y1="133.057" x2="344.937" y2="293.193" gradientUnits="userSpaceOnUse">
<stop stop-color="#1B0050"/>
<stop offset="1" stop-color="#B41AFF"/>
</linearGradient>
<linearGradient id="paint7_linear" x1="344.937" y1="133.057" x2="344.937" y2="293.193" gradientUnits="userSpaceOnUse">
<stop stop-color="#1B0050"/>
<stop offset="1" stop-color="#B41AFF"/>
</linearGradient>
<linearGradient id="paint8_linear" x1="344.937" y1="133.057" x2="344.937" y2="293.193" gradientUnits="userSpaceOnUse">
<stop stop-color="#1B0050"/>
<stop offset="1" stop-color="#B41AFF"/>
</linearGradient>
<linearGradient id="paint9_linear" x1="332.721" y1="148.626" x2="332.721" y2="282.014" gradientUnits="userSpaceOnUse">
<stop stop-color="#4503FF"/>
<stop offset="1" stop-color="#9325AF"/>
</linearGradient>
<linearGradient id="paint10_linear" x1="411.956" y1="210.31" x2="411.956" y2="266.155" gradientUnits="userSpaceOnUse">
<stop stop-color="#1B0050"/>
<stop offset="1" stop-color="#B41AFF"/>
</linearGradient>
<linearGradient id="paint11_linear" x1="418.105" y1="218.931" x2="418.105" y2="264.296" gradientUnits="userSpaceOnUse">
<stop stop-color="#1B0050"/>
<stop offset="1" stop-color="#B41AFF"/>
</linearGradient>
<linearGradient id="paint12_linear" x1="376.513" y1="203.781" x2="376.513" y2="227.242" gradientUnits="userSpaceOnUse">
<stop stop-color="#1B0050"/>
<stop offset="1" stop-color="#B41AFF"/>
</linearGradient>
<linearGradient id="paint13_linear" x1="369.939" y1="235.172" x2="369.939" y2="244.548" gradientUnits="userSpaceOnUse">
<stop stop-color="#1B0050"/>
<stop offset="1" stop-color="#B41AFF"/>
</linearGradient>
<linearGradient id="paint14_linear" x1="314.137" y1="157.565" x2="314.137" y2="211.541" gradientUnits="userSpaceOnUse">
<stop stop-color="#1B0050"/>
<stop offset="1" stop-color="#B41AFF"/>
</linearGradient>
<linearGradient id="paint15_linear" x1="475.595" y1="280.179" x2="475.595" y2="302.992" gradientUnits="userSpaceOnUse">
<stop stop-color="#1B0050"/>
<stop offset="1" stop-color="#B41AFF"/>
</linearGradient>
<linearGradient id="paint16_linear" x1="116.497" y1="175.658" x2="107.517" y2="198.989" gradientUnits="userSpaceOnUse">
<stop stop-color="#4503FF"/>
<stop offset="1" stop-color="#9325AF"/>
</linearGradient>
<linearGradient id="paint17_linear" x1="82" y1="202.5" x2="310" y2="57" gradientUnits="userSpaceOnUse">
<stop stop-color="#4503FF" stop-opacity="0.22"/>
<stop offset="0.84375" stop-color="#9325AF" stop-opacity="0"/>
</linearGradient>
<linearGradient id="paint18_linear" x1="322" y1="185" x2="322" y2="248.928" gradientUnits="userSpaceOnUse">
<stop stop-color="white" stop-opacity="0.58"/>
<stop offset="1" stop-color="white" stop-opacity="0.21"/>
</linearGradient>
</defs>
</svg>
