<svg width="391" height="490" viewBox="0 0 391 490" fill="none" xmlns="http://www.w3.org/2000/svg">
<path d="M192.088 265.815C189.584 265.355 187.022 264.95 184.477 264.601C181.933 264.234 179.386 263.923 176.837 263.687C174.289 263.451 171.757 263.253 169.24 263.188C166.742 263.123 164.241 263.151 161.919 263.431C160.277 263.639 158.756 262.46 158.567 260.818C158.359 259.175 159.538 257.655 161.179 257.465C161.274 257.45 161.368 257.453 161.462 257.437C164.322 257.364 167.003 257.604 169.662 257.919C172.321 258.234 174.918 258.697 177.515 259.179C180.093 259.679 182.668 260.236 185.204 260.847C187.759 261.459 190.276 262.089 192.809 262.813C193.628 263.047 194.107 263.909 193.872 264.729C193.658 265.511 192.891 265.974 192.106 265.835L192.088 265.815Z" fill="black"/>
<path d="M296.963 366.283C293.31 382.14 284.769 419.284 262.097 440.029C262.097 440.029 262.862 468.781 250.609 478.709C242.242 485.478 218.769 479.671 214.295 463.41C210.441 449.388 217.469 428.192 221.251 421.927C229.712 407.905 236.009 389.993 236.245 381.824L226.572 381.029C220.16 396.192 204.637 418.437 192.665 428.413C192.665 428.413 191.238 454.139 174.364 463.988C162.131 471.116 139.103 466.038 135.249 445.868C132.545 431.753 141.676 412.32 146.755 404.933C154.818 393.228 169.753 365.549 176.055 344.686C176.479 343.253 176.884 341.838 177.23 340.477C178.682 334.755 180.118 328.937 181.532 323.195C182.818 317.936 184.064 312.752 185.265 307.773C188.672 293.637 191.625 281.253 193.595 274.081C193.595 274.081 194.538 268.943 196.107 261.984C197.322 256.591 198.912 250.084 200.732 244.035C203.844 233.668 207.624 224.64 211.286 224.763L272.466 226.815C276.015 226.935 279.037 227.638 281.631 228.759C287.006 231.063 290.536 235.111 292.836 239.399C297.032 247.135 297.218 255.582 297.218 255.582C297.834 263.01 298.793 271.972 299.662 281.927C301.866 307.004 303.411 338.282 296.963 366.283Z" fill="url(#paint0_linear)"/>
<g opacity="0.35">
<path opacity="0.35" d="M188.641 324.241C188.444 325.062 188.228 325.901 188.031 326.721C185.638 325.776 183.402 324.611 181.514 323.175C181.535 323.119 181.536 323.063 181.557 323.007L188.641 324.241Z" fill="black"/>
</g>
<g opacity="0.35">
<path opacity="0.35" d="M229.333 419.172C225.551 425.437 218.524 446.632 222.377 460.654C225.796 473.064 240.247 479.377 250.629 478.691C242.28 485.479 218.768 479.671 214.295 463.391C210.442 449.369 217.47 428.173 221.252 421.908C229.712 407.886 236.009 389.975 236.246 381.805L226.572 381.01C225.674 383.123 224.602 385.381 223.376 387.727C225.272 381.662 223.436 378.123 221.49 375.049C219.865 372.476 222.638 369.392 225.375 370.743C229.536 372.8 235.912 374.951 245.302 375.811C257.634 376.939 268.577 374.073 274.742 371.892C277.462 370.931 279.859 374.019 278.237 376.408C269.619 388.978 236.381 407.471 229.333 419.172Z" fill="black"/>
</g>
<path d="M194.528 274.319C191.004 296.986 185.912 319.299 180.221 341.555C178.732 347.295 176.724 352.793 174.55 358.171C172.34 363.549 169.982 368.828 167.475 374.045C164.951 379.243 162.316 384.381 159.533 389.457C156.749 394.534 153.855 399.531 150.664 404.444L148.327 407.975L147.272 409.725L146.272 411.515C144.969 413.934 143.794 416.452 142.731 419.01C141.667 421.569 140.771 424.171 139.95 426.794C139.185 429.419 138.569 432.087 138.161 434.743C137.808 437.4 137.625 440.064 137.821 442.627C138.056 445.154 138.591 447.691 139.584 450.018C140.578 452.345 141.916 454.495 143.622 456.32C145.327 458.163 147.362 459.716 149.615 460.92C154.102 463.326 159.425 464.37 164.517 463.883C167.064 463.63 169.529 462.998 171.726 461.944C172.262 461.661 172.797 461.397 173.336 461.039L174.142 460.54L174.913 459.983C175.953 459.247 176.903 458.376 177.835 457.486C179.664 455.649 181.238 453.559 182.611 451.292C183.966 449.007 185.119 446.583 186.069 444.039C187.019 441.514 187.784 438.889 188.381 436.221C188.688 434.896 188.94 433.551 189.155 432.186C189.369 430.859 189.549 429.436 189.627 428.217L189.727 426.904L190.714 426.072C194.236 423.089 197.511 419.608 200.621 415.99C203.714 412.353 206.643 408.541 209.425 404.611C212.208 400.681 214.825 396.652 217.257 392.522C219.67 388.392 221.936 384.163 223.773 379.845L224.63 377.843L226.786 378.009L236.46 378.804L239.366 379.033L239.214 381.885C239.001 385.995 238.11 389.594 237.087 393.169C236.066 396.725 234.84 400.2 233.503 403.614C230.793 410.422 227.62 417.027 223.836 423.367C222.278 426.079 221.002 429.382 219.934 432.636C218.865 435.928 217.981 439.282 217.341 442.682C216.701 446.063 216.266 449.489 216.172 452.87C216.078 456.232 216.322 459.586 217.16 462.641C217.982 465.583 219.622 468.27 221.802 470.523C224.001 472.778 226.742 474.581 229.705 475.921C232.668 477.261 235.892 478.102 239.079 478.36C240.673 478.488 242.253 478.466 243.764 478.235C245.257 478.022 246.681 477.581 247.793 476.941C248.08 476.801 248.331 476.602 248.581 476.423C248.832 476.243 249.124 475.952 249.395 475.717C249.938 475.209 250.464 474.662 250.935 474.058C251.896 472.868 252.769 471.506 253.513 470.065C254.983 467.163 256.069 463.947 256.876 460.627C257.682 457.308 258.211 453.886 258.59 450.421C258.95 446.992 259.126 443.426 259.088 440.079L259.078 438.687L260.067 437.78C265.751 432.557 270.511 426.268 274.535 419.523C278.56 412.758 281.847 405.537 284.653 398.111C287.441 390.666 289.765 383.037 291.717 375.281C292.215 373.343 292.693 371.404 293.135 369.445C293.596 367.486 294.075 365.51 294.441 363.586C294.826 361.643 295.267 359.703 295.595 357.759L296.507 351.868C297.58 343.989 298.167 336.019 298.435 328.038C298.665 320.056 298.445 312.04 298 304.017L296.495 279.959C296.273 275.929 296.07 271.899 295.999 267.855C295.909 263.81 295.933 259.731 296.221 255.642C296.258 255.08 296.742 254.664 297.305 254.701C297.755 254.735 298.12 255.048 298.219 255.465C299.195 259.427 299.965 263.401 300.677 267.391C301.389 271.382 301.949 275.405 302.453 279.426C303.443 287.487 304.092 295.592 304.345 303.741C304.598 311.89 304.681 320.051 304.463 328.222C304.208 336.391 303.595 344.567 302.495 352.708L301.538 358.804C301.189 360.823 300.726 362.838 300.338 364.874C299.95 366.91 299.471 368.868 299.01 370.845C298.549 372.822 298.069 374.799 297.551 376.793C295.555 384.716 293.167 392.569 290.277 400.274C287.368 407.959 283.938 415.514 279.694 422.647C275.45 429.78 270.355 436.528 264.128 442.259L265.108 439.961C265.149 443.779 264.953 447.382 264.584 451.092C264.197 454.763 263.622 458.448 262.748 462.103C261.873 465.758 260.661 469.383 258.89 472.877C257.985 474.614 256.931 476.327 255.637 477.919C255.009 478.725 254.288 479.472 253.512 480.198C253.105 480.541 252.755 480.887 252.292 481.247C251.81 481.607 251.329 481.948 250.831 482.213C248.837 483.368 246.731 483.956 244.691 484.244C242.65 484.552 240.619 484.578 238.631 484.417C234.675 484.096 230.855 483.084 227.282 481.461C223.707 479.855 220.36 477.656 217.543 474.761C214.744 471.885 212.515 468.275 211.408 464.29C210.354 460.42 210.108 456.539 210.198 452.745C210.306 448.951 210.77 445.225 211.475 441.583C212.162 437.921 213.109 434.344 214.261 430.81C215.433 427.259 216.713 423.843 218.731 420.301C222.297 414.311 225.368 407.966 227.955 401.435C229.231 398.169 230.394 394.862 231.352 391.529C232.309 388.234 233.082 384.782 233.242 381.723L235.996 384.804L226.322 384.01L229.335 382.174C227.336 386.845 224.969 391.258 222.456 395.554C219.925 399.85 217.228 404.027 214.366 408.066C211.486 412.125 208.458 416.065 205.229 419.867C201.981 423.668 198.549 427.332 194.602 430.677L195.689 428.533C195.577 430.183 195.379 431.587 195.159 433.102C194.922 434.579 194.647 436.055 194.316 437.51C193.654 440.421 192.824 443.307 191.77 446.148C190.717 448.97 189.402 451.727 187.847 454.382C186.254 457.017 184.366 459.51 182.148 461.748C179.892 463.966 177.385 465.856 174.44 467.355C171.478 468.778 168.331 469.575 165.162 469.882C158.844 470.479 152.457 469.212 146.842 466.241C144.034 464.756 141.468 462.79 139.273 460.422C137.077 458.074 135.347 455.29 134.092 452.353C132.856 449.397 132.172 446.272 131.883 443.104C131.65 439.957 131.866 436.881 132.268 433.868C132.726 430.875 133.407 427.947 134.236 425.08C135.103 422.232 136.08 419.426 137.225 416.701C138.369 413.976 139.624 411.292 141.028 408.67L142.109 406.713L143.283 404.779L145.68 401.156C148.732 396.464 151.567 391.54 154.308 386.594C157.032 381.628 159.608 376.564 162.036 371.438C164.464 366.312 166.743 361.143 168.799 355.892C170.855 350.64 172.669 345.325 174.052 339.976C176.811 328.901 179.59 317.79 182.499 306.721C183.963 301.187 185.484 295.654 187.153 290.164C188.804 284.674 190.548 279.187 192.665 273.806C192.871 273.286 193.462 273.024 193.982 273.23C194.352 273.392 194.619 273.853 194.528 274.319Z" fill="black"/>
<path d="M277.962 363.333C274.403 363.515 270.412 363.663 266.124 363.726C268.675 363.886 271.04 363.985 273.144 364.055C274.796 364.111 276.44 363.865 277.962 363.333Z" fill="url(#paint1_linear)"/>
<g opacity="0.35">
<path opacity="0.35" d="M182.315 347.491C175.31 367.465 162.209 391.465 154.858 402.141C149.778 409.546 140.648 428.961 143.351 443.076C146.471 459.348 162.046 465.811 174.384 463.951C162.151 471.079 139.142 465.983 135.27 445.813C132.566 431.697 141.697 412.264 146.776 404.877C154.839 393.173 169.774 365.493 176.076 344.631C176.5 343.197 176.905 341.782 177.251 340.422C178.703 334.699 180.139 328.882 181.553 323.139C183.46 324.575 185.677 325.74 188.07 326.685L182.315 347.491Z" fill="black"/>
</g>
<path d="M208.169 241.483L201.333 264.81L189.125 306.492C187.908 306.884 186.616 307.31 185.228 307.753C177.815 310.192 167.721 314.065 154.143 326.524C149.391 330.895 144.133 334.084 135.892 338.752C118.166 348.779 88.1 330.474 113.641 298.188C135.708 270.297 160.579 257.99 181.418 250.418C188.384 247.888 194.881 245.888 200.696 244.015C203.357 243.146 205.848 242.308 208.169 241.483Z" fill="url(#paint2_linear)"/>
<g opacity="0.35">
<path opacity="0.35" d="M189.125 306.473C181.462 309.036 170.262 311.725 154.143 326.505C149.391 330.876 144.133 334.065 135.892 338.733C121.213 347.038 98.05 335.903 105.062 313.485C109.294 352.654 143.832 328.472 156.105 316.213C175.636 296.677 197.997 291.374 200.008 295.296C202.039 299.218 189.125 306.473 189.125 306.473Z" fill="black"/>
</g>
<path d="M124.307 344.473C117.378 344.24 110.558 341.304 106.054 336.04C97.5333 326.091 99.4977 311.249 111.316 296.324C139.763 260.356 172.316 249.943 196.07 242.356C200.061 241.08 203.804 239.889 207.154 238.667C208.714 238.099 210.436 238.909 211.004 240.469C211.572 242.03 210.762 243.751 209.201 244.319C205.757 245.557 201.937 246.783 197.908 248.076C174.876 255.443 143.35 265.515 116.041 300.054C106.008 312.746 104.037 324.429 110.641 332.133C116.303 338.734 126.753 340.494 134.456 336.147C142.984 331.319 147.803 328.323 152.167 324.333C167.355 310.386 178.682 306.743 186.189 304.326C186.892 304.105 187.576 303.883 188.223 303.661C189.801 303.131 191.501 303.996 192.032 305.556C192.562 307.134 191.715 308.835 190.137 309.365C189.471 309.587 188.768 309.808 188.027 310.046C180.615 312.429 170.467 315.698 156.23 328.756C151.439 333.145 146.351 336.32 137.42 341.378C133.398 343.612 128.833 344.625 124.307 344.473Z" fill="black"/>
<path d="M318.921 178.593C317.955 178.824 316.978 178.228 316.748 177.242L304.835 126.648C304.604 125.681 305.201 124.705 306.186 124.475C316.362 122.072 326.565 128.392 328.95 138.568L333.014 155.83C335.417 166.006 329.115 176.21 318.921 178.593Z" fill="url(#paint3_linear)"/>
<path d="M318.427 179.291C318.014 179.277 317.605 179.151 317.236 178.931C316.684 178.593 316.288 178.054 316.141 177.41L304.227 126.815C304.08 126.171 304.177 125.516 304.534 124.964C304.872 124.412 305.412 124.016 306.056 123.869C316.554 121.401 327.125 127.941 329.593 138.439L333.657 155.701C334.858 160.799 334.006 166.034 331.243 170.491C328.5 174.929 324.166 178.036 319.087 179.238C318.861 179.268 318.634 179.298 318.427 179.291ZM311.144 124.622C309.567 124.569 307.964 124.722 306.353 125.101C306.05 125.166 305.799 125.364 305.621 125.621C305.462 125.879 305.414 126.197 305.479 126.5L317.392 177.094C317.457 177.397 317.655 177.648 317.913 177.826C318.17 177.985 318.488 178.034 318.791 177.969C323.548 176.85 327.593 173.94 330.157 169.796C332.722 165.634 333.526 160.735 332.407 155.979L328.343 138.716C326.418 130.511 319.2 124.893 311.144 124.622Z" fill="black"/>
<g opacity="0.35">
<path opacity="0.35" d="M331.123 147.739L333.032 155.831C335.417 166.006 329.115 176.191 318.939 178.594C317.973 178.825 316.997 178.209 316.766 177.243L313.59 163.788C314.004 164.329 314.727 164.616 315.429 164.452L316.622 164.172C324.675 162.299 330.297 155.532 331.123 147.739Z" fill="black"/>
</g>
<path d="M318.348 181.657C317.522 181.629 316.702 181.395 315.984 180.939C314.898 180.263 314.125 179.203 313.829 177.952L301.916 127.358C301.619 126.107 301.832 124.817 302.507 123.731C303.183 122.644 304.243 121.872 305.494 121.575C317.261 118.812 329.103 126.127 331.866 137.913L335.93 155.176C337.281 160.88 336.312 166.769 333.231 171.742C330.15 176.733 325.314 180.218 319.592 181.548C319.195 181.629 318.761 181.671 318.348 181.657ZM318.248 175.676C318.229 175.675 318.229 175.675 318.248 175.676C318.229 175.675 318.229 175.675 318.248 175.676ZM308.069 127.189L319.405 175.357C323.034 174.219 326.104 171.822 328.131 168.563C330.376 164.953 331.065 160.671 330.094 156.54L326.03 139.278C324.123 131.111 316.214 125.902 308.069 127.189Z" fill="black"/>
<path d="M139.188 163.783C140.154 163.552 141.13 164.149 141.361 165.134L153.274 215.729C153.504 216.695 152.908 217.672 151.922 217.902C141.746 220.305 131.544 213.984 129.159 203.809L125.095 186.546C122.692 176.37 128.993 166.167 139.188 163.783Z" fill="url(#paint4_linear)"/>
<path d="M146.921 219.031C138.302 218.742 130.589 212.73 128.514 203.956L124.45 186.694C121.982 176.196 128.522 165.625 139.02 163.157C140.328 162.844 141.654 163.659 141.948 164.966L153.861 215.56C154.175 216.868 153.359 218.194 152.034 218.488C150.327 218.92 148.611 219.088 146.921 219.031ZM139.316 164.408C129.501 166.71 123.38 176.581 125.701 186.397L129.765 203.66C130.884 208.416 133.794 212.462 137.937 215.026C142.1 217.591 146.999 218.394 151.755 217.276C152.38 217.127 152.777 216.501 152.629 215.876L140.716 165.282C140.651 164.979 140.452 164.728 140.195 164.55C139.938 164.372 139.62 164.324 139.316 164.408Z" fill="black"/>
<g opacity="0.35">
<path opacity="0.35" d="M149.947 201.687L153.254 215.728C153.485 216.694 152.87 217.67 151.903 217.901C146.56 219.15 141.202 218.012 136.993 215.163C133.188 212.592 130.294 208.641 129.14 203.808L127.429 196.532C131.825 202.225 139.302 205.164 146.769 203.403L148.606 202.976C149.289 202.811 149.776 202.301 149.947 201.687Z" fill="black"/>
</g>
<path d="M146.842 221.397C137.19 221.073 128.524 214.334 126.222 204.5L122.158 187.237C119.394 175.47 126.71 163.627 138.497 160.846C141.092 160.237 143.67 161.847 144.28 164.424L156.193 215.018C156.489 216.269 156.277 217.559 155.6 218.664C154.925 219.751 153.865 220.523 152.614 220.82C150.662 221.281 148.739 221.461 146.842 221.397ZM138.703 167.019C130.837 169.5 126.088 177.687 128.013 185.855L132.077 203.117C133.048 207.248 135.58 210.773 139.19 213C142.469 215.028 146.278 215.795 150.04 215.188L138.703 167.019Z" fill="black"/>
<g opacity="0.35">
<path opacity="0.35" d="M303.515 211.351C301.954 221.451 298.269 230.971 292.818 239.361C285.918 250.014 276.223 258.807 264.581 264.563C258.292 267.68 251.43 269.931 244.133 271.115C228.974 273.558 214.15 271.068 201.332 264.791C199.538 263.922 197.784 262.98 196.07 261.945C190.706 258.757 185.78 254.869 181.418 250.399C188.383 247.869 194.88 245.869 200.695 243.996C203.807 233.629 207.588 224.601 211.249 224.724L272.429 226.777C275.978 226.896 279 227.599 281.595 228.72C282.229 228.29 282.884 227.842 283.577 227.358C288.831 223.718 295.642 218.494 303.515 211.351Z" fill="black"/>
</g>
<path d="M226.092 259.719C274.992 261.36 315.962 223.049 317.603 174.15C319.244 125.251 280.934 84.2802 232.034 82.6393C183.135 80.9985 142.164 119.309 140.524 168.208C138.883 217.107 177.193 258.078 226.092 259.719Z" fill="url(#paint5_linear)"/>
<path d="M225.882 260.37C208.343 259.781 191.373 254.023 176.836 243.515C157.509 229.557 144.778 208.92 140.98 185.406C137.183 161.873 142.768 138.279 156.727 118.952C170.686 99.6245 191.322 86.8942 214.836 83.0961C238.369 79.2987 261.963 84.8843 281.29 98.8428C300.618 112.801 313.348 133.438 317.146 156.952C324.992 205.511 291.849 251.416 243.291 259.243C237.469 260.194 231.647 260.563 225.882 260.37ZM232.201 83.2652C226.53 83.0749 220.784 83.4273 215.057 84.3631C191.864 88.1155 171.516 100.649 157.773 119.701C144.031 138.754 138.513 162.012 142.265 185.205C146.018 208.398 158.551 228.746 177.604 242.488C196.656 256.231 219.914 261.749 243.107 257.996C290.986 250.259 323.635 205.033 315.917 157.155C312.165 133.962 299.632 113.614 280.579 99.8717C266.206 89.5385 249.477 83.8449 232.201 83.2652Z" fill="black"/>
<g opacity="0.35">
<path opacity="0.35" d="M313.728 145.106C314.914 148.963 315.852 152.961 316.522 157.081C324.32 205.376 291.474 250.84 243.198 258.657C194.904 266.455 149.44 233.61 141.623 185.334C141.406 183.954 141.208 182.556 141.048 181.178C153.807 222.796 195.636 249.673 239.829 242.546C286.726 234.927 319.041 191.813 313.728 145.106Z" fill="black"/>
</g>
<path d="M225.804 262.736C207.796 262.132 190.379 256.208 175.456 245.443C155.615 231.129 142.546 209.936 138.656 185.779C134.767 161.623 140.506 137.395 154.819 117.572C169.133 97.7301 190.326 84.6613 214.483 80.772C238.639 76.8827 262.867 82.6211 282.69 96.9347C302.532 111.249 315.601 132.442 319.49 156.598C327.536 206.461 293.527 253.559 243.664 261.606C237.691 262.571 231.719 262.934 225.804 262.736ZM232.122 85.6502C226.601 85.4649 221.025 85.823 215.43 86.7068C192.862 90.3486 173.069 102.562 159.683 121.1C146.296 139.639 140.949 162.263 144.591 184.832C148.233 207.4 160.446 227.193 178.985 240.579C197.523 253.966 220.147 259.313 242.716 255.671C289.29 248.153 321.072 204.139 313.555 157.546C309.913 134.977 297.7 115.185 279.162 101.798C265.211 91.7423 248.929 86.2141 232.122 85.6502Z" fill="black"/>
<path d="M316.596 159.359C319.614 176.436 316.887 193.264 309.717 208.044C304.345 219.125 278.196 241.502 242.195 248.209C208.806 254.42 175.234 241.976 166.385 233.408C154.587 221.976 146.25 207.108 143.232 190.031C135.235 144.87 170.723 119.271 218.607 110.802C266.491 102.332 308.599 114.197 316.596 159.359Z" fill="url(#paint6_linear)"/>
<g opacity="0.5">
<path opacity="0.2" d="M287.229 175.769C293.508 175.795 298.626 168.8 298.661 160.145C298.696 151.491 293.636 144.454 287.357 144.428C281.079 144.403 275.961 151.398 275.926 160.052C275.89 168.707 280.951 175.743 287.229 175.769Z" fill="white"/>
</g>
<g opacity="0.5">
<path opacity="0.2" d="M285.059 193.954C285.624 190.021 283.343 186.438 279.964 185.953C276.585 185.468 273.387 188.263 272.822 192.197C272.257 196.13 274.539 199.713 277.918 200.198C281.297 200.684 284.494 197.888 285.059 193.954Z" fill="white"/>
</g>
<path d="M142.852 153.172C142.42 153.157 141.972 153.048 141.586 152.809C140.276 152.07 139.766 150.455 140.431 149.124C151.828 123.77 179.38 105.519 216.032 99.022C252.418 92.5915 284.472 99.8333 304.003 118.931C304.971 119.772 305.261 121.21 304.62 122.392C303.879 123.758 302.17 124.265 300.803 123.523C300.766 123.503 300.711 123.464 300.674 123.444L300.398 123.284L300.161 123.051C281.961 105.182 251.657 98.4503 217.03 104.564C182.213 110.727 156.166 127.825 145.559 151.476L145.438 151.736C144.861 152.694 143.847 153.205 142.852 153.172Z" fill="black"/>
<g opacity="0.5">
<path opacity="0.2" d="M167.449 213.46C167.449 213.46 145.568 171.385 166.441 149.376C187.314 127.367 221.882 121.326 221.465 123.681C221.465 123.681 184.851 139.711 175.249 172.607C167.837 197.963 167.449 213.46 167.449 213.46Z" fill="white"/>
</g>
<path d="M236.476 378.88C239.732 378.782 243.115 378.783 246.425 378.744C249.755 378.686 253.083 378.666 256.417 378.477C259.732 378.288 263.068 378.024 266.356 377.533C269.644 377.041 272.918 376.38 276.148 375.361C276.319 375.31 276.522 375.411 276.573 375.582C276.624 375.734 276.563 375.882 276.428 375.972C273.509 377.81 270.268 379.168 266.979 380.261C263.672 381.334 260.281 382.085 256.877 382.685C253.455 383.266 250.02 383.677 246.575 383.825C243.111 383.972 239.707 383.989 236.187 383.57C234.895 383.414 233.975 382.255 234.131 380.963C234.265 379.783 235.253 378.914 236.4 378.896L236.476 378.88Z" fill="black"/>
<path d="M259.931 419.992C242.204 419.397 228.355 406.882 228.154 406.706C227.206 405.828 227.143 404.341 228.021 403.393C228.899 402.445 230.386 402.382 231.334 403.26C232.374 404.216 257.084 426.401 281.451 408.381C282.492 407.608 283.97 407.827 284.743 408.868C285.517 409.909 285.298 411.387 284.257 412.16C275.93 418.273 267.574 420.248 259.931 419.992Z" fill="black"/>
<path d="M198.482 410.26C190.576 409.994 182.529 406.66 174.602 400.303C164.826 392.455 158.776 382.834 158.527 382.43C157.849 381.336 158.18 379.881 159.274 379.203C160.369 378.507 161.824 378.856 162.501 379.951C162.733 380.316 185.609 416.257 212.132 402.352C213.28 401.751 214.694 402.193 215.295 403.342C215.895 404.49 215.453 405.904 214.305 406.504C209.196 409.19 203.871 410.44 198.482 410.26Z" fill="black"/>
<path d="M174.86 314.21C173.714 314.172 172.747 313.293 172.599 312.123C169.902 288.288 149.518 266.605 149.318 266.392C148.428 265.46 148.46 263.957 149.411 263.067C150.343 262.178 151.846 262.209 152.736 263.141C153.626 264.074 174.41 286.165 177.279 311.584C177.424 312.867 176.501 314.039 175.218 314.184C175.086 314.199 174.972 314.214 174.86 314.21Z" fill="black"/>
<path d="M157.577 417.459C159.434 420.398 161.772 422.996 164.407 425.152C167.042 427.289 170.013 428.95 173.144 429.769C176.275 430.588 179.51 430.547 182.562 429.765C185.616 428.965 188.502 427.558 191.176 425.749C192.561 424.818 194.428 425.182 195.359 426.567C196.291 427.951 195.927 429.819 194.542 430.75C194.427 430.821 194.312 430.893 194.178 430.964L194.14 430.981C190.776 432.617 187.108 433.809 183.297 434.208C181.393 434.37 179.474 434.399 177.585 434.11C175.696 433.84 173.87 433.328 172.146 432.612C168.699 431.143 165.767 428.863 163.355 426.245C160.961 423.626 158.993 420.646 157.577 417.459Z" fill="black"/>
<path d="M229.853 430.017C231.589 432.632 233.807 434.888 236.246 436.699C238.704 438.511 241.461 439.826 244.297 440.485C247.152 441.126 250.067 441.092 252.851 440.471C255.635 439.85 258.305 438.736 260.816 437.298C262.254 436.463 264.098 436.957 264.933 438.414C265.768 439.852 265.274 441.696 263.817 442.531C263.683 442.602 263.531 442.672 263.397 442.724L263.34 442.74C260.18 443.931 256.806 444.739 253.397 444.945C249.988 445.131 246.489 444.619 243.374 443.349C240.239 442.078 237.503 440.144 235.249 437.831C233.015 435.519 231.167 432.881 229.853 430.017Z" fill="black"/>
<path d="M296.428 290.986C296.428 290.986 305.751 306.825 324.377 306.282C343.694 305.719 344.835 273.869 344.835 273.869L317.763 258.752C317.763 258.752 318.143 268.811 313.993 268.219C309.349 267.556 302.611 255.439 295.845 251.12L296.428 290.986Z" fill="url(#paint7_linear)"/>
<g opacity="0.35">
<path opacity="0.35" d="M295.968 261.078C295.365 270.313 295.857 278.08 296.428 290.986C296.428 290.986 305.751 306.825 324.377 306.282C343.693 305.719 344.836 273.858 344.836 273.858L330.652 279.044C339.314 281.903 335.889 297.91 322.064 298.322C303.438 298.865 296.631 268.641 296.631 268.641L295.968 261.078Z" fill="black"/>
</g>
<path d="M318.795 307.591C303.187 305.363 295.385 292.417 295.021 291.806C294.562 291.031 294.823 290.037 295.596 289.588C296.371 289.129 297.365 289.39 297.814 290.163C300.001 291.973 306.902 305.162 324.318 304.661C340.073 304.203 342.755 279.998 343.145 274.788L319.327 261.49C319.158 263.959 318.595 267.296 316.832 268.882C315.968 269.661 314.902 269.982 313.754 269.818C310.668 269.377 307.493 265.646 303.833 261.33C300.926 257.906 300.316 254.28 297.372 252.398C296.613 251.914 296.391 250.915 296.875 250.157C297.359 249.398 298.358 249.176 299.117 249.66C302.485 251.807 303.241 255.615 306.315 259.224C309.15 262.551 312.35 266.329 314.225 266.597C314.425 266.625 314.525 266.597 314.674 266.457C315.833 265.419 316.231 261.274 316.144 258.8L316.04 255.916L346.495 272.924L346.461 273.918C346.417 275.277 345.025 307.306 324.425 307.901C322.45 307.963 320.575 307.845 318.795 307.591Z" fill="black"/>
<path d="M316.288 262.991C317.831 279.277 333.924 280.07 338.446 279.63C347.884 278.71 352.239 270.563 352.239 270.563L346.276 259.793L343.761 254.071L340.021 252.344C337.755 246.315 332.12 239.041 328.052 240.738C328.041 240.737 314.96 248.96 316.288 262.991Z" fill="url(#paint8_linear)"/>
<g opacity="0.35">
<path opacity="0.35" d="M354.312 265.679C353.611 270.587 346.552 274.114 332.954 270.528C328.159 269.263 324.644 265.28 325.343 260.383C326.043 255.485 330.592 252.073 335.489 252.772C340.397 253.473 355.011 260.782 354.312 265.679Z" fill="black"/>
</g>
<path d="M356.093 249.739C351.94 252.864 348.376 255.095 348.376 255.095L336.692 264.066L332.214 246.286C332.214 246.286 332.656 242.889 333.56 238.44C335.343 229.636 338.922 216.692 344.359 217.823C354.14 219.843 343.898 244.913 343.898 244.913C343.898 244.913 362.653 226.152 368.119 233.026C371.327 237.052 362.909 244.608 356.093 249.739Z" fill="url(#paint9_linear)"/>
<g opacity="0.35">
<path opacity="0.35" d="M356.093 249.739C351.94 252.864 348.376 255.096 348.376 255.096L336.692 264.066L332.214 246.286C332.214 246.286 332.656 242.889 333.56 238.44C335.904 240.913 340.302 245.41 341.706 247.921C344.128 252.254 352.222 248.402 356.093 249.739Z" fill="black"/>
</g>
<path d="M336.474 265.679C336.368 265.664 336.275 265.64 336.173 265.604C335.661 265.423 335.259 265.001 335.132 264.467L330.653 246.687C330.606 246.487 330.593 246.28 330.621 246.08C330.94 243.622 333.961 221.937 340.648 217.175C341.916 216.271 343.326 215.956 344.704 216.239C346.615 216.63 348.108 217.767 349.042 219.502C351.576 224.259 349.548 233.19 347.646 239.291C352.543 235.1 360.011 229.611 365.203 229.901C366.94 229.999 368.394 230.733 369.414 232.018C370.306 233.145 370.645 234.536 370.373 236.067C369.045 243.786 351.628 254.98 349.314 256.433L337.691 265.359C337.34 265.631 336.905 265.741 336.474 265.679ZM333.871 246.201L337.671 261.283L347.388 253.815C347.424 253.788 347.472 253.752 347.519 253.727C354.672 249.235 366.336 240.326 367.162 235.522C367.297 234.725 367.065 234.316 366.856 234.049C366.409 233.491 365.817 233.202 364.995 233.16C359.549 232.845 348.752 242.382 345.054 246.078C344.503 246.623 343.653 246.705 343.005 246.28C342.356 245.854 342.108 245.034 342.404 244.313C344.354 239.541 348.827 226.048 346.168 221.037C345.684 220.14 345.016 219.626 344.045 219.423C343.733 219.356 343.232 219.328 342.536 219.83C337.909 223.114 334.758 239.686 333.871 246.201Z" fill="black"/>
<path d="M354.362 269.018C351.379 272.6 340.858 272.979 337.468 269.475C334.583 266.495 338.284 263.756 339.318 263.066C339.483 262.96 339.578 262.899 339.578 262.899C339.578 262.899 335.802 261.123 335.591 257.708C335.579 257.492 335.58 257.255 335.592 257.021C335.897 253.153 346.606 251.307 351.144 252.718C354.54 253.773 355.665 255.373 355.775 256.936C355.893 258.597 354.867 260.213 354.209 261.054C353.907 261.441 353.692 261.668 353.692 261.668C353.692 261.668 356.749 266.146 354.362 269.018Z" fill="url(#paint10_linear)"/>
<g opacity="0.35">
<path opacity="0.35" d="M354.208 261.065C351.259 262.073 345.421 263.679 339.317 263.076C339.482 262.971 339.577 262.909 339.577 262.909C339.577 262.909 335.801 261.134 335.59 257.719C339.119 259.04 348.95 261.991 355.774 256.947C355.902 258.61 354.867 260.214 354.208 261.065Z" fill="black"/>
</g>
<g opacity="0.35">
<path opacity="0.35" d="M354.362 269.018C351.379 272.6 340.858 272.979 337.468 269.475C336.053 268.016 336.222 266.61 336.89 265.47C337.042 265.685 337.213 265.914 337.43 266.127C340.809 269.63 351.341 269.253 354.324 265.67C354.635 265.296 354.853 264.897 354.998 264.488C355.404 265.932 355.492 267.653 354.362 269.018Z" fill="black"/>
</g>
<path d="M342.61 273.347C339.893 272.959 337.655 272.006 336.306 270.609C334.818 269.064 334.671 267.539 334.814 266.538C335.021 265.085 335.925 263.871 336.811 263.009C335.373 261.793 333.76 259.768 333.985 256.91C334.055 255.974 334.531 254.591 336.374 253.35C340.242 250.721 347.897 250.019 351.643 251.178C354.823 252.169 356.721 253.773 357.272 255.936C357.885 258.345 356.606 260.601 355.676 261.844C356.593 263.63 357.944 267.262 355.621 270.057C353.948 272.065 350.464 273.362 346.294 273.518C344.997 273.57 343.758 273.511 342.61 273.347ZM349.434 254.011C346.148 253.542 340.754 254.287 338.184 256.026C337.59 256.425 337.241 256.837 337.217 257.156C337.005 259.845 340.24 261.424 340.27 261.439C340.813 261.699 341.165 262.244 341.188 262.838C341.209 263.443 340.902 264.012 340.377 264.302C339.673 264.718 338.16 265.909 338.008 266.973C337.969 267.247 337.991 267.691 338.62 268.328C339.857 269.601 342.884 270.377 346.147 270.252C349.269 270.139 352.055 269.215 353.106 267.957C354.649 266.104 352.366 262.597 352.339 262.561C351.904 261.918 351.983 261.07 352.524 260.513C353.042 259.974 354.459 258.103 354.101 256.697C353.783 255.459 352.057 254.676 350.669 254.241C350.305 254.157 349.897 254.077 349.434 254.011Z" fill="black"/>
<path d="M340.627 264.736C340.174 264.671 339.712 264.594 339.253 264.496C338.376 264.317 337.811 263.463 337.989 262.586C338.168 261.709 339.025 261.132 339.9 261.322C346.752 262.708 353.009 260.206 353.077 260.183C353.91 259.84 354.852 260.244 355.196 261.066C355.54 261.9 355.147 262.843 354.313 263.186C354.041 263.287 347.894 265.773 340.627 264.736Z" fill="black"/>
<path d="M328.041 240.747C333.446 238.488 341.592 252.031 340.994 257.502C340.537 261.681 335.124 264.444 329.995 258.296C324.801 252.073 319.549 244.295 328.041 240.747Z" fill="url(#paint11_linear)"/>
<path d="M352.237 270.574C352.237 270.574 347.882 278.721 338.446 279.63C333.923 280.07 317.833 279.266 316.288 262.991C314.96 248.96 328.041 240.737 328.041 240.737C333.447 238.478 341.593 252.021 340.994 257.491C340.537 261.671 334.018 263.147 329.893 255.089C329.893 255.089 331.671 262.124 325.199 265.832L337.794 275.69L348.457 275.149L352.237 270.574Z" fill="url(#paint12_linear)"/>
<path d="M328.371 263.039L328.12 262.842C328.353 262.714 328.555 262.582 328.758 262.439C328.643 262.638 328.506 262.844 328.371 263.039Z" fill="url(#paint13_linear)"/>
<g opacity="0.35">
<path opacity="0.35" d="M330.289 253.899C329.945 251.11 336.679 259.046 340.942 257.86C340.27 261.214 335.546 262.538 331.679 257.859C331.724 255.663 330.289 253.899 330.289 253.899Z" fill="black"/>
</g>
<g opacity="0.35">
<path opacity="0.35" d="M346.66 275.247L348.456 275.16C346.189 277.189 342.881 279.21 338.456 279.642C333.933 280.082 317.843 279.278 316.298 263.003C315.395 253.449 321.167 246.59 324.94 243.195C321.708 247.011 318.516 252.734 319.207 260.011C320.751 276.298 336.841 277.101 341.366 276.651C343.35 276.451 345.11 275.939 346.66 275.247Z" fill="black"/>
</g>
<path d="M352.237 270.584C352.193 270.664 351.845 271.291 351.182 272.175L350.901 272.188L352.237 270.584Z" fill="url(#paint14_linear)"/>
<path d="M351.366 272.158C351.195 272.305 351.022 272.463 350.84 272.609C350.959 272.454 351.065 272.309 351.181 272.175L351.366 272.158Z" fill="url(#paint15_linear)"/>
<path d="M321.103 274.811C320.222 274.503 319.466 274.008 318.789 273.406C318.112 272.804 317.523 272.108 317.052 271.342C316.077 269.817 315.441 268.103 315.098 266.367C314.45 262.922 314.351 259.329 315.177 255.879C315.98 252.437 317.604 249.262 319.685 246.507C320.72 245.129 321.871 243.842 323.115 242.655C323.738 242.056 324.377 241.492 325.047 240.943C325.387 240.669 325.714 240.404 326.074 240.144C326.434 239.884 326.759 239.64 327.184 239.368C327.255 239.324 327.314 239.289 327.393 239.258L327.428 239.241C328.549 238.767 329.835 238.79 330.857 239.086C331.89 239.373 332.744 239.871 333.506 240.399C334.268 240.938 334.934 241.538 335.554 242.164C336.174 242.79 336.735 243.45 337.262 244.127C338.315 245.481 339.216 246.921 340.024 248.412C340.82 249.912 341.511 251.472 342.024 253.146C342.27 253.987 342.489 254.857 342.593 255.785C342.644 256.255 342.684 256.733 342.652 257.255L342.628 257.649C342.608 257.786 342.578 257.922 342.547 258.067C342.485 258.349 342.456 258.624 342.344 258.887C341.993 259.987 341.2 260.949 340.241 261.575C339.281 262.201 338.137 262.532 337.057 262.496C336.785 262.521 336.523 262.473 336.26 262.436C335.998 262.387 335.73 262.381 335.483 262.303C334.988 262.157 334.481 262.02 334.053 261.787C333.831 261.68 333.6 261.572 333.38 261.455L332.771 261.056C332.355 260.803 332.005 260.474 331.651 260.166C330.264 258.893 329.275 257.387 328.443 255.839L331.464 254.701C331.549 255.089 331.597 255.354 331.637 255.672C331.681 255.968 331.702 256.272 331.713 256.574C331.746 257.17 331.735 257.77 331.693 258.366C331.586 259.565 331.329 260.764 330.916 261.93C330.723 262.526 330.409 263.072 330.085 263.606C329.899 263.859 329.703 264.1 329.506 264.351C329.309 264.603 329.067 264.794 328.843 265.009C327.919 265.833 326.741 266.331 325.474 266.322C325.131 266.316 324.859 266.041 324.854 265.697C324.854 265.621 324.865 265.548 324.896 265.477L324.931 265.385C325.166 264.795 325.469 264.398 325.713 263.971C325.957 263.544 326.232 263.196 326.459 262.809C326.959 262.096 327.381 261.394 327.771 260.622C328.159 259.86 328.4 259.003 328.463 258.109C328.495 257.662 328.505 257.212 328.482 256.769C328.472 256.541 328.449 256.323 328.427 256.105C328.403 255.898 328.353 255.643 328.327 255.521L328.32 255.499C328.133 254.623 328.687 253.757 329.564 253.559C330.285 253.404 331.008 253.755 331.338 254.382C332.035 255.675 332.841 256.875 333.839 257.791C334.818 258.683 335.998 259.303 337.054 259.282C337.586 259.315 338.063 259.136 338.441 258.9C338.81 258.652 339.127 258.31 339.255 257.866C339.312 257.767 339.298 257.636 339.336 257.523L339.383 257.347L339.392 257.133C339.41 256.857 339.392 256.532 339.354 256.193C339.277 255.527 339.109 254.826 338.898 254.118C338.021 251.307 336.505 248.522 334.685 246.145C333.768 244.961 332.732 243.867 331.62 243.074C331.074 242.685 330.493 242.387 329.977 242.238C329.449 242.098 329.04 242.104 328.663 242.255L328.897 242.127C328.636 242.294 328.301 242.536 328 242.762C327.689 242.986 327.385 243.233 327.093 243.47C326.497 243.955 325.918 244.474 325.357 245.017C324.236 246.093 323.201 247.245 322.273 248.478C320.418 250.932 319.011 253.708 318.333 256.652C317.637 259.572 317.643 262.69 318.451 265.61C318.835 267.062 319.336 268.444 319.929 269.786C320.543 271.131 321.206 272.43 321.846 274.047L321.844 274.057C321.962 274.364 321.816 274.709 321.509 274.826C321.375 274.861 321.235 274.862 321.103 274.811Z" fill="black"/>
<path d="M353.666 271.336C353.434 271.755 353.261 272.063 353.031 272.396C352.813 272.719 352.584 273.041 352.358 273.342C352.121 273.652 351.865 273.938 351.629 274.237C351.373 274.523 351.108 274.797 350.842 275.081L350.009 275.876L349.119 276.609C348.504 277.079 347.89 277.54 347.213 277.916C346.563 278.328 345.861 278.658 345.17 278.978C344.445 279.24 343.746 279.549 343.001 279.722C341.549 280.181 339.963 280.223 338.472 279.752C338.39 279.73 338.347 279.648 338.38 279.567C338.396 279.537 338.411 279.507 338.445 279.49L338.457 279.481C339.783 278.628 341.027 278.193 342.241 277.593C342.856 277.348 343.425 276.978 343.997 276.662C344.535 276.276 345.108 275.95 345.62 275.529C345.885 275.33 346.139 275.13 346.386 274.907C346.632 274.684 346.887 274.484 347.123 274.26L347.824 273.565L348.496 272.844C348.922 272.346 349.348 271.848 349.745 271.325C349.933 271.061 350.142 270.801 350.32 270.536C350.496 270.282 350.699 269.989 350.824 269.791L350.879 269.703C351.353 268.943 352.345 268.698 353.115 269.173C353.833 269.641 354.073 270.589 353.666 271.336Z" fill="black"/>
<path d="M228.12 315.225C228.86 305.257 237.539 297.775 247.507 298.514C251.103 298.781 254.376 300.081 257.055 302.102L260.349 298.408C256.88 295.693 252.595 293.942 247.872 293.592C235.186 292.651 224.139 302.173 223.198 314.86C222.257 327.546 231.779 338.593 244.465 339.534C256.377 340.417 266.843 332.078 268.856 320.555C268.987 319.805 269.082 319.042 269.14 318.267C269.206 317.379 269.22 316.499 269.186 315.63L255.88 314.644L251.741 319.286L263.902 320.188C262.115 328.987 254.02 335.293 244.83 334.612C234.862 333.872 227.381 325.193 228.12 315.225Z" fill="black"/>
<path fill-rule="evenodd" clip-rule="evenodd" d="M247.77 294.97C235.845 294.086 225.461 303.036 224.576 314.962C223.692 326.887 232.642 337.271 244.568 338.156C255.763 338.986 265.602 331.147 267.495 320.317C267.618 319.612 267.707 318.894 267.762 318.164C267.793 317.746 267.812 317.329 267.819 316.915L256.458 316.072L254.637 318.115L265.569 318.926L265.257 320.463C263.333 329.936 254.621 336.724 244.728 335.99C233.999 335.194 225.946 325.851 226.742 315.122C227.538 304.393 236.88 296.34 247.61 297.136C251.023 297.389 254.168 298.509 256.843 300.263L258.303 298.626C255.274 296.573 251.684 295.261 247.77 294.97ZM221.82 314.757C222.817 301.31 234.527 291.217 247.975 292.214C252.979 292.585 257.522 294.441 261.2 297.319L262.361 298.228L257.239 303.972L256.223 303.206C253.749 301.34 250.729 300.139 247.405 299.893C238.198 299.21 230.181 306.12 229.499 315.327C228.816 324.534 235.726 332.551 244.933 333.233C252.876 333.822 259.936 328.758 262.16 321.445L248.846 320.457L255.302 313.215L270.519 314.343L270.567 315.576C270.603 316.497 270.588 317.429 270.518 318.369C270.457 319.19 270.356 319.998 270.217 320.793C268.083 333.008 256.99 341.849 244.363 340.912C230.915 339.915 220.822 328.205 221.82 314.757Z" fill="black"/>
<path d="M165.5 255.5C164.81 237.023 66.395 233.746 41.8841 196.584C19.0695 161.994 50.6838 131.078 41.8841 90.6356C34.0174 54.4809 4.50024 3.5 4.50024 3.5" stroke="black" stroke-width="10"/>
<defs>
<linearGradient id="paint0_linear" x1="223.439" y1="225.17" x2="214.867" y2="480.623" gradientUnits="userSpaceOnUse">
<stop stop-color="#1B0050"/>
<stop offset="1" stop-color="#B41AFF"/>
</linearGradient>
<linearGradient id="paint1_linear" x1="272.056" y1="363.135" x2="272.026" y2="364.018" gradientUnits="userSpaceOnUse">
<stop stop-color="#1B0050"/>
<stop offset="1" stop-color="#B41AFF"/>
</linearGradient>
<linearGradient id="paint2_linear" x1="157.363" y1="239.779" x2="153.917" y2="342.476" gradientUnits="userSpaceOnUse">
<stop stop-color="#1B0050"/>
<stop offset="1" stop-color="#B41AFF"/>
</linearGradient>
<linearGradient id="paint3_linear" x1="319.796" y1="124.265" x2="317.972" y2="178.626" gradientUnits="userSpaceOnUse">
<stop stop-color="#1B0050"/>
<stop offset="1" stop-color="#B41AFF"/>
</linearGradient>
<linearGradient id="paint4_linear" x1="140.137" y1="163.75" x2="138.313" y2="218.112" gradientUnits="userSpaceOnUse">
<stop stop-color="#1B0050"/>
<stop offset="1" stop-color="#B41AFF"/>
</linearGradient>
<linearGradient id="paint5_linear" x1="232.034" y1="82.6393" x2="226.092" y2="259.719" gradientUnits="userSpaceOnUse">
<stop stop-color="#1B0050"/>
<stop offset="1" stop-color="#B41AFF"/>
</linearGradient>
<linearGradient id="paint6_linear" x1="232.232" y1="107.733" x2="227.455" y2="250.078" gradientUnits="userSpaceOnUse">
<stop stop-color="#4503FF"/>
<stop offset="1" stop-color="#9325AF"/>
</linearGradient>
<linearGradient id="paint7_linear" x1="321.556" y1="254.791" x2="314.343" y2="305.311" gradientUnits="userSpaceOnUse">
<stop stop-color="#1B0050"/>
<stop offset="1" stop-color="#B41AFF"/>
</linearGradient>
<linearGradient id="paint8_linear" x1="337.56" y1="241.627" x2="332.174" y2="279.351" gradientUnits="userSpaceOnUse">
<stop stop-color="#1B0050"/>
<stop offset="1" stop-color="#B41AFF"/>
</linearGradient>
<linearGradient id="paint9_linear" x1="353.613" y1="219.138" x2="346.988" y2="265.536" gradientUnits="userSpaceOnUse">
<stop stop-color="#1B0050"/>
<stop offset="1" stop-color="#B41AFF"/>
</linearGradient>
<linearGradient id="paint10_linear" x1="346.84" y1="251.995" x2="343.998" y2="271.897" gradientUnits="userSpaceOnUse">
<stop stop-color="#1B0050"/>
<stop offset="1" stop-color="#B41AFF"/>
</linearGradient>
<linearGradient id="paint11_linear" x1="333.793" y1="241.098" x2="330.925" y2="261.182" gradientUnits="userSpaceOnUse">
<stop stop-color="#1B0050"/>
<stop offset="1" stop-color="#B41AFF"/>
</linearGradient>
<linearGradient id="paint12_linear" x1="337.56" y1="241.625" x2="332.174" y2="279.35" gradientUnits="userSpaceOnUse">
<stop stop-color="#1B0050"/>
<stop offset="1" stop-color="#B41AFF"/>
</linearGradient>
<linearGradient id="paint13_linear" x1="328.473" y1="262.398" x2="328.382" y2="263.041" gradientUnits="userSpaceOnUse">
<stop stop-color="#1B0050"/>
<stop offset="1" stop-color="#B41AFF"/>
</linearGradient>
<linearGradient id="paint14_linear" x1="351.694" y1="270.507" x2="351.443" y2="272.266" gradientUnits="userSpaceOnUse">
<stop stop-color="#1B0050"/>
<stop offset="1" stop-color="#B41AFF"/>
</linearGradient>
<linearGradient id="paint15_linear" x1="351.14" y1="272.126" x2="351.066" y2="272.642" gradientUnits="userSpaceOnUse">
<stop stop-color="#1B0050"/>
<stop offset="1" stop-color="#B41AFF"/>
</linearGradient>
</defs>
</svg>
