<svg width="398" height="442" viewBox="0 0 398 442" fill="none" xmlns="http://www.w3.org/2000/svg">
<path d="M192 264.5C191.31 246.023 66.895 233.746 42.3841 196.584C19.5695 161.994 51.1838 131.078 42.3841 90.6356C34.5174 54.4809 5.00024 3.5 5.00024 3.5" stroke="black" stroke-width="10"/>
<path d="M270.924 247.97C306.117 260.052 308.715 287.925 333.056 304.094C343.596 311.089 353.87 310.078 367.021 306.547C374.03 304.666 392.878 307.742 393.338 319.635C393.974 336.197 373.512 351.085 339.037 351.762C298.865 352.546 291.91 304.987 291.91 304.987" fill="url(#paint0_linear)"/>
<g opacity="0.35">
<path opacity="0.35" d="M339.051 351.775C298.865 352.56 291.924 305 291.924 305L287.919 294.122C304.494 304.175 301.761 339.773 339.051 339.043C367.559 338.488 391.296 327.082 393.15 314.918C393.326 316.352 393.434 317.881 393.502 319.505C394.138 336.08 373.526 351.098 339.051 351.775Z" fill="black"/>
</g>
<path d="M338.09 354.21C321.19 354.21 307.443 345.822 298.31 329.883C291.396 317.827 289.583 305.853 289.515 305.339C289.326 304.013 290.232 302.781 291.558 302.592C292.884 302.402 294.116 303.309 294.305 304.635C294.319 304.743 296.091 316.325 302.572 327.583C311.069 342.331 323.328 349.678 338.983 349.339C355.422 349.015 370.719 347.107 376.036 341.478C379.689 337.608 392.7 326.109 392.375 317.815C391.983 307.775 373.39 309.655 372.01 308.64C371.401 308.193 370.346 307.652 368.357 308.18C355.774 311.563 343.502 313.93 331.703 306.096C321.434 299.277 314.871 290.401 308.512 281.809C299.135 269.131 290.273 257.17 270.126 250.243C268.854 249.81 268.191 248.43 268.624 247.171C269.057 245.899 270.437 245.236 271.696 245.669C293.277 253.084 302.992 266.222 312.409 278.927C318.795 287.56 324.83 295.718 334.382 302.064C343.596 308.18 352.987 307.3 367.099 303.512C370.035 302.727 372.727 303.147 374.879 304.743C378.559 307.463 396.853 308.411 397.205 317.625C397.462 324.147 385.467 338.528 379.554 344.793C373.208 351.518 357.127 353.832 339.064 354.183C338.753 354.21 338.414 354.21 338.09 354.21Z" fill="black"/>
<path d="M198.956 247.97C163.764 260.052 158.676 288.886 134.728 305.636C127.584 310.629 117.733 313.376 102.146 310.94C94.9752 309.817 86.4646 308.816 84.9898 320.628C83.7856 330.221 100.387 351.856 130.844 351.789C171.03 351.694 177.971 305.014 177.971 305.014L198.956 247.97Z" fill="url(#paint1_linear)"/>
<g opacity="0.35">
<path opacity="0.35" d="M182.449 296.503L177.97 305C177.97 305 171.016 351.694 130.83 351.788C100.373 351.856 83.7852 330.221 84.9758 320.628C85.057 319.978 85.1517 319.37 85.2735 318.801C88.4532 334.185 106.043 343.576 131.588 343.521C169.297 343.427 161.869 305.244 182.449 296.503Z" fill="black"/>
</g>
<path d="M130.682 354.197C107.423 354.197 94.3661 342.276 89.8334 337.148C84.6918 331.344 81.9858 325.052 82.5811 320.317C83.1629 315.689 84.8272 312.307 87.5468 310.25C92.0118 306.894 98.0734 307.842 102.511 308.532C115.785 310.602 125.581 309.059 133.32 303.634C142.494 297.22 148.758 289.034 155.402 280.375C165.631 267.02 176.198 253.206 198.158 245.669C199.416 245.236 200.796 245.913 201.229 247.171C201.662 248.443 200.986 249.81 199.727 250.243C179.161 257.305 169.04 270.525 159.244 283.311C152.682 291.889 145.89 300.752 136.094 307.598C127.38 313.687 116.15 315.554 101.754 313.308C97.2887 312.604 93.0536 312.144 90.4558 314.106C88.7916 315.351 87.7903 317.583 87.3709 320.898C87.0597 323.388 88.4668 328.286 93.446 333.915C97.5457 338.556 109.385 349.326 130.668 349.326C130.722 349.326 130.763 349.326 130.804 349.326C168.472 349.245 175.481 305.054 175.549 304.608C175.752 303.282 176.983 302.362 178.295 302.565C179.621 302.768 180.528 303.999 180.338 305.311C180.271 305.812 178.458 317.583 171.544 329.517C162.248 345.591 148.163 354.116 130.817 354.156C130.79 354.197 130.736 354.197 130.682 354.197Z" fill="black"/>
<path d="M169.974 329.166C169.04 329.166 168.283 328.408 168.283 327.474C168.283 307.409 148.921 293.012 148.718 292.863C147.96 292.309 147.798 291.253 148.352 290.496C148.907 289.738 149.963 289.576 150.72 290.13C151.573 290.753 171.679 305.663 171.679 327.474C171.665 328.408 170.908 329.166 169.974 329.166Z" fill="black"/>
<path d="M104.825 313.335C98.4655 305.988 105.217 301.388 112.009 305.285C118.179 308.816 123.686 313.078 130.681 311.049C130.681 311.049 130.154 315.487 124.539 320.371C118.924 325.242 104.825 313.335 104.825 313.335Z" fill="url(#paint2_linear)"/>
<path d="M102.998 314.918C101.726 313.606 100.508 312.036 99.8996 309.831C99.6154 308.735 99.4801 307.436 99.8725 306.096C100.048 305.433 100.373 304.797 100.752 304.216C101.158 303.647 101.645 303.16 102.186 302.768C103.255 301.983 104.432 301.604 105.542 301.428C106.665 301.266 107.734 301.347 108.748 301.537C109.763 301.726 110.71 302.064 111.576 302.484C112.009 302.7 112.442 302.917 112.835 303.174C113.051 303.296 113.227 303.417 113.389 303.526L113.904 303.864C116.623 305.677 119.113 307.598 121.792 309.005C123.131 309.709 124.525 310.25 125.986 310.575C127.448 310.886 129.004 310.94 130.573 310.724C130.762 310.697 130.938 310.832 130.965 311.021C130.992 311.184 130.898 311.319 130.762 311.387C129.247 312.063 127.542 312.442 125.81 312.469C124.078 312.51 122.347 312.172 120.709 311.684C117.421 310.67 114.512 309.046 111.685 307.639L111.157 307.368C110.981 307.274 110.805 307.192 110.67 307.138C110.372 307.003 110.061 306.895 109.763 306.786C109.154 306.583 108.546 306.475 107.977 306.408C106.827 306.286 105.758 306.597 105.325 306.976C105.122 307.179 105.014 307.314 104.96 307.531C104.892 307.747 104.892 308.099 104.987 308.559C105.095 309.005 105.298 309.547 105.582 310.088C105.866 310.629 106.245 311.197 106.638 311.766L106.719 311.874C107.477 312.983 107.192 314.485 106.083 315.243C105.122 315.906 103.81 315.757 102.998 314.918Z" fill="black"/>
<path d="M133.658 337.351C132.535 337.46 131.331 337.378 130.194 336.945C129.058 336.513 128.056 335.782 127.217 334.97C126.352 334.158 125.648 333.265 124.958 332.399L122.942 329.815C121.629 328.124 120.236 326.554 118.72 325.133C117.218 323.699 115.581 322.481 113.836 321.345C112.009 320.127 110.237 318.991 108.424 317.989C106.611 316.988 104.77 316.109 102.89 315.405C99.1283 313.957 95.2045 313.416 91.2265 313.524H91.1589C89.8194 313.565 88.7099 312.496 88.6693 311.157C88.6422 309.912 89.5352 308.87 90.7395 308.694C95.4616 307.99 100.427 308.694 104.798 310.507C109.195 312.252 113.011 315.053 116.393 317.813C118.206 319.221 119.898 320.858 121.399 322.603C122.915 324.349 124.173 326.27 125.323 328.191C126.46 330.113 127.434 332.061 128.625 333.725C129.22 334.551 129.924 335.254 130.762 335.768C131.615 336.269 132.603 336.567 133.658 336.688C133.847 336.715 133.983 336.878 133.969 337.067C133.956 337.216 133.82 337.338 133.658 337.351Z" fill="black"/>
<path d="M377.574 313.47C383.934 306.123 377.182 301.522 370.39 305.419C364.22 308.951 358.713 313.213 351.718 311.183C351.718 311.183 352.246 315.621 357.861 320.506C363.476 325.377 377.574 313.47 377.574 313.47Z" fill="url(#paint3_linear)"/>
<path d="M379.401 315.053C380.673 313.74 381.891 312.171 382.5 309.965C382.784 308.869 382.919 307.57 382.527 306.231C382.351 305.568 382.026 304.932 381.647 304.35C381.241 303.782 380.754 303.295 380.213 302.902C379.144 302.118 377.967 301.739 376.858 301.563C375.735 301.401 374.666 301.482 373.651 301.671C372.636 301.861 371.689 302.199 370.823 302.618C370.39 302.835 369.957 303.051 369.565 303.308C369.348 303.43 369.172 303.552 369.01 303.66L368.496 303.998C365.776 305.811 363.287 307.733 360.608 309.14C359.268 309.843 357.874 310.385 356.413 310.709C354.952 311.021 353.396 311.075 351.826 310.858C351.637 310.831 351.461 310.967 351.434 311.156C351.407 311.318 351.502 311.454 351.637 311.521C353.152 312.198 354.857 312.577 356.589 312.604C358.321 312.644 360.053 312.306 361.69 311.819C364.978 310.804 367.887 309.181 370.715 307.773L371.242 307.503C371.418 307.408 371.594 307.327 371.73 307.273C372.027 307.137 372.338 307.029 372.636 306.921C373.245 306.718 373.854 306.61 374.422 306.542C375.572 306.42 376.641 306.732 377.074 307.11C377.277 307.313 377.385 307.449 377.439 307.665C377.507 307.882 377.507 308.233 377.412 308.693C377.304 309.14 377.101 309.681 376.817 310.222C376.533 310.764 376.154 311.332 375.762 311.9L375.68 312.008C374.923 313.118 375.207 314.62 376.316 315.377C377.277 316.04 378.589 315.892 379.401 315.053Z" fill="black"/>
<path d="M348.741 337.486C349.864 337.594 351.069 337.513 352.205 337.08C353.342 336.647 354.343 335.916 355.182 335.105C356.048 334.293 356.751 333.4 357.441 332.534L359.457 329.949C360.77 328.258 362.164 326.689 363.679 325.268C365.181 323.834 366.818 322.616 368.563 321.479C370.39 320.262 372.163 319.125 373.976 318.124C375.789 317.123 377.629 316.243 379.51 315.54C383.271 314.092 387.195 313.551 391.173 313.659H391.24C392.58 313.699 393.689 312.631 393.73 311.291C393.757 310.046 392.864 309.004 391.66 308.829C386.938 308.125 381.972 308.829 377.602 310.642C373.204 312.387 369.389 315.188 366.006 317.948C364.193 319.355 362.502 320.992 361 322.738C359.485 324.483 358.226 326.405 357.076 328.326C355.94 330.247 354.965 332.196 353.775 333.86C353.179 334.685 352.476 335.389 351.637 335.903C350.784 336.404 349.797 336.701 348.741 336.823C348.552 336.85 348.417 337.012 348.43 337.202C348.444 337.351 348.579 337.472 348.741 337.486Z" fill="black"/>
<path d="M306.699 400.119H163.317C163.317 400.119 163.154 384.099 165.982 360.299C166.483 356.037 167.092 351.504 167.809 346.782C170.975 325.932 176.347 301.13 185.507 276.492C186.887 272.784 188.348 269.077 189.904 265.397C191.135 262.474 192.434 259.551 193.787 256.656C194.775 254.532 195.79 252.421 196.845 250.324H273.17C274.226 252.421 275.24 254.532 276.228 256.656C277.595 259.579 278.907 262.542 280.152 265.491C281.924 269.713 283.589 273.961 285.145 278.196C293.912 302.281 299.122 326.405 302.206 346.769C302.924 351.518 303.532 356.05 304.033 360.34C306.847 384.126 306.699 400.119 306.699 400.119Z" fill="url(#paint4_linear)"/>
<g opacity="0.35">
<path opacity="0.35" d="M306.699 400.119H163.317C163.317 400.119 163.154 384.099 165.982 360.299C166.483 356.037 167.092 351.504 167.809 346.782C169.175 337.812 170.948 328.097 173.262 317.976C180.757 344.144 204.882 364.061 234.433 364.061H235.718C265.187 364.061 289.258 344.239 296.821 318.179C299.108 328.219 300.867 337.866 302.22 346.769C302.937 351.518 303.546 356.051 304.047 360.34C306.847 384.126 306.699 400.119 306.699 400.119Z" fill="black"/>
</g>
<path d="M292.695 298.912C296.348 306.759 298.729 315.054 300.57 323.442C301.571 327.623 302.288 331.858 303.046 336.08C303.411 338.191 303.709 340.315 304.033 342.439L304.534 345.619L304.967 348.812L305.833 355.185L306.618 361.571C307.091 365.833 307.538 370.095 307.889 374.371C308.607 382.936 309.094 391.46 309.134 400.146L309.148 402.541H306.712H233.797V397.697H236.232V402.541H163.317H160.881L160.895 400.146C160.922 391.419 161.423 382.854 162.14 374.249C162.87 365.657 163.831 357.093 165.103 348.568L165.563 345.375L166.091 342.182C166.456 340.058 166.781 337.92 167.16 335.809C167.971 331.574 168.716 327.326 169.568 323.104C169.987 320.993 170.353 318.856 170.867 316.772C171.368 314.675 171.936 312.591 172.531 310.521C173.099 308.437 173.83 306.394 174.655 304.392C175.467 302.376 176.347 300.387 177.443 298.465C177.673 298.073 178.173 297.924 178.579 298.154C178.85 298.303 178.999 298.601 178.999 298.885V298.912C178.918 303.336 178.065 307.504 177.294 311.698C176.888 313.795 176.441 315.865 175.941 317.935L174.507 324.159C172.531 332.44 171.178 340.87 169.906 349.285C168.648 357.715 167.687 366.185 166.97 374.669C166.253 383.139 165.766 391.703 165.739 400.119L163.317 397.724H236.232V402.568H233.797V397.724H306.712L304.29 400.119C304.263 391.744 303.776 383.22 303.073 374.79C302.356 366.347 301.435 357.904 300.137 349.529L299.663 346.39L299.122 343.251C298.743 341.167 298.405 339.07 297.999 337C297.16 332.846 296.416 328.679 295.55 324.525C293.98 316.19 292.032 307.977 291.166 299.372V299.358C291.125 298.912 291.45 298.506 291.896 298.465C292.221 298.398 292.546 298.601 292.695 298.912Z" fill="black"/>
<g opacity="0.35">
<path opacity="0.35" d="M300.8 258.212C283.67 279.752 258.152 292.539 230.415 290.509C206.29 288.75 185.128 276.099 170.516 257.143C175.319 253.49 181.299 251.312 187.767 251.312H282.25C289.313 251.325 295.794 253.923 300.8 258.212Z" fill="black"/>
</g>
<path d="M329.39 211.072C328.321 211.072 327.441 210.22 327.441 209.137L327.13 153.284C327.13 152.215 327.982 151.335 329.065 151.335C340.295 151.268 349.455 160.333 349.523 171.563L349.631 190.614C349.672 201.844 340.62 211.004 329.39 211.072Z" fill="url(#paint5_linear)"/>
<path d="M329.376 211.519C328.74 211.519 328.145 211.275 327.698 210.829C327.238 210.382 326.995 209.773 326.981 209.137L326.67 153.284C326.67 152.648 326.913 152.039 327.36 151.593C327.806 151.133 328.415 150.889 329.051 150.875C334.599 150.848 339.835 152.973 343.786 156.883C347.737 160.793 349.929 166.003 349.956 171.55L350.064 190.601C350.091 196.162 347.967 201.385 344.057 205.335C340.146 209.286 334.937 211.478 329.39 211.505C329.39 211.519 329.376 211.519 329.376 211.519ZM329.173 151.796C329.132 151.796 329.092 151.796 329.051 151.796C328.659 151.796 328.28 151.958 328.009 152.242C327.725 152.526 327.576 152.892 327.576 153.297L327.888 209.151C327.888 209.543 328.05 209.922 328.334 210.193C328.618 210.463 328.984 210.626 329.376 210.626C329.376 210.626 329.376 210.626 329.39 210.626C334.707 210.599 339.686 208.502 343.421 204.727C347.155 200.952 349.198 195.945 349.171 190.628L349.063 171.577C349.036 166.26 346.939 161.28 343.164 157.546C339.402 153.825 334.436 151.796 329.173 151.796Z" fill="black"/>
<g opacity="0.35">
<path opacity="0.35" d="M349.563 181.684L349.617 190.614C349.685 201.844 340.619 211.005 329.389 211.072C328.32 211.086 327.441 210.206 327.441 209.137L327.346 194.294C327.657 194.971 328.334 195.431 329.119 195.431L330.445 195.417C339.321 195.377 346.843 189.64 349.563 181.684Z" fill="black"/>
</g>
<path d="M329.376 213.603C328.185 213.603 327.076 213.142 326.223 212.304C325.371 211.465 324.898 210.342 324.898 209.151L324.586 153.297C324.586 152.107 325.033 150.97 325.885 150.131C326.724 149.279 327.847 148.805 329.038 148.805C335.167 148.751 340.904 151.119 345.247 155.422C349.591 159.724 351.999 165.448 352.04 171.564L352.148 190.614C352.188 196.73 349.834 202.481 345.531 206.824C341.229 211.167 335.505 213.575 329.39 213.616C329.39 213.603 329.39 213.603 329.376 213.603ZM329.66 153.879L329.971 208.515C334.504 208.339 338.726 206.486 341.932 203.238C345.274 199.856 347.101 195.377 347.074 190.614L346.966 171.564C346.939 166.801 345.058 162.349 341.675 159.007C338.441 155.814 334.193 154.001 329.66 153.879Z" fill="black"/>
<path d="M144.699 152.377C145.768 152.377 146.647 153.23 146.647 154.312L146.959 210.166C146.959 211.235 146.106 212.114 145.024 212.114C133.793 212.182 124.633 203.116 124.566 191.886L124.457 172.835C124.403 161.591 133.455 152.431 144.699 152.377Z" fill="url(#paint6_linear)"/>
<path d="M144.916 212.561C133.496 212.561 124.187 203.306 124.12 191.873L124.011 172.822C123.944 161.348 133.226 151.971 144.686 151.904C145.349 151.917 145.931 152.147 146.377 152.594C146.837 153.04 147.081 153.649 147.094 154.285L147.405 210.139C147.405 210.775 147.162 211.384 146.715 211.83C146.269 212.29 145.66 212.534 145.024 212.547C144.997 212.561 144.956 212.561 144.916 212.561ZM144.699 152.824C133.74 152.892 124.864 161.862 124.931 172.822L125.04 191.873C125.107 202.805 134.01 211.641 144.929 211.654C144.97 211.654 145.011 211.654 145.038 211.654C145.43 211.654 145.809 211.492 146.079 211.208C146.364 210.923 146.512 210.558 146.512 210.152L146.201 154.299C146.201 153.906 146.039 153.527 145.755 153.257C145.471 152.973 145.092 152.81 144.699 152.824Z" fill="black"/>
<g opacity="0.35">
<path opacity="0.35" d="M146.878 194.66L146.959 210.152C146.973 211.221 146.093 212.1 145.024 212.1C139.125 212.127 133.794 209.651 130.06 205.66C126.677 202.061 124.607 197.203 124.58 191.872L124.539 183.849C127.773 190.871 134.904 195.742 143.144 195.688L145.187 195.674C145.917 195.674 146.54 195.269 146.878 194.66Z" fill="black"/>
</g>
<path d="M144.916 214.644C132.36 214.644 122.104 204.469 122.036 191.899L121.928 172.849C121.86 160.238 132.062 149.915 144.672 149.847C145.877 149.847 147 150.293 147.838 151.146C148.691 151.985 149.164 153.108 149.164 154.298L149.476 210.152C149.476 211.343 149.029 212.479 148.177 213.318C147.338 214.171 146.215 214.644 145.024 214.644C144.997 214.644 144.957 214.644 144.916 214.644ZM144.118 154.921C134.579 155.286 126.961 163.201 127.015 172.808L127.123 191.859C127.178 201.479 134.89 209.3 144.429 209.557L144.118 154.921Z" fill="black"/>
<path d="M237.058 276.898C289.62 276.898 332.231 234.287 332.231 181.725C332.231 129.162 289.62 86.5518 237.058 86.5518C184.495 86.5518 141.885 129.162 141.885 181.725C141.885 234.287 184.495 276.898 237.058 276.898Z" fill="url(#paint7_linear)"/>
<path d="M237.193 277.358C235.069 277.358 232.945 277.29 230.807 277.155C178.187 273.704 138.178 228.093 141.628 175.474C145.078 122.854 190.676 82.8443 243.309 86.2946C295.929 89.7448 335.938 135.356 332.488 187.976C330.824 213.467 319.323 236.78 300.123 253.625C282.52 269.05 260.384 277.358 237.193 277.358ZM236.99 86.9981C187.55 86.9981 145.809 125.506 142.535 175.541C139.125 227.66 178.755 272.838 230.861 276.248C232.958 276.383 235.042 276.451 237.112 276.451C286.552 276.451 328.294 237.943 331.568 187.908C334.978 135.789 295.347 90.6108 243.241 87.2011C241.144 87.0658 239.061 86.9981 236.99 86.9981Z" fill="black"/>
<g opacity="0.35">
<path opacity="0.35" d="M331.974 174.73C332.299 179.059 332.312 183.47 332.028 187.935C328.591 240.393 283.278 280.118 230.834 276.695C178.377 273.258 138.651 227.958 142.075 175.501C142.169 173.999 142.305 172.484 142.481 171.009C145.863 217.662 183.194 255.858 231.186 258.997C282.128 262.326 326.318 224.941 331.974 174.73Z" fill="black"/>
</g>
<path d="M237.112 279.441C234.975 279.441 232.823 279.374 230.658 279.225C176.888 275.707 136.013 229.095 139.531 175.338C143.049 121.582 189.648 80.6931 243.418 84.211C297.187 87.7289 338.063 134.341 334.545 188.098C331.176 239.703 288.109 279.441 237.112 279.441ZM236.991 89.082C188.646 89.082 147.812 126.751 144.605 175.677C141.263 226.646 180.028 270.836 230.997 274.178C233.04 274.313 235.083 274.381 237.112 274.381C285.457 274.381 326.291 236.712 329.498 187.786C332.84 136.817 294.075 92.6269 243.106 89.2849C241.063 89.1361 239.02 89.082 236.991 89.082Z" fill="black"/>
<path d="M331.568 190.357C330.634 208.961 323.72 225.929 312.679 239.689C304.399 250.013 271.628 267.156 232.309 265.532C195.858 264.03 163.682 242.936 156.471 231.828C146.864 217.026 141.695 199.45 142.629 180.845C145.105 131.622 188.429 113.342 240.603 115.967C292.776 118.592 334.044 141.134 331.568 190.357Z" fill="url(#paint8_linear)"/>
<path opacity="0.2" d="M188.421 184.85C224.307 196.293 250.396 196.682 285.891 183.16L285.891 241.754C252.756 248.781 230.445 258.161 193.492 241.754L188.421 184.85Z" fill="url(#paint9_linear)"/>
<path d="M237.693 268.184C235.88 268.184 234.054 268.144 232.2 268.076C194.41 266.52 161.91 244.885 154.346 233.222C144.09 217.418 139.165 199.274 140.099 180.737C141.316 156.572 151.938 138.414 171.692 126.791C188.916 116.657 212.784 112.043 240.724 113.45C268.665 114.857 291.95 121.839 308.079 133.651C326.561 147.195 335.315 166.327 334.098 190.493C333.164 209.029 326.439 226.592 314.654 241.286C306.847 251.014 276.742 268.184 237.693 268.184ZM231.551 118.281C200.958 118.281 147.919 126.25 145.159 180.981C144.279 198.448 148.92 215.551 158.595 230.461C165.455 241.042 196.859 261.541 232.403 263.016C271.817 264.653 303.303 247.32 310.69 238.12C321.812 224.264 328.144 207.703 329.024 190.249C330.147 167.897 322.083 150.226 305.075 137.751C289.759 126.521 267.42 119.877 240.467 118.524C237.815 118.375 234.812 118.281 231.551 118.281Z" fill="black"/>
<path d="M325.614 149.265C325.005 149.265 324.383 149.035 323.909 148.589L323.652 148.359L323.504 148.115C308.634 124.87 278.353 110.447 240.44 108.539C202.312 106.631 170.745 118.348 153.846 140.728L153.67 140.944C152.763 141.959 151.207 142.027 150.192 141.12C149.205 140.227 149.11 138.712 149.949 137.683C167.863 114.019 200.945 101.598 240.697 103.587C280.179 105.576 311.84 120.784 327.617 145.328C328.307 146.275 328.253 147.615 327.414 148.494C326.927 148.995 326.264 149.265 325.614 149.265Z" fill="black"/>
<path d="M239.642 424.988C239.642 424.988 180.013 431.74 153.521 408.968C117.314 377.861 148.366 338.867 175.251 349.258C198.672 358.297 208.292 365.414 249.898 372.233C284.752 377.943 314.695 413.731 289.678 434.5C272.02 449.153 239.642 424.988 239.642 424.988Z" fill="url(#paint10_linear)"/>
<g opacity="0.35">
<path opacity="0.35" d="M289.678 434.487C272.02 449.154 239.642 424.988 239.642 424.988C239.642 424.988 180.013 431.74 153.507 408.968C143.075 399.997 138.218 390.377 137.257 381.474C139.057 383.558 141.141 385.628 143.495 387.644C170.001 410.416 229.63 403.664 229.63 403.664C229.63 403.664 262.008 427.843 279.665 413.176C286.566 407.439 289.285 400.566 288.866 393.489C300.475 406.6 303.654 422.891 289.678 434.487Z" fill="black"/>
</g>
<path d="M275.538 441.658C259.856 441.658 242.862 430.265 238.979 427.491C230.928 428.29 177.415 432.687 151.938 410.808C131.317 393.084 131.926 373.464 139.381 361.003C147.324 347.73 162.775 341.844 176.13 346.999C181.326 349.001 185.804 350.896 190.148 352.736C205.166 359.082 218.142 364.575 250.29 369.838C273.441 373.627 295.414 390.743 300.326 408.806C303.181 419.333 299.96 429.115 291.233 436.367C286.606 440.196 281.153 441.658 275.538 441.658ZM240.318 422.472L241.09 423.04C241.333 423.216 259.775 436.787 275.524 436.8C280.138 436.8 284.509 435.637 288.135 432.633C295.414 426.585 298.012 418.791 295.644 410.078C291.193 393.706 270.924 378.132 249.505 374.628C216.789 369.27 203.57 363.682 188.267 357.201C183.964 355.374 179.513 353.494 174.385 351.518C163.236 347.215 150.273 352.249 143.549 363.492C137.108 374.263 136.756 391.379 155.104 407.142C180.514 428.966 238.789 422.647 239.385 422.593L240.318 422.472Z" fill="black"/>
<path d="M183.951 424.19C183.342 424.19 182.761 423.865 182.463 423.297C182.03 422.471 182.341 421.443 183.166 421.01C208.184 407.669 201.162 361.205 201.081 360.732C200.932 359.812 201.568 358.946 202.488 358.797C203.408 358.648 204.274 359.284 204.423 360.204C204.734 362.207 211.878 409.536 184.75 423.987C184.492 424.135 184.222 424.19 183.951 424.19Z" fill="black"/>
<path d="M228.006 424.988C228.006 424.988 287.635 431.74 314.127 408.968C350.334 377.861 319.282 338.867 292.397 349.258C268.976 358.297 259.356 365.414 217.75 372.233C182.896 377.943 152.953 413.731 177.97 434.5C195.628 449.153 228.006 424.988 228.006 424.988Z" fill="url(#paint11_linear)"/>
<g opacity="0.35">
<path opacity="0.35" d="M314.141 408.968C287.648 431.739 228.02 424.988 228.02 424.988C228.02 424.988 195.642 449.153 177.984 434.486C169.406 427.356 167.295 418.466 169.636 409.631C170.908 413.947 172.166 420.59 176.658 424.081C190.365 434.73 205.532 430.021 215.044 421.578C222.256 415.178 221.079 409.942 225.706 407.331C230.902 404.408 238.276 415.205 254.499 416.058C285.01 417.641 305.833 408.602 315.643 398.576C324.18 389.849 328.253 379.742 329.904 371.719C332.299 382.976 328.537 396.601 314.141 408.968Z" fill="black"/>
</g>
<path d="M192.11 441.658C186.495 441.658 181.042 440.197 176.428 436.354C167.701 429.115 164.467 419.319 167.336 408.792C172.247 390.743 194.221 373.627 217.371 369.825C249.519 364.562 262.495 359.068 277.514 352.722C281.857 350.882 286.349 348.988 291.531 346.985C304.886 341.83 320.338 347.716 328.28 360.989C335.735 373.451 336.344 393.07 315.724 410.795C290.26 432.674 236.747 428.276 228.683 427.478C224.786 430.265 207.805 441.658 192.11 441.658ZM301.503 349.989C298.73 349.989 295.942 350.49 293.277 351.518C288.162 353.494 283.711 355.374 279.395 357.201C264.092 363.668 250.872 369.257 218.156 374.628C196.724 378.146 176.455 393.706 172.017 410.078C169.649 418.791 172.247 426.585 179.527 432.633C195.506 445.906 226.261 423.284 226.558 423.054L227.33 422.485L228.277 422.593C228.859 422.661 287.161 428.966 312.558 407.142C330.905 391.379 330.553 374.263 324.113 363.493C318.998 354.941 310.285 349.989 301.503 349.989Z" fill="black"/>
<path d="M283.71 424.19C283.44 424.19 283.169 424.122 282.912 423.987C255.784 409.523 262.928 362.207 263.239 360.204C263.388 359.284 264.254 358.648 265.174 358.797C266.094 358.946 266.73 359.812 266.581 360.732C266.513 361.205 259.491 407.682 284.495 421.01C285.32 421.443 285.632 422.471 285.199 423.297C284.887 423.865 284.306 424.19 283.71 424.19Z" fill="black"/>
<path d="M314.871 346.579C314.045 346.579 313.315 345.971 313.193 345.132C308.308 311.048 325.709 298.925 326.453 298.425C327.224 297.91 328.279 298.113 328.794 298.885C329.308 299.656 329.105 300.711 328.333 301.225C328.158 301.347 311.975 312.821 316.535 344.645C316.67 345.565 316.021 346.431 315.101 346.552C315.033 346.579 314.952 346.579 314.871 346.579Z" fill="black"/>
<path d="M93.7682 223.725L160.25 352.746H310.117L385.051 223.725H93.7682Z" fill="url(#paint12_linear)"/>
<path d="M307.482 367.43H165.012C160.402 367.43 156.655 363.695 156.655 359.073C156.655 356.411 158.814 354.264 161.464 354.264H311.019C313.68 354.264 315.828 356.423 315.828 359.073C315.839 363.695 312.093 367.43 307.482 367.43Z" fill="#141414"/>
<path d="M307.482 369.554H165.012C159.235 369.554 154.531 364.85 154.531 359.073C154.531 355.244 157.647 352.139 161.464 352.139H311.019C314.847 352.139 317.952 355.256 317.952 359.073C317.952 364.85 313.26 369.554 307.482 369.554ZM161.476 356.388C159.993 356.388 158.791 357.59 158.791 359.073C158.791 362.504 161.581 365.306 165.024 365.306H307.494C310.925 365.306 313.727 362.516 313.727 359.073C313.727 357.59 312.524 356.388 311.042 356.388H161.476Z" fill="black"/>
<path d="M324.15 260.233L310.213 354.263H162.281L161.779 350.855L148.344 260.221C147.901 257.245 150.212 254.572 153.223 254.572H319.283C322.282 254.583 324.593 257.245 324.15 260.233Z" fill="#141414"/>
<path d="M242.123 315.094C240.945 316.269 239.646 316.086 238.407 315.532C237.09 314.967 235.886 314.931 234.495 315.532C232.763 316.3 231.843 316.077 230.8 315.094C224.91 308.861 225.78 299.367 232.474 299.01C234.097 299.099 235.234 299.932 236.19 300.001C237.611 299.704 238.972 298.853 240.493 298.965C242.321 299.117 243.688 299.858 244.601 301.192C240.841 303.515 241.732 308.609 245.186 310.039C244.495 311.904 243.608 313.747 242.121 315.11L242.123 315.094ZM236.06 298.943C235.884 296.172 238.068 293.894 240.58 293.67C240.926 296.865 237.755 299.255 236.06 298.943Z" fill="url(#paint13_linear)"/>
<path d="M312.045 356.388H160.448L146.243 260.536C145.939 258.505 146.535 256.451 147.877 254.899C149.219 253.346 151.157 252.459 153.211 252.459H319.27C321.325 252.459 323.262 253.346 324.605 254.899C325.947 256.451 326.542 258.505 326.239 260.536L312.045 356.388ZM164.113 352.139H308.38L322.048 259.918C322.165 259.101 321.943 258.307 321.395 257.677C320.858 257.046 320.099 256.708 319.27 256.708H153.223C152.394 256.708 151.647 257.058 151.098 257.677C150.562 258.307 150.328 259.101 150.445 259.918L164.113 352.139Z" fill="black"/>
<defs>
<linearGradient id="paint0_linear" x1="332.139" y1="247.97" x2="332.139" y2="351.771" gradientUnits="userSpaceOnUse">
<stop stop-color="#1B0050"/>
<stop offset="1" stop-color="#B41AFF"/>
</linearGradient>
<linearGradient id="paint1_linear" x1="141.943" y1="247.97" x2="141.943" y2="351.789" gradientUnits="userSpaceOnUse">
<stop stop-color="#1B0050"/>
<stop offset="1" stop-color="#B41AFF"/>
</linearGradient>
<linearGradient id="paint2_linear" x1="116.481" y1="303.865" x2="116.481" y2="321.542" gradientUnits="userSpaceOnUse">
<stop stop-color="#1B0050"/>
<stop offset="1" stop-color="#B41AFF"/>
</linearGradient>
<linearGradient id="paint3_linear" x1="365.919" y1="304" x2="365.919" y2="321.676" gradientUnits="userSpaceOnUse">
<stop stop-color="#1B0050"/>
<stop offset="1" stop-color="#B41AFF"/>
</linearGradient>
<linearGradient id="paint4_linear" x1="235.007" y1="250.324" x2="235.007" y2="400.119" gradientUnits="userSpaceOnUse">
<stop stop-color="#1B0050"/>
<stop offset="1" stop-color="#B41AFF"/>
</linearGradient>
<linearGradient id="paint5_linear" x1="338.381" y1="151.335" x2="338.381" y2="211.072" gradientUnits="userSpaceOnUse">
<stop stop-color="#1B0050"/>
<stop offset="1" stop-color="#B41AFF"/>
</linearGradient>
<linearGradient id="paint6_linear" x1="135.708" y1="152.377" x2="135.708" y2="212.114" gradientUnits="userSpaceOnUse">
<stop stop-color="#1B0050"/>
<stop offset="1" stop-color="#B41AFF"/>
</linearGradient>
<linearGradient id="paint7_linear" x1="237.058" y1="86.5518" x2="237.058" y2="276.898" gradientUnits="userSpaceOnUse">
<stop stop-color="#1B0050"/>
<stop offset="1" stop-color="#B41AFF"/>
</linearGradient>
<linearGradient id="paint8_linear" x1="237.097" y1="115.722" x2="237.097" y2="265.64" gradientUnits="userSpaceOnUse">
<stop stop-color="#4503FF"/>
<stop offset="1" stop-color="#9325AF"/>
</linearGradient>
<linearGradient id="paint9_linear" x1="238.564" y1="173.582" x2="238.564" y2="245.617" gradientUnits="userSpaceOnUse">
<stop stop-color="white" stop-opacity="0.58"/>
<stop offset="1" stop-color="white" stop-opacity="0.21"/>
</linearGradient>
<linearGradient id="paint10_linear" x1="218.003" y1="347.545" x2="218.003" y2="439.217" gradientUnits="userSpaceOnUse">
<stop stop-color="#1B0050"/>
<stop offset="1" stop-color="#B41AFF"/>
</linearGradient>
<linearGradient id="paint11_linear" x1="249.645" y1="347.545" x2="249.645" y2="439.217" gradientUnits="userSpaceOnUse">
<stop stop-color="#1B0050"/>
<stop offset="1" stop-color="#B41AFF"/>
</linearGradient>
<linearGradient id="paint12_linear" x1="239.691" y1="362.324" x2="251.241" y2="83.2112" gradientUnits="userSpaceOnUse">
<stop stop-color="#4503FF" stop-opacity="0.22"/>
<stop offset="0.522046" stop-color="#9325AF" stop-opacity="0"/>
<stop offset="0.84375" stop-color="#9325AF" stop-opacity="0"/>
</linearGradient>
<linearGradient id="paint13_linear" x1="236.028" y1="293.67" x2="236.028" y2="315.993" gradientUnits="userSpaceOnUse">
<stop stop-color="#4503FF"/>
<stop offset="1" stop-color="#9325AF"/>
</linearGradient>
</defs>
</svg>
